<?xml version="1.0" encoding="utf-8"?>
<!-- Generator: Adobe Illustrator 16.0.0, SVG Export Plug-In . SVG Version: 6.00 Build 0)  -->
<!DOCTYPE svg PUBLIC "-//W3C//DTD SVG 1.1//EN" "http://www.w3.org/Graphics/SVG/1.1/DTD/svg11.dtd">
<svg version="1.1" id="Ebene_1" xmlns="http://www.w3.org/2000/svg" xmlns:xlink="http://www.w3.org/1999/xlink" x="0px" y="0px"
	 width="283.465px" height="283.465px" viewBox="0 0 283.465 283.465" enable-background="new 0 0 283.465 283.465"
	 xml:space="preserve">
<g>
	<defs>
		<rect id="SVGID_1_" width="283.465" height="283.465"/>
	</defs>
	<clipPath id="SVGID_2_">
		<use xlink:href="#SVGID_1_"  overflow="visible"/>
	</clipPath>
	<path clip-path="url(#SVGID_2_)" fill="#8BD1ED" d="M142.701,247.842c-0.053,0.059-0.093,0.128-0.107,0.224
		C142.692,247.972,142.719,247.902,142.701,247.842"/>
	<path clip-path="url(#SVGID_2_)" fill="#8BD1ED" d="M190.981,234.234l-0.455,0.396C190.854,234.418,190.961,234.31,190.981,234.234
		"/>
	<path clip-path="url(#SVGID_2_)" fill="#8BD1ED" d="M112.939,244.472c0.042-0.008,0.047-0.021,0.08-0.034l-2.032-0.559
		L112.939,244.472z"/>
	<path clip-path="url(#SVGID_2_)" fill="#8BD1ED" d="M241.66,142.726l0.024,0.691C241.68,143.105,241.697,142.901,241.66,142.726"/>
	<path clip-path="url(#SVGID_2_)" fill="#8BD1ED" d="M223.143,204.071c0.037-0.218,0.194-0.519,0.351-0.811
		C223.252,203.602,223.085,203.891,223.143,204.071"/>
	<path clip-path="url(#SVGID_2_)" fill="#8BD1ED" d="M99.733,235.189l0.629,0.608C100.402,235.663,100.185,235.433,99.733,235.189"
		/>
	<path clip-path="url(#SVGID_2_)" fill="#8BD1ED" d="M74.286,221.07c0.004,0.032-0.004,0.053,0.015,0.104
		C74.352,221.18,74.33,221.134,74.286,221.07"/>
	<path clip-path="url(#SVGID_2_)" fill="#8BD1ED" d="M82.779,228.998l0.772,0.343C83.25,229.155,82.874,228.91,82.779,228.998"/>
	<path clip-path="url(#SVGID_2_)" fill="#8BD1ED" d="M83.926,229.491l-0.375-0.15C83.743,229.453,83.903,229.541,83.926,229.491"/>
	<path clip-path="url(#SVGID_2_)" fill="#8BD1ED" d="M60.361,215.052c0.592,0.667,1.277,1.073,1.967,1.521L60.361,215.052z"/>
	<path clip-path="url(#SVGID_2_)" fill="#8BD1ED" d="M194.53,58.727l0.236,0.001C194.587,58.659,194.535,58.68,194.53,58.727"/>
	<path clip-path="url(#SVGID_2_)" fill="#8BD1ED" d="M63.133,214.021l0.364,0.5C63.384,214.317,63.261,214.161,63.133,214.021"/>
	<path clip-path="url(#SVGID_2_)" fill="#8BD1ED" d="M114.5,239.174c0.878-0.095,2.454,0.63,2.508,0.327
		C116.135,239.375,114.982,238.856,114.5,239.174"/>
	<path clip-path="url(#SVGID_2_)" fill="#8BD1ED" d="M171.468,59.833l-0.504-0.185C171.2,59.747,171.351,59.8,171.468,59.833"/>
	<path clip-path="url(#SVGID_2_)" fill="#8BD1ED" d="M63.133,214.021l-0.425-0.575c-0.004,0.083,0.016,0.174,0.03,0.261
		C62.877,213.793,63.011,213.896,63.133,214.021"/>
</g>
<polygon fill="#8BD1ED" points="94.736,50.441 94.768,50.427 94.936,50.292 "/>
<g>
	<defs>
		<rect id="SVGID_3_" width="283.465" height="283.465"/>
	</defs>
	<clipPath id="SVGID_4_">
		<use xlink:href="#SVGID_3_"  overflow="visible"/>
	</clipPath>
	<path clip-path="url(#SVGID_4_)" fill="#8BD1ED" d="M89.502,52.366l1.017-0.621C89.942,51.997,89.67,52.192,89.502,52.366"/>
	<path clip-path="url(#SVGID_4_)" fill="#8BD1ED" d="M62.328,216.573l1.141,0.839C63.096,217.073,62.712,216.817,62.328,216.573"/>
	<path clip-path="url(#SVGID_4_)" fill="#8BD1ED" d="M46.727,93.118l0.242-0.492C46.846,92.829,46.768,92.989,46.727,93.118"/>
	<path clip-path="url(#SVGID_4_)" fill="#8BD1ED" d="M220.603,207.363l-0.335,0.345
		C220.295,207.793,220.354,207.798,220.603,207.363"/>
</g>
<polygon fill="#8BD1ED" points="229.606,168.782 229.609,168.77 229.603,168.768 "/>
<g>
	<defs>
		<rect id="SVGID_5_" width="283.465" height="283.465"/>
	</defs>
	<clipPath id="SVGID_6_">
		<use xlink:href="#SVGID_5_"  overflow="visible"/>
	</clipPath>
	<path clip-path="url(#SVGID_6_)" fill="#8BD1ED" d="M229.488,170.814c0.237-0.587,0.233-1.514,0.117-2.032
		C229.46,169.395,229.388,169.983,229.488,170.814"/>
	<path clip-path="url(#SVGID_6_)" fill="#8BD1ED" d="M230.674,164.62l-0.08,0.225C230.63,164.766,230.655,164.698,230.674,164.62"/>
</g>
<polygon fill="#8BD1ED" points="214.481,201.02 214.51,201.037 214.5,201.003 "/>
<g>
	<defs>
		<rect id="SVGID_7_" width="283.465" height="283.465"/>
	</defs>
	<clipPath id="SVGID_8_">
		<use xlink:href="#SVGID_7_"  overflow="visible"/>
	</clipPath>
	<path clip-path="url(#SVGID_8_)" fill="#8BD1ED" d="M218.735,194.339c0.123-0.089,0.262-0.233,0.396-0.399
		C219.011,194.024,218.875,194.154,218.735,194.339"/>
</g>
<polygon fill="#8BD1ED" points="231.548,144.888 231.562,144.896 231.556,144.854 "/>
<g>
	<defs>
		<rect id="SVGID_9_" width="283.465" height="283.465"/>
	</defs>
	<clipPath id="SVGID_10_">
		<use xlink:href="#SVGID_9_"  overflow="visible"/>
	</clipPath>
	<path clip-path="url(#SVGID_10_)" fill="#8BD1ED" d="M201.015,79.998c5.435,4.867,11.931,11.956,15.496,18.345
		c1.363,1.026,2.554,3.035,3.753,5.046l-0.637,0.607l1.107,1.611c0.122,0.816-0.807-1.261-0.473,0.124l0.794,0.429
		c-0.185,0.262,1.88,4.603-0.002,1.901c1.027,2.269,1.971,4.577,2.818,6.919c0.518,1.568,1.011,0.673,1.38,2.487
		c-0.119,0.432-0.366-0.575-0.607-0.336c1.043,5.387,3.453,5.637,4.168,10.824l-0.193-0.41c0.396,0.819,0.682,2.479,0.792,2.481
		c0.73-0.813-0.615-0.834-0.429-2.485c0.729-0.006,0.766,1.873,1.277,1.674c-0.055,1.257,0.493,1.895,0.682,2.956
		c-0.148,1.867,0.438,4.438,0.007,5.859c0.287,0.864,1.1,1.81,1.213,3.746c-0.498,1.405-0.534-0.301-0.682,1.582l0.424,0.288
		c-0.021,1.542-0.145,1.301-0.343,1.25c-0.023,1.639,0.603,1.368,0.289,3.431l-0.381-1.156c0.128,1.525,0.058,2.147-0.082,4.262
		c-0.238-0.06-0.186-0.905-0.086-1.524c-0.669,1.119,0.182,1.979,0.064,2.599c0.201-0.164,0.361-1.632,0.734-0.889
		c-0.148,1.047,0.423,2.297-0.146,3.013l-0.307-1.185c0.137,2.223,0.438,1.225,0.008,3.729c-0.015-0.138-0.126-0.084-0.205-0.148
		c0.358,1.658-0.415,3.683-0.853,6.003l-0.037-0.462c-0.015,0.965,0.235,1.549,0.114,2.053c0.488-1.287,0.54-0.903,0.957-0.952
		c-1.016,1.637,0.28,2.874-0.813,5.673c-0.221-0.104-0.333-0.859,0.1-1.594c-0.485-1.141-1.02-1.383-1.004-3.184
		c-0.037,1.114-0.239,2.4-0.465,2.07l0.568,0.479c-0.117,0.661-0.295,1.162-0.409,1.657c0.336,0.38,0.981-1.17,0.877,0.418
		c-0.207,1.772-0.881,0.744-0.657,1.086c-0.38,2.409,0.445,1.164-0.422,3.355c0.014-0.24,0.033-0.709,0.149-0.887
		c-0.708,1.539-1.094,3.987-2.009,4.197c-0.086-0.29-0.29-0.405-0.037-0.987l0.106,0.063c0.017-1.917-0.321,1.502-0.828,0.728
		c0.443,0.015-0.402,2.197-0.86,3.147l0.569-0.145c0.094,3.811-0.809-0.508-1.908,2.768c-0.554,2.144,0.45-0.712,0.237,0.658
		c-0.663,1.337-1.267,1.67-1.99,3.723c-0.434,0.463-1.21,1.449-1.737,1.299c-0.375,1.277-2.044,3.394-1.954,4.293
		c1.484-1.743,0.58-2.211,2.386-4.217l0.147,0.896c-0.855,1.604-1.735,3.79-2.547,4.774c0.217-0.169,0.392-0.198,0.407-0.002
		c-1.141,2.347-1.1,3.271-2.634,5.318c-0.59,0.009,0.309-1.18,0.849-2.119c-1.22,1.16-0.928,1.438-2.508,3.435
		c-0.426-0.132,1.001-1.385,0.804-1.868l-1.471,2.385c-0.013-0.024-0.044-0.03-0.069-0.05c0.33,0.735-1.284,1.708-2.172,3.177
		c-2.512,3.182-2.215,4.244-3.304,6.335c-0.552,0.329-0.806,0.341-0.765,0.031c0.906-0.542,0.603-0.573,0.7-0.957
		c-0.865,1.091-2.542,1.768-2.229,1.009c-1.347,1.725,0.813-0.317,0.059,0.803c-0.693,0.719-1.396,1.431-2.116,2.122
		c0.506,0.005,1.311-0.695,0.407,0.607c-0.853,1.013-1.377,1.388-2.641,2.559c0.061-0.302-0.764-0.03,0.186-0.898
		c-0.688,0.478-1.666,1.318-1.798,1.921c1.631-1.002-2.111,2.273-0.694,1.767l-1.655,0.969c0.335-0.271,0.226-0.476,0.749-0.836
		c-0.755-0.067-1.085,1.1-1.561,1.563c-0.575,0.35-1.978,1.355-2.215,1.279c-0.37,0.493-1.624,1.251-2.004,1.188
		c-0.646,0.615,0.154,0.334,0.051,0.632l-2.496,1.69c-0.306-0.162-0.983-0.725-0.673-1.066c-0.782,0.855,0.165,0.968-1.282,1.892
		c0.512-1.015-2.154,0.82-1.33-0.527c-1.046,0.162-3.388,1.607-4.652,2.467c-0.599,0.87,1.569-0.576,1.724-0.115
		c-3.658,2.266-3.326,3.525-6.308,4.735l0.811-0.236c-1.696,1.098-1.515,0.955-2.419,1.806c0.255-0.77-2.706-0.503-5.696,0.763
		c-0.154,0.378,1.916-0.122,1.591,0.507l-2.014,0.861c-0.165,0.013,0.023-0.165,0.262-0.337c-1.771,0.886-3.681,0.483-4.001,1.312
		l-2.149-0.236l0.859,0.131c-0.174,0.354-2.244,1.08-2.658,1.295c-2.075,0.915-2.948,0.837-4.219,0.758
		c0.432,0.153,1.515,0.477-0.193,0.957c-0.188-0.922-3.7,0.417-3.748-0.097c-0.698,0.143-1.989,0.051-2.007,0.463l0.021-0.611
		c-0.021,0.864-2.597,1.229-4.559,1.599c0.321-1.168-2.165,0.324-3.136-0.636c-0.306,0.813-3.48,0.55-3.799,1.202
		c-1.533,0.102-1.402-0.637-1.796-0.866l-0.701,0.306c-0.775-0.337-3.625-0.396-5.304-0.716l-1.608,0.609l-0.568-0.343
		c-0.261,0.155-1.582,0.166-0.785,0.476l-0.851-0.101c-0.128,0.745-1.217,0.108-2.967,0.255c-0.384-0.164-0.259-0.328,0.124-0.385
		c-0.851-0.105-0.444-0.443-0.879-0.743c0.591,0.271-3.232,0.946-0.969,1.565c0.123,0.328-1.264,0.369-2.093,0.111l-0.413-0.733
		l-1.12,0.535c-1.338-0.117-1.827-0.642-2.87-0.923c1.098,0.167,2.624-0.81-0.144-1.318c1.47,0.199,2.248-0.042,3.023-0.062
		c-0.568-0.121-0.839-0.23,0.095-0.364c-2.187-0.154-0.792,0.288-2.932-0.027c0.231-0.562-0.33-0.852-2.116-1.456l1.283,0.724
		c-0.079,0.059-0.183,0.091-0.298,0.104c0.508,0.176,0.639,0.299,0.706,0.543c-0.41-0.09-2.622,0.206-2.893-0.241
		c1.931,1.431-3.9-0.209-2.672,0.662c-0.285,0.103-1.79-0.257-1.861-0.593c1.891,0.056-1.145-1.031-0.734-1.36
		c-0.7-0.024,1.255,0.829,0.309,0.789c-1.06-0.266-1.722-0.844-2.239-1.217l0.465,0.03l-1.515-0.763
		c-0.355,0.197,1.394,0.977-0.13,0.652c-0.351-0.238-1.864-0.61-1.743-0.815c0.832-0.148,0.505-0.837,1.772-0.507
		c-1.043-0.291-4.304-1.418-3.188-0.416l-1.212-0.472c0.669,0.519,2.673,1.75,0.181,0.908l0.065-0.105l-1.869-0.246l-0.626-0.582
		c-0.033,0.147-0.361,0.179-0.979-0.104c-0.093-0.238-0.652-0.553-0.51-0.755c-1.816-0.745-1.781-0.438-2.092-0.376
		c-1.018-0.422-1.34-0.709-0.725-0.812c-1.33-0.703-3.703-1.831-4.452-2.598c-1.886-0.738,0.303,0.309-0.92,0.097
		c-1.037-1.719-5.541-3.66-8.31-5.458c0.218,1.255-0.8-0.417-1.773-0.098c0.738,0.184-2.111-2.415,0.367-0.927l-1.475-0.956
		c-0.662-1.104,2.558,1.398,1.508-0.22c-1.582-1.114-3.213-1.114-4.797-2.838c1.001,0-1.505-0.969-0.604-1.148
		c0.51,0.136,0.957,0.591,1.496,0.959l-0.232-0.352c-3.139-2.886-1.44-0.202-3.439-1.336c-2.013-1.692-1.195-1.761-1.101-2.089
		c-0.209-0.37-1.232-1.194-1.846-1.547c1.424,0.808,1.866,2.319,1.055,2.116c-0.351-1.316-2.769-2.739-3.484-3.057
		c2.138,3.209,1.81,1.87,3.865,4.896c0.531,0.145,0.879-0.374,2.322,1.206c-1.23-0.62-0.17,0.339,0.049,0.668
		c-0.072-0.552,1.234,0.836,1.847,1.114c0.271,0.616-1.554-0.128,0.044,1.363l0.877-0.449c0.589,0.623-0.69,0.298,0.875,1.232
		c-1.057-0.232-0.211,0.768-2.244-0.646c1.853,2.43,3.848,2.438,5.894,3.456c-0.223-0.09-0.312-0.004-0.537-0.085
		c0.54,0.078,1.248,0.605,1.841,0.927c1.145,0.995-1.218-0.317-1.027,0.094l2.053,1.329c0.027,0.051,0.028,0.071,0.017,0.086
		c0.605,0.252,1.174,0.494,1.245,0.806c-0.767-0.144-1.18-0.032-1.716-0.112l2.52,0.843c-0.404,0.116,1.579,1.52-0.125,0.772
		c1.127,0.611,2.247,1.23,3.392,1.801l-0.008,0.688c0.86,0.355,0.939,0.259,0.008-0.337c1.084,0.798,5.645,1.722,4.51,2.472
		c2.946,0.834,3.847,1.483,7.346,2.544c-2.823-0.506,2.758,1.815-0.121,0.984c1.552,0.86,2.116,0.391,3.447,0.735
		c1.135,0.666,0.407,1.042-0.999,0.787l1.65,0.282l-0.066,0.104l1.468,0.119c1.349,0.764,0.119,0.688,1.604,1.221l0.482-0.418
		l0.934,0.6c-0.317-0.346,0.604-0.184,1.715,0.062l-0.056,0.11l1.365,0.254c-1.407-0.021,1.199,0.417,0.499,0.632
		c1.147,0.3,1.172,0.32,3.292,0.67l-0.292-0.437c2.792,0.264-0.001,0.567,2.219,1.036l-0.061-0.439
		c3.086,1.295,5.509,0.531,7.828,1.239c-1.38-0.062-1.093,0.46-1.053,0.346c2.081,0.125,5.463,0.508,7.631,0.085
		c0.757,0.641,0.935,0.85,3.155,1.163c1.618-0.016,1.858-0.094,2.382-0.441c1.566,0.238,4.482-0.245,4.58,0.182
		c0.344-0.361,1.411-0.009,2.249-0.374l0.195,0.166l-0.167-0.408c2.85,0.714,4.586-0.951,7.45-0.557l-0.461,0.182l1.14-0.334
		c0.215,0.153-0.242,0.335-0.261,0.583c1.813-0.252,3.622-0.563,5.423-0.907l-1.122-0.1c1.127-0.255,1.791-0.839,3.133-0.865
		c-1.993,1.104,1.781-0.39,2.239-0.024l-1.109,0.445c1.56-0.426,1.559-0.427,1.323-0.805c1.974-0.689,1.603,0.418,3.333-0.562
		l-1.327,0.362c-0.456-0.133,0.405-0.714,1.279-0.975c0.225,0.004,0.9-0.005,0.245,0.246c1.532-0.604,3.938-1.182,4.563-1.593
		c0.884-0.171,0.707,0.208,0.289,0.474c3.188-1.549,1.541-0.446,4.69-2.087l0.035,0.244l1.013-0.723l1.788-0.228l-0.694-0.033
		c1.047-0.497,1.637-0.95,2.914-1.402l-0.344,0.549c2.867-1.575,3.688-1.122,6.2-3.045c0.217-0.047-0.151,0.289-0.341,0.46
		c2.247-1.901,2.23-0.516,4.392-2.598c-0.091,0.197,0.256,0.153,0.213,0.301l1.004-0.903l0.166,0.46l0.539-1.173l0.952-0.036
		l0.305-0.479c1.695-0.019,2.968-1.731,4.932-2.345l-0.63-0.286c3.182-3.857,9.231-6.464,12.997-11.174l0.269,0.408l1.283-2.167
		c1.179-0.699-0.244,0.854,0.218,0.725c1.593-2.112,0.233-1.277,2.146-3.645c1.249-0.979-0.071,0.653-0.446,1.305
		c1.739-2.286,4.148-5.741,5.554-7.218c-0.026-0.075-0.021-0.226-0.104-0.159c0.963-1.652,2.567-3.585,3.677-5.368
		c0.157,0.161-0.099,0.616-0.348,1.079c0.438-0.614,1.139-1.395,1.282-2.068l-0.07,0.893c0.948-1.322,2.207-4.195,2.803-4.271
		c-0.261,0.076-0.522-0.169,0.167-1.38c1.031-0.32,1.541-3.483,2.849-5.321c0.039,0.315-0.653,1.808-0.439,1.395
		c0.672-0.923,0.807-1.982,1.006-2.975l0.14,0.398c0.612-1.638,1.181-3.286,1.697-4.949c1-0.439,1.647-4.634,2.011-4.12
		c0.633-1.754-0.816,1.368-0.125-0.883c0.504-0.492,0.53-2.063,0.951-1.824l-0.023,0.259l0.465-1.582l0.131,1.131
		c0.349-1.389,0.168-2.526-0.15-2.69c0.644-1.209,0.902-3.112,1.472-3.601l-0.012,0.514c0.744-3.689,2.662-5.861,2.371-8.959
		c0.1-0.21,0.213-0.164,0.131,0.295l0.39-2.319l0.271,0.607c0.013-1.313,0-2.624-0.041-3.931l0.23,0.076
		c0.393-2.542,0.563-6.571,0.529-9.875l0.104,0.495c-0.321-3.607,0.25-3.485-0.079-6.124c0.064,0.092,0.092,0.179,0.108,0.275
		l-0.119-2.375l0.259,0.512c-0.583-1.723,0.292-5.085-0.042-3.966c-0.321-0.979-0.769-2.656-1.107-2.909
		c-0.347-2.563,0.241-0.668,0.219-2.286c-0.246-1.865-0.7-2.126-0.937-4.663l0.245,0.008l-0.967-3.464l0.219,0.456
		c-1.072-2.519-0.077-3.466-1.64-5.248c-0.095-1.15-0.873-3.162-0.381-3.203c-1.295-3.133-2.31-5.547-3.735-8.565
		c0.514-0.791-0.293-0.653-0.699-2.679l-0.326,0.305c-1.914-4.277-3.503-9.602-6.454-13.964l0.281-0.348l-0.952-0.64
		c-2.848-4.869-7.237-10.75-10.312-14.042c-1.156-0.95-3.04-2.227-4.6-3.958l0.216,0.13l-9.718-8.277
		c0.327,0.028,0.056-0.338,0.521-0.126c-1.117-0.278-2.08-1.564-2.852-2.128l0.712,0.912c-1.248-0.428-2.487-1.785-2.851-2.396
		l-1.906-0.74c-0.084-0.107-0.22-0.273-0.205-0.345l-0.417-0.005l-0.585-1.047c-0.481-0.168-2.801-1.443-3.786-1.38
		c-0.068-0.256-1.601-1.321-0.311-0.682c-2.077-1.25-4.188-2.456-6.353-3.557l0.933,0.676c-0.069,0.446-2.121-0.297-3.068-0.924
		c1.484,0.309,0.367-0.49-0.085-1.039c-0.994-0.206,0.627,0.698,0.056,0.691c-1.24-0.278-3.697-1.171-4.236-1.586l0.751,0.123
		c-1.616-0.484-2.064-1.469-3.645-2.012c-1.514-0.217-2.461-0.844-2.404-0.067c-2.08-0.56-0.625-0.741-1.265-1.028
		c-1.069,0.001-3.882-1.084-4.162-1.532c-1.404,0.678-5.542-1.844-6.19-1.032l-1.627-0.868c-0.105,0.223-0.558,0.684-1.979,0.515
		c-1.275-0.508-0.893-0.845-1.257-1.16l-1.042,0.727c-7.549-2.269-17.94-2.078-26.517-1.992c-3.808,0.54-8.509,1.633-12.879,2.493
		l0.458-0.219c-1.463,0.229-2.92,0.504-4.378,0.787l3.23-0.361c-0.925,0.301-1.608,0.67-2.52,0.876
		c-4.781,0.811-11.174,2.427-16.482,5.304c-3.098,2.534-2.746,0.235-5.759,2.568c0.24-0.231,0.281-0.41,0.492-0.629
		c-3.419,2.141-5.229,3.385-8.292,6.013c-0.168-1.114-2.169,1.434-2.157,0.799l-0.047,0.527c-0.888,0.267-2.64,1.423-2.569,1.001
		l-1.13,1.453l-0.374-0.25c-1.936,1.339-5.603,4.786-7.069,4.985c-4.018,4.263-10.503,10.718-14.973,16.529
		c-0.335,1.034-1.563,2.767-2.463,4.166l-1.404,1.201c-0.811,1.503-1.211,3.361-2.279,4.553c-0.047-0.038-0.05-0.115-0.018-0.225
		c-0.787,1.528-1.814,2.835-2.155,4.472c-0.904,1.644-1.928,3.181-2.1,2.457c0.649,0.518-1.816,3.568-1.809,3.584
		c0.06,0.015-2.789,5.447-5.467,14.59c-2.688,9.101-4.796,22.081-3.734,35.774c0.923,13.68,5.142,27.793,11.089,38.734
		c5.874,11.02,13.113,18.802,17.811,22.321c0.829,0.306,2.468,1.7,2.275,0.762c1.243,1.081,1.248,2.133,1.763,2.075
		c-1.346-1.804,1.238-0.254,0.111-2.175l1.028,0.931c0.408,0.001-1.542-1.125-0.921-1.25l-0.829,0.25
		c-0.696-0.894-0.975-1.474-1.051-1.938c-0.931-0.568-2.176-0.388-3.464-2.626l0.479,0.51c-1.335-1.574-0.418-1.292-0.592-1.705
		l0.282,0.357l-0.786-1.584c0.615,1.184,2.474,2.439,1.72,1.598c-1.376-2.014,0.257,0.607-0.974-0.741
		c-0.754-0.851-0.225-0.865-0.01-0.975l-1.269-1.578c0.329-0.164,0.809,1.068,0.599,0.194l-1.842-1.8
		c0.443-0.905-1.982-2.003-1.928-3.457c1.202,1.39,0.154-0.303,0.566-0.231c-0.848-1.218-1.666-2.457-2.462-3.71
		c-0.117-0.423,0.86,0.843,0.462,0.296c-0.239-0.834-0.901-1.059-1.132-1.45c-0.002-0.446-1.668-2.875-1.079-3.061
		c-1.057-2.837-1.297-0.743-2.261-3.408c0.159-0.492,1.078,1.951,0.852,0.669l-1.401-2.546c0.273,0.162,0.766,0.258,1.184,1.26
		c-2.97-7.289-2.544-11.842-4.912-18.397c0.162-1.063,0.468,0.61,0.93,1.203c-1.889-4.735-0.805-7.092-1.567-11.248l-0.364-0.021
		c0.15-6.005-0.951-13.053-0.125-19.727l-0.286,0.784c-0.32-0.935-0.251-2.423-0.334-3.537c0.199-0.152,0.691,0.851,0.722-1.087
		c-0.165,0.386-0.375,1.191-0.527,0.935c0.704-2.83,1.385-7.23,2.548-11.997c1.119-4.771,2.754-9.888,4.664-14.157
		c4.302-11.956,12.602-23.206,21.279-31.996c-1.311,1.363-1.378,0.171-0.22-0.706c3.822-1.632,4.802-4.83,8.589-6.516
		c5.445-4.845,11.596-7.076,17.111-10.975l0.3,0.329c0.988-0.243,1.101-0.642,2.051-1.097l0.025,0.12
		c2.319-0.873,4.966-2.349,6.389-2.622l-0.074-0.481c1.387-0.528,0.84,0.082,2.196-0.648l0.033,0.241l1.549-0.968
		c0.073,0.838,4.025-1.13,5.289-0.996c1.811-0.612,5.313-1.721,8.226-1.973c0.597,0.327,4.122-0.146,6.394-0.096
		c4.371-0.499,10.707-0.701,16.282,0.006l-0.051-0.551l1.47,0.108c-0.033,0.117,0.155,0.203-0.07,0.234
		c1.058,0.732,3.389,0.223,4.501,0.793c-0.656-0.608-1.007-0.224-1.832-0.358c-1.161-0.425,0.054-0.786,1.635-0.286l-0.051,0.112
		l1.146-0.099c0.054,0.443,1.018,0.792,1.066,1.238c4.734,0.785,8.131,0.886,12.838,2.613c-0.633,0.272,3.432,1.063,2.207,1.508
		c2.904,0.753-0.234-0.797,1.248-0.863c0.786,0.3,1.695,0.413,1.723,0.758c-0.438,0.037,0.449,0.72-0.212,0.534l1.879,0.697
		c0.15,0.135-0.297,0.064-0.522,0.028c3.958,1.154,6.339,3.46,9.739,4.803c0.383-0.127-1.227-0.774-0.853-0.907
		c3.523,1.279,2.571,2.054,5.703,3.502l-0.816-0.035c1.078,0.357,1.689,0.322,3.013,1.62c-0.007,0.571-1.497-0.544-2.355-0.823
		c1.041,0.675,3.691,2.376,3.155,1.471c1.322,0.731,1.497,1.419,2.074,1.992c0.093-0.078-0.938-1.081-0.096-0.745
		c1.482,1.428,3.952,3.374,5.798,5.051c-0.096,0.073-0.085,0.326-0.286,0.226C199.803,77.581,198.947,78.222,201.015,79.998"/>
	<path clip-path="url(#SVGID_10_)" fill="#8BD1ED" d="M213.82,201.806l0.662-0.786c-0.088-0.062-0.16-0.172,0.012-0.629
		L213.82,201.806z"/>
	<path clip-path="url(#SVGID_10_)" fill="#8BD1ED" d="M231.45,157.026c-0.023-0.133-0.045-0.262-0.087-0.381
		C231.354,156.895,231.398,156.982,231.45,157.026"/>
	<path clip-path="url(#SVGID_10_)" fill="#8BD1ED" d="M231.193,145.212c0.106,0.839,0.234,0.09,0.354-0.325
		C231.448,144.87,231.335,144.892,231.193,145.212"/>
	<path clip-path="url(#SVGID_10_)" fill="#8BD1ED" d="M195.46,222.488c0.116-0.148,0.164-0.267,0.079-0.327
		C195.4,222.379,195.398,222.462,195.46,222.488"/>
	<path clip-path="url(#SVGID_10_)" fill="#8BD1ED" d="M122.838,240.822l0.292,0.117
		C123.079,240.896,122.974,240.859,122.838,240.822"/>
	<path clip-path="url(#SVGID_10_)" fill="#8BD1ED" d="M126.98,242.117c0.208,0.027,0.481,0.033,0.877,0.016
		C127.478,242.07,127.203,242.086,126.98,242.117"/>
	<path clip-path="url(#SVGID_10_)" fill="#8BD1ED" d="M208.97,209.625c0.18-0.223,0.339-0.455,0.418-0.707
		C209.113,209.263,209.012,209.464,208.97,209.625"/>
	<path clip-path="url(#SVGID_10_)" fill="#8BD1ED" d="M128.752,242.107l1.071,0.14c0.007-0.029,0.022-0.052,0.025-0.09
		L128.752,242.107z"/>
	<path clip-path="url(#SVGID_10_)" fill="#8BD1ED" d="M121.515,240.55l1.324,0.272C122.328,240.617,121.915,240.537,121.515,240.55"
		/>
	<path clip-path="url(#SVGID_10_)" fill="#8BD1ED" d="M171.025,236.746l0.103-0.053
		C171.845,236.201,171.383,236.469,171.025,236.746"/>
</g>
<polygon fill="#8BD1ED" points="133.492,241.58 133.634,241.604 133.95,241.487 "/>
<g>
	<defs>
		<rect id="SVGID_11_" width="283.465" height="283.465"/>
	</defs>
	<clipPath id="SVGID_12_">
		<use xlink:href="#SVGID_11_"  overflow="visible"/>
	</clipPath>
	<path clip-path="url(#SVGID_12_)" fill="#8BD1ED" d="M117.007,239.501c0.199,0.031,0.385,0.051,0.539,0.028l-0.579-0.184
		C117.009,239.421,117.016,239.465,117.007,239.501"/>
	<path clip-path="url(#SVGID_12_)" fill="#8BD1ED" d="M155.263,240.397c-0.265,0.234-0.355,0.377-0.348,0.469
		C155.265,240.792,155.473,240.667,155.263,240.397"/>
</g>
<polygon fill="#8BD1ED" points="75.333,213.33 76.465,214.79 77.342,214.706 "/>
<g>
	<defs>
		<rect id="SVGID_13_" width="283.465" height="283.465"/>
	</defs>
	<clipPath id="SVGID_14_">
		<use xlink:href="#SVGID_13_"  overflow="visible"/>
	</clipPath>
	<path clip-path="url(#SVGID_14_)" fill="#8BD1ED" d="M80.037,221.097l2.625,1.827c-0.138-2.668,1.318-0.665-1.448-4.91
		c-1.489-0.878-4.695-2.992-4.87-2.105c0.956,0.808,2.783,1.505,3.993,2.888c-0.966-0.088-2.38-1.467-3.563-1.582
		c1.767,2.5,1.705,0.941,3.978,3.313L80.037,221.097z"/>
	<path clip-path="url(#SVGID_14_)" fill="#8BD1ED" d="M84.171,221.983c-0.44,0.087-0.887,0.158-1.023,0.403
		C83.597,222.313,85.048,222.949,84.171,221.983"/>
	<path clip-path="url(#SVGID_14_)" fill="#8BD1ED" d="M85.787,223.005c1.524,1.265-0.463,0.557-0.377,0.76l2.567,0.348
		L85.787,223.005z"/>
	<path clip-path="url(#SVGID_14_)" fill="#8BD1ED" d="M92.428,227.853l0.843,0.41C93.119,227.919,92.805,227.913,92.428,227.853"/>
	<path clip-path="url(#SVGID_14_)" fill="#8BD1ED" d="M95.934,229.884c-0.461-0.805-1.466-1.095-2.663-1.62l0.063,0.133
		c0.753,0.933-0.635,1.121-2.05-0.103c-1.718-0.914-1.064-1.557-2.768-2.032l1.464,1.919
		C92.579,229.807,94.757,229.577,95.934,229.884"/>
	<path clip-path="url(#SVGID_14_)" fill="#8BD1ED" d="M92.428,227.853c-0.302-0.159-0.605-0.33-0.929-0.54
		C91.814,227.699,92.134,227.798,92.428,227.853"/>
</g>
<polygon fill="#8BD1ED" points="88.117,225.44 89.082,225.435 88.146,224.986 "/>
<g>
	<defs>
		<rect id="SVGID_15_" width="283.465" height="283.465"/>
	</defs>
	<clipPath id="SVGID_16_">
		<use xlink:href="#SVGID_15_"  overflow="visible"/>
	</clipPath>
	<path clip-path="url(#SVGID_16_)" fill="#8BD1ED" d="M101.838,233.102c-0.998,0.898-4.183-2.397-5.095-1.863
		c2.332,1.307,3.816,3.093,2.982,3.422c0.954,0.342,1.889,0.713,2.848,1.025C103.674,235.694,102.925,234.341,101.838,233.102"/>
	<path clip-path="url(#SVGID_16_)" fill="#8BD1ED" d="M105.743,238.459c0.221-0.011,0.466,0.022,0.724,0.091
		C106.143,238.469,105.861,238.404,105.743,238.459"/>
	<path clip-path="url(#SVGID_16_)" fill="#8BD1ED" d="M120.688,241.68c-2.34-0.224-4.668-0.575-7.015-0.957
		c0.754-0.161,0.636-0.612,2.181-0.227c-2.849-1.16-3.494-0.571-5.829-1.632c-0.291-1.325,4.225,1.549,3.222,0.055
		c-1.692-0.568-4.156-1.541-5.874-1.227l-2.271-1.882l0.355,1.551c0.903,0.826,2.531,0.039,2.841,1.129
		c0.124,0.643-0.99,0.275-1.798,0.067c1.794,0.511,4.315,2.919,7.99,4.011C118.351,243.724,118.055,241.527,120.688,241.68"/>
</g>
<polygon fill="#8BD1ED" points="120.579,243.09 120.878,243.688 120.749,242.962 "/>
<g>
	<defs>
		<rect id="SVGID_17_" width="283.465" height="283.465"/>
	</defs>
	<clipPath id="SVGID_18_">
		<use xlink:href="#SVGID_17_"  overflow="visible"/>
	</clipPath>
	<path clip-path="url(#SVGID_18_)" fill="#8BD1ED" d="M128.349,243.317c-1.231,0.011-2.467,0.003-3.704-0.034
		c-0.355-0.195-0.502-0.501-0.692-0.786c0.075,0.315-0.998,0.543-0.91,0.816c1.343,1.538,4.424,0.706,6.352,0.874
		c4.971,1.46-0.347,0.564,1.44,1.996c-1.429-0.314-1.437-0.559-3.4-1.062c2.861,1.948,7.081,1.407,9.115,1.337
		c-0.574-0.182-0.666-0.563-1.794-0.617l2.132-0.091C134.847,244.556,133.076,244.141,128.349,243.317"/>
	<path clip-path="url(#SVGID_18_)" fill="#8BD1ED" d="M122.089,241.817c1.317,0.261,1.78,0.474,1.848,0.653
		C123.674,242.084,123.3,241.753,122.089,241.817"/>
	<path clip-path="url(#SVGID_18_)" fill="#8BD1ED" d="M137.655,246.555c-0.219-0.099-0.6-0.113-1.105-0.096
		C136.799,246.536,137.123,246.585,137.655,246.555"/>
	<path clip-path="url(#SVGID_18_)" fill="#8BD1ED" d="M135.767,244.956l2.503,0.425l-0.922-0.648
		C136.993,244.764,135.748,244.678,135.767,244.956"/>
	<path clip-path="url(#SVGID_18_)" fill="#8BD1ED" d="M225.71,216.696c-0.498-0.168-1.326,0.32-2.702,1.745
		c-0.246-0.616,1.693-2.274,2.271-3.38c-2.11,1.541-0.474-0.542-1.359-0.507c-2.088,1.938-2.461,3.414-4.898,5.31
		c0.001-0.235-0.218-0.408-0.656-0.309c-2.482,2.724-7.191,6.965-10.523,8.467c-3.03,1.696-5.079,3.26-8.317,5.31
		c-11.201,5.6-23.735,10.31-37.277,11.281l-1.785,1.397c-0.705-0.51-3.228,0.268-2.899-0.538c0.743,0.091,1.445-0.069,2.322-0.177
		c-2.951-0.768-7.651,0.607-11.142,0.151c0.39,0.222,0.961,1.281-0.101,1.446c0.3-1.313-4.156-0.072-5.092-1.707
		c-3.424-0.633-0.21,1.193-3.816,0.655c-0.461,0.771,3.453,0.688,4.078,1.303c-1.189,0.566-3.297-0.504-3.195,0.325
		c5.912,1.01,16.967-0.591,25.65-2.517l-0.826,0.871c4.493-1.111,11.635-2.778,15.509-2.743c-1.024-0.359,6.615-1.734,5.404-3.067
		c1.218-0.043,1.52-0.242,3.116-0.698l0.226-0.643c2.171-0.872,2.128-0.002,4.581-1.137c-1.896,0.072-0.173-0.887,0.278-1.746
		c3.095-0.578,6.602-1.646,9.317-2.498c-0.299-0.085-0.648-0.178-1.616,0.023c1.755-0.704,1.143-1.122,1.449-1.574
		c1.516-0.941,1.824-0.086,1.981,0.342c2.997-1.521,3.294-3.754,5.631-4.695l-1.119-0.078c2.673-2.061,5.414-3.153,8.153-5.739
		c2.023-0.411-1.837,2.62-2.845,3.89c0.728-0.316,2.061-1.265,2.652-1.354l3.729-5.375
		C221.247,220.866,224.742,217.575,225.71,216.696"/>
	<path clip-path="url(#SVGID_18_)" fill="#8BD1ED" d="M218.159,224.107c-0.263,0.41-0.494,0.757-0.611,0.983
		c0.257-0.273,0.484-0.541,0.944-0.859C218.453,224.099,218.33,224.076,218.159,224.107"/>
	<path clip-path="url(#SVGID_18_)" fill="#8BD1ED" d="M225.71,216.696c0.035,0.017,0.1-0.003,0.132,0.021
		C226.063,216.406,225.955,216.475,225.71,216.696"/>
</g>
<polygon fill="#8BD1ED" points="207.406,228.239 207.842,228.023 208.362,227.712 "/>
<g>
	<defs>
		<rect id="SVGID_19_" width="283.465" height="283.465"/>
	</defs>
	<clipPath id="SVGID_20_">
		<use xlink:href="#SVGID_19_"  overflow="visible"/>
	</clipPath>
	<path clip-path="url(#SVGID_20_)" fill="#8BD1ED" d="M206.756,232.467c-0.765,0.168-1.766,0.474-2.884,0.825
		C204.311,233.417,204.662,233.493,206.756,232.467"/>
	<path clip-path="url(#SVGID_20_)" fill="#8BD1ED" d="M185.478,241.65c-0.632,0.354-0.176,0.426-0.576,0.802
		C186.306,241.996,186.69,241.612,185.478,241.65"/>
	<path clip-path="url(#SVGID_20_)" fill="#8BD1ED" d="M221.474,221.55l2.008-2.102l0.651-0.859
		C223.261,219.583,222.385,220.583,221.474,221.55"/>
	<path clip-path="url(#SVGID_20_)" fill="#8BD1ED" d="M249.857,171.956c-1.545,2.088-2.282,5.645-3.623,8.383
		c-1.838,5.272,1.463,1.4-0.723,6.296l-1.167-1.582c-2.146,4.856-6.287,11.06-7.678,15.605c-0.404,0.214-1.16,0.819-0.571-0.454
		c-2.017,2.905,0.972,2.996-2.458,6.443c1.931-4.188-1.706,0.514-1.79-1.137l0.337-0.616c-1.746,2.426-3.96,5.781-5.394,7.161
		c0.264,0.37,1.97-0.432,0.166,1.559c0.809-0.729,0.879-0.063,1.139,0.32c1.573-2.38,2.791-3.327,3.442-4.999
		c1.458-0.813-0.542,0.923,0.918,0.108l1.011-2.088c1.148-1.195-0.618,1.704,1.104-0.231c-0.086-0.452,0.924-2.308,2.16-3.903
		l-0.181,0.59c0.739-1.374,2.208-3.002,0.982-2.945l1.824-0.952l-0.723-0.107c2.512-3.346,4.761-3.909,6.664-9.146
		c-0.786,1.075-0.542-0.159-0.335-0.84c-1.459,1.796-0.872,2.709-1.886,4.635c-0.709-0.059,0.396-3.605-1.232-1.55
		c2.089-2.084,2.475-4.738,4.472-5.104c1.615-3.073,1.407-4.598,3.087-7.692l0.187,0.188c-0.771-0.992,1.534-2.486,1.317-5.325
		l-0.839,1.658c-0.383-0.234-0.11-1.076,0.223-2.278c0.115,0.187,0.114,0.188,0.452-0.126c-0.604-0.603,0.425-4.359,0.319-4.896
		c-0.582,1.528-0.545,3.634-0.992,5.521C249.949,173.373,249.24,173.45,249.857,171.956"/>
	<path clip-path="url(#SVGID_20_)" fill="#8BD1ED" d="M236.188,204.542l0.362-1.131
		C236.334,203.822,236.181,204.224,236.188,204.542"/>
</g>
<polygon fill="#8BD1ED" points="252.85,168.021 253.318,167.512 252.999,166.258 "/>
<g>
	<defs>
		<rect id="SVGID_21_" width="283.465" height="283.465"/>
	</defs>
	<clipPath id="SVGID_22_">
		<use xlink:href="#SVGID_21_"  overflow="visible"/>
	</clipPath>
	<path clip-path="url(#SVGID_22_)" fill="#8BD1ED" d="M251.097,165.104c0.28,0.01,0.241,0.704,0.519,0.716
		C252.304,163.759,251.865,163.924,251.097,165.104"/>
	<path clip-path="url(#SVGID_22_)" fill="#8BD1ED" d="M250.732,113.688c0.144,0.297,0.279,0.526,0.404,0.697
		C251.021,114.133,250.892,113.903,250.732,113.688"/>
	<path clip-path="url(#SVGID_22_)" fill="#8BD1ED" d="M201.112,47.271c-0.353-0.195-0.769-0.423-1.351-0.683
		C199.208,46.539,200.007,46.778,201.112,47.271"/>
	<path clip-path="url(#SVGID_22_)" fill="#8BD1ED" d="M252.706,120.289c0,0,0.006-0.001,0.008-0.015l-0.017-0.036L252.706,120.289z"
		/>
	<path clip-path="url(#SVGID_22_)" fill="#8BD1ED" d="M187.668,39.928l-0.166,0.406C187.672,40.25,187.778,40.137,187.668,39.928"/>
	<path clip-path="url(#SVGID_22_)" fill="#8BD1ED" d="M146.834,32.902l0.909-0.002C147.453,32.835,147.133,32.858,146.834,32.902"/>
	<path clip-path="url(#SVGID_22_)" fill="#8BD1ED" d="M94.248,49.656l-2.493,0.72l0.557,0.378
		C92.899,50.256,93.561,49.841,94.248,49.656"/>
	<path clip-path="url(#SVGID_22_)" fill="#8BD1ED" d="M92.312,50.753c-0.387,0.333-0.731,0.695-1.04,1.045
		c0.459-0.29,0.876-0.6,1.185-0.953L92.312,50.753z"/>
	<path clip-path="url(#SVGID_22_)" fill="#8BD1ED" d="M57.757,88.034c-0.308,0.45-0.947,1.32-1.297,2.349
		C56.926,89.832,57.688,88.625,57.757,88.034"/>
</g>
<polygon fill="#8BD1ED" points="56.769,90.757 57.546,89.78 57.485,89.543 "/>
<g>
	<defs>
		<rect id="SVGID_23_" width="283.465" height="283.465"/>
	</defs>
	<clipPath id="SVGID_24_">
		<use xlink:href="#SVGID_23_"  overflow="visible"/>
	</clipPath>
	<path clip-path="url(#SVGID_24_)" fill="#8BD1ED" d="M47.947,160.396c0.528,1.219,1.112,2.418,1.686,3.606
		c-0.298,0.777,1.37,4.882,0.26,3.711c1.593,1.948,2.209,7.004,3.059,4.759c-2.05-5.25-3.6-11.823-4.541-18.69
		c-0.954-6.875-1.278-14.022-1.513-20.627l0.489,2.135c-0.801-6.935,2.039-9.082,0.666-14.871l1.059,0.948
		c0.89-2.96-0.518-6.252,1.601-9.086l-0.565,0.172c0.217-0.84,0.546-1.1,0.793-1.942l-0.311,0.269
		c0.16-2.333,0.677-3.675,1.737-5.696c0.418-0.017-0.19,1.052-0.319,1.751c0.703-0.853,0.512-2.8,1.148-4.449
		c0.833-1.159,0.508,0.217,0.605,0.454c1.435-5.118,3.635-6.694,3.695-10.845c-0.123-0.475-1.186,0.943-0.429-0.856
		c-2.139,2.879-2.704,5.81-3.471,8.941l0.343-0.818c0.684,3.011-1.138,1.619-1.83,5.717c-0.312-1.25,0.314-2.919,0.226-3.719
		c-2.998,3.975-1.319,6.688-3.865,9.181l0.046-0.349c-0.372,0.626-0.393,1.938-0.505,3.019c0.315-0.284,0.684-1.283,1.046-1.921
		c-0.136,1.09,0.486,1.823,0.707,2.251c-1.073,0.966-0.02,1.636-0.847,3.396c-0.862,0.503-0.277-1.702-0.478-2.497l-0.063,2.362
		c-0.389,2.076-1.221,1.871-1.794,2.833c0.202,1.88,0.579-0.956,1.066,0.619c-0.664,1.017-1.347,3.957-1.701,7.241
		c-0.364,3.278-0.349,6.887-0.069,9.197c-0.041-1.587-0.75-0.588-0.548-2.518c-0.202,0.693,0.072,3.201,0.643,3.228
		c0.399,3.192,0.159,7.202-0.118,10.217l0.491-0.898c1.097,2.395-0.19,6.349,1.092,10.651v-0.093
		c0.357,1.388,1.891,2.32,2.162,4.881C48.784,161.507,48.574,160.125,47.947,160.396"/>
	<path clip-path="url(#SVGID_24_)" fill="#8BD1ED" d="M53.32,174.905l-1.203-1.086c0.35,1.555,1.979,3.038,2.33,2.537
		c-0.541-0.919-0.666-2.328-1.148-2.354C53.252,174.204,52.985,174.278,53.32,174.905"/>
	<path clip-path="url(#SVGID_24_)" fill="#8BD1ED" d="M67.104,200.51c0.484,0.354,0.625,0.056,0.943,0.121
		c-3.798-4.814-7.841-11.288-8.382-13.757c-0.725-1.937-1.951-1.746-3.308-4.016l0.232-1.397c-1.056-1.079-1.861-5.403-2.487-3.509
		c-0.045,0.19,1.03,0.915,1.276,2.115l-0.482-0.006l1.261,2.501l-0.865-0.595c0.895,3.825,2.581,1.756,4.256,6.111l-0.997,0.494
		c1.439,2.807,2.563,3.973,3.46,6.686c-0.001-0.001,0.489-0.277,0.012-0.614c-0.229-0.471-0.197-1.276,0.271-1.146
		c3.25,3.533-0.96-0.275,0.425,2.775c2.793,3.063,7.965,8.696,8.807,10.917c-0.716-1.876,1.622-0.18,3.09,1.499
		c0.403,1.022-0.967-0.076-1.464-0.13c0.626,0.849,0.981,1.694,1.834,2.332c-0.497-1.404,0.738-1.315,2.671,0.153
		C74.505,206.8,70.22,204.949,67.104,200.51"/>
	<path clip-path="url(#SVGID_24_)" fill="#8BD1ED" d="M68.799,201.221c-0.354-0.416-0.58-0.555-0.752-0.59l1.305,1.679
		L68.799,201.221z"/>
	<path clip-path="url(#SVGID_24_)" fill="#8BD1ED" d="M76.617,70.615c0.236-0.265-0.023-0.279-0.757,0.33l-0.371,0.631
		L76.617,70.615z"/>
	<path clip-path="url(#SVGID_24_)" fill="#8BD1ED" d="M71.285,74.239c-0.775,0.828-1.589,1.859-0.879,1.566
		c0.668-0.921,0.944-1.011,1.653-2.03c0.719-0.634,1.35-0.986,1.288-0.807c0.218-0.267,1.185-0.893,1.492-1.335
		c-1.109,0.599-2.354,1.581-3.489,2.79C71.042,74.607,71.257,74.33,71.285,74.239"/>
</g>
<path fill="#8BD1ED" d="M33.955,156.948l0.025-0.607L33.955,156.948z"/>
<g>
	<defs>
		<rect id="SVGID_25_" width="283.465" height="283.465"/>
	</defs>
	<clipPath id="SVGID_26_">
		<use xlink:href="#SVGID_25_"  overflow="visible"/>
	</clipPath>
	<path clip-path="url(#SVGID_26_)" fill="#8BD1ED" d="M33.956,156.948l-0.028,1.558C34.022,158.612,33.958,157.707,33.956,156.948"
		/>
	<path clip-path="url(#SVGID_26_)" fill="#8BD1ED" d="M62.471,83.628l0.513-0.665l-0.51,0.599
		C62.476,83.582,62.477,83.6,62.471,83.628"/>
</g>
<polygon fill="#8BD1ED" points="36.2,131.403 36.304,130.939 36.283,130.533 "/>
<g>
	<defs>
		<rect id="SVGID_27_" width="283.465" height="283.465"/>
	</defs>
	<clipPath id="SVGID_28_">
		<use xlink:href="#SVGID_27_"  overflow="visible"/>
	</clipPath>
	<path clip-path="url(#SVGID_28_)" fill="#8BD1ED" d="M42.172,112.607c-0.18,0.408-0.023,0.641,0.004,0.839
		c0.01-0.271,0.092-0.593,0.227-0.959C42.365,112.463,42.292,112.495,42.172,112.607"/>
</g>
<path fill="#8BD1ED" d="M58.858,86.296l0.336-0.439L58.858,86.296z"/>
<g>
	<defs>
		<rect id="SVGID_29_" width="283.465" height="283.465"/>
	</defs>
	<clipPath id="SVGID_30_">
		<use xlink:href="#SVGID_29_"  overflow="visible"/>
	</clipPath>
	<path clip-path="url(#SVGID_30_)" fill="#8BD1ED" d="M34.032,145.364c-0.036,0.027-0.073,0.097-0.097,0.173
		C33.962,145.538,33.997,145.471,34.032,145.364"/>
	<path clip-path="url(#SVGID_30_)" fill="#8BD1ED" d="M96.263,59.553c0.008-0.022-0.017-0.022-0.018-0.037
		C96.151,59.585,96.127,59.614,96.263,59.553"/>
	<path clip-path="url(#SVGID_30_)" fill="#8BD1ED" d="M76.25,70.126l0.248-0.196c0-0.055,0.003-0.112-0.023-0.145L76.25,70.126z"/>
	<path clip-path="url(#SVGID_30_)" fill="#8BD1ED" d="M219.658,223.634c-1.397,1.301,1.817-2.514-0.226-0.503
		C219.678,222.988,218.009,225.338,219.658,223.634"/>
</g>
<path fill="#8BD1ED" d="M61.573,84.576l0.536-0.594L61.573,84.576z"/>
<polygon fill="#8BD1ED" points="219.222,223.339 219.433,223.132 219.432,223.131 "/>
<g>
	<defs>
		<rect id="SVGID_31_" width="283.465" height="283.465"/>
	</defs>
	<clipPath id="SVGID_32_">
		<use xlink:href="#SVGID_31_"  overflow="visible"/>
	</clipPath>
	<path clip-path="url(#SVGID_32_)" fill="#8BD1ED" d="M105.18,254.653c-0.069-0.065-0.218-0.147-0.375-0.229
		C104.811,254.449,104.892,254.508,105.18,254.653"/>
	<path clip-path="url(#SVGID_32_)" fill="#8BD1ED" d="M121.024,258.378c0.412,0.091,0.547,0.151,1.12,0.217l-0.168-0.056
		C121.767,258.534,121.489,258.501,121.024,258.378"/>
</g>
<polygon fill="#8BD1ED" points="137.009,259.938 137.858,259.986 137.546,259.936 "/>
<g>
	<defs>
		<rect id="SVGID_33_" width="283.465" height="283.465"/>
	</defs>
	<clipPath id="SVGID_34_">
		<use xlink:href="#SVGID_33_"  overflow="visible"/>
	</clipPath>
	<path clip-path="url(#SVGID_34_)" fill="#8BD1ED" d="M145.512,50.263c-0.359-0.085-0.584-0.172-0.758-0.252
		C145.003,50.19,142.555,50.107,145.512,50.263"/>
	<path clip-path="url(#SVGID_34_)" fill="#8BD1ED" d="M62.369,83.547c-0.023,0.111-0.097,0.236-0.26,0.435l0.365-0.42
		C62.48,83.502,62.462,83.473,62.369,83.547"/>
</g>
<path fill="#8BD1ED" d="M124.617,257.135l-2.607-0.444L124.617,257.135z"/>
<g>
	<defs>
		<rect id="SVGID_35_" width="283.465" height="283.465"/>
	</defs>
	<clipPath id="SVGID_36_">
		<use xlink:href="#SVGID_35_"  overflow="visible"/>
	</clipPath>
	<path clip-path="url(#SVGID_36_)" fill="#8BD1ED" d="M236.781,117.096l-0.243-0.558
		C236.622,116.758,236.704,116.957,236.781,117.096"/>
	<path clip-path="url(#SVGID_36_)" fill="#8BD1ED" d="M132.42,257.926c0.466,0.109,0.962,0.187,1.476,0.247
		c0.11-0.013,0.235-0.018,0.311-0.043L132.42,257.926z"/>
</g>
<path fill="#8BD1ED" d="M144.754,50.011l-0.006-0.004L144.754,50.011z"/>
<polygon fill="#8BD1ED" points="179.068,56.178 179.356,56.219 178.959,56.059 178.647,55.953 "/>
<polygon fill="#8BD1ED" points="33.982,156.237 33.98,156.341 34.011,156.118 "/>
<polygon fill="#8BD1ED" points="234.575,112.043 234.625,112.013 234.399,111.642 "/>
<g>
	<defs>
		<rect id="SVGID_37_" width="283.465" height="283.465"/>
	</defs>
	<clipPath id="SVGID_38_">
		<use xlink:href="#SVGID_37_"  overflow="visible"/>
	</clipPath>
	<path clip-path="url(#SVGID_38_)" fill="#8BD1ED" d="M37.834,129.057c0.032-0.045,0.079-0.141,0.147-0.335
		C37.961,128.735,37.903,128.878,37.834,129.057"/>
</g>
<path fill="#8BD1ED" d="M41.36,117.76l0.676-1.532L41.36,117.76z"/>
<g>
	<defs>
		<rect id="SVGID_39_" width="283.465" height="283.465"/>
	</defs>
	<clipPath id="SVGID_40_">
		<use xlink:href="#SVGID_39_"  overflow="visible"/>
	</clipPath>
	<path clip-path="url(#SVGID_40_)" fill="#8BD1ED" d="M44.999,109.428c0.012-0.121-0.002-0.164-0.014-0.204l-0.008,0.015
		L44.999,109.428z"/>
	<path clip-path="url(#SVGID_40_)" fill="#8BD1ED" d="M77.954,238.406l0.286,0.199C78.929,239.053,78.466,238.742,77.954,238.406"/>
	<path clip-path="url(#SVGID_40_)" fill="#8BD1ED" d="M48.954,207.046l0.797,1.14C49.377,207.515,49.08,206.999,48.954,207.046"/>
</g>
<polygon fill="#8BD1ED" points="121.719,256.64 122.01,256.69 121.724,256.636 "/>
<g>
	<defs>
		<rect id="SVGID_41_" width="283.465" height="283.465"/>
	</defs>
	<clipPath id="SVGID_42_">
		<use xlink:href="#SVGID_41_"  overflow="visible"/>
	</clipPath>
	<path clip-path="url(#SVGID_42_)" fill="#8BD1ED" d="M50.804,209.888c-0.366-0.677-0.712-1.213-1.053-1.702
		C50.068,208.729,50.439,209.369,50.804,209.888"/>
	<path clip-path="url(#SVGID_42_)" fill="#8BD1ED" d="M68.19,77.901l0.325-0.294c-0.016-0.008-0.005-0.034,0.013-0.063L68.19,77.901
		z"/>
	<path clip-path="url(#SVGID_42_)" fill="#8BD1ED" d="M68.528,77.543l0.343-0.346C68.706,77.348,68.563,77.479,68.528,77.543"/>
	<path clip-path="url(#SVGID_42_)" fill="#8BD1ED" d="M69.593,76.47l-0.722,0.728C69.133,76.962,69.464,76.676,69.593,76.47"/>
	<path clip-path="url(#SVGID_42_)" fill="#8BD1ED" d="M59.804,86.512l-0.026,0.159C59.813,86.603,59.825,86.548,59.804,86.512"/>
	<path clip-path="url(#SVGID_42_)" fill="#8BD1ED" d="M57.5,89.351c0.555-0.674,1.514-1.588,2.255-2.551l0.023-0.129
		C59.499,87.179,57.902,88.609,57.5,89.351"/>
	<path clip-path="url(#SVGID_42_)" fill="#8BD1ED" d="M48.028,101.44l1.643-2.623c-0.359,0.414-0.834,0.96-0.117-0.253
		C47.312,101.771,50.127,97.971,48.028,101.44"/>
	<path clip-path="url(#SVGID_42_)" fill="#8BD1ED" d="M43.503,109.903c0.673-1.525-0.128-0.038-0.136-0.138
		C42.999,110.76,42.918,111.001,43.503,109.903"/>
	<path clip-path="url(#SVGID_42_)" fill="#8BD1ED" d="M36.405,177.716l-0.245-0.115C36.484,178.845,36.244,177.593,36.405,177.716"
		/>
</g>
<polygon fill="#8BD1ED" points="41.187,190.061 40.892,188.855 40.52,188.361 "/>
<polygon fill="#8BD1ED" points="43.447,199.284 42.745,197.863 42.483,197.363 "/>
<g>
	<defs>
		<rect id="SVGID_43_" width="283.465" height="283.465"/>
	</defs>
	<clipPath id="SVGID_44_">
		<use xlink:href="#SVGID_43_"  overflow="visible"/>
	</clipPath>
	<path clip-path="url(#SVGID_44_)" fill="#8BD1ED" d="M134.839,260.105l-0.375-0.28
		C133.594,259.821,133.396,260.109,134.839,260.105"/>
	<path clip-path="url(#SVGID_44_)" fill="#8BD1ED" d="M183.799,250.192c0.559-0.101,1.868-0.65,2.596-1.15L183.799,250.192z"/>
</g>
<polygon fill="#8BD1ED" points="241.136,123.767 241.503,124.719 240.886,122.902 "/>
<g>
	<defs>
		<rect id="SVGID_45_" width="283.465" height="283.465"/>
	</defs>
	<clipPath id="SVGID_46_">
		<use xlink:href="#SVGID_45_"  overflow="visible"/>
	</clipPath>
	<path clip-path="url(#SVGID_46_)" fill="#8BD1ED" d="M54.738,79.323c-3.303,4.667-0.618,4.401,1.158,2.783
		C55.337,81.33,56.6,77.707,54.738,79.323"/>
	<path clip-path="url(#SVGID_46_)" fill="#8BD1ED" d="M248.476,176.134c-0.985,1.496-2.034,3.268-2.45,2.793
		C245.83,180.916,246.224,181.546,248.476,176.134"/>
	<path clip-path="url(#SVGID_46_)" fill="#8BD1ED" d="M246.025,178.927l0.114-1.283c-0.094,0.379-0.191,0.69-0.274,1.129
		C245.897,178.91,245.974,178.868,246.025,178.927"/>
	<path clip-path="url(#SVGID_46_)" fill="#8BD1ED" d="M204.314,213.41c-2.295,5.115-5.168,6.661-8.509,10.557
		c-1.272,0.008-2.563-0.049-3.813-0.098c-3.715,4.041-0.494,3.213-2.957,6.706c-2.552,0.844-5.86,2.949-8.953,4.843
		c-3.079,1.909-5.939,3.592-7.081,4.015c-1.996-0.408,1.238-2.337,1.624-3.342c-2.696,1.769-3.772,3.081-5.101,4.396
		c-1.332,1.294-2.939,2.593-6.883,3.81l-0.329-0.627c-8.857,4.553-20.323,6.787-32.082,6.361
		c-11.818-0.346-23.716-3.249-34.502-7.249c1.338,0.81,0.763,1.108,1.095,1.836c-11.368-4.706-22.454-12.408-31.693-21.296
		c-9.333-8.86-16.832-18.762-23.513-27.304c2.925,6.477,6.574,15.448,12.135,23.489c5.452,8.05,12.739,15,19.811,17.688
		c3.037,4.909,11.463,7.13,12.097,10.384c8.836,5.639,16.246,7.397,23.347,8.413c7.168,0.933,14.174,1.178,23.838,1.622
		c2.761,0.557,1.379,1.77,2.165,3.006c-5.277,0.3-10.611,0.188-15.937-0.33c3.145,0.894,6.346,1.649,9.59,2.256
		c-2.172,0.408-5.85,0.089-9.14-0.247c-3.294-0.327-6.222-0.62-7.077,0.355c7.33,0.335,16.514,1.428,25.56,1.119
		c9.017-0.251,17.772-1.925,23.304-4.968c-5.67,0.781-12.616,2.564-19.42,2.645c-3.017-0.654-7.551-1.334-7.213-2.589
		c9.448-1.573,17.706-3.046,25.924-5.199c8.172-2.163,16.318-5.099,24.279-10.173c4.012-2.484,9.325-5.981,10.668-5.501
		c-2.299,2.182,0.214,1.611-1.588,3.598c2.536-2.387,1.979-3.413,1.883-4.458c-0.116-1.075,0.22-2.12,4.045-4.982l1.766,4.072
		c0.096-3,2.45-4.754,5.183-6.821c2.719-2.039,5.836-4.432,7.062-7.968c2.912-0.896,0.799,3.444-2.966,7.521
		c4.846-4.087,3.301-6.184,6.372-9.975c0.023,1.97-0.02,3.96-0.133,5.968c0.762-6.275,6.395-7.216,9.142-9.277
		c-0.588-0.794-4.312,0.121-0.646-5.47c1.849-2.254,1.905-0.533,2.688-0.872c-0.604-0.785-0.79-3.648,1.009-7.631
		c1.447-0.222,0.368,3.438,1.301,4.269c1.495-3.075,2.395-5.686,4.283-7.593c1.293-5.983-1.745-0.297-1.655-4.169
		c3.855-8.304,4.282,0.548,7.851-1.868c-0.544,7.496-4.218,16.417-5.4,20.332c2.041-4.344,3.792-8.8,5.234-13.334
		c1.072,1.429,5.683-8.341,4.343-0.622c3.214-6.632,5.318-14.608,6.193-22.588c0.905-7.985,0.601-15.969-0.254-22.881
		c-0.413,1.987-0.694,4.501-1.6,4.094c-0.959-7.041,0.695-6.325,1.661-7.878c-1.426-5.229-3.858-4.355-6.066-7.215
		c0.252-5.352-0.256-8.379-0.617-11.202c-0.394-2.837-0.644-5.479-0.739-10.328l-2.136,1.336c-0.351-6.759-4.122-6.252-5.737-13.016
		c0.306-0.581,2.044,1.515,3.434,3.255c-3.316-5.247-0.568-6.117-4.364-11.026c1.59,0.945,3.184,1.934,4.755,2.977
		c-2.343-4.413-7.019-10.071-3.674-9.158c-3.529-2.966-7.298-7.584-11.567-12.127c-4.232-4.558-8.979-9.021-13.578-11.871
		l1.927-1.149c-2.96-0.871-6.888-4.108-11.075-6.906c-4.145-2.836-8.532-5.193-11.356-4.957l-0.314-1.139
		c-3.688-0.868-7.383-1.534-11.053-2.004c-4.418-2.024-1.801-4.386-2.465-3.709c-10.453-3.239-18.792-4.621-25.605-6.6
		c-2.132,2.526-13.308,2.199-22.098,3.372c-21.356,0.539-43.223,9.174-59.678,23.292c-16.642,14.004-27.666,33.089-32.269,51.608
		c-1.834,5.472-0.72,13.841-0.255,20.714c0.947-4.076,1.263-6.316,1.496-8.592c0.24-2.267,0.447-4.558,1.683-8.5
		c2.678-5.665,6.311-6.668,10.074-10.455l-3.274,1.345c0.794-4.114,1.806-5.227,2.571-6.158c0.801-0.931,1.397-1.674,2.005-5.084
		l3.189,2.226c-0.606-2.957,3.918-6.756,6.093-7.89l-0.877-3.269c4.3-3.065,7.013-4.967,9.79-4.354l-2.108-1.357
		c1.199-0.15,4.476-3.594,7.546-5.827c3.057-2.269,5.629-3.42,4.657-0.029c0.737-1.284,0.978-3.108,3.674-4.663l1.779,1.746
		c3.177-3.018,7.261-5.837,9.013-5.195c-1.782,1.632-1.904,2.961-2,4.271c7.769-4.179,7.968-6.054,7.74-8.338
		c-0.164-2.124-0.724-4.574,7.371-7.494l0.307,1.574c1.179-0.979,2.39-1.943,3.638-2.865c1.643,0.229,3.269,0.512,4.871,0.836
		c2.34-3.329,8.458-4.401,15.018-4.327c6.602,0.015,13.494,1.15,18.817,0.45c4.191,0.116,8.845,4.164,16.087,6.065l0.261-2.487
		c2.634,2.089,9.193,5.525,14.758,10.139c5.618,4.553,10.102,10.142,10.352,14.009c5.335,1.9-0.093-0.758,1.174-2.204
		c4.975,2.326,6.875,4.663,7.867,6.784c0.979,2.163,1.104,4.192,2.347,6.7c5.115,4.071-2.526-4.319,1.103-2.935
		c2.633,4.361,4.368,5.508,6.41,6.949c1.971,1.449,4.34,3.189,6.732,9.108c-0.59,1.745-2.421-2.357-3.896-2.945
		c3.362,3.028,6.634,8.556,9.039,14.979c2.44,6.425,3.973,13.674,5.043,20.136c0.149,7.54-0.33,16.794-2.513,26.011
		c-2.107,9.211-5.95,18.175-10.748,25.069l0.647,0.681c-5.154,5.044-7.529,12.431-13.799,17.847
		C201.93,214.874,203.129,214.16,204.314,213.41"/>
	<path clip-path="url(#SVGID_46_)" fill="#8BD1ED" d="M45.255,191.52l-0.95,2.521c2.089,2.63,4.269,5.157,6.559,7.552
		C49.985,197.372,47.624,196.5,45.255,191.52"/>
	<path clip-path="url(#SVGID_46_)" fill="#8BD1ED" d="M51.804,190.107c-1.104-1.217-2.171-2.473-3.222-3.754
		c1.283,2.293,2.622,4.555,4.075,6.739L51.804,190.107z"/>
	<path clip-path="url(#SVGID_46_)" fill="#8BD1ED" d="M150.441,244.408l-1.252-0.227c-5.97,1.024-12.072,1.525-18.228,1.531
		C137.52,245.864,144.048,245.421,150.441,244.408"/>
	<path clip-path="url(#SVGID_46_)" fill="#8BD1ED" d="M250.229,177.533c0.255,2.492-1.374,5.339-1.666,7.777
		c0.938-2.948,1.748-5.922,2.428-8.913L250.229,177.533z"/>
	<path clip-path="url(#SVGID_46_)" fill="#8BD1ED" d="M141.721,58.473c-0.402-0.355,0.007,0.177,0.267,0.718L141.721,58.473z"/>
	<path clip-path="url(#SVGID_46_)" fill="#8BD1ED" d="M141.987,59.19l0.182,0.509C142.147,59.554,142.076,59.374,141.987,59.19"/>
	<path clip-path="url(#SVGID_46_)" fill="#8BD1ED" d="M143.718,63.926c-0.57-1.023-0.854-2.396-1.373-2.966
		C142.638,62.098,143.342,63.757,143.718,63.926"/>
</g>
<polygon fill="#8BD1ED" points="143.644,63.021 143.253,62.237 143.065,62.153 "/>
<polygon fill="#8BD1ED" points="143.115,61.668 143.83,63.098 143.11,61.511 "/>
<g>
	<defs>
		<rect id="SVGID_47_" width="283.465" height="283.465"/>
	</defs>
	<clipPath id="SVGID_48_">
		<use xlink:href="#SVGID_47_"  overflow="visible"/>
	</clipPath>
	<path clip-path="url(#SVGID_48_)" fill="#8BD1ED" d="M144.978,67.644l-0.437-1.079c-0.187-1.091,0.499,0.584,0.373-0.146
		c-0.503-1.363-0.556-0.328-1.13-2.051c-0.119,0.2,1.01,2.724,0.633,2.551C144.851,68.383,144.605,66.93,144.978,67.644"/>
	<path clip-path="url(#SVGID_48_)" fill="#8BD1ED" d="M190.724,94.468l0.339,0.846c-0.008-0.085-0.026-0.189-0.065-0.32
		L190.724,94.468z"/>
	<path clip-path="url(#SVGID_48_)" fill="#8BD1ED" d="M201.869,99.431c0.032,0.041,0.068,0.072,0.107,0.077l-0.001-0.036
		l-0.13-0.186L201.869,99.431z"/>
	<path clip-path="url(#SVGID_48_)" fill="#8BD1ED" d="M200.925,93.894l0.031,0.192c0.074-0.159,0.144-0.054,0-0.782
		c-0.343-0.557-0.327,0.459-0.819-0.545c0.078,0.199,0.157,0.507,0.216,0.801C200.382,93.083,200.662,93.465,200.925,93.894"/>
	<path clip-path="url(#SVGID_48_)" fill="#8BD1ED" d="M200.353,93.561l-0.005,0.034c-0.01,0.052-0.015,0.109-0.017,0.172
		c0.043,0.152,0.075,0.303,0.093,0.428C200.434,94.067,200.406,93.828,200.353,93.561"/>
	<path clip-path="url(#SVGID_48_)" fill="#8BD1ED" d="M190.693,74.608c0.063-0.435-0.045,0.068-0.244,0.019
		c-0.033,0.097-0.055,0.182-0.066,0.259C190.522,74.826,190.595,74.703,190.693,74.608"/>
	<path clip-path="url(#SVGID_48_)" fill="#8BD1ED" d="M156.563,69.033c-0.01,0.003-0.016,0.006-0.027,0.002l0.025,0.049
		L156.563,69.033z"/>
	<path clip-path="url(#SVGID_48_)" fill="#8BD1ED" d="M176.343,87.552l-0.278,0.197C176.128,87.716,176.215,87.656,176.343,87.552"
		/>
	<path clip-path="url(#SVGID_48_)" fill="#8BD1ED" d="M201.337,97.611l0.658,2.595l-0.125-0.775
		C201.64,99.107,201.602,97.925,201.337,97.611"/>
	<path clip-path="url(#SVGID_48_)" fill="#8BD1ED" d="M199.851,92.863c-0.033-0.025,0.047,0.393,0.144,0.902
		C200.014,93.651,199.984,93.397,199.851,92.863"/>
	<path clip-path="url(#SVGID_48_)" fill="#8BD1ED" d="M191.505,94.897c0.042,0.077,0.087,0.151,0.135,0.211L191.505,94.897z"/>
	<path clip-path="url(#SVGID_48_)" fill="#8BD1ED" d="M190.952,93.916c-0.395-0.925-1.361-2.542-1.555-2.643l1.056,1.809
		l0.561,0.993l0.29,0.506l0.201,0.316C191.393,94.687,191.041,93.761,190.952,93.916"/>
	<path clip-path="url(#SVGID_48_)" fill="#8BD1ED" d="M201.94,96.585c0.124,0.497,0.331,1.067,0.389,0.942l-0.446-1.332
		L201.94,96.585z"/>
	<path clip-path="url(#SVGID_48_)" fill="#8BD1ED" d="M201.005,97.051c-0.126,0.518,0.357,1.259,0.508,2.178
		C201.296,98.198,201.361,98.312,201.005,97.051"/>
	<path clip-path="url(#SVGID_48_)" fill="#8BD1ED" d="M201.871,94.943c0.201,0.338,0.291,0.921,0.365,1.266
		C202.334,96.005,202.043,95.082,201.871,94.943"/>
	<path clip-path="url(#SVGID_48_)" fill="#8BD1ED" d="M201.179,92.812c-0.026-0.469,0.166,0.057,0.138-0.295
		c-0.161-0.979-0.472-1.969-0.77-2.465c-0.028,0.281-0.213,0.705-0.451,0.353c0.535,1.477,1.214,2.12,1.071,2.956l0.785,1.143
		C201.684,93.272,201.393,93.658,201.179,92.812"/>
	<path clip-path="url(#SVGID_48_)" fill="#8BD1ED" d="M201.215,96.094l-0.079-0.848c-0.095,0.2-0.288-0.406-0.454-0.822
		C200.427,94.724,201.072,95.637,201.215,96.094"/>
</g>
<polygon fill="#8BD1ED" points="197.914,83.429 198.396,84.542 197.736,82.874 "/>
<polygon fill="#8BD1ED" points="198.12,83.421 198.194,83.346 197.569,82.112 "/>
<polygon fill="#8BD1ED" points="197.649,81.817 198.085,82.784 197.59,81.611 "/>
<g>
	<defs>
		<rect id="SVGID_49_" width="283.465" height="283.465"/>
	</defs>
	<clipPath id="SVGID_50_">
		<use xlink:href="#SVGID_49_"  overflow="visible"/>
	</clipPath>
	<path clip-path="url(#SVGID_50_)" fill="#8BD1ED" d="M196.282,78.082v0.36c0.209,0.41,0.4,1.317,0.542,1.168
		C196.622,79.262,196.288,78.374,196.282,78.082"/>
	<path clip-path="url(#SVGID_50_)" fill="#8BD1ED" d="M188.97,76.336c0.179-0.281-0.018-0.214-0.214-0.15l-0.228,0.512
		C188.635,76.589,188.842,76.376,188.97,76.336"/>
	<path clip-path="url(#SVGID_50_)" fill="#8BD1ED" d="M187.118,77.459l-0.803,1.071c1.155-0.974,1.175-1.269,2.135-2.17
		c-0.473,0.306-0.934,0.961-1.509,1.376L187.118,77.459z"/>
	<path clip-path="url(#SVGID_50_)" fill="#8BD1ED" d="M141.043,50.781c-0.089-0.156-0.158,0.053-0.227,0.262
		C140.948,52.062,141.018,50.576,141.043,50.781"/>
	<path clip-path="url(#SVGID_50_)" d="M31.704,253.92c0,0,24.755,6.591,45.953,6.186c13.672-0.261,151.794-5.482,191.156-51.35
		C268.813,208.756,110.092,229.067,31.704,253.92"/>
	<path clip-path="url(#SVGID_50_)" d="M220.447,231.151c0,0,4.219,15.366,23.348,11.924c0,0-18.577-5.059-11.915-14.679"/>
	<path clip-path="url(#SVGID_50_)" d="M142.124,183.953c7.166,4.785,7.921,22.051,9.054,31.956
		c-2.516,2.954-1.305,6.549-3.265,13.251c1.96-0.311,3.923-0.622,5.881-0.932c0.862-0.136,3.479-4.96,4.298-6.712
		c-0.604-7.869,13.189-32.199,29.15-39.882C181.801,175.803,155.083,181.23,142.124,183.953 M222.722,205.944
		c-0.688-3.302-1.94-2.744-2.536-6.167c-0.104-9.807-8.423-14.855-11.334-25.007c-1.634-5.707-0.813-13.706-2.555-20.367
		c-2.67-10.21-15.575-17.32-16.253-22.218c-0.486-3.558,2.761-5.793,3.884-9.33c3.578-11.266-21.159-8.25-22.457-14.414
		c-2.725-12.927,42.943-9.675,28.063-40.633c-6.824,39.129-36.188,26.032-30.223,43.007c1.588,4.522,20.225,4.728,21.27,8.298
		c3.626,12.393-17.656,12.555-28.593,12.984c-14.356,0.561-21.714-18.142-22.89-16.53c0.506-0.988-2.092-0.587,2.512-2.058
		c5.229-1.504,16.181-5.314,15.939-13.036c-4.423-4.811-9.729-7.626-14.209-11.751c0.07-1.155,0.322-4.538,0.92-5.427
		c3.339-2.625,10.606,0.38,11.371-6.189c1.148-2.696-1.667-7.669-1.995-7.607c4.953,12.065-16.673,3.982-16.564,13.445
		c0.009,0.904-0.033,1.59,0.048,2.193c-4.209-0.441-8.757,0.294-12.605,1.895c-0.755-1.104-3.996-2.966-3.456-4.909
		c5.445-8.232,23.077-4.864,20.459-18.653c-0.353-0.57-1.446-3.688-1.446-3.688c-0.396,16.399-37.915,8.18-30.755,28.963
		c1.198,3.484,2.779,4.614,5.251,6.001l-4.757-1.059c-4.635,1.688-7.559,3.471-7.093,3.899c0.466,0.429,0.889,0.917,1.445,1.085
		c4.307,1.299,9.004,0.404,9.004,0.404c-10.578,3.637-22.094,20.808-23.008,38.463c-12.016-0.409-23.469,9.892-24.896,19.1
		c0.588,3.708,8.164,10.437,11.291,16.302c2.854,2.338,9.019,1.923,9.019,1.923c4.473-5.104,0.283-6.34-1.657-10.459
		c-5.924-0.152-6.398-5.157-7.808-8.897c7.828-2.015,7.772,1.041,15.3-0.562c1.866,3.124,4.562,9.593,13.056,8.754
		c-3.212-5.923-8.348-19.825-5.111-24.523c-3.588,10.504,6.875,19.889,6.516,28.45c-0.254,6.026-6.43,7.796-9.353,12.874
		c-2.955,7.249-6.08,12.552-9.075,18.86c-2.01,5.403-0.949,6.757-1.059,10.221c3.228-0.997,5.056-0.064,6.846,0.926
		c0,0,3.281-8.648,5.742-10.292c4.174-24.537,35.667-29.231,41.986-52.218c-1.937,11.129-10.838,18.128-18.577,25.042
		c11.002,19.661,39.643,2.536,56.824,4.897c20.447,2.81,39.254,18.95,34.863,38.224c0.959-0.228,4.366,0.364,6.745,0.271
		C219.826,210.702,221.869,210.342,222.722,205.944"/>
	<path clip-path="url(#SVGID_50_)" d="M75.133,239.987c-3.918,2.063-15.674,0.725-19.028-2.168
		c-2.961-16.056,4.585-33.929,12.805-41.914c3.98-34.933,8.7-76.363,13.007-114.166c1.294-11.356-0.549-34.888,6.786-31.358
		c-4.531,45.824-13.598,116.942-21.097,171.083c4.206-4.385,2.422-16.293,4.295-23.609C79.92,205.572,81.001,225.977,75.133,239.987
		"/>
	<path clip-path="url(#SVGID_50_)" fill="#FFFFFF" d="M225.896,223.214c0.429-0.075,0.687,0.218,0.719,0.595
		c0.117,1.336-1.798,1.674-2.412,1.782C224.283,225.031,224.553,223.451,225.896,223.214 M227.367,227.447
		c-0.032-0.054-0.051-0.095-0.123-0.081c-0.214,0.037-0.92,0.752-1.763,0.899c-1.343,0.237-1.327-0.9-1.365-1.337
		c0.814-0.143,4.441-0.783,4.202-3.522c-0.102-1.16-0.938-1.777-2.279-1.541c-2.201,0.388-3.861,2.771-3.608,5.671
		c0.141,1.61,1.007,2.561,2.72,2.259c1.458-0.257,2.724-1.201,2.707-1.389c-0.004-0.043-0.036-0.082-0.054-0.123L227.367,227.447z
		 M220.152,228.867c-0.016-0.027-0.077-0.061-0.12-0.052c-0.172,0.029-0.514,0.429-1.185,0.547c-0.7,0.124-1.089-0.177-1.158-0.975
		c-0.163-1.856,0.462-3.661,1.748-3.888c0.899-0.159,1.16,0.164,1.288,0.141c0.043-0.007,0.085-0.028,0.121-0.108l0.464-0.995
		c0.025-0.048,0.075-0.146,0.071-0.189c-0.014-0.144-0.857-0.51-1.972-0.313c-2.171,0.383-3.807,2.54-3.546,5.527
		c0.165,1.886,1.332,2.637,2.902,2.359c0.814-0.144,1.907-0.748,1.884-1.009c-0.005-0.059-0.038-0.096-0.056-0.137L220.152,228.867z
		 M213.554,231.34c0.069-0.042,0.166-0.088,0.157-0.188c-0.016-0.175-0.146-0.505-0.19-0.85c-0.019-0.218-0.019-0.719,0.024-1.051
		l0.546-4.704c0.009-0.061,0.018-0.122,0.013-0.18c-0.006-0.072-0.055-0.138-0.17-0.117l-1.128,0.199
		c-0.1,0.018-0.154,0.057-0.188,0.18l-0.123,0.418c-0.248-0.206-0.724-0.666-1.651-0.502c-1.815,0.32-3.175,2.988-2.924,5.86
		c0.133,1.522,0.751,2.296,1.793,2.111c1.243-0.219,1.903-1.291,2.187-1.709c0.063,0.725,0.229,1.284,0.385,1.256
		c0.071-0.013,0.125-0.052,0.167-0.073L213.554,231.34z M211.938,228.607c-0.12,0.948-0.566,2.146-1.624,2.334
		c-0.386,0.067-0.627-0.199-0.677-0.766c-0.132-1.509,0.276-4.144,1.491-4.357c0.514-0.092,0.873,0.199,1.102,0.336L211.938,228.607
		z M202.039,227.997l0.338-2.934l0.6-0.105c0.743-0.131,1.328-0.072,1.401,0.77c0.111,1.277-0.625,1.968-1.91,2.193L202.039,227.997
		z M201.847,229.619l0.715-0.126l1.54,3.852c0.038,0.097,0.1,0.145,0.171,0.132c0.072-0.013,0.155-0.057,0.226-0.084l1.311-0.585
		c0.097-0.046,0.151-0.1,0.144-0.173c-0.005-0.058-0.089-0.189-0.107-0.246l-1.655-3.507c1.358-0.71,2.151-2.248,2.014-3.814
		c-0.17-1.942-1.65-1.976-3.163-1.708l-2.114,0.371c-0.171,0.03-0.213,0.054-0.239,0.248l-1.138,9.697
		c-0.01,0.062-0.015,0.179-0.01,0.224c0.008,0.087,0.043,0.153,0.228,0.121l1.386-0.244c0.171-0.03,0.213-0.053,0.239-0.248
		L201.847,229.619z M192.638,233.94c-0.022-0.086-0.066-0.093-0.109-0.085c-0.07,0.013-0.275,0.152-0.519,0.194
		c-0.214,0.038-0.336-0.029-0.354-0.231c-0.018-0.203,0.051-0.583,0.092-0.944l0.953-7.825c0.008-0.09,0.026-0.211,0.019-0.298
		c-0.009-0.101-0.027-0.142-0.084-0.132c-0.043,0.008-0.141,0.054-0.196,0.079l-1.233,0.481c-0.212,0.082-0.221,0.143-0.236,0.292
		l-0.934,7.72c-0.068,0.527-0.082,1.045-0.035,1.566c0.082,0.941,0.662,1.118,1.489,0.973c0.558-0.099,1.425-0.458,1.405-0.675
		c-0.003-0.043-0.022-0.099-0.027-0.142L192.638,233.94z M185.907,230.265c0.43-0.076,0.688,0.219,0.721,0.596
		c0.116,1.336-1.798,1.673-2.413,1.781C184.297,232.082,184.564,230.502,185.907,230.265 M187.381,234.498
		c-0.034-0.053-0.053-0.094-0.123-0.082c-0.214,0.038-0.921,0.752-1.765,0.901c-1.343,0.236-1.326-0.901-1.364-1.338
		c0.814-0.143,4.441-0.782,4.202-3.522c-0.102-1.16-0.938-1.777-2.279-1.541c-2.201,0.388-3.862,2.771-3.608,5.671
		c0.142,1.611,1.006,2.561,2.721,2.259c1.456-0.257,2.723-1.201,2.705-1.389c-0.004-0.043-0.035-0.082-0.054-0.123L187.381,234.498z
		 M180.007,237.255c0.068-0.041,0.167-0.088,0.158-0.188c-0.017-0.175-0.146-0.505-0.191-0.85c-0.015-0.174-0.052-0.433-0.008-0.765
		l0.981-8.331c0.008-0.089,0.025-0.21,0.02-0.283c-0.011-0.116-0.029-0.157-0.086-0.146c-0.043,0.008-0.141,0.055-0.196,0.078
		l-1.234,0.483c-0.21,0.081-0.219,0.142-0.234,0.292l-0.36,3.008c-0.24-0.09-0.574-0.267-1.272-0.143
		c-2.473,0.435-3.352,3.799-3.148,6.121c0.127,1.448,0.732,2.078,1.745,1.898c1.271-0.224,1.852-1.224,2.173-1.707
		c0.063,0.726,0.229,1.284,0.385,1.256c0.071-0.012,0.126-0.052,0.167-0.073L180.007,237.255z M178.421,234.354
		c-0.123,1.082-0.653,2.324-1.524,2.479c-0.444,0.078-0.72-0.256-0.773-0.88c-0.133-1.509,0.193-3.923,1.651-4.181
		c0.485-0.086,0.817,0.063,0.937,0.101L178.421,234.354z M171.881,238.688c0.068-0.041,0.166-0.088,0.158-0.188
		c-0.017-0.174-0.146-0.504-0.191-0.849c-0.015-0.176-0.052-0.434-0.009-0.766l0.982-8.331c0.006-0.089,0.025-0.21,0.02-0.283
		c-0.011-0.115-0.029-0.156-0.086-0.146c-0.043,0.008-0.141,0.054-0.196,0.079l-1.234,0.482c-0.21,0.081-0.22,0.142-0.234,0.292
		l-0.36,3.009c-0.24-0.092-0.574-0.268-1.272-0.145c-2.473,0.437-3.352,3.8-3.148,6.121c0.127,1.45,0.732,2.079,1.745,1.9
		c1.271-0.225,1.852-1.225,2.173-1.707c0.063,0.724,0.229,1.284,0.385,1.256c0.071-0.013,0.126-0.052,0.167-0.074L171.881,238.688z
		 M170.295,235.787c-0.123,1.083-0.653,2.325-1.525,2.479c-0.443,0.078-0.719-0.256-0.772-0.88c-0.133-1.509,0.193-3.923,1.65-4.18
		c0.486-0.086,0.817,0.062,0.938,0.1L170.295,235.787z M163.841,240.105c0.068-0.042,0.166-0.088,0.157-0.189
		c-0.016-0.174-0.146-0.503-0.19-0.849c-0.019-0.218-0.019-0.719,0.024-1.051l0.546-4.705c0.009-0.06,0.018-0.12,0.013-0.179
		c-0.006-0.072-0.056-0.137-0.17-0.117l-1.128,0.199c-0.101,0.018-0.154,0.056-0.188,0.18l-0.123,0.418
		c-0.25-0.205-0.724-0.666-1.652-0.502c-1.815,0.32-3.175,2.988-2.923,5.86c0.133,1.522,0.751,2.296,1.792,2.112
		c1.243-0.22,1.904-1.292,2.187-1.709c0.064,0.724,0.229,1.283,0.385,1.256c0.072-0.013,0.126-0.052,0.168-0.074L163.841,240.105z
		 M162.225,237.372c-0.119,0.95-0.566,2.147-1.624,2.334c-0.385,0.068-0.627-0.198-0.676-0.764c-0.132-1.51,0.275-4.145,1.491-4.358
		c0.514-0.091,0.873,0.199,1.102,0.336L162.225,237.372z M152.982,236.646l0.338-2.933l0.6-0.105
		c0.742-0.132,1.328-0.072,1.401,0.77c0.112,1.277-0.626,1.967-1.911,2.193L152.982,236.646z M152.791,238.269l0.742-0.131
		c2.113-0.372,3.843-1.81,3.613-4.421c-0.169-1.941-1.649-1.975-3.164-1.708l-2.113,0.372c-0.172,0.03-0.213,0.052-0.239,0.248
		l-1.139,9.697c-0.009,0.061-0.013,0.179-0.009,0.223c0.007,0.087,0.042,0.154,0.229,0.122l1.385-0.245
		c0.171-0.03,0.213-0.052,0.239-0.248L152.791,238.269z M138.989,244.62c0.24,0.09,0.574,0.267,1.274,0.143
		c2.471-0.436,3.35-3.799,3.146-6.121c-0.126-1.448-0.731-2.078-1.744-1.898c-1.272,0.224-1.853,1.224-2.173,1.707
		c-0.063-0.726-0.228-1.284-0.385-1.256c-0.071,0.012-0.125,0.051-0.167,0.072l-1.102,0.651c-0.069,0.041-0.166,0.088-0.157,0.189
		c0.015,0.174,0.145,0.504,0.19,0.849c0.015,0.174,0.052,0.433,0.009,0.765l-0.948,8.06c-0.007,0.09-0.038,0.228-0.031,0.314
		c0.007,0.072,0.012,0.13,0.083,0.118c0.043-0.008,0.155-0.057,0.211-0.081l1.233-0.482c0.211-0.081,0.22-0.143,0.236-0.292
		L138.989,244.62z M139.425,240.818c0.136-1.084,0.652-2.324,1.524-2.479c0.443-0.078,0.719,0.256,0.773,0.88
		c0.132,1.509-0.191,3.952-1.649,4.209c-0.485,0.086-0.819-0.091-0.938-0.129L139.425,240.818z M135.578,235.637
		c0.009-0.061,0.013-0.179,0.009-0.223c-0.007-0.087-0.042-0.154-0.228-0.121l-1.343,0.236c-0.171,0.029-0.212,0.053-0.239,0.249
		l-0.754,6.627c-0.127,1.038-0.424,2.121-1.666,2.34c-0.743,0.131-1.297-0.066-1.366-0.863c-0.028-0.319-0.013-0.646,0.046-0.966
		l0.799-6.443c0.009-0.061,0.013-0.179,0.01-0.223c-0.008-0.087-0.043-0.154-0.228-0.121l-1.386,0.244
		c-0.171,0.03-0.212,0.052-0.239,0.248l-0.755,6.598c-0.05,0.421-0.072,0.837-0.035,1.258c0.142,1.623,1.321,2.181,3.091,1.868
		c2.999-0.528,3.341-2.59,3.54-4.289L135.578,235.637z M120.311,247.781c0.069-0.041,0.167-0.088,0.158-0.189
		c-0.015-0.174-0.146-0.504-0.191-0.849c-0.015-0.174-0.052-0.434-0.008-0.766l0.982-8.331c0.007-0.089,0.025-0.21,0.019-0.282
		c-0.01-0.116-0.029-0.157-0.086-0.147c-0.043,0.008-0.14,0.055-0.196,0.079l-1.234,0.483c-0.21,0.081-0.219,0.142-0.235,0.292
		l-0.36,3.008c-0.24-0.09-0.574-0.268-1.273-0.144c-2.472,0.436-3.351,3.8-3.148,6.121c0.127,1.449,0.732,2.078,1.745,1.899
		c1.272-0.224,1.852-1.224,2.173-1.707c0.063,0.725,0.228,1.284,0.385,1.256c0.071-0.012,0.126-0.052,0.167-0.074L120.311,247.781z
		 M118.725,244.881c-0.123,1.082-0.653,2.324-1.524,2.479c-0.444,0.077-0.72-0.257-0.774-0.881c-0.132-1.509,0.194-3.923,1.652-4.18
		c0.485-0.086,0.817,0.063,0.936,0.101L118.725,244.881z M112.619,244.557c0.054-0.377,0.077-0.778,0.044-1.155
		c-0.07-0.798-0.647-1.431-1.574-1.268c-1.172,0.207-1.899,1.351-2.244,1.881c-0.071-0.811-0.257-1.439-0.414-1.412
		c-0.071,0.013-0.097,0.047-0.139,0.068l-1.102,0.651c-0.068,0.041-0.166,0.088-0.157,0.188c0.023,0.261,0.169,0.441,0.207,0.876
		c0.041,0.464-0.013,0.841-0.067,1.219l-0.589,4.536c0.005,0.059-0.005,0.119-0.001,0.162c0.01,0.116,0.084,0.133,0.199,0.113
		l1.327-0.235c0.143-0.024,0.17-0.044,0.185-0.209l0.362-2.979c0.137-1.085,0.451-2.966,1.766-3.198
		c0.3-0.053,0.449,0.157,0.478,0.49c0.027,0.305-0.005,0.604-0.051,0.907l-0.582,4.3c0.005,0.058-0.004,0.118,0,0.162
		c0.01,0.115,0.084,0.132,0.198,0.111l1.329-0.233c0.143-0.025,0.17-0.045,0.184-0.209L112.619,244.557z M104.145,250.632
		c0.069-0.042,0.166-0.088,0.157-0.189c-0.015-0.175-0.145-0.504-0.19-0.85c-0.019-0.217-0.019-0.718,0.024-1.05l0.546-4.705
		c0.009-0.06,0.018-0.121,0.013-0.179c-0.006-0.072-0.056-0.138-0.17-0.117l-1.128,0.199c-0.1,0.017-0.154,0.056-0.187,0.18
		l-0.123,0.418c-0.249-0.206-0.724-0.666-1.653-0.502c-1.815,0.32-3.175,2.988-2.923,5.86c0.133,1.521,0.751,2.296,1.792,2.111
		c1.244-0.219,1.905-1.291,2.187-1.709c0.064,0.725,0.229,1.283,0.385,1.256c0.072-0.013,0.126-0.052,0.168-0.073L104.145,250.632z
		 M102.53,247.897c-0.12,0.95-0.567,2.148-1.625,2.335c-0.385,0.067-0.627-0.198-0.676-0.765c-0.132-1.509,0.276-4.144,1.491-4.357
		c0.514-0.092,0.873,0.198,1.102,0.336L102.53,247.897z M96.8,250.721c-0.035-0.067-0.052-0.094-0.123-0.082
		c-0.086,0.016-0.613,0.447-1.256,0.561c-0.371,0.065-0.572-0.075-0.603-0.424c-0.02-0.232,0.002-0.472,0.039-0.715l0.385-3.559
		l1.842-0.325c0.129-0.021,0.142-0.039,0.188-0.18l0.214-0.861c0.008-0.075,0.046-0.14,0.04-0.213
		c-0.008-0.087-0.084-0.132-0.213-0.109l-1.914,0.338l0.24-1.898c0.008-0.075,0.016-0.15,0.011-0.208
		c-0.006-0.072-0.054-0.123-0.111-0.113c-0.072,0.014-0.128,0.038-0.185,0.048l-1.283,0.417c-0.084,0.03-0.154,0.058-0.171,0.193
		l-0.214,1.863l-0.999,0.176c-0.114,0.021-0.181,0.076-0.184,0.209l-0.102,0.827c-0.009,0.06-0.018,0.121-0.012,0.193
		c0.009,0.102,0.07,0.135,0.198,0.111l0.942-0.166l-0.445,3.851c-0.045,0.316-0.061,0.629-0.033,0.948
		c0.093,1.071,0.812,1.343,1.84,1.161c0.914-0.162,2.249-0.809,2.229-1.041c-0.004-0.043-0.022-0.084-0.026-0.127L96.8,250.721z
		 M91.022,243.86c0.035-0.095,0.086-0.178,0.082-0.221c-0.024-0.275-1.539-0.522-2.538-0.347c-2.186,0.385-3.572,1.762-3.389,3.85
		c0.132,1.51,1.194,1.896,2.11,2.266c0.738,0.297,1.401,0.578,1.471,1.375c0.093,1.059-0.645,1.587-1.517,1.741
		c-1.056,0.186-2.008-0.266-2.165-0.237c-0.1,0.018-0.098,0.047-0.146,0.158l-0.45,1.153c-0.035,0.095-0.086,0.178-0.082,0.221
		c0.023,0.261,1.653,0.503,2.723,0.313c2.429-0.428,3.699-2.137,3.529-4.081c-0.073-0.841-0.451-1.349-0.986-1.667
		c-1.21-0.744-2.563-0.771-2.658-1.858c-0.077-0.886,0.554-1.468,1.469-1.63c0.956-0.168,1.794,0.304,1.951,0.275
		c0.1-0.018,0.098-0.047,0.146-0.158L91.022,243.86z"/>
	<path clip-path="url(#SVGID_50_)" d="M225.941,72.584c0.07,0.036,0.196,0.09,0.31-0.007c0.076-0.064,0.098-0.181,0.137-0.246
		l2.135-5.417l6.877,0.175c0.108,0.003,0.218,0.007,0.294-0.058c0.094-0.08,0.081-0.231,0.03-0.35l-0.716-1.88
		c-0.035-0.068-0.05-0.152-0.103-0.204c-0.07-0.07-0.181-0.073-0.289-0.077l-3.491,0.103c-0.878,0.039-1.61,0.082-2.012,0.102
		c0.135-0.213,0.373-0.707,0.745-1.414l1.197-2.286c0.04-0.1,0.008-0.201-0.063-0.27c-0.053-0.052-0.232-0.158-0.304-0.194
		l-1.88-1.015c-0.127-0.055-0.252-0.109-0.327-0.044c-0.075,0.064-0.117,0.197-0.157,0.296l-2.08,4.95l-7.461-0.161
		c-0.11-0.003-0.238,0.009-0.314,0.074c-0.074,0.064-0.045,0.232-0.027,0.283l0.842,1.935c0.016,0.051,0.032,0.135,0.102,0.204
		c0.071,0.069,0.182,0.039,0.291,0.043l3.854-0.058c0.932-0.02,1.537-0.083,2.104-0.148c-0.233,0.427-0.433,0.855-0.729,1.465
		l-1.247,2.652c-0.039,0.066-0.062,0.182,0.009,0.251c0.035,0.035,0.145,0.072,0.233,0.125L225.941,72.584z M212.762,58.467
		c-0.951-0.748-0.666-1.592,0.539-2.875c2.767-2.947,8.099-6.327,10.408-4.51c0.932,0.733,0.647,1.577-0.575,2.879
		C220.368,56.908,215.072,60.284,212.762,58.467 M225.806,55.968c2.291-2.441,2.229-4.783-0.023-6.555
		c-4.465-3.512-11.183-0.059-15.153,4.171c-2.291,2.441-2.212,4.766,0.079,6.568C215.154,63.648,221.853,60.18,225.806,55.968
		 M202.242,41.669l2.29,1.369c0.212,0.127,0.262,0.099,0.456-0.043l1.225-0.937c0.079-0.068,0.181-0.123,0.238-0.203
		c0.058-0.081,0.067-0.219-0.124-0.333l-2.416-1.446l0.815-0.749c0.786-0.71,1.502-1.405,2.604-0.745
		c0.636,0.38,0.871,0.895,1.083,1.022c0.042,0.025,0.12,0.043,0.271-0.04l1.525-1.101c0.065-0.048,0.115-0.076,0.159-0.136
		c0.218-0.301-0.844-1.31-1.734-1.843c-2.903-1.737-4.604-0.48-6.099,0.957l-1.17,1.114l-1.569-0.939
		c-0.232-0.139-0.318-0.104-0.471,0.064l-1.068,0.973c-0.08,0.067-0.159,0.135-0.217,0.216c-0.131,0.18,0.024,0.302,0.151,0.378
		l1.505,0.9l-7.409,6.966c-1.205,1.121-2.128,1.893-3.57,1.031c-0.444-0.266-0.732-0.582-0.796-0.62
		c-0.063-0.038-0.135-0.024-0.25,0.052l-1.463,1.139c-0.079,0.068-0.144,0.116-0.202,0.196c-0.16,0.221,0.664,0.887,1.64,1.47
		c2.883,1.725,5.136,0.165,6.904-1.483L202.242,41.669z M184.922,41.012c-0.94-0.493-0.986-1.242-0.358-2.223
		c1.298-2.025,4.286-4.865,6.321-3.799c0.941,0.493,0.987,1.242,0.358,2.223C189.945,39.238,186.956,42.078,184.922,41.012
		 M193.901,38.856c1.713-2.672,1.057-4.522-1.153-5.679c-3.632-1.903-8.368,0.105-10.843,3.967
		c-1.712,2.673-1.012,4.545,1.285,5.749C186.734,44.75,191.426,42.719,193.901,38.856 M167.645,35.667
		c0.136-0.019,0.318-0.026,0.374-0.191c0.093-0.282,0.111-0.887,0.273-1.458c0.094-0.283,0.209-0.712,0.501-1.202l7.146-12.373
		c0.07-0.136,0.181-0.313,0.22-0.43c0.062-0.189,0.061-0.265-0.035-0.288c-0.072-0.017-0.256-0.009-0.36-0.009l-2.255-0.075
		c-0.384-0.015-0.438,0.074-0.564,0.298l-2.59,4.465c-0.314-0.303-0.72-0.805-1.897-1.083c-4.159-0.982-7.802,3.691-9.046,7.458
		c-0.778,2.355-0.254,3.747,1.453,4.15c2.14,0.506,3.72-0.67,4.547-1.21c-0.389,1.177-0.508,2.164-0.243,2.226
		c0.12,0.029,0.231,0.004,0.312-0.002L167.645,35.667z M167.112,30.059c-0.92,1.61-2.585,3.197-4.051,2.851
		c-0.746-0.176-0.952-0.885-0.618-1.897c0.809-2.449,2.942-6.006,5.395-5.427c0.818,0.193,1.238,0.648,1.399,0.787L167.112,30.059z
		 M156.494,25.515c0.25-0.6,0.46-1.252,0.567-1.888c0.226-1.344-0.455-2.638-2.056-2.765c-2.019-0.161-3.707,1.414-4.503,2.144
		c0.23-1.369,0.194-2.487-0.077-2.509c-0.123-0.01-0.181,0.035-0.259,0.054l-2.097,0.601c-0.131,0.039-0.313,0.074-0.341,0.245
		c-0.074,0.441,0.09,0.801-0.033,1.534c-0.132,0.783-0.383,1.382-0.633,1.982l-2.913,7.226c-0.018,0.098-0.059,0.194-0.07,0.267
		c-0.033,0.196,0.082,0.254,0.279,0.27l2.29,0.183c0.246,0.019,0.299-0.001,0.394-0.266l1.873-4.758
		c0.691-1.729,2.014-4.696,4.279-4.515c0.517,0.041,0.673,0.45,0.578,1.012c-0.086,0.513-0.268,0.995-0.474,1.474l-2.797,6.839
		c-0.017,0.098-0.058,0.194-0.07,0.267c-0.032,0.196,0.082,0.254,0.279,0.27l2.29,0.182c0.246,0.02,0.299,0,0.395-0.265
		L156.494,25.515z M138.334,22.6c0.739-0.048,1.121,0.497,1.106,1.141c-0.051,2.281-3.354,2.495-4.414,2.564
		C135.268,25.373,136.017,22.75,138.334,22.6 M140.037,30.04c-0.047-0.096-0.07-0.169-0.194-0.161
		c-0.369,0.024-1.698,1.1-3.152,1.194c-2.317,0.151-2.077-1.771-2.06-2.515c1.405-0.091,7.665-0.497,7.771-5.182
		c0.045-1.983-1.257-3.186-3.575-3.035c-3.796,0.246-7.055,3.972-7.166,8.93c-0.062,2.751,1.227,4.524,4.185,4.332
		c2.514-0.163,4.834-1.526,4.841-1.848c0.002-0.075-0.046-0.146-0.069-0.219L140.037,30.04z M124.615,29.021
		c-0.224,1.946-1.051,3.496-2.632,3.776c-0.852,0.15-1.289-0.325-1.391-1.486c-0.221-2.519,0.551-6.669,2.546-7.021
		c0.973-0.172,1.633,0.314,1.975,0.554L124.615,29.021z M127.859,25.74c0.194-1.74,1.171-3.267,1.149-3.514
		c-0.008-0.099-0.063-0.165-0.192-0.217l-1.555-0.553c-0.102-0.033-0.256-0.106-0.354-0.088c-0.389,0.068-1.019,1.333-1.209,1.693
		c-0.612-0.494-1.345-1.242-2.999-0.95c-3.551,0.627-5.373,5.765-5.032,9.643c0.199,2.272,1.276,3.838,3.416,3.46
		c1.995-0.352,3.074-2.123,3.418-2.711l0.053,0.041c-0.499,2.195,0.275,4.818-2.766,5.355c-1.946,0.344-3.275-0.45-3.664-0.381
		c-0.098,0.017-0.166,0.079-0.204,0.211l-0.596,1.937c-0.018,0.078-0.06,0.161-0.051,0.26c0.043,0.494,2.494,0.838,4.513,0.482
		c6.179-1.092,5.149-6.629,5.64-10.88L127.859,25.74z M110.301,27.123c0.713-0.201,1.2,0.251,1.321,0.885
		c0.426,2.241-2.759,3.141-3.781,3.43C107.883,30.476,108.067,27.755,110.301,27.123 M113.522,34.042
		c-0.066-0.084-0.104-0.151-0.222-0.117c-0.357,0.101-1.431,1.431-2.834,1.827c-2.234,0.632-2.401-1.297-2.54-2.028
		c1.355-0.383,7.392-2.089,6.516-6.693c-0.371-1.949-1.896-2.853-4.131-2.221c-3.66,1.035-6.068,5.36-5.14,10.232
		c0.515,2.703,2.146,4.167,4.999,3.361c2.424-0.685,4.407-2.503,4.347-2.82c-0.014-0.073-0.075-0.133-0.113-0.199L113.522,34.042z
		 M96.009,25.45c-0.003-0.104-0.033-0.304-0.053-0.376c-0.04-0.143-0.12-0.245-0.42-0.133l-2.244,0.84
		c-0.301,0.113-0.341,0.154-0.324,0.491l1.111,16.596c0.003,0.104,0.033,0.304,0.053,0.375c0.04,0.144,0.119,0.246,0.42,0.133
		l7.796-2.918c0.254-0.095,0.287-0.16,0.323-0.49l0.289-2.086c0.03-0.17,0.02-0.298-0.013-0.417
		c-0.047-0.167-0.206-0.187-0.46-0.092l-5.552,2.078L96.009,25.45z"/>
</g>
</svg>
