<?xml version="1.0" encoding="utf-8"?>
<!-- Generator: Adobe Illustrator 16.0.0, SVG Export Plug-In . SVG Version: 6.00 Build 0)  -->
<!DOCTYPE svg PUBLIC "-//W3C//DTD SVG 1.1//EN" "http://www.w3.org/Graphics/SVG/1.1/DTD/svg11.dtd">
<svg version="1.1" id="Ebene_1" xmlns="http://www.w3.org/2000/svg" xmlns:xlink="http://www.w3.org/1999/xlink" x="0px" y="0px"
	 width="499.832px" height="495.17px" viewBox="0 0 499.832 495.17" enable-background="new 0 0 499.832 495.17"
	 xml:space="preserve">
<g>
	<g>
		<g>
			<polygon fill="#FF9800" points="154.414,78.396 154.476,78.371 154.79,78.118 			"/>
			<polygon fill="#FF9800" points="406.834,298.73 406.842,298.706 406.83,298.703 			"/>
			<polygon fill="#FF9800" points="378.525,358.751 378.582,358.782 378.564,358.717 			"/>
			<polygon fill="#FF9800" points="410.471,254.243 410.498,254.259 410.484,254.178 			"/>
			<polygon fill="#FF9800" points="226.951,434.267 227.214,434.312 227.809,434.091 			"/>
			<polygon fill="#FF9800" points="118.102,381.67 120.221,384.387 121.861,384.231 			"/>
			<polygon fill="#FF9800" points="142.027,404.215 143.833,404.208 142.082,403.37 			"/>
			<polygon fill="#FF9800" points="202.783,437.079 203.343,438.191 203.101,436.839 			"/>
			<polygon fill="#FF9800" points="365.287,409.428 366.102,409.026 367.074,408.445 			"/>
			<polygon fill="#FF9800" points="450.34,297.312 451.213,296.364 450.615,294.029 			"/>
			<polygon fill="#FF9800" points="83.356,153.458 84.812,151.64 84.695,151.199 			"/>
			<polygon fill="#FF9800" points="44.86,229.135 45.056,228.271 45.016,227.515 			"/>
			<path fill="#FF9800" d="M87.268,145.153l0.628-0.817L87.268,145.153z"/>
			<path fill="#FF9800" d="M92.35,141.951l1.001-1.106L92.35,141.951z"/>
			<polygon fill="#FF9800" points="387.404,400.307 387.799,399.919 387.795,399.919 			"/>
			<polygon fill="#FF9800" points="233.532,468.446 235.12,468.535 234.537,468.442 			"/>
			<path fill="#FF9800" d="M210.34,463.226l-4.88-0.823L210.34,463.226z"/>
			<path fill="#FF9800" d="M248.027,77.596l-0.01-0.007L248.027,77.596z"/>
			<polygon fill="#FF9800" points="312.248,89.076 312.787,89.155 312.047,88.856 311.463,88.661 			"/>
			<polygon fill="#FF9800" points="40.71,275.372 40.705,275.565 40.763,275.151 			"/>
			<polygon fill="#FF9800" points="416.137,193.091 416.23,193.034 415.807,192.344 			"/>
			<path fill="#FF9800" d="M54.519,203.733l1.265-2.852L54.519,203.733z"/>
			<polygon fill="#FF9800" points="204.916,462.306 205.46,462.398 204.926,462.299 			"/>
			<polygon fill="#FF9800" points="54.194,338.346 53.641,336.104 52.945,335.183 			"/>
			<polygon fill="#FF9800" points="58.423,355.52 57.109,352.872 56.62,351.941 			"/>
			<polygon fill="#FF9800" points="428.418,214.918 429.102,216.69 427.947,213.308 			"/>
			<polygon fill="#FF9800" points="245.95,101.818 245.218,100.357 244.864,100.203 			"/>
			<polygon fill="#FF9800" points="244.96,99.299 246.299,101.961 244.95,99.008 			"/>
			<polygon fill="#FF9800" points="347.52,139.816 348.424,141.887 347.188,138.783 			"/>
			<polygon fill="#FF9800" points="347.025,136.813 347.84,138.615 346.916,136.429 			"/>
		</g>
		<path fill="#FF9800" d="M120.506,115.958c0.439-0.494-0.044-0.52-1.418,0.613l-0.693,1.176L120.506,115.958z"/>
		<path fill="#FF9800" d="M110.526,122.705c-1.453,1.542-2.976,3.463-1.646,2.917c1.251-1.717,1.767-1.883,3.094-3.781
			c1.344-1.181,2.525-1.835,2.411-1.502c0.407-0.496,2.217-1.661,2.79-2.486c-2.074,1.114-4.406,2.945-6.528,5.196
			C110.07,123.39,110.472,122.875,110.526,122.705"/>
		<path fill="#FF9800" d="M105.873,359.125c-0.663-0.775-1.086-1.033-1.408-1.099l2.441,3.129L105.873,359.125z"/>
		<path fill="#FF9800" d="M102.7,357.8c0.907,0.659,1.169,0.106,1.765,0.227c-7.108-8.963-14.676-21.017-15.687-25.611
			c-1.358-3.609-3.654-3.252-6.191-7.479l0.433-2.6c-1.975-2.013-3.482-10.059-4.655-6.535c-0.084,0.354,1.928,1.703,2.388,3.936
			l-0.901-0.01l2.361,4.659l-1.621-1.108c1.676,7.122,4.832,3.269,7.967,11.377l-1.868,0.92c2.696,5.227,4.797,7.397,6.477,12.449
			c-0.001-0.004,0.917-0.519,0.024-1.144c-0.43-0.876-0.369-2.377,0.506-2.133c6.082,6.576-1.798-0.516,0.795,5.165
			c5.227,5.704,14.907,16.191,16.483,20.326c-1.339-3.493,3.036-0.337,5.783,2.792c0.755,1.902-1.81-0.141-2.74-0.244
			c1.171,1.58,1.837,3.156,3.432,4.341c-0.931-2.613,1.382-2.445,4.999,0.285C116.55,369.514,108.531,366.065,102.7,357.8"/>
		<path fill="#FF9800" d="M76.903,310.128l-2.253-2.022c0.656,2.895,3.706,5.659,4.36,4.722c-1.011-1.707-1.247-4.334-2.148-4.379
			C76.774,308.823,76.275,308.96,76.903,310.128"/>
		<path fill="#FF9800" d="M66.845,283.117c0.989,2.269,2.081,4.5,3.156,6.712c-0.558,1.445,2.565,9.09,0.487,6.909
			c2.981,3.627,4.135,13.039,5.725,8.86c-3.835-9.773-6.737-22.013-8.499-34.798c-1.786-12.799-2.392-26.105-2.832-38.403
			l0.915,3.975c-1.499-12.912,3.815-16.909,1.247-27.687l1.981,1.765c1.666-5.512-0.968-11.64,2.997-16.916l-1.056,0.319
			c0.405-1.564,1.021-2.048,1.483-3.616l-0.582,0.501c0.301-4.344,1.269-6.842,3.252-10.606c0.781-0.031-0.357,1.959-0.599,3.26
			c1.317-1.588,0.96-5.213,2.15-8.283c1.559-2.158,0.951,0.405,1.133,0.845c2.686-9.53,6.803-12.462,6.915-20.191
			c-0.232-0.884-2.22,1.755-0.802-1.595c-4.004,5.361-5.062,10.817-6.497,16.648l0.642-1.524c1.281,5.608-2.129,3.015-3.425,10.646
			c-0.584-2.328,0.589-5.436,0.424-6.926c-5.611,7.404-2.469,12.454-7.234,17.095l0.086-0.649c-0.695,1.164-0.736,3.607-0.946,5.62
			c0.59-0.527,1.281-2.388,1.957-3.577c-0.254,2.03,0.91,3.395,1.326,4.193c-2.009,1.797-0.038,3.046-1.586,6.322
			c-1.614,0.934-0.519-3.169-0.896-4.649l-0.117,4.399c-0.728,3.863-2.284,3.482-3.357,5.274c0.378,3.5,1.083-1.782,1.996,1.15
			c-1.243,1.895-2.522,7.368-3.185,13.482c-0.68,6.103-0.653,12.823-0.127,17.122c-0.079-2.953-1.404-1.094-1.027-4.688
			c-0.377,1.292,0.134,5.96,1.206,6.01c0.745,5.944,0.295,13.41-0.223,19.025l0.92-1.673c2.052,4.457-0.357,11.82,2.043,19.828
			v-0.172c0.667,2.583,3.539,4.32,4.047,9.089C68.413,285.183,68.02,282.61,66.845,283.117"/>
		<path fill="#FF9800" d="M419.152,365.307l0.68-2.105C419.428,363.968,419.143,364.716,419.152,365.307"/>
		<path fill="#FF9800" d="M444.74,304.637c-2.893,3.888-4.275,10.512-6.783,15.608c-3.441,9.817,2.736,2.606-1.354,11.724
			l-2.188-2.946c-4.014,9.042-11.764,20.594-14.367,29.056c-0.756,0.398-2.17,1.521-1.068-0.845
			c-3.773,5.405,1.816,5.577-4.602,11.991c3.615-7.795-3.189,0.958-3.348-2.115l0.627-1.146c-3.266,4.519-7.41,10.762-10.092,13.334
			c0.494,0.688,3.686-0.807,0.309,2.902c1.518-1.356,1.645-0.117,2.137,0.594c2.939-4.43,5.223-6.191,6.439-9.307
			c2.729-1.514-1.014,1.718,1.717,0.203l1.893-3.888c2.145-2.229-1.158,3.17,2.066-0.429c-0.162-0.845,1.727-4.3,4.041-7.271
			l-0.336,1.099c1.381-2.558,4.131-5.587,1.838-5.483l3.412-1.772l-1.352-0.199c4.701-6.229,8.908-7.276,12.469-17.029
			c-1.471,2.002-1.014-0.296-0.625-1.563c-2.73,3.345-1.631,5.045-3.531,8.633c-1.324-0.113,0.742-6.713-2.303-2.888
			c3.908-3.881,4.633-8.822,8.369-9.502c3.021-5.725,2.633-8.562,5.779-14.324l0.346,0.351c-1.441-1.844,2.871-4.629,2.467-9.914
			l-1.574,3.087c-0.717-0.436-0.201-2.002,0.42-4.24c0.217,0.35,0.217,0.35,0.848-0.234c-1.129-1.123,0.793-8.114,0.594-9.113
			c-1.088,2.843-1.02,6.762-1.854,10.277C444.908,307.277,443.582,307.419,444.74,304.637"/>
		<path fill="#FF9800" d="M391.613,396.973l3.76-3.912l1.221-1.6C394.961,393.312,393.32,395.173,391.613,396.973"/>
		<path fill="#FF9800" d="M324.248,434.396c-1.186,0.66-0.33,0.794-1.08,1.494C325.797,435.043,326.514,434.325,324.248,434.396"/>
		<path fill="#FF9800" d="M364.068,417.299c-1.428,0.313-3.303,0.886-5.398,1.535C359.49,419.067,360.15,419.212,364.068,417.299"/>
		<path fill="#FF9800" d="M359.498,381.817c-4.293,9.526-9.67,12.4-15.928,19.657c-2.375,0.014-4.791-0.09-7.133-0.183
			c-6.953,7.524-0.926,5.982-5.535,12.486c-4.777,1.569-10.965,5.488-16.754,9.015c-5.764,3.555-11.117,6.689-13.254,7.477
			c-3.734-0.759,2.316-4.352,3.041-6.223c-5.045,3.293-7.061,5.738-9.551,8.184c-2.494,2.41-5.498,4.828-12.881,7.095l-0.615-1.168
			c-16.576,8.479-38.037,12.638-60.044,11.844c-22.119-0.642-44.386-6.047-64.573-13.495c2.503,1.507,1.428,2.063,2.048,3.417
			c-21.276-8.761-42.023-23.102-59.315-39.65c-17.465-16.497-31.502-34.928-44.006-50.835c5.476,12.061,12.304,28.761,22.711,43.733
			c10.204,14.986,23.843,27.926,37.078,32.933c5.684,9.139,21.453,13.276,22.641,19.334c16.537,10.498,30.403,13.771,43.693,15.663
			c13.417,1.737,26.53,2.194,44.616,3.019c5.167,1.037,2.583,3.297,4.052,5.598c-9.876,0.56-19.859,0.35-29.827-0.615
			c5.886,1.666,11.877,3.07,17.948,4.2c-4.063,0.759-10.949,0.165-17.106-0.46c-6.165-0.608-11.645-1.154-13.244,0.662
			c13.717,0.625,30.907,2.658,47.836,2.085c16.877-0.471,33.262-3.589,43.62-9.252c-10.615,1.453-23.617,4.773-36.348,4.925
			c-5.648-1.219-14.136-2.482-13.501-4.821c17.684-2.93,33.138-5.673,48.519-9.678c15.295-4.027,30.539-9.495,45.439-18.942
			c7.512-4.625,17.453-11.137,19.967-10.24c-4.307,4.063,0.398,2.998-2.975,6.696c4.746-4.443,3.705-6.353,3.523-8.3
			c-0.217-2.002,0.412-3.945,7.576-9.272l3.303,7.579c0.18-5.583,4.586-8.853,9.699-12.699c5.092-3.798,10.924-8.252,13.217-14.835
			c5.449-1.669,1.494,6.411-5.549,14.004c9.068-7.609,6.178-11.514,11.922-18.574c0.045,3.671-0.037,7.376-0.246,11.112
			c1.424-11.683,11.967-13.438,17.111-17.27c-1.102-1.48-8.07,0.223-1.211-10.186c3.461-4.2,3.564-0.993,5.031-1.625
			c-1.131-1.459-1.477-6.792,1.889-14.206c2.709-0.416,0.686,6.4,2.434,7.946c2.799-5.725,4.482-10.588,8.02-14.135
			c2.418-11.141-3.266-0.553-3.102-7.765c7.215-15.46,8.016,1.023,14.695-3.476c-1.018,13.956-7.893,30.563-10.107,37.854
			c3.818-8.088,7.1-16.384,9.799-24.825c2.004,2.658,10.635-15.529,8.127-1.161c6.014-12.345,9.953-27.197,11.59-42.054
			c1.693-14.866,1.123-29.731-0.473-42.6c-0.777,3.698-1.303,8.379-2.998,7.622c-1.793-13.109,1.301-11.777,3.107-14.667
			c-2.664-9.735-7.219-8.109-11.35-13.434c0.471-9.965-0.48-15.6-1.158-20.857c-0.734-5.281-1.205-10.199-1.379-19.229l-4.002,2.488
			c-0.656-12.584-7.713-11.641-10.734-24.234c0.57-1.082,3.826,2.821,6.426,6.061c-6.205-9.77-1.064-11.389-8.164-20.529
			c2.971,1.76,5.959,3.601,8.895,5.542c-4.385-8.216-13.135-18.75-6.875-17.05c-6.604-5.522-13.656-14.121-21.648-22.579
			c-7.92-8.486-16.803-16.796-25.412-22.102l3.605-2.14c-5.539-1.623-12.889-7.647-20.725-12.857
			c-7.758-5.28-15.969-9.67-21.254-9.231l-0.59-2.119c-6.902-1.618-13.82-2.857-20.684-3.733c-8.27-3.767-3.373-8.165-4.613-6.906
			c-19.566-6.03-35.174-8.602-47.926-12.287c-3.99,4.703-24.906,4.094-41.359,6.279c-39.967,1.001-80.895,17.08-111.691,43.366
			c-31.147,26.073-51.777,61.605-60.392,96.087c-3.434,10.186-1.346,25.768-0.477,38.565c1.772-7.59,2.363-11.761,2.799-15.996
			c0.45-4.223,0.836-8.487,3.151-15.828c5.012-10.546,11.812-12.414,18.854-19.464l-6.128,2.503
			c1.485-7.658,3.381-9.732,4.811-11.464c1.5-1.733,2.615-3.117,3.753-9.466l5.968,4.145c-1.135-5.505,7.333-12.579,11.403-14.691
			l-1.642-6.085c8.048-5.706,13.125-9.248,18.322-8.108l-3.944-2.525c2.242-0.278,8.375-6.691,14.121-10.85
			c5.723-4.224,10.536-6.367,8.715-0.053c1.381-2.39,1.832-5.787,6.877-8.681l3.329,3.252c5.948-5.62,13.59-10.867,16.87-9.674
			c-3.336,3.039-3.564,5.513-3.745,7.952c14.542-7.778,14.913-11.271,14.485-15.522c-0.306-3.956-1.353-8.517,13.796-13.953
			l0.575,2.929c2.206-1.824,4.473-3.618,6.81-5.333c3.075,0.426,6.118,0.952,9.116,1.556c4.38-6.198,15.831-8.193,28.108-8.056
			c12.356,0.027,25.256,2.14,35.22,0.838c7.844,0.216,16.551,7.75,30.105,11.292l0.488-4.629
			c4.932,3.889,17.209,10.285,27.621,18.877c10.514,8.475,18.906,18.882,19.375,26.082c9.986,3.537-0.172-1.412,2.197-4.104
			c9.313,4.33,12.867,8.681,14.723,12.63c1.836,4.028,2.07,7.806,4.395,12.476c9.57,7.577-4.729-8.042,2.064-5.465
			c4.928,8.12,8.172,10.254,11.998,12.938c3.688,2.699,8.121,5.938,12.596,16.958c-1.102,3.249-4.529-4.389-7.289-5.484
			c6.291,5.639,12.414,15.931,16.916,27.89c4.566,11.963,7.438,25.459,9.441,37.492c0.277,14.034-0.619,31.267-4.707,48.427
			c-3.945,17.146-11.137,33.836-20.115,46.673l1.211,1.267c-9.646,9.393-14.09,23.146-25.828,33.229
			C355.037,384.544,357.283,383.216,359.498,381.817"/>
		<path fill="#FF9800" d="M217.325,437.498c-2.304,0.024-4.619,0.01-6.932-0.062c-0.667-0.361-0.941-0.931-1.296-1.463
			c0.141,0.587-1.868,1.013-1.702,1.518c2.512,2.867,8.278,1.318,11.887,1.631c9.304,2.717-0.649,1.048,2.694,3.716
			c-2.673-0.587-2.69-1.04-6.362-1.978c5.354,3.626,13.252,2.616,17.057,2.489c-1.071-0.34-1.246-1.051-3.356-1.15l3.992-0.168
			C229.487,439.809,226.172,439.033,217.325,437.498"/>
		<path fill="#FF9800" d="M205.607,434.706c2.466,0.487,3.333,0.886,3.458,1.216C208.575,435.204,207.874,434.589,205.607,434.706"
			/>
		<path fill="#FF9800" d="M234.739,443.528c-0.408-0.183-1.123-0.21-2.067-0.179C233.138,443.494,233.747,443.583,234.739,443.528"
			/>
		<path fill="#FF9800" d="M231.208,440.551l4.683,0.793l-1.726-1.208C233.502,440.193,231.174,440.032,231.208,440.551"/>
		<path fill="#FF9800" d="M399.543,387.938c-0.932-0.316-2.482,0.594-5.059,3.248c-0.461-1.146,3.17-4.233,4.252-6.294
			c-3.949,2.87-0.891-1.007-2.545-0.944c-3.908,3.608-4.605,6.356-9.166,9.89c0.004-0.439-0.404-0.763-1.227-0.577
			c-4.645,5.072-13.461,12.968-19.693,15.763c-5.674,3.159-9.51,6.071-15.57,9.887c-20.961,10.426-44.416,19.2-69.764,21.006
			l-3.342,2.6c-1.318-0.951-6.039,0.498-5.426-0.999c1.391,0.165,2.703-0.134,4.348-0.333c-5.525-1.429-14.32,1.13-20.855,0.281
			c0.732,0.412,1.801,2.384-0.188,2.692c0.559-2.444-7.78-0.134-9.531-3.176c-6.408-1.182-0.392,2.218-7.144,1.219
			c-0.861,1.436,6.464,1.277,7.635,2.425c-2.229,1.054-6.171-0.938-5.979,0.604c11.066,1.883,31.755-1.099,48.005-4.684
			l-1.545,1.621c8.406-2.071,21.775-5.172,29.025-5.106c-1.916-0.67,12.379-3.229,10.113-5.711c2.281-0.079,2.848-0.453,5.834-1.298
			l0.42-1.199c4.066-1.624,3.982-0.003,8.574-2.115c-3.551,0.131-0.322-1.655,0.52-3.252c5.797-1.078,12.359-3.063,17.441-4.649
			c-0.561-0.162-1.213-0.333-3.029,0.041c3.289-1.309,2.143-2.088,2.713-2.933c2.84-1.752,3.416-0.158,3.705,0.639
			c5.611-2.83,6.172-6.988,10.543-8.74l-2.096-0.144c5.004-3.84,10.135-5.876,15.262-10.688c3.785-0.766-3.441,4.88-5.326,7.243
			c1.363-0.591,3.857-2.356,4.963-2.521l6.98-10.007C391.191,395.702,397.732,389.575,399.543,387.938"/>
		<path fill="#FF9800" d="M385.412,401.735c-0.492,0.766-0.924,1.408-1.145,1.83c0.48-0.508,0.906-1.009,1.766-1.6
			C385.961,401.722,385.73,401.677,385.412,401.735"/>
		<path fill="#FF9800" d="M399.543,387.938c0.064,0.03,0.189-0.007,0.248,0.037C400.203,387.398,400.004,387.525,399.543,387.938"/>
		<path fill="#FF9800" d="M353.326,133.427c10.172,9.063,22.326,22.26,29.002,34.155c2.551,1.911,4.777,5.651,7.021,9.396
			l-1.191,1.13l2.072,2.998c0.227,1.521-1.508-2.345-0.883,0.232l1.482,0.798c-0.344,0.488,3.52,8.572-0.002,3.541
			c1.922,4.224,3.688,8.52,5.273,12.881c0.969,2.919,1.893,1.253,2.582,4.631c-0.223,0.805-0.684-1.07-1.137-0.626
			c1.951,10.03,6.469,10.494,7.805,20.154l-0.365-0.764c0.742,1.524,1.277,4.613,1.488,4.618c1.363-1.514-1.154-1.554-0.805-4.627
			c1.363-0.011,1.432,3.489,2.387,3.118c-0.1,2.34,0.924,3.526,1.277,5.501c-0.277,3.478,0.82,8.265,0.014,10.91
			c0.535,1.609,2.057,3.369,2.27,6.975c-0.93,2.617-0.998-0.56-1.277,2.943l0.793,0.539c-0.037,2.867-0.27,2.421-0.639,2.328
			c-0.043,3.05,1.127,2.545,0.539,6.388l-0.709-2.153c0.236,2.837,0.102,3.997-0.156,7.937c-0.445-0.114-0.35-1.688-0.164-2.837
			c-1.25,2.081,0.344,3.682,0.121,4.835c0.373-0.306,0.676-3.037,1.373-1.655c-0.275,1.951,0.793,4.279-0.271,5.611l-0.574-2.204
			c0.254,4.136,0.818,2.28,0.014,6.939c-0.027-0.256-0.232-0.154-0.385-0.274c0.674,3.087-0.775,6.858-1.592,11.178l-0.072-0.861
			c-0.027,1.798,0.439,2.885,0.213,3.822c0.916-2.395,1.012-1.682,1.791-1.772c-1.902,3.046,0.527,5.351-1.52,10.563
			c-0.412-0.196-0.625-1.601,0.186-2.967c-0.904-2.126-1.906-2.576-1.879-5.932c-0.068,2.074-0.447,4.469-0.869,3.854l1.061,0.893
			c-0.217,1.233-0.549,2.164-0.766,3.088c0.629,0.703,1.838-2.181,1.643,0.779c-0.389,3.297-1.648,1.384-1.23,2.02
			c-0.711,4.484,0.834,2.166-0.785,6.246c0.023-0.446,0.061-1.322,0.277-1.651c-1.326,2.863-2.051,7.424-3.76,7.813
			c-0.162-0.536-0.543-0.752-0.072-1.838l0.201,0.117c0.031-3.564-0.604,2.799-1.553,1.356c0.828,0.027-0.752,4.094-1.609,5.858
			l1.064-0.268c0.178,7.095-1.512-0.944-3.572,5.151c-1.033,3.993,0.846-1.326,0.443,1.226c-1.24,2.489-2.365,3.111-3.723,6.934
			c-0.814,0.861-2.264,2.695-3.248,2.417c-0.705,2.377-3.83,6.319-3.658,7.991c2.775-3.241,1.086-4.114,4.465-7.85l0.271,1.669
			c-1.598,2.983-3.246,7.057-4.764,8.887c0.406-0.313,0.734-0.367,0.762-0.003c-2.135,4.371-2.057,6.092-4.93,9.9
			c-1.107,0.021,0.58-2.194,1.59-3.942c-2.285,2.156-1.738,2.675-4.695,6.395c-0.797-0.248,1.871-2.579,1.504-3.479l-2.75,4.44
			c-0.023-0.045-0.082-0.055-0.131-0.093c0.619,1.367-2.4,3.181-4.063,5.917c-4.705,5.924-4.145,7.902-6.188,11.793
			c-1.031,0.614-1.504,0.635-1.43,0.059c1.693-1.01,1.127-1.068,1.309-1.782c-1.617,2.029-4.756,3.289-4.172,1.878
			c-2.521,3.215,1.521-0.591,0.109,1.497c-1.295,1.336-2.613,2.665-3.955,3.949c0.943,0.011,2.451-1.291,0.758,1.13
			c-1.596,1.886-2.574,2.586-4.941,4.764c0.113-0.561-1.428-0.052,0.348-1.669c-1.289,0.889-3.119,2.451-3.365,3.574
			c3.053-1.864-3.949,4.234-1.299,3.294l-3.098,1.803c0.625-0.505,0.422-0.89,1.4-1.556c-1.41-0.127-2.029,2.047-2.918,2.908
			c-1.074,0.649-3.705,2.521-4.145,2.38c-0.697,0.917-3.043,2.332-3.754,2.212c-1.213,1.146,0.289,0.621,0.096,1.178l-4.674,3.146
			c-0.57-0.302-1.836-1.35-1.256-1.985c-1.463,1.594,0.305,1.804-2.4,3.523c0.957-1.892-4.033,1.528-2.49-0.981
			c-1.957,0.302-6.34,2.994-8.709,4.591c-1.115,1.621,2.939-1.071,3.232-0.213c-6.848,4.221-6.227,6.563-11.811,8.819l1.518-0.44
			c-3.174,2.044-2.834,1.779-4.525,3.362c0.477-1.436-5.066-0.938-10.66,1.418c-0.289,0.708,3.588-0.223,2.977,0.948l-3.77,1.601
			c-0.307,0.023,0.045-0.306,0.49-0.629c-3.313,1.652-6.889,0.899-7.486,2.445l-4.023-0.439l1.607,0.243
			c-0.324,0.66-4.201,2.01-4.977,2.411c-3.881,1.703-5.516,1.56-7.895,1.411c0.811,0.285,2.84,0.887-0.361,1.782
			c-0.35-1.717-6.924,0.776-7.012-0.182c-1.309,0.268-3.723,0.096-3.758,0.862l0.041-1.137c-0.041,1.606-4.861,2.287-8.533,2.978
			c0.602-2.178-4.053,0.601-5.87-1.186c-0.573,1.515-6.515,1.023-7.112,2.239c-2.867,0.188-2.623-1.188-3.36-1.614l-1.313,0.57
			c-1.45-0.625-6.784-0.734-9.926-1.332l-3.008,1.133l-1.064-0.639c-0.488,0.288-2.96,0.309-1.468,0.89l-1.593-0.189
			c-0.239,1.388-2.279,0.196-5.551,0.475c-0.721-0.306-0.488-0.611,0.232-0.718c-1.595-0.196-0.831-0.824-1.647-1.384
			c1.106,0.504-6.047,1.762-1.813,2.912c0.23,0.61-2.366,0.687-3.917,0.209l-0.774-1.366l-2.095,0.999
			c-2.505-0.22-3.42-1.198-5.373-1.721c2.055,0.313,4.912-1.508-0.27-2.452c2.751,0.367,4.207-0.079,5.66-0.116
			c-1.064-0.224-1.573-0.43,0.179-0.681c-4.097-0.284-1.484,0.539-5.49-0.048c0.431-1.047-0.616-1.586-3.961-2.709l2.402,1.346
			c-0.146,0.11-0.341,0.168-0.558,0.192c0.952,0.33,1.197,0.557,1.322,1.013c-0.769-0.168-4.907,0.385-5.416-0.449
			c3.616,2.665-7.297-0.389-5,1.232c-0.534,0.192-3.352-0.478-3.482-1.103c3.537,0.104-2.143-1.919-1.374-2.534
			c-1.31-0.044,2.349,1.546,0.577,1.47c-1.983-0.498-3.225-1.572-4.189-2.267l0.869,0.059l-2.833-1.425
			c-0.667,0.371,2.606,1.823-0.244,1.216c-0.658-0.443-3.489-1.137-3.263-1.515c1.556-0.278,0.944-1.563,3.316-0.948
			c-1.953-0.539-8.055-2.637-5.967-0.772l-2.267-0.879c1.25,0.965,5,3.259,0.336,1.689l0.122-0.195l-3.498-0.457l-1.171-1.085
			c-0.062,0.274-0.675,0.333-1.832-0.192c-0.175-0.443-1.219-1.03-0.955-1.404c-3.399-1.388-3.334-0.817-3.915-0.701
			c-1.906-0.786-2.509-1.322-1.356-1.511c-2.49-1.309-6.932-3.41-8.335-4.839c-3.53-1.373,0.567,0.577-1.72,0.182
			c-1.94-3.2-10.371-6.816-15.553-10.164c0.407,2.338-1.498-0.773-3.317-0.183c1.38,0.344-3.953-4.495,0.687-1.724l-2.761-1.782
			c-1.24-2.054,4.787,2.606,2.823-0.405c-2.964-2.077-6.015-2.077-8.98-5.288c1.875,0-2.816-1.804-1.13-2.137
			c0.955,0.255,1.792,1.103,2.8,1.786l-0.435-0.656c-5.874-5.371-2.695-0.374-6.437-2.486c-3.766-3.152-2.235-3.279-2.061-3.891
			c-0.39-0.687-2.306-2.222-3.453-2.878c2.665,1.501,3.491,4.317,1.973,3.936c-0.656-2.448-5.182-5.096-6.52-5.69
			c4,5.976,3.386,3.482,7.234,9.118c0.992,0.268,1.645-0.697,4.346,2.245c-2.302-1.153-0.319,0.633,0.091,1.243
			c-0.136-1.026,2.309,1.556,3.456,2.074c0.508,1.147-2.909-0.24,0.083,2.538l1.642-0.834c1.102,1.157-1.292,0.553,1.638,2.29
			c-1.978-0.429-0.395,1.432-4.2-1.202c3.469,4.526,7.201,4.54,11.032,6.436c-0.417-0.168-0.585-0.01-1.006-0.158
			c1.011,0.145,2.337,1.127,3.446,1.725c2.143,1.854-2.28-0.591-1.923,0.175l3.843,2.476c0.052,0.097,0.052,0.131,0.031,0.162
			c1.133,0.467,2.198,0.917,2.332,1.497c-1.436-0.265-2.21-0.059-3.213-0.206l4.717,1.569c-0.755,0.213,2.955,2.83-0.233,1.436
			c2.108,1.137,4.203,2.29,6.346,3.352l-0.014,1.284c1.61,0.659,1.758,0.48,0.014-0.628c2.029,1.486,10.566,3.204,8.443,4.602
			c5.513,1.552,7.199,2.765,13.748,4.735c-5.283-0.941,5.162,3.383-0.227,1.834c2.903,1.6,3.959,0.728,6.451,1.366
			c2.126,1.24,0.763,1.944-1.87,1.467l3.089,0.525l-0.124,0.195l2.747,0.22c2.524,1.422,0.224,1.281,3.001,2.273l0.903-0.775
			l1.748,1.115c-0.594-0.646,1.13-0.343,3.211,0.114l-0.106,0.206l2.555,0.474c-2.634-0.041,2.244,0.776,0.934,1.174
			c2.146,0.561,2.194,0.598,6.161,1.25l-0.546-0.816c5.225,0.494-0.003,1.058,4.152,1.93l-0.113-0.814
			c5.776,2.411,10.311,0.986,14.65,2.305c-2.583-0.117-2.043,0.858-1.968,0.643c3.893,0.233,10.223,0.947,14.279,0.161
			c1.418,1.191,1.75,1.583,5.906,2.163c3.025-0.027,3.476-0.175,4.458-0.82c2.931,0.442,8.388-0.457,8.569,0.34
			c0.646-0.673,2.645-0.018,4.214-0.697l0.364,0.31l-0.316-0.763c5.338,1.332,8.583-1.769,13.944-1.034l-0.863,0.337l2.137-0.621
			c0.402,0.284-0.453,0.625-0.49,1.088c3.396-0.47,6.781-1.051,10.15-1.689l-2.098-0.188c2.111-0.475,3.352-1.56,5.861-1.61
			c-3.729,2.057,3.334-0.725,4.189-0.042l-2.078,0.828c2.924-0.793,2.92-0.797,2.48-1.497c3.695-1.285,3.002,0.775,6.236-1.048
			l-2.482,0.673c-0.855-0.247,0.758-1.329,2.396-1.816c0.418,0.011,1.682-0.007,0.457,0.46c2.867-1.126,7.369-2.201,8.537-2.967
			c1.658-0.315,1.324,0.388,0.543,0.883c5.967-2.885,2.883-0.831,8.777-3.884l0.064,0.453l1.896-1.347l3.348-0.426l-1.303-0.059
			c1.961-0.927,3.068-1.771,5.455-2.609l-0.643,1.02c5.363-2.933,6.902-2.088,11.604-5.669c0.408-0.086-0.281,0.539-0.639,0.858
			c4.207-3.541,4.176-0.965,8.221-4.839c-0.172,0.367,0.48,0.285,0.402,0.56l1.875-1.683l0.313,0.858l1.01-2.184l1.779-0.069
			l0.568-0.893c3.174-0.034,5.557-3.221,9.234-4.364l-1.182-0.532c5.955-7.181,17.277-12.037,24.328-20.804l0.502,0.759l2.4-4.035
			c2.211-1.302-0.453,1.594,0.408,1.353c2.98-3.932,0.436-2.379,4.018-6.789c2.338-1.823-0.135,1.22-0.838,2.428
			c3.26-4.254,7.768-10.687,10.398-13.438c-0.051-0.137-0.041-0.419-0.195-0.295c1.803-3.073,4.805-6.676,6.881-9.993
			c0.297,0.299-0.186,1.147-0.652,2.009c0.82-1.144,2.133-2.596,2.4-3.85l-0.131,1.662c1.775-2.462,4.129-7.813,5.246-7.953
			c-0.488,0.141-0.977-0.313,0.313-2.568c1.93-0.595,2.885-6.484,5.332-9.908c0.076,0.588-1.219,3.366-0.82,2.597
			c1.258-1.717,1.508-3.688,1.883-5.536l0.26,0.738c1.146-3.049,2.213-6.115,3.178-9.213c1.871-0.817,3.082-8.627,3.764-7.669
			c1.184-3.266-1.529,2.545-0.234-1.645c0.945-0.917,0.992-3.843,1.783-3.396l-0.045,0.48l0.871-2.946l0.24,2.108
			c0.656-2.586,0.32-4.704-0.277-5.01c1.205-2.249,1.689-5.794,2.758-6.703l-0.023,0.958c1.391-6.868,4.979-10.914,4.432-16.68
			c0.193-0.394,0.402-0.306,0.248,0.55l0.732-4.32l0.508,1.13c0.02-2.443,0-4.884-0.08-7.318l0.43,0.141
			c0.738-4.731,1.059-12.233,0.992-18.386l0.193,0.924c-0.598-6.717,0.467-6.49-0.148-11.403c0.123,0.172,0.176,0.334,0.203,0.511
			l-0.221-4.42l0.484,0.953c-1.092-3.208,0.547-9.468-0.078-7.385c-0.605-1.822-1.439-4.945-2.07-5.416
			c-0.654-4.773,0.449-1.243,0.408-4.255c-0.461-3.472-1.313-3.959-1.756-8.682l0.461,0.014l-1.811-6.449l0.412,0.849
			c-2.008-4.689-0.146-6.452-3.072-9.77c-0.18-2.144-1.635-5.89-0.711-5.965c-2.426-5.831-4.324-10.326-6.992-15.946
			c0.961-1.471-0.549-1.215-1.305-4.988l-0.611,0.568c-3.582-7.964-6.559-17.878-12.082-25.998l0.525-0.649l-1.779-1.191
			c-5.332-9.066-13.547-20.014-19.303-26.144c-2.164-1.769-5.689-4.147-8.609-7.37l0.406,0.244l-18.188-15.412
			c0.611,0.051,0.104-0.628,0.971-0.233c-2.088-0.519-3.891-2.912-5.336-3.963l1.332,1.696c-2.334-0.795-4.652-3.322-5.336-4.459
			l-3.568-1.379c-0.154-0.199-0.408-0.508-0.381-0.642l-0.779-0.007l-1.096-1.952c-0.902-0.313-5.244-2.686-7.088-2.569
			c-0.123-0.476-2.994-2.457-0.58-1.269c-3.887-2.328-7.836-4.572-11.889-6.623l1.744,1.258c-0.131,0.831-3.967-0.553-5.742-1.72
			c2.779,0.574,0.691-0.914-0.16-1.934c-1.859-0.384,1.174,1.298,0.109,1.286c-2.322-0.517-6.924-2.182-7.93-2.953l1.408,0.229
			c-3.029-0.9-3.863-2.735-6.824-3.747c-2.836-0.402-4.607-1.571-4.502-0.124c-3.895-1.044-1.168-1.38-2.365-1.913
			c-2.002,0-7.268-2.019-7.793-2.854c-2.623,1.264-10.371-3.434-11.582-1.921l-3.047-1.616c-0.195,0.416-1.043,1.274-3.701,0.958
			c-2.387-0.946-1.672-1.573-2.354-2.16l-1.953,1.353c-14.129-4.224-33.575-3.869-49.627-3.707
			c-7.127,1.004-15.925,3.041-24.105,4.641l0.858-0.409c-2.737,0.426-5.463,0.939-8.193,1.466l6.045-0.673
			c-1.732,0.56-3.01,1.248-4.717,1.631c-8.949,1.511-20.912,4.519-30.847,9.876c-5.798,4.717-5.141,0.437-10.779,4.78
			c0.45-0.429,0.527-0.762,0.922-1.171c-6.399,3.987-9.787,6.302-15.52,11.195c-0.313-2.074-4.059,2.668-4.037,1.487l-0.087,0.982
			c-1.662,0.498-4.941,2.649-4.808,1.865l-2.115,2.705l-0.701-0.465c-3.623,2.493-10.484,8.911-13.23,9.28
			c-7.519,7.938-19.658,19.958-28.022,30.775c-0.627,1.925-2.926,5.151-4.61,7.756l-2.627,2.237
			c-1.518,2.799-2.267,6.257-4.265,8.475c-0.089-0.069-0.096-0.213-0.034-0.419c-1.474,2.845-3.396,5.28-4.035,8.328
			c-1.691,3.06-3.606,5.92-3.929,4.574c1.216,0.965-3.4,6.645-3.386,6.672c0.113,0.027-5.22,10.143-10.232,27.164
			c-5.031,16.945-8.977,41.113-6.99,66.607c1.729,25.467,9.626,51.745,20.755,72.115c10.993,20.516,24.542,35.008,33.335,41.557
			c1.552,0.569,4.619,3.166,4.258,1.421c2.325,2.013,2.335,3.97,3.3,3.86c-2.521-3.355,2.318-0.471,0.206-4.049l1.925,1.734
			c0.764,0.003-2.886-2.095-1.722-2.328l-1.552,0.467c-1.305-1.666-1.827-2.744-1.968-3.609c-1.743-1.058-4.073-0.721-6.483-4.887
			l0.896,0.948c-2.499-2.93-0.783-2.404-1.107-3.174l0.527,0.663l-1.47-2.946c1.15,2.201,4.629,4.54,3.218,2.974
			c-2.576-3.75,0.481,1.13-1.824-1.38c-1.411-1.584-0.419-1.611-0.017-1.813l-2.375-2.939c0.616-0.306,1.513,1.988,1.121,0.36
			l-3.448-3.352c0.828-1.683-3.71-3.729-3.609-6.436c2.25,2.589,0.289-0.563,1.062-0.43c-1.59-2.27-3.118-4.574-4.609-6.909
			c-0.22-0.786,1.609,1.569,0.866,0.553c-0.45-1.552-1.688-1.975-2.119-2.699c-0.007-0.831-3.125-5.354-2.019-5.7
			c-1.978-5.281-2.43-1.384-4.234-6.346c0.299-0.914,2.02,3.633,1.595,1.246l-2.622-4.739c0.512,0.303,1.436,0.481,2.217,2.346
			c-5.558-13.571-4.761-22.047-9.195-34.252c0.306-1.981,0.876,1.134,1.743,2.239c-3.536-8.815-1.508-13.204-2.935-20.94
			l-0.68-0.042c0.282-11.178-1.78-24.301-0.233-36.728l-0.536,1.46c-0.599-1.741-0.471-4.513-0.625-6.585
			c0.373-0.283,1.291,1.585,1.35-2.024c-0.309,0.72-0.701,2.219-0.986,1.741c1.319-5.268,2.593-13.462,4.77-22.335
			c2.091-8.884,5.155-18.412,8.729-26.36c8.049-22.26,23.585-43.206,39.823-59.571c-2.454,2.538-2.577,0.319-0.412-1.315
			c7.153-3.038,8.989-8.99,16.077-12.131c10.189-9.021,21.704-13.175,32.023-20.435l0.562,0.615
			c1.849-0.453,2.062-1.198,3.839-2.043l0.046,0.223c4.34-1.626,9.294-4.375,11.959-4.883l-0.141-0.895
			c2.596-0.982,1.574,0.153,4.11-1.207l0.062,0.45l2.902-1.803c0.134,1.561,7.531-2.104,9.897-1.854
			c3.389-1.14,9.943-3.204,15.395-3.673c1.12,0.609,7.716-0.273,11.968-0.179c8.178-0.929,20.036-1.307,30.472,0.009l-0.096-1.023
			l2.751,0.199c-0.063,0.22,0.291,0.381-0.131,0.436c1.982,1.363,6.342,0.416,8.428,1.477c-1.23-1.131-1.889-0.416-3.432-0.666
			c-2.174-0.79,0.1-1.463,3.061-0.532l-0.096,0.209l2.146-0.186c0.1,0.826,1.904,1.475,1.99,2.308
			c8.861,1.459,15.221,1.648,24.029,4.863c-1.186,0.508,6.424,1.979,4.131,2.807c5.434,1.403-0.436-1.483,2.336-1.605
			c1.473,0.556,3.172,0.769,3.227,1.411c-0.82,0.069,0.838,1.339-0.398,0.992l3.518,1.298c0.277,0.25-0.557,0.12-0.979,0.053
			c7.406,2.148,11.863,6.44,18.227,8.94c0.715-0.237-2.297-1.44-1.596-1.686c6.594,2.38,4.814,3.822,10.674,6.52l-1.525-0.067
			c2.016,0.667,3.158,0.601,5.635,3.017c-0.01,1.063-2.799-1.011-4.406-1.534c1.951,1.257,6.906,4.423,5.908,2.741
			c2.475,1.361,2.801,2.641,3.879,3.708c0.176-0.144-1.754-2.012-0.178-1.387c2.771,2.658,7.396,6.281,10.852,9.403
			c-0.182,0.137-0.162,0.607-0.535,0.422C351.057,128.927,349.453,130.12,353.326,133.427"/>
		<path fill="#FF9800" d="M202.986,434.452c-4.38-0.416-8.736-1.068-13.13-1.782c1.415-0.299,1.191-1.137,4.083-0.423
			c-5.333-2.16-6.539-1.061-10.91-3.035c-0.544-2.47,7.909,2.881,6.03,0.1c-3.165-1.055-7.778-2.868-10.992-2.284l-4.25-3.503
			l0.665,2.889c1.689,1.538,4.736,0.071,5.316,2.102c0.232,1.194-1.851,0.512-3.364,0.123c3.357,0.951,8.075,5.437,14.954,7.47
			C198.612,438.261,198.058,434.17,202.986,434.452"/>
		<path fill="#FF9800" d="M175.017,428.456c0.412-0.021,0.873,0.041,1.353,0.168C175.765,428.474,175.236,428.353,175.017,428.456"
			/>
		<path fill="#FF9800" d="M167.708,418.48c-1.868,1.672-7.83-4.461-9.537-3.466c4.365,2.432,7.143,5.756,5.582,6.37
			c1.786,0.636,3.534,1.326,5.33,1.906C171.143,423.309,169.742,420.788,167.708,418.48"/>
		<path fill="#FF9800" d="M126.904,396.131l4.914,3.399c-0.259-4.965,2.465-1.235-2.709-9.141c-2.789-1.635-8.788-5.57-9.114-3.919
			c1.789,1.504,5.206,2.803,7.473,5.378c-1.81-0.165-4.454-2.73-6.669-2.946c3.307,4.656,3.19,1.755,7.445,6.168L126.904,396.131z"
			/>
		<path fill="#FF9800" d="M134.641,397.779c-0.823,0.165-1.659,0.296-1.913,0.752C133.567,398.395,136.282,399.579,134.641,397.779"
			/>
		<path fill="#FF9800" d="M150.096,408.71l1.578,0.766C151.389,408.834,150.801,408.82,150.096,408.71"/>
		<path fill="#FF9800" d="M156.658,412.491c-0.864-1.501-2.746-2.04-4.985-3.016l0.117,0.244c1.41,1.741-1.188,2.088-3.836-0.188
			c-3.214-1.704-1.992-2.902-5.179-3.785l2.737,3.575C150.379,412.347,154.455,411.917,156.658,412.491"/>
		<path fill="#FF9800" d="M137.666,399.682c2.852,2.356-0.865,1.041-0.704,1.419l4.803,0.646L137.666,399.682z"/>
		<path fill="#FF9800" d="M150.096,408.71c-0.565-0.299-1.133-0.614-1.739-1.006C148.947,408.425,149.544,408.607,150.096,408.71"/>
	</g>
</g>
<g>
	<g>
		<defs>
			<polygon id="SVGID_1_" points="-5.226,-51.759 507.635,-15.516 507.635,512.251 -5.226,476.008 			"/>
		</defs>
		<clipPath id="SVGID_2_">
			<use xlink:href="#SVGID_1_"  overflow="visible"/>
		</clipPath>
	</g>
	<g>
		<defs>
			<polygon id="SVGID_3_" points="-5.226,-51.759 507.635,-15.516 507.635,512.251 -5.226,476.008 			"/>
		</defs>
		<clipPath id="SVGID_4_">
			<use xlink:href="#SVGID_3_"  overflow="visible"/>
		</clipPath>
	</g>
	<g>
		<defs>
			<polygon id="SVGID_5_" points="-5.226,-51.759 507.635,-15.516 507.635,512.251 -5.226,476.008 			"/>
		</defs>
		<clipPath id="SVGID_6_">
			<use xlink:href="#SVGID_5_"  overflow="visible"/>
		</clipPath>
	</g>
	<g>
		<defs>
			<polygon id="SVGID_7_" points="-5.226,-51.759 507.635,-15.516 507.635,512.251 -5.226,476.008 			"/>
		</defs>
		<clipPath id="SVGID_8_">
			<use xlink:href="#SVGID_7_"  overflow="visible"/>
		</clipPath>
	</g>
	<g>
		<defs>
			<polygon id="SVGID_9_" points="-5.226,-51.759 507.635,-15.516 507.635,512.251 -5.226,476.008 			"/>
		</defs>
		<clipPath id="SVGID_10_">
			<use xlink:href="#SVGID_9_"  overflow="visible"/>
		</clipPath>
		<path clip-path="url(#SVGID_10_)" d="M36.446,457.24c0,0,46.331,12.273,86.003,11.519c25.591-0.488,284.095-10.206,357.763-95.605
			C480.213,373.153,183.156,410.966,36.446,457.24"/>
	</g>
	<g>
		<defs>
			<polygon id="SVGID_11_" points="-5.226,-51.759 507.635,-15.516 507.635,512.251 -5.226,476.008 			"/>
		</defs>
		<clipPath id="SVGID_12_">
			<use xlink:href="#SVGID_11_"  overflow="visible"/>
		</clipPath>
		<path clip-path="url(#SVGID_12_)" d="M389.693,414.847c0,0,7.898,28.613,43.697,22.205c0,0-34.766-9.42-22.299-27.332"/>
	</g>
	<g>
		<defs>
			<polygon id="SVGID_13_" points="-5.226,-51.759 507.635,-15.516 507.635,512.251 -5.226,476.008 			"/>
		</defs>
		<clipPath id="SVGID_14_">
			<use xlink:href="#SVGID_13_"  overflow="visible"/>
		</clipPath>
		<path clip-path="url(#SVGID_14_)" d="M243.106,326.976c13.412,8.908,14.826,41.055,16.945,59.495
			c-4.709,5.502-2.441,12.194-6.109,24.674c3.668-0.58,7.342-1.16,11.006-1.737c1.615-0.254,6.512-9.234,8.043-12.497
			c-1.127-14.653,24.684-59.952,54.557-74.255C317.365,311.8,267.357,321.907,243.106,326.976 M393.953,367.917
			c-1.289-6.144-3.631-5.106-4.746-11.48c-0.197-18.259-15.768-27.658-21.217-46.56c-3.057-10.628-1.521-25.519-4.779-37.921
			c-4.998-19.007-29.148-32.246-30.42-41.365c-0.906-6.624,5.166-10.784,7.27-17.369c6.697-20.977-39.598-15.361-42.029-26.837
			c-5.1-24.068,80.371-18.015,52.521-75.653c-12.771,72.853-67.727,48.469-56.566,80.072c2.975,8.419,37.857,8.802,39.811,15.45
			c6.787,23.073-33.043,23.376-53.514,24.173c-26.871,1.045-40.642-33.778-42.841-30.776c0.945-1.839-3.915-1.092,4.699-3.831
			c9.789-2.8,30.287-9.894,29.833-24.271c-8.277-8.958-18.209-14.2-26.595-21.878c0.134-2.151,0.604-8.451,1.724-10.104
			c6.25-4.889,19.85,0.706,21.282-11.523c2.15-5.019-3.121-14.279-3.732-14.163c9.268,22.462-31.208,7.415-31.002,25.031
			c0.018,1.685-0.062,2.96,0.09,4.083c-7.876-0.821-16.389,0.549-23.591,3.53c-1.413-2.057-7.479-5.524-6.468-9.142
			c10.189-15.326,43.192-9.056,38.288-34.729c-0.659-1.062-2.702-6.865-2.702-6.865c-0.746,30.53-70.964,15.227-57.563,53.923
			c2.243,6.485,5.201,8.59,9.827,11.173l-8.901-1.971c-8.676,3.142-14.148,6.463-13.276,7.258c0.872,0.799,1.666,1.708,2.704,2.021
			c8.062,2.417,16.853,0.752,16.853,0.752c-19.799,6.772-41.352,38.739-43.062,71.61c-22.49-0.761-43.925,18.417-46.596,35.563
			c1.101,6.902,15.28,19.43,21.132,30.347c5.343,4.354,16.88,3.586,16.88,3.586c8.37-9.506,0.53-11.807-3.103-19.475
			c-11.085-0.282-11.971-9.603-14.612-16.566c14.651-3.75,14.547,1.94,28.635-1.044c3.493,5.813,8.539,17.857,24.434,16.298
			c-6.009-11.03-15.622-36.911-9.564-45.659c-6.715,19.557,12.868,37.029,12.196,52.971c-0.476,11.219-12.037,14.516-17.507,23.97
			c-5.529,13.496-11.377,23.369-16.983,35.113c-3.762,10.063-1.775,12.579-1.983,19.028c6.044-1.854,9.464-0.116,12.816,1.724
			c0,0,6.14-16.099,10.745-19.162c7.811-45.684,66.753-54.42,78.579-97.219c-3.623,20.718-20.283,33.75-34.769,46.621
			c20.591,36.607,74.196,4.726,106.352,9.118c38.27,5.233,73.467,35.281,65.252,71.168c1.793-0.427,8.17,0.676,12.619,0.504
			C388.529,376.776,392.355,376.106,393.953,367.917"/>
	</g>
	<g>
		<defs>
			<polygon id="SVGID_15_" points="-5.226,-51.759 507.635,-15.516 507.635,512.251 -5.226,476.008 			"/>
		</defs>
		<clipPath id="SVGID_16_">
			<use xlink:href="#SVGID_15_"  overflow="visible"/>
		</clipPath>
		<path clip-path="url(#SVGID_16_)" d="M117.728,431.3c-7.335,3.843-29.337,1.353-35.613-4.035
			c-5.541-29.894,8.58-63.17,23.964-78.036c7.449-65.038,16.283-142.178,24.344-212.56c2.421-21.144-1.027-64.956,12.701-58.384
			c-8.48,85.318-25.452,217.729-39.485,318.53c7.871-8.166,4.533-30.337,8.038-43.956C126.686,367.227,128.71,405.214,117.728,431.3
			"/>
	</g>
	<g>
		<defs>
			<polygon id="SVGID_17_" points="-5.226,-51.759 507.635,-15.516 507.635,512.251 -5.226,476.008 			"/>
		</defs>
		<clipPath id="SVGID_18_">
			<use xlink:href="#SVGID_17_"  overflow="visible"/>
		</clipPath>
		<path clip-path="url(#SVGID_18_)" fill="#FFFFFF" d="M399.891,400.073c0.807-0.141,1.287,0.405,1.35,1.105
			c0.215,2.486-3.369,3.118-4.518,3.317C396.875,403.456,397.379,400.513,399.891,400.073 M402.645,407.954
			c-0.063-0.103-0.092-0.178-0.23-0.15c-0.4,0.065-1.721,1.4-3.301,1.676c-2.514,0.439-2.482-1.68-2.555-2.493
			c1.525-0.265,8.311-1.46,7.869-6.556c-0.193-2.16-1.76-3.311-4.268-2.867c-4.119,0.721-7.229,5.157-6.754,10.556
			c0.264,2.998,1.885,4.771,5.09,4.207c2.729-0.478,5.1-2.239,5.068-2.586c-0.006-0.079-0.068-0.154-0.1-0.23L402.645,407.954z
			 M389.141,410.596c-0.027-0.049-0.145-0.11-0.223-0.097c-0.326,0.055-0.965,0.801-2.219,1.021
			c-1.313,0.229-2.039-0.33-2.166-1.817c-0.307-3.454,0.861-6.813,3.271-7.238c1.684-0.296,2.17,0.306,2.408,0.264
			c0.078-0.014,0.16-0.055,0.227-0.202l0.871-1.852c0.045-0.089,0.139-0.274,0.131-0.354c-0.027-0.268-1.607-0.947-3.691-0.58
			c-4.063,0.711-7.125,4.729-6.635,10.288c0.307,3.514,2.49,4.911,5.434,4.393c1.521-0.268,3.568-1.391,3.523-1.879
			c-0.008-0.109-0.072-0.178-0.107-0.254L389.141,410.596z M376.795,415.2c0.127-0.079,0.311-0.165,0.293-0.35
			c-0.031-0.326-0.275-0.941-0.357-1.584c-0.035-0.404-0.035-1.335,0.045-1.953l1.023-8.761c0.018-0.113,0.033-0.227,0.023-0.333
			c-0.014-0.134-0.104-0.258-0.318-0.22l-2.113,0.371c-0.186,0.034-0.285,0.106-0.35,0.336l-0.23,0.776
			c-0.463-0.381-1.354-1.239-3.09-0.934c-3.396,0.597-5.941,5.563-5.475,10.909c0.25,2.833,1.408,4.275,3.359,3.933
			c2.324-0.409,3.561-2.404,4.092-3.184c0.117,1.354,0.426,2.394,0.723,2.339c0.129-0.024,0.232-0.097,0.313-0.134L376.795,415.2z
			 M373.768,410.114c-0.225,1.762-1.059,3.994-3.037,4.345c-0.725,0.123-1.174-0.371-1.27-1.426
			c-0.248-2.813,0.518-7.716,2.791-8.111c0.965-0.171,1.635,0.371,2.064,0.625L373.768,410.114z M355.24,408.978l0.635-5.463
			l1.123-0.196c1.391-0.243,2.482-0.134,2.621,1.436c0.205,2.376-1.168,3.661-3.576,4.083L355.24,408.978z M354.883,411.996
			l1.34-0.233l2.881,7.171c0.072,0.182,0.186,0.271,0.318,0.247c0.139-0.024,0.289-0.106,0.424-0.158l2.455-1.085
			c0.178-0.09,0.281-0.188,0.268-0.326c-0.008-0.106-0.166-0.351-0.199-0.457l-3.098-6.528c2.541-1.322,4.025-4.186,3.771-7.102
			c-0.32-3.616-3.088-3.682-5.922-3.18l-3.955,0.69c-0.322,0.055-0.402,0.1-0.451,0.46l-2.125,18.057
			c-0.02,0.116-0.031,0.333-0.02,0.419c0.014,0.157,0.078,0.281,0.426,0.223l2.592-0.453c0.322-0.059,0.398-0.1,0.447-0.464
			L354.883,411.996z M337.646,420.043c-0.041-0.162-0.123-0.172-0.201-0.158c-0.131,0.023-0.52,0.281-0.973,0.36
			c-0.402,0.068-0.633-0.055-0.662-0.43c-0.035-0.377,0.092-1.088,0.172-1.758l1.781-14.57c0.018-0.165,0.049-0.392,0.037-0.554
			c-0.016-0.186-0.051-0.264-0.156-0.247c-0.084,0.018-0.266,0.104-0.369,0.147l-2.307,0.896c-0.395,0.151-0.412,0.268-0.443,0.543
			l-1.748,14.375c-0.127,0.982-0.15,1.947-0.064,2.915c0.154,1.752,1.238,2.081,2.787,1.813c1.041-0.186,2.666-0.855,2.631-1.261
			c-0.006-0.078-0.045-0.182-0.051-0.261L337.646,420.043z M325.051,413.202c0.803-0.142,1.285,0.405,1.346,1.109
			c0.221,2.485-3.365,3.114-4.516,3.316C322.035,416.584,322.537,413.642,325.051,413.202 M327.809,421.079
			c-0.063-0.096-0.1-0.171-0.234-0.15c-0.398,0.068-1.721,1.4-3.299,1.676c-2.514,0.439-2.484-1.676-2.553-2.49
			c1.521-0.264,8.311-1.456,7.865-6.556c-0.193-2.159-1.76-3.311-4.27-2.87c-4.117,0.725-7.229,5.161-6.752,10.556
			c0.27,3.002,1.887,4.771,5.094,4.207c2.723-0.478,5.1-2.235,5.063-2.586c-0.008-0.079-0.066-0.151-0.1-0.227L327.809,421.079z
			 M314.006,426.214c0.129-0.076,0.313-0.162,0.297-0.351c-0.031-0.323-0.271-0.938-0.357-1.583
			c-0.027-0.323-0.096-0.804-0.018-1.422l1.838-15.512c0.018-0.165,0.047-0.392,0.037-0.529c-0.02-0.213-0.055-0.288-0.162-0.271
			c-0.078,0.017-0.264,0.103-0.363,0.144l-2.311,0.903c-0.393,0.147-0.408,0.261-0.439,0.543l-0.674,5.598
			c-0.449-0.165-1.074-0.495-2.379-0.265c-4.631,0.811-6.275,7.074-5.891,11.397c0.238,2.692,1.367,3.87,3.264,3.534
			c2.379-0.419,3.467-2.28,4.068-3.177c0.117,1.35,0.43,2.387,0.721,2.335c0.131-0.021,0.234-0.096,0.313-0.134L314.006,426.214z
			 M311.039,420.812c-0.229,2.016-1.225,4.327-2.854,4.619c-0.83,0.145-1.346-0.478-1.445-1.642
			c-0.248-2.809,0.361-7.301,3.09-7.785c0.904-0.158,1.525,0.12,1.752,0.189L311.039,420.812z M298.797,428.882
			c0.127-0.075,0.309-0.165,0.299-0.351c-0.033-0.322-0.273-0.938-0.359-1.579c-0.029-0.33-0.098-0.811-0.018-1.429l1.836-15.509
			c0.014-0.164,0.049-0.392,0.039-0.525c-0.021-0.216-0.053-0.292-0.158-0.274c-0.082,0.018-0.268,0.103-0.371,0.147l-2.309,0.896
			c-0.391,0.154-0.408,0.265-0.436,0.546l-0.676,5.602c-0.447-0.172-1.072-0.498-2.381-0.271c-4.625,0.817-6.27,7.077-5.893,11.397
			c0.236,2.699,1.373,3.87,3.27,3.541c2.377-0.42,3.465-2.28,4.066-3.181c0.117,1.347,0.43,2.391,0.717,2.339
			c0.139-0.027,0.238-0.1,0.316-0.138L298.797,428.882z M295.83,423.48c-0.23,2.016-1.223,4.326-2.857,4.615
			c-0.828,0.147-1.342-0.475-1.441-1.639c-0.248-2.809,0.359-7.304,3.09-7.781c0.906-0.158,1.529,0.113,1.756,0.188L295.83,423.48z
			 M283.75,431.522c0.129-0.079,0.313-0.165,0.295-0.354c-0.031-0.323-0.275-0.938-0.354-1.583
			c-0.039-0.402-0.039-1.336,0.041-1.954l1.023-8.761c0.018-0.109,0.033-0.223,0.023-0.333c-0.01-0.134-0.104-0.254-0.318-0.216
			l-2.109,0.367c-0.189,0.034-0.289,0.104-0.354,0.337l-0.23,0.779c-0.467-0.381-1.354-1.24-3.09-0.935
			c-3.396,0.595-5.941,5.561-5.471,10.907c0.25,2.833,1.404,4.275,3.355,3.936c2.324-0.412,3.561-2.407,4.09-3.184
			c0.119,1.346,0.428,2.387,0.721,2.339c0.133-0.024,0.236-0.097,0.313-0.138L283.75,431.522z M280.725,426.434
			c-0.221,1.769-1.059,3.997-3.037,4.344c-0.721,0.127-1.174-0.367-1.268-1.422c-0.246-2.813,0.516-7.72,2.793-8.114
			c0.961-0.169,1.631,0.371,2.061,0.625L280.725,426.434z M263.426,425.08l0.637-5.46l1.121-0.195
			c1.389-0.244,2.486-0.135,2.621,1.432c0.213,2.38-1.172,3.664-3.574,4.083L263.426,425.08z M263.068,428.103l1.391-0.244
			c3.953-0.693,7.191-3.369,6.762-8.231c-0.318-3.616-3.086-3.678-5.92-3.18l-3.955,0.69c-0.324,0.058-0.398,0.1-0.451,0.463
			l-2.129,18.054c-0.016,0.116-0.023,0.333-0.016,0.415c0.014,0.161,0.074,0.288,0.428,0.227l2.59-0.457
			c0.322-0.051,0.398-0.093,0.449-0.46L263.068,428.103z M237.237,439.926c0.45,0.168,1.075,0.498,2.387,0.268
			c4.626-0.811,6.271-7.074,5.887-11.394c-0.237-2.699-1.367-3.871-3.265-3.537c-2.382,0.419-3.467,2.276-4.067,3.18
			c-0.115-1.354-0.426-2.391-0.718-2.339c-0.134,0.021-0.233,0.093-0.316,0.134l-2.062,1.213c-0.127,0.075-0.31,0.161-0.292,0.35
			c0.025,0.326,0.271,0.938,0.354,1.58c0.031,0.326,0.1,0.807,0.018,1.425l-1.774,15.007c-0.012,0.169-0.07,0.426-0.058,0.584
			c0.015,0.134,0.021,0.24,0.156,0.22c0.08-0.014,0.29-0.103,0.395-0.151l2.306-0.896c0.396-0.151,0.416-0.269,0.443-0.543
			L237.237,439.926z M238.054,432.849c0.253-2.02,1.22-4.327,2.853-4.616c0.829-0.144,1.344,0.478,1.447,1.639
			c0.245,2.809-0.357,7.359-3.087,7.836c-0.907,0.158-1.532-0.168-1.757-0.24L238.054,432.849z M230.855,423.202
			c0.016-0.113,0.024-0.333,0.016-0.416c-0.013-0.161-0.079-0.285-0.425-0.223l-2.517,0.439c-0.317,0.055-0.396,0.096-0.446,0.46
			l-1.412,12.339c-0.237,1.937-0.793,3.949-3.117,4.357c-1.393,0.244-2.428-0.123-2.557-1.607c-0.053-0.594-0.024-1.201,0.086-1.799
			l1.496-11.995c0.016-0.113,0.024-0.333,0.019-0.416c-0.016-0.161-0.081-0.285-0.429-0.223l-2.593,0.453
			c-0.319,0.055-0.395,0.096-0.447,0.464l-1.415,12.283c-0.093,0.783-0.134,1.559-0.065,2.339c0.268,3.025,2.473,4.063,5.787,3.479
			c5.613-0.982,6.253-4.821,6.624-7.98L230.855,423.202z M202.28,445.812c0.131-0.075,0.313-0.161,0.297-0.354
			c-0.029-0.322-0.275-0.938-0.359-1.579c-0.028-0.323-0.096-0.808-0.014-1.426l1.837-15.512c0.014-0.165,0.046-0.392,0.034-0.521
			c-0.017-0.22-0.053-0.296-0.16-0.278c-0.081,0.017-0.261,0.103-0.367,0.147l-2.31,0.899c-0.392,0.151-0.409,0.265-0.439,0.546
			l-0.673,5.602c-0.45-0.168-1.075-0.502-2.383-0.268c-4.626,0.81-6.271,7.07-5.891,11.397c0.238,2.695,1.372,3.866,3.266,3.533
			c2.38-0.419,3.467-2.28,4.068-3.18c0.117,1.35,0.426,2.391,0.719,2.339c0.132-0.024,0.235-0.097,0.313-0.138L202.28,445.812z
			 M199.313,440.413c-0.23,2.013-1.223,4.327-2.854,4.612c-0.831,0.147-1.346-0.474-1.449-1.638
			c-0.247-2.81,0.364-7.301,3.094-7.782c0.907-0.161,1.528,0.117,1.751,0.189L199.313,440.413z M187.884,439.809
			c0.1-0.7,0.144-1.448,0.083-2.149c-0.131-1.486-1.21-2.665-2.947-2.362c-2.194,0.388-3.554,2.517-4.2,3.506
			c-0.132-1.511-0.481-2.682-0.774-2.63c-0.132,0.023-0.18,0.085-0.259,0.123l-2.064,1.216c-0.127,0.075-0.311,0.165-0.292,0.351
			c0.042,0.483,0.316,0.82,0.387,1.627c0.077,0.866-0.026,1.566-0.125,2.273l-1.103,8.441c0.011,0.113-0.01,0.223-0.001,0.302
			c0.019,0.217,0.158,0.248,0.373,0.213l2.483-0.436c0.268-0.048,0.319-0.086,0.347-0.392l0.677-5.546
			c0.257-2.02,0.845-5.522,3.307-5.955c0.562-0.096,0.84,0.292,0.893,0.914c0.052,0.566-0.01,1.122-0.096,1.686l-1.088,8.009
			c0.01,0.106-0.007,0.22,0,0.302c0.021,0.213,0.158,0.244,0.371,0.206l2.486-0.437c0.27-0.044,0.319-0.082,0.347-0.388
			L187.884,439.809z M172.026,451.121c0.127-0.079,0.309-0.165,0.292-0.354c-0.027-0.326-0.27-0.938-0.354-1.583
			c-0.038-0.402-0.038-1.336,0.044-1.954l1.022-8.761c0.015-0.113,0.033-0.224,0.022-0.333c-0.01-0.134-0.103-0.254-0.316-0.217
			l-2.112,0.371c-0.187,0.031-0.289,0.104-0.35,0.333l-0.23,0.78c-0.465-0.385-1.355-1.24-3.093-0.935
			c-3.396,0.594-5.944,5.563-5.47,10.91c0.247,2.83,1.404,4.275,3.353,3.932c2.329-0.408,3.565-2.403,4.094-3.183
			c0.12,1.35,0.429,2.39,0.721,2.338c0.134-0.023,0.233-0.096,0.313-0.137L172.026,451.121z M169.002,446.028
			c-0.225,1.769-1.061,3.997-3.041,4.348c-0.721,0.123-1.172-0.368-1.265-1.426c-0.248-2.809,0.517-7.716,2.79-8.111
			c0.961-0.171,1.635,0.371,2.062,0.625L169.002,446.028z M158.277,451.286c-0.065-0.124-0.096-0.176-0.229-0.155
			c-0.163,0.031-1.148,0.835-2.352,1.048c-0.696,0.12-1.07-0.141-1.128-0.793c-0.038-0.43,0.003-0.876,0.072-1.329l0.721-6.625
			l3.448-0.607c0.24-0.038,0.266-0.072,0.352-0.333l0.4-1.604c0.016-0.141,0.086-0.262,0.076-0.398
			c-0.016-0.162-0.158-0.244-0.398-0.199l-3.582,0.628l0.448-3.533c0.015-0.141,0.029-0.282,0.019-0.389
			c-0.01-0.134-0.1-0.229-0.206-0.209c-0.136,0.024-0.24,0.068-0.347,0.086l-2.4,0.779c-0.158,0.055-0.289,0.106-0.319,0.357
			l-0.402,3.472l-1.87,0.326c-0.213,0.038-0.338,0.141-0.345,0.388l-0.189,1.542c-0.017,0.11-0.034,0.224-0.024,0.357
			c0.017,0.188,0.13,0.251,0.371,0.21l1.764-0.31l-0.833,7.167c-0.084,0.591-0.115,1.171-0.062,1.769
			c0.173,1.992,1.518,2.5,3.444,2.156c1.71-0.299,4.208-1.504,4.172-1.937c-0.007-0.079-0.042-0.154-0.05-0.237L158.277,451.286z
			 M147.463,438.511c0.065-0.175,0.162-0.329,0.155-0.412c-0.045-0.508-2.881-0.972-4.75-0.646
			c-4.093,0.718-6.686,3.283-6.343,7.171c0.246,2.813,2.234,3.53,3.949,4.217c1.38,0.553,2.62,1.078,2.75,2.562
			c0.175,1.972-1.205,2.953-2.836,3.238c-1.978,0.351-3.76-0.494-4.052-0.439c-0.189,0.034-0.186,0.09-0.275,0.296l-0.841,2.146
			c-0.065,0.179-0.161,0.33-0.154,0.409c0.043,0.487,3.094,0.938,5.096,0.584c4.547-0.797,6.923-3.977,6.604-7.597
			c-0.134-1.565-0.841-2.514-1.844-3.104c-2.263-1.384-4.797-1.436-4.975-3.461c-0.143-1.646,1.037-2.73,2.749-3.032
			c1.789-0.313,3.359,0.566,3.65,0.511c0.189-0.034,0.186-0.089,0.275-0.291L147.463,438.511z"/>
	</g>
	<g>
		<defs>
			<polygon id="SVGID_19_" points="-5.226,-51.759 507.635,-15.516 507.635,512.251 -5.226,476.008 			"/>
		</defs>
		<clipPath id="SVGID_20_">
			<use xlink:href="#SVGID_19_"  overflow="visible"/>
		</clipPath>
		<path clip-path="url(#SVGID_20_)" d="M399.975,119.624c0.131,0.067,0.365,0.167,0.582-0.014c0.143-0.119,0.186-0.336,0.256-0.458
			l4-10.086l12.867,0.326c0.201,0.007,0.408,0.014,0.549-0.106c0.176-0.149,0.154-0.431,0.059-0.652l-1.344-3.501
			c-0.061-0.125-0.092-0.283-0.191-0.379c-0.131-0.131-0.336-0.136-0.539-0.145l-6.535,0.192c-1.641,0.072-3.012,0.153-3.764,0.189
			c0.25-0.395,0.697-1.315,1.391-2.63l2.242-4.258c0.08-0.186,0.014-0.373-0.117-0.501c-0.1-0.096-0.432-0.292-0.568-0.36
			l-3.518-1.891c-0.24-0.102-0.475-0.203-0.615-0.081c-0.137,0.118-0.219,0.367-0.291,0.549l-3.895,9.217l-13.963-0.298
			c-0.207-0.007-0.443,0.015-0.592,0.137c-0.137,0.117-0.082,0.431-0.047,0.525l1.576,3.603c0.029,0.096,0.061,0.252,0.191,0.381
			c0.131,0.127,0.336,0.072,0.543,0.079l7.215-0.106c1.74-0.038,2.875-0.154,3.936-0.276c-0.436,0.795-0.811,1.592-1.363,2.727
			l-2.332,4.938c-0.076,0.122-0.117,0.338,0.018,0.469c0.061,0.065,0.268,0.134,0.432,0.232L399.975,119.624z M375.309,93.34
			c-1.779-1.393-1.246-2.964,1.01-5.352c5.178-5.488,15.158-11.779,19.48-8.396c1.746,1.363,1.209,2.936-1.078,5.359
			C389.547,90.438,379.633,96.724,375.309,93.34 M399.725,88.687c4.291-4.545,4.17-8.903-0.045-12.203
			c-8.355-6.539-20.93-0.11-28.361,7.765c-4.285,4.545-4.139,8.874,0.148,12.229C379.787,102.986,392.324,96.528,399.725,88.687
			 M355.621,62.064l4.285,2.55c0.398,0.235,0.492,0.184,0.855-0.081l2.291-1.745c0.146-0.125,0.34-0.228,0.445-0.377
			c0.107-0.151,0.125-0.409-0.229-0.62l-4.527-2.691l1.529-1.396c1.469-1.32,2.813-2.615,4.873-1.386
			c1.191,0.708,1.631,1.666,2.025,1.903c0.082,0.044,0.227,0.079,0.504-0.076l2.857-2.05c0.121-0.089,0.217-0.141,0.295-0.254
			c0.41-0.56-1.578-2.438-3.24-3.431c-5.438-3.235-8.621-0.893-11.416,1.782l-2.189,2.074l-2.938-1.748
			c-0.432-0.259-0.594-0.192-0.883,0.12l-1.998,1.81c-0.148,0.125-0.295,0.252-0.404,0.401c-0.244,0.337,0.043,0.563,0.281,0.704
			l2.814,1.676L336.99,72.201c-2.256,2.086-3.982,3.523-6.682,1.919c-0.832-0.496-1.371-1.085-1.49-1.155
			c-0.121-0.07-0.252-0.043-0.467,0.098l-2.738,2.119c-0.15,0.127-0.271,0.216-0.377,0.367c-0.303,0.411,1.24,1.652,3.07,2.735
			c5.395,3.212,9.607,0.307,12.918-2.761L355.621,62.064z M323.203,60.841c-1.754-0.917-1.844-2.311-0.666-4.138
			c2.424-3.771,8.018-9.059,11.83-7.074c1.758,0.918,1.844,2.313,0.67,4.14C332.605,57.538,327.012,62.826,323.203,60.841
			 M340.01,56.827c3.203-4.972,1.979-8.42-2.156-10.573c-6.797-3.544-15.664,0.196-20.295,7.387
			c-3.205,4.976-1.893,8.461,2.402,10.704C326.596,67.802,335.377,64.018,340.01,56.827 M290.867,50.889
			c0.258-0.034,0.598-0.048,0.705-0.355c0.172-0.523,0.205-1.652,0.508-2.714c0.176-0.527,0.393-1.326,0.938-2.239l13.375-23.036
			c0.131-0.25,0.342-0.582,0.412-0.8c0.113-0.35,0.113-0.493-0.064-0.536c-0.137-0.031-0.48-0.017-0.676-0.017l-4.221-0.138
			c-0.715-0.031-0.82,0.136-1.055,0.553l-4.846,8.314c-0.588-0.565-1.35-1.499-3.551-2.016c-7.785-1.83-14.602,6.872-16.93,13.884
			c-1.459,4.385-0.475,6.976,2.719,7.727c4.006,0.943,6.961-1.247,8.51-2.253c-0.727,2.191-0.951,4.028-0.455,4.145
			c0.223,0.055,0.432,0.007,0.582-0.003L290.867,50.889z M289.873,40.45c-1.725,2.998-4.836,5.951-7.584,5.307
			c-1.396-0.328-1.777-1.648-1.152-3.532c1.514-4.561,5.504-11.181,10.096-10.105c1.531,0.359,2.314,1.207,2.617,1.465
			L289.873,40.45z M270.002,31.988c0.467-1.116,0.859-2.33,1.059-3.515c0.422-2.501-0.848-4.911-3.846-5.147
			c-3.777-0.3-6.941,2.632-8.432,3.992c0.434-2.548,0.363-4.631-0.145-4.674c-0.227-0.017-0.336,0.067-0.48,0.103l-3.928,1.118
			c-0.24,0.074-0.584,0.139-0.637,0.457c-0.141,0.821,0.17,1.492-0.061,2.855c-0.248,1.458-0.719,2.572-1.186,3.692l-5.454,13.453
			c-0.035,0.182-0.11,0.36-0.131,0.496c-0.062,0.366,0.154,0.474,0.522,0.503l4.291,0.342c0.459,0.034,0.555-0.001,0.734-0.498
			l3.506-8.856c1.291-3.218,3.771-8.743,8.008-8.407c0.969,0.076,1.26,0.838,1.082,1.886c-0.162,0.955-0.502,1.853-0.889,2.744
			l-5.234,12.733c-0.031,0.182-0.105,0.361-0.131,0.498c-0.061,0.364,0.154,0.472,0.523,0.501l4.285,0.34
			c0.459,0.034,0.559,0,0.738-0.495L270.002,31.988z M236.011,26.563c1.384-0.091,2.098,0.923,2.07,2.124
			c-0.096,4.247-6.277,4.645-8.261,4.775C230.273,31.724,231.675,26.84,236.011,26.563 M239.202,40.414
			c-0.09-0.18-0.134-0.314-0.368-0.3c-0.687,0.044-3.176,2.048-5.895,2.225c-4.337,0.28-3.891-3.3-3.857-4.684
			c2.63-0.168,14.344-0.927,14.543-9.648c0.086-3.692-2.353-5.933-6.689-5.651c-7.105,0.457-13.206,7.394-13.412,16.626
			c-0.117,5.122,2.297,8.422,7.832,8.065c4.704-0.302,9.049-2.84,9.063-3.441c0.003-0.137-0.09-0.271-0.131-0.407L239.202,40.414z
			 M210.336,38.516c-0.419,3.623-1.968,6.509-4.926,7.03c-1.595,0.282-2.413-0.604-2.605-2.766
			c-0.412-4.689,1.034-12.416,4.767-13.072c1.82-0.319,3.056,0.583,3.695,1.03L210.336,38.516z M216.408,32.409
			c0.364-3.24,2.191-6.083,2.15-6.543c-0.016-0.186-0.119-0.308-0.361-0.405l-2.909-1.028c-0.192-0.062-0.48-0.198-0.663-0.164
			c-0.728,0.127-1.906,2.483-2.263,3.151c-1.145-0.918-2.517-2.313-5.611-1.769c-6.646,1.167-10.057,10.733-9.419,17.954
			c0.374,4.229,2.387,7.145,6.394,6.442c3.733-0.654,5.752-3.951,6.398-5.046l0.1,0.075c-0.934,4.087,0.513,8.97-5.179,9.969
			c-3.644,0.642-6.13-0.838-6.858-0.708c-0.182,0.031-0.309,0.148-0.381,0.392l-1.114,3.607c-0.034,0.146-0.112,0.301-0.096,0.482
			c0.081,0.92,4.668,1.563,8.446,0.9c11.566-2.035,9.639-12.342,10.556-20.258L216.408,32.409z M183.545,34.982
			c1.334-0.374,2.248,0.467,2.474,1.648c0.797,4.172-5.165,5.848-7.078,6.384C179.021,41.226,179.364,36.159,183.545,34.982
			 M189.574,47.864c-0.124-0.156-0.194-0.282-0.416-0.218c-0.666,0.188-2.679,2.665-5.304,3.403
			c-4.181,1.176-4.494-2.416-4.754-3.775c2.538-0.714,13.835-3.891,12.196-12.462c-0.695-3.628-3.549-5.313-7.732-4.135
			c-6.849,1.926-11.356,9.979-9.619,19.05c0.963,5.033,4.016,7.758,9.354,6.255c4.538-1.274,8.249-4.66,8.137-5.247
			c-0.026-0.138-0.141-0.248-0.211-0.371L189.574,47.864z M156.797,31.868c-0.005-0.194-0.062-0.567-0.1-0.701
			c-0.076-0.266-0.223-0.457-0.787-0.248l-4.2,1.564c-0.562,0.211-0.635,0.287-0.606,0.915l2.079,30.898
			c0.007,0.194,0.062,0.564,0.1,0.699c0.076,0.268,0.223,0.457,0.787,0.247l14.589-5.433c0.478-0.179,0.538-0.299,0.606-0.914
			l0.541-3.884c0.055-0.316,0.038-0.555-0.024-0.776c-0.089-0.313-0.385-0.349-0.862-0.171l-10.39,3.87L156.797,31.868z"/>
	</g>
</g>
</svg>
