<?xml version="1.0" encoding="utf-8"?>
<!-- Generator: Adobe Illustrator 16.0.0, SVG Export Plug-In . SVG Version: 6.00 Build 0)  -->
<!DOCTYPE svg PUBLIC "-//W3C//DTD SVG 1.1//EN" "http://www.w3.org/Graphics/SVG/1.1/DTD/svg11.dtd">
<svg version="1.1" id="Ebene_1" xmlns="http://www.w3.org/2000/svg" xmlns:xlink="http://www.w3.org/1999/xlink" x="0px" y="0px"
	 width="499.832px" height="495.17px" viewBox="0 0 499.832 495.17" enable-background="new 0 0 499.832 495.17"
	 xml:space="preserve">
<g>
	<g>
		<g>
			<polygon fill="#00BCD4" points="166.405,78.884 166.461,78.858 166.768,78.613 			"/>
			<polygon fill="#00BCD4" points="411.623,292.931 411.629,292.909 411.62,292.904 			"/>
			<polygon fill="#00BCD4" points="384.123,351.239 384.177,351.271 384.16,351.208 			"/>
			<polygon fill="#00BCD4" points="415.155,249.713 415.183,249.729 415.169,249.649 			"/>
			<polygon fill="#00BCD4" points="236.87,424.602 237.127,424.646 237.704,424.433 			"/>
			<polygon fill="#00BCD4" points="131.125,373.506 133.184,376.146 134.778,375.995 			"/>
			<polygon fill="#00BCD4" points="154.371,395.408 156.126,395.401 154.421,394.588 			"/>
			<polygon fill="#00BCD4" points="213.394,427.334 213.938,428.414 213.701,427.102 			"/>
			<polygon fill="#00BCD4" points="371.262,400.472 372.053,400.082 372.997,399.518 			"/>
			<polygon fill="#00BCD4" points="453.889,291.555 454.735,290.634 454.154,288.365 			"/>
			<polygon fill="#00BCD4" points="97.373,151.804 98.786,150.037 98.674,149.607 			"/>
			<polygon fill="#00BCD4" points="59.975,225.322 60.165,224.482 60.125,223.748 			"/>
			<path fill="#00BCD4" d="M101.171,143.735l0.612-0.794L101.171,143.735z"/>
			<path fill="#00BCD4" d="M106.108,140.625l0.974-1.075L106.108,140.625z"/>
			<polygon fill="#00BCD4" points="392.747,391.609 393.131,391.234 393.127,391.234 			"/>
			<polygon fill="#00BCD4" points="243.266,457.807 244.807,457.894 244.239,457.801 			"/>
			<path fill="#00BCD4" d="M220.733,452.735l-4.74-0.8L220.733,452.735z"/>
			<path fill="#00BCD4" d="M257.348,78.105l-0.011-0.008L257.348,78.105z"/>
			<polygon fill="#00BCD4" points="319.735,89.259 320.26,89.334 319.539,89.045 318.973,88.854 			"/>
			<polygon fill="#00BCD4" points="55.941,270.238 55.938,270.427 55.995,270.025 			"/>
			<polygon fill="#00BCD4" points="420.66,190.305 420.75,190.25 420.34,189.58 			"/>
			<path fill="#00BCD4" d="M69.356,200.646l1.231-2.773L69.356,200.646z"/>
			<polygon fill="#00BCD4" points="215.466,451.842 215.993,451.932 215.476,451.835 			"/>
			<polygon fill="#00BCD4" points="69.042,331.418 68.505,329.239 67.828,328.345 			"/>
			<polygon fill="#00BCD4" points="73.149,348.1 71.875,345.529 71.398,344.626 			"/>
			<polygon fill="#00BCD4" points="432.59,211.511 433.254,213.232 432.133,209.944 			"/>
			<polygon fill="#00BCD4" points="255.329,101.637 254.618,100.218 254.274,100.066 			"/>
			<polygon fill="#00BCD4" points="254.368,99.189 255.669,101.776 254.357,98.906 			"/>
			<polygon fill="#00BCD4" points="354.001,138.551 354.879,140.563 353.678,137.547 			"/>
			<polygon fill="#00BCD4" points="353.521,135.634 354.312,137.383 353.414,135.261 			"/>
		</g>
		<path fill="#00BCD4" d="M133.46,115.373c0.43-0.48-0.041-0.505-1.378,0.596l-0.674,1.142L133.46,115.373z"/>
		<path fill="#00BCD4" d="M123.766,121.927c-1.408,1.499-2.889,3.364-1.598,2.833c1.214-1.667,1.718-1.829,3.006-3.672
			c1.308-1.147,2.456-1.783,2.342-1.459c0.396-0.483,2.155-1.614,2.712-2.415c-2.015,1.083-4.28,2.86-6.342,5.047
			C123.325,122.592,123.716,122.092,123.766,121.927"/>
		<path fill="#00BCD4" d="M119.245,351.604c-0.644-0.753-1.054-1.004-1.368-1.067l2.375,3.037L119.245,351.604z"/>
		<path fill="#00BCD4" d="M116.166,350.316c0.877,0.641,1.134,0.104,1.711,0.221c-6.902-8.708-14.256-20.417-15.239-24.882
			c-1.319-3.505-3.547-3.16-6.015-7.265l0.421-2.528c-1.919-1.952-3.382-9.771-4.523-6.346c-0.08,0.343,1.875,1.654,2.322,3.822
			l-0.877-0.009l2.293,4.526l-1.573-1.077c1.628,6.917,4.692,3.176,7.738,11.052l-1.813,0.895c2.618,5.076,4.661,7.186,6.293,12.093
			c-0.003-0.003,0.887-0.503,0.02-1.11c-0.414-0.853-0.357-2.309,0.494-2.073c5.908,6.391-1.746-0.498,0.774,5.019
			c5.078,5.542,14.481,15.73,16.013,19.746c-1.304-3.393,2.946-0.326,5.618,2.714c0.73,1.846-1.758-0.138-2.666-0.237
			c1.141,1.534,1.785,3.064,3.336,4.217c-0.904-2.539,1.341-2.377,4.857,0.276C129.62,361.695,121.831,358.347,116.166,350.316"/>
		<path fill="#00BCD4" d="M91.103,304.005l-2.187-1.965c0.636,2.813,3.598,5.498,4.233,4.587c-0.982-1.658-1.21-4.21-2.085-4.255
			C90.977,302.736,90.494,302.871,91.103,304.005"/>
		<path fill="#00BCD4" d="M81.333,277.763c0.961,2.205,2.022,4.374,3.066,6.522c-0.544,1.404,2.49,8.829,0.472,6.712
			c2.897,3.523,4.017,12.667,5.563,8.607c-3.728-9.494-6.545-21.386-8.257-33.805c-1.735-12.435-2.325-25.363-2.752-37.308
			l0.891,3.86c-1.458-12.544,3.706-16.428,1.211-26.898l1.925,1.717c1.618-5.355-0.942-11.31,2.909-16.436l-1.024,0.312
			c0.394-1.52,0.991-1.99,1.441-3.514l-0.567,0.487c0.292-4.221,1.233-6.647,3.16-10.304c0.76-0.03-0.348,1.903-0.581,3.169
			c1.277-1.544,0.931-5.064,2.088-8.048c1.514-2.096,0.924,0.394,1.1,0.821c2.608-9.257,6.608-12.106,6.717-19.614
			c-0.224-0.86-2.155,1.705-0.779-1.549c-3.888,5.207-4.915,10.509-6.31,16.172l0.623-1.48c1.244,5.446-2.068,2.927-3.328,10.34
			c-0.567-2.26,0.572-5.279,0.412-6.727c-5.451,7.19-2.397,12.097-7.028,16.606l0.084-0.632c-0.676,1.132-0.714,3.504-0.917,5.459
			c0.572-0.512,1.244-2.318,1.901-3.473c-0.247,1.972,0.884,3.296,1.286,4.072c-1.952,1.747-0.037,2.959-1.54,6.142
			c-1.567,0.909-0.503-3.078-0.871-4.516l-0.113,4.272c-0.707,3.755-2.22,3.385-3.263,5.125c0.367,3.399,1.052-1.73,1.938,1.119
			c-1.208,1.838-2.449,7.156-3.092,13.098c-0.661,5.928-0.634,12.457-0.125,16.634c-0.075-2.869-1.363-1.064-0.996-4.554
			c-0.367,1.253,0.13,5.788,1.169,5.838c0.726,5.775,0.289,13.026-0.215,18.482l0.893-1.626c1.993,4.331-0.346,11.483,1.987,19.264
			v-0.168c0.647,2.51,3.436,4.197,3.93,8.829C82.854,279.771,82.474,277.272,81.333,277.763"/>
		<path fill="#00BCD4" d="M423.589,357.609l0.661-2.045C423.856,356.309,423.58,357.036,423.589,357.609"/>
		<path fill="#00BCD4" d="M448.447,298.671c-2.81,3.775-4.154,10.211-6.59,15.162c-3.342,9.538,2.659,2.532-1.313,11.388
			l-2.126-2.86c-3.899,8.783-11.43,20.005-13.958,28.226c-0.733,0.387-2.108,1.479-1.037-0.82c-3.667,5.251,1.764,5.419-4.471,11.65
			c3.513-7.573-3.099,0.932-3.253-2.056l0.61-1.113c-3.172,4.391-7.199,10.456-9.805,12.952c0.48,0.669,3.579-0.782,0.3,2.821
			c1.475-1.319,1.599-0.114,2.075,0.577c2.856-4.305,5.075-6.017,6.256-9.042c2.652-1.471-0.984,1.669,1.668,0.196l1.838-3.777
			c2.085-2.163-1.124,3.081,2.009-0.417c-0.157-0.818,1.678-4.175,3.927-7.061l-0.327,1.067c1.342-2.485,4.014-5.429,1.784-5.328
			l3.316-1.722l-1.313-0.193c4.566-6.052,8.653-7.069,12.112-16.543c-1.428,1.945-0.983-0.287-0.607-1.519
			c-2.651,3.25-1.584,4.901-3.429,8.386c-1.288-0.108,0.721-6.521-2.239-2.807c3.797-3.768,4.501-8.569,8.13-9.228
			c2.937-5.563,2.56-8.317,5.615-13.916l0.337,0.34c-1.401-1.793,2.789-4.496,2.396-9.631l-1.527,2.999
			c-0.697-0.424-0.197-1.945,0.406-4.12c0.21,0.339,0.21,0.339,0.824-0.227c-1.098-1.092,0.771-7.885,0.577-8.855
			c-1.057,2.762-0.99,6.57-1.802,9.985C448.61,301.234,447.323,301.373,448.447,298.671"/>
		<path fill="#00BCD4" d="M396.837,388.372l3.653-3.8l1.185-1.555C400.09,384.816,398.495,386.624,396.837,388.372"/>
		<path fill="#00BCD4" d="M331.392,424.729c-1.15,0.641-0.32,0.771-1.047,1.451C332.897,425.354,333.594,424.659,331.392,424.729"/>
		<path fill="#00BCD4" d="M370.078,408.118c-1.388,0.304-3.21,0.859-5.244,1.491C365.631,409.837,366.271,409.977,370.078,408.118"
			/>
		<path fill="#00BCD4" d="M365.638,373.649c-4.17,9.253-9.395,12.047-15.473,19.095c-2.31,0.015-4.653-0.087-6.93-0.176
			c-6.755,7.31-0.9,5.812-5.378,12.129c-4.64,1.526-10.652,5.333-16.276,8.759c-5.599,3.452-10.799,6.499-12.874,7.263
			c-3.63-0.737,2.248-4.227,2.953-6.044c-4.901,3.197-6.86,5.572-9.279,7.949c-2.421,2.342-5.341,4.69-12.513,6.893l-0.598-1.135
			c-16.104,8.235-36.951,12.277-58.332,11.507c-21.488-0.626-43.119-5.877-62.729-13.11c2.432,1.462,1.384,2.003,1.988,3.318
			c-20.667-8.511-40.824-22.441-57.621-38.519c-16.97-16.027-30.607-33.934-42.753-49.387c5.319,11.717,11.953,27.942,22.065,42.487
			c9.912,14.56,23.16,27.13,36.021,31.994c5.521,8.877,20.84,12.895,21.995,18.78c16.063,10.2,29.534,13.38,42.445,15.218
			c13.034,1.686,25.775,2.13,43.343,2.932c5.021,1.009,2.509,3.203,3.937,5.438c-9.595,0.542-19.292,0.34-28.974-0.597
			c5.718,1.616,11.536,2.981,17.435,4.079c-3.947,0.737-10.635,0.16-16.617-0.446c-5.989-0.591-11.313-1.121-12.868,0.645
			c13.328,0.604,30.024,2.581,46.472,2.022c16.396-0.455,32.313-3.484,42.376-8.986c-10.313,1.412-22.943,4.638-35.311,4.784
			c-5.487-1.184-13.734-2.412-13.117-4.684c17.181-2.847,32.193-5.511,47.136-9.402c14.859-3.912,29.669-9.225,44.144-18.4
			c7.296-4.494,16.954-10.819,19.396-9.948c-4.184,3.944,0.387,2.912-2.89,6.505c4.611-4.316,3.6-6.172,3.423-8.063
			c-0.21-1.945,0.4-3.833,7.359-9.009l3.21,7.364c0.173-5.425,4.453-8.601,9.421-12.338c4.947-3.689,10.612-8.017,12.841-14.411
			c5.295-1.622,1.451,6.229-5.391,13.604c8.81-7.392,6.002-11.187,11.582-18.044c0.044,3.566-0.036,7.164-0.24,10.796
			c1.385-11.35,11.627-13.055,16.624-16.779c-1.07-1.437-7.84,0.219-1.178-9.894c3.363-4.08,3.463-0.964,4.889-1.577
			c-1.099-1.42-1.436-6.6,1.834-13.803c2.632-0.403,0.667,6.218,2.366,7.721c2.719-5.562,4.353-10.285,7.788-13.733
			c2.349-10.82-3.172-0.535-3.012-7.542c7.01-15.019,7.786,0.994,14.275-3.377c-0.987,13.558-7.666,29.692-9.818,36.775
			c3.71-7.857,6.896-15.917,9.519-24.119c1.948,2.584,10.331-15.085,7.896-1.125c5.842-11.995,9.669-26.423,11.261-40.854
			c1.645-14.443,1.09-28.884-0.461-41.386c-0.755,3.595-1.264,8.141-2.913,7.404c-1.741-12.733,1.266-11.439,3.02-14.248
			c-2.589-9.458-7.013-7.878-11.025-13.052c0.457-9.678-0.467-15.154-1.124-20.26c-0.715-5.131-1.172-9.91-1.341-18.682
			l-3.888,2.418c-0.638-12.227-7.492-11.31-10.429-23.544c0.555-1.05,3.717,2.741,6.242,5.89
			c-6.029-9.492-1.034-11.065-7.931-19.946c2.887,1.711,5.789,3.5,8.641,5.386c-4.26-7.982-12.761-18.216-6.679-16.564
			c-6.415-5.365-13.268-13.718-21.03-21.934c-7.693-8.245-16.324-16.318-24.688-21.472l3.503-2.078
			c-5.382-1.577-12.521-7.431-20.133-12.492c-7.537-5.129-15.514-9.393-20.648-8.966l-0.573-2.059
			c-6.705-1.571-13.425-2.776-20.094-3.626c-8.033-3.661-3.275-7.932-4.479-6.708c-19.01-5.858-34.172-8.357-46.56-11.937
			c-3.877,4.568-24.197,3.977-40.18,6.099c-38.826,0.973-78.585,16.592-108.504,42.129c-30.259,25.329-50.303,59.849-58.67,93.346
			c-3.336,9.896-1.31,25.032-0.464,37.464c1.72-7.371,2.295-11.424,2.719-15.539c0.435-4.102,0.811-8.246,3.059-15.375
			c4.869-10.247,11.476-12.062,18.317-18.909l-5.954,2.432c1.445-7.441,3.285-9.455,4.674-11.138
			c1.458-1.684,2.542-3.028,3.646-9.196l5.798,4.026c-1.101-5.348,7.124-12.221,11.079-14.271l-1.595-5.912
			c7.817-5.543,12.751-8.985,17.799-7.876l-3.833-2.454c2.182-0.271,8.14-6.5,13.722-10.54c5.558-4.104,10.235-6.186,8.467-0.053
			c1.341-2.322,1.778-5.622,6.679-8.434l3.236,3.159c5.774-5.459,13.201-10.558,16.387-9.398c-3.24,2.953-3.463,5.355-3.637,7.726
			c14.125-7.558,14.485-10.949,14.072-15.081c-0.297-3.842-1.314-8.273,13.401-13.555l0.56,2.847
			c2.142-1.771,4.344-3.514,6.616-5.182c2.986,0.415,5.941,0.926,8.854,1.513c4.257-6.021,15.379-7.961,27.306-7.827
			c12.003,0.027,24.538,2.079,34.215,0.815c7.619,0.208,16.08,7.529,29.248,10.969l0.474-4.499
			c4.791,3.779,16.718,9.993,26.832,18.338c10.216,8.235,18.368,18.345,18.823,25.339c9.7,3.438-0.168-1.371,2.134-3.986
			c9.048,4.207,12.501,8.434,14.303,12.271c1.785,3.913,2.012,7.581,4.271,12.119c9.298,7.362-4.594-7.813,2.005-5.309
			c4.787,7.887,7.939,9.961,11.656,12.568c3.582,2.622,7.89,5.77,12.236,16.475c-1.071,3.156-4.399-4.265-7.082-5.328
			c6.112,5.478,12.06,15.476,16.434,27.092c4.438,11.622,7.227,24.734,9.171,36.422c0.27,13.637-0.601,30.375-4.57,47.046
			c-3.833,16.66-10.818,32.873-19.543,45.344l1.178,1.23c-9.371,9.125-13.688,22.485-25.091,32.28
			C361.305,376.299,363.485,375.007,365.638,373.649"/>
		<path fill="#00BCD4" d="M227.519,427.741c-2.238,0.023-4.487,0.008-6.732-0.06c-0.647-0.353-0.914-0.903-1.261-1.422
			c0.137,0.571-1.814,0.983-1.651,1.475c2.439,2.786,8.04,1.282,11.547,1.586c9.04,2.638-0.631,1.017,2.619,3.609
			c-2.599-0.571-2.616-1.014-6.182-1.923c5.201,3.522,12.874,2.543,16.57,2.42c-1.04-0.333-1.211-1.021-3.259-1.118l3.877-0.163
			C239.336,429.986,236.116,429.232,227.519,427.741"/>
		<path fill="#00BCD4" d="M216.136,425.029c2.396,0.474,3.239,0.859,3.359,1.181C219.019,425.513,218.338,424.916,216.136,425.029"
			/>
		<path fill="#00BCD4" d="M244.437,433.6c-0.397-0.178-1.091-0.203-2.009-0.173C242.882,433.566,243.473,433.653,244.437,433.6"/>
		<path fill="#00BCD4" d="M241.007,430.708l4.551,0.771l-1.679-1.175C243.235,430.36,240.974,430.203,241.007,430.708"/>
		<path fill="#00BCD4" d="M404.54,379.594c-0.903-0.307-2.412,0.578-4.915,3.156c-0.445-1.113,3.08-4.112,4.131-6.115
			c-3.836,2.788-0.864-0.979-2.473-0.917c-3.795,3.506-4.473,6.176-8.903,9.607c0.004-0.426-0.394-0.74-1.191-0.559
			c-4.514,4.927-13.077,12.596-19.132,15.312c-5.512,3.07-9.238,5.898-15.126,9.605c-20.364,10.128-43.15,18.65-67.774,20.405
			l-3.245,2.525c-1.281-0.923-5.868,0.483-5.271-0.972c1.351,0.162,2.625-0.128,4.224-0.321c-5.368-1.388-13.912,1.098-20.26,0.273
			c0.71,0.4,1.748,2.315-0.185,2.615c0.545-2.375-7.556-0.13-9.257-3.085c-6.225-1.148-0.38,2.155-6.939,1.183
			c-0.837,1.396,6.278,1.242,7.416,2.356c-2.165,1.024-5.994-0.913-5.808,0.587c10.749,1.829,30.849-1.067,46.636-4.551
			l-1.502,1.575c8.168-2.012,21.155-5.024,28.197-4.963c-1.862-0.648,12.026-3.135,9.825-5.547c2.215-0.077,2.765-0.439,5.668-1.26
			l0.407-1.164c3.949-1.578,3.869-0.004,8.329-2.058c-3.449,0.129-0.313-1.606,0.505-3.157c5.632-1.047,12.007-2.978,16.943-4.52
			c-0.543-0.154-1.178-0.323-2.941,0.041c3.195-1.271,2.081-2.026,2.635-2.849c2.76-1.7,3.32-0.152,3.6,0.621
			c5.452-2.749,5.995-6.789,10.242-8.492l-2.035-0.14c4.861-3.729,9.845-5.707,14.826-10.382c3.676-0.742-3.344,4.74-5.175,7.037
			c1.325-0.574,3.746-2.29,4.821-2.448l6.781-9.722C396.427,387.138,402.782,381.185,404.54,379.594"/>
		<path fill="#00BCD4" d="M390.813,392.999c-0.478,0.743-0.898,1.368-1.111,1.776c0.467-0.494,0.881-0.979,1.714-1.555
			C391.346,392.984,391.122,392.943,390.813,392.999"/>
		<path fill="#00BCD4" d="M404.54,379.594c0.063,0.031,0.184-0.006,0.24,0.038C405.181,379.069,404.987,379.194,404.54,379.594"/>
		<path fill="#00BCD4" d="M359.644,132.344c9.88,8.803,21.688,21.625,28.173,33.18c2.479,1.857,4.641,5.49,6.822,9.127l-1.157,1.098
			l2.012,2.914c0.219,1.476-1.465-2.28-0.858,0.224l1.441,0.776c-0.334,0.475,3.419,8.326-0.003,3.44
			c1.868,4.104,3.582,8.277,5.124,12.514c0.941,2.836,1.838,1.216,2.509,4.497c-0.218,0.782-0.664-1.039-1.104-0.607
			c1.895,9.744,6.282,10.195,7.58,19.578l-0.354-0.742c0.722,1.481,1.241,4.484,1.445,4.487c1.324-1.471-1.121-1.508-0.781-4.493
			c1.325-0.01,1.392,3.388,2.319,3.027c-0.097,2.273,0.896,3.428,1.241,5.346c-0.271,3.376,0.797,8.027,0.014,10.598
			c0.52,1.563,1.998,3.274,2.205,6.775c-0.905,2.544-0.972-0.544-1.242,2.86l0.771,0.522c-0.036,2.788-0.263,2.354-0.619,2.264
			c-0.044,2.962,1.094,2.47,0.522,6.203l-0.69-2.09c0.23,2.756,0.101,3.884-0.149,7.71c-0.435-0.11-0.341-1.642-0.16-2.757
			c-1.214,2.021,0.334,3.578,0.116,4.699c0.364-0.298,0.657-2.953,1.334-1.608c-0.266,1.895,0.771,4.154-0.263,5.45l-0.558-2.143
			c0.248,4.019,0.795,2.215,0.014,6.744c-0.027-0.251-0.227-0.152-0.373-0.269c0.652,2.999-0.755,6.662-1.548,10.858l-0.071-0.837
			c-0.025,1.746,0.428,2.804,0.207,3.715c0.892-2.327,0.984-1.635,1.741-1.722c-1.847,2.96,0.511,5.198-1.477,10.261
			c-0.4-0.188-0.607-1.553,0.18-2.883c-0.878-2.065-1.852-2.5-1.825-5.76c-0.067,2.015-0.435,4.34-0.844,3.743l1.03,0.867
			c-0.21,1.196-0.533,2.102-0.743,2.998c0.61,0.686,1.785-2.118,1.595,0.757c-0.378,3.204-1.603,1.347-1.194,1.963
			c-0.69,4.357,0.811,2.105-0.765,6.066c0.024-0.432,0.061-1.282,0.271-1.603c-1.288,2.782-1.992,7.213-3.653,7.59
			c-0.157-0.521-0.527-0.731-0.069-1.785l0.196,0.114c0.03-3.465-0.588,2.717-1.508,1.317c0.804,0.027-0.73,3.975-1.564,5.691
			l1.033-0.261c0.174,6.893-1.468-0.918-3.469,5.005c-1.005,3.88,0.821-1.288,0.43,1.19c-1.203,2.419-2.298,3.021-3.615,6.734
			c-0.791,0.837-2.199,2.62-3.156,2.351c-0.685,2.309-3.72,6.139-3.554,7.763c2.695-3.15,1.056-3.998,4.337-7.626l0.265,1.621
			c-1.553,2.899-3.153,6.856-4.628,8.634c0.394-0.304,0.715-0.356,0.74-0.003c-2.075,4.245-1.998,5.916-4.79,9.617
			c-1.074,0.019,0.564-2.134,1.545-3.831c-2.219,2.097-1.688,2.601-4.562,6.213c-0.773-0.239,1.818-2.505,1.462-3.379l-2.673,4.313
			c-0.022-0.043-0.08-0.055-0.126-0.09c0.601,1.327-2.333,3.09-3.947,5.746c-4.57,5.757-4.026,7.677-6.011,11.459
			c-1.002,0.595-1.462,0.616-1.389,0.056c1.646-0.98,1.094-1.037,1.271-1.73c-1.571,1.971-4.621,3.195-4.054,1.824
			c-2.449,3.12,1.478-0.574,0.106,1.454c-1.257,1.298-2.539,2.588-3.843,3.837c0.917,0.01,2.382-1.256,0.737,1.098
			c-1.551,1.832-2.502,2.51-4.801,4.627c0.11-0.545-1.388-0.051,0.337-1.623c-1.251,0.864-3.028,2.384-3.269,3.475
			c2.965-1.812-3.838,4.113-1.262,3.198l-3.01,1.751c0.607-0.49,0.411-0.862,1.361-1.511c-1.37-0.123-1.972,1.99-2.835,2.825
			c-1.045,0.633-3.601,2.45-4.026,2.313c-0.678,0.892-2.956,2.264-3.647,2.148c-1.177,1.114,0.281,0.604,0.094,1.145l-4.54,3.057
			c-0.554-0.295-1.785-1.313-1.222-1.929c-1.421,1.548,0.297,1.751-2.332,3.423c0.932-1.839-3.916,1.482-2.418-0.955
			c-1.901,0.295-6.159,2.907-8.461,4.461c-1.084,1.574,2.856-1.041,3.14-0.206c-6.652,4.099-6.048,6.375-11.473,8.564l1.474-0.426
			c-3.082,1.986-2.752,1.729-4.396,3.267c0.464-1.394-4.921-0.91-10.354,1.378c-0.281,0.686,3.485-0.218,2.892,0.919l-3.663,1.557
			c-0.297,0.023,0.044-0.299,0.477-0.61c-3.219,1.604-6.691,0.874-7.271,2.375l-3.91-0.429l1.562,0.238
			c-0.314,0.64-4.081,1.952-4.835,2.343c-3.77,1.654-5.358,1.512-7.669,1.368c0.787,0.279,2.758,0.863-0.351,1.732
			c-0.341-1.669-6.727,0.754-6.813-0.175c-1.271,0.26-3.616,0.093-3.65,0.837l0.041-1.104c-0.041,1.562-4.725,2.222-8.29,2.893
			c0.583-2.115-3.938,0.584-5.702-1.151c-0.557,1.472-6.329,0.994-6.909,2.174c-2.785,0.186-2.549-1.152-3.267-1.566l-1.273,0.554
			c-1.411-0.608-6.593-0.714-9.645-1.294l-2.923,1.101l-1.034-0.62c-0.474,0.279-2.875,0.3-1.425,0.862l-1.548-0.185
			c-0.233,1.349-2.215,0.192-5.395,0.461c-0.7-0.296-0.474-0.592,0.227-0.695c-1.551-0.189-0.808-0.8-1.601-1.344
			c1.074,0.489-5.875,1.711-1.762,2.829c0.224,0.594-2.299,0.666-3.803,0.201l-0.754-1.326l-2.035,0.969
			c-2.432-0.211-3.323-1.162-5.217-1.67c1.995,0.304,4.77-1.464-0.264-2.383c2.672,0.358,4.087-0.076,5.498-0.112
			c-1.034-0.219-1.528-0.417,0.173-0.66c-3.979-0.277-1.441,0.524-5.331-0.047c0.417-1.018-0.601-1.543-3.85-2.634l2.335,1.31
			c-0.144,0.107-0.334,0.163-0.544,0.188c0.924,0.318,1.164,0.539,1.284,0.981c-0.747-0.161-4.767,0.373-5.261-0.435
			c3.514,2.587-7.089-0.379-4.857,1.197c-0.518,0.185-3.256-0.465-3.383-1.072c3.437,0.102-2.081-1.865-1.334-2.461
			c-1.271-0.043,2.282,1.5,0.56,1.428c-1.925-0.483-3.132-1.528-4.07-2.202l0.844,0.056l-2.752-1.383
			c-0.647,0.358,2.532,1.77-0.237,1.181c-0.637-0.43-3.389-1.104-3.169-1.471c1.511-0.271,0.917-1.518,3.223-0.921
			c-1.898-0.525-7.827-2.563-5.799-0.751l-2.201-0.854c1.214,0.937,4.857,3.166,0.327,1.641l0.12-0.189l-3.399-0.443l-1.138-1.055
			c-0.06,0.267-0.657,0.323-1.778-0.188c-0.17-0.43-1.188-1.001-0.928-1.363c-3.302-1.349-3.239-0.795-3.806-0.683
			c-1.848-0.765-2.435-1.282-1.318-1.468c-2.416-1.271-6.732-3.312-8.093-4.699c-3.43-1.335,0.55,0.559-1.671,0.176
			c-1.888-3.108-10.075-6.621-15.109-9.874c0.394,2.272-1.455-0.753-3.226-0.177c1.341,0.333-3.836-4.367,0.667-1.675l-2.679-1.731
			c-1.205-1.995,4.647,2.53,2.739-0.396c-2.875-2.017-5.841-2.017-8.72-5.137c1.818,0-2.739-1.75-1.098-2.073
			c0.928,0.246,1.738,1.07,2.719,1.733l-0.423-0.637c-5.705-5.22-2.616-0.365-6.252-2.415c-3.66-3.063-2.172-3.186-2.002-3.78
			c-0.38-0.668-2.238-2.158-3.356-2.797c2.589,1.46,3.393,4.193,1.918,3.825c-0.637-2.379-5.034-4.951-6.335-5.529
			c3.89,5.806,3.292,3.383,7.029,8.858c0.964,0.26,1.598-0.678,4.22,2.182c-2.235-1.122-0.307,0.612,0.09,1.207
			c-0.13-0.997,2.245,1.512,3.36,2.016c0.49,1.112-2.826-0.233,0.08,2.464l1.594-0.812c1.071,1.127-1.258,0.539,1.588,2.228
			c-1.921-0.418-0.384,1.392-4.077-1.167c3.366,4.395,6.993,4.41,10.716,6.25c-0.407-0.162-0.567-0.009-0.978-0.152
			c0.981,0.14,2.269,1.095,3.347,1.675c2.082,1.802-2.212-0.574-1.865,0.17l3.73,2.403c0.05,0.094,0.054,0.13,0.033,0.157
			c1.098,0.456,2.135,0.893,2.266,1.456c-1.398-0.259-2.148-0.057-3.123-0.201l4.583,1.525c-0.734,0.207,2.869,2.747-0.227,1.396
			c2.048,1.104,4.083,2.225,6.165,3.256l-0.014,1.248c1.562,0.64,1.705,0.467,0.014-0.61c1.972,1.442,10.262,3.112,8.2,4.47
			c5.354,1.508,6.996,2.685,13.358,4.601c-5.134-0.915,5.014,3.284-0.221,1.781c2.819,1.555,3.847,0.708,6.266,1.327
			c2.065,1.205,0.741,1.89-1.815,1.426l2.999,0.511l-0.12,0.188l2.669,0.216c2.452,1.38,0.217,1.244,2.916,2.208l0.877-0.756
			l1.698,1.085c-0.578-0.626,1.097-0.332,3.119,0.111l-0.103,0.198l2.482,0.461c-2.559-0.038,2.182,0.755,0.908,1.143
			c2.085,0.544,2.132,0.58,5.984,1.212l-0.53-0.792c5.078,0.479-0.003,1.027,4.034,1.875l-0.11-0.792
			c5.611,2.341,10.019,0.959,14.232,2.24c-2.509-0.113-1.985,0.833-1.911,0.623c3.783,0.227,9.931,0.922,13.871,0.157
			c1.378,1.157,1.702,1.536,5.738,2.102c2.938-0.028,3.376-0.17,4.33-0.797c2.849,0.43,8.15-0.443,8.327,0.33
			c0.627-0.654,2.568-0.017,4.093-0.677l0.354,0.3l-0.307-0.741c5.185,1.295,8.337-1.717,13.546-1.004l-0.838,0.327l2.075-0.604
			c0.39,0.276-0.441,0.606-0.478,1.056c3.3-0.455,6.589-1.02,9.862-1.641l-2.039-0.183c2.052-0.461,3.256-1.517,5.695-1.564
			c-3.623,1.998,3.239-0.704,4.07-0.042l-2.02,0.806c2.84-0.771,2.836-0.774,2.409-1.454c3.59-1.248,2.916,0.754,6.058-1.02
			l-2.412,0.654c-0.83-0.24,0.738-1.29,2.329-1.764c0.407,0.009,1.636-0.008,0.444,0.446c2.786-1.094,7.158-2.137,8.293-2.882
			c1.611-0.308,1.288,0.378,0.527,0.858c5.799-2.803,2.803-0.808,8.526-3.775l0.063,0.442l1.843-1.31l3.252-0.412l-1.265-0.059
			c1.906-0.9,2.979-1.72,5.298-2.535l-0.623,0.992c5.21-2.85,6.705-2.029,11.272-5.508c0.397-0.085-0.273,0.524-0.621,0.832
			c4.087-3.438,4.057-0.936,7.986-4.7c-0.166,0.356,0.468,0.276,0.392,0.546l1.821-1.636l0.304,0.835l0.98-2.122l1.728-0.066
			l0.555-0.868c3.082-0.033,5.397-3.129,8.971-4.239l-1.148-0.519c5.785-6.976,16.784-11.692,23.634-20.209l0.487,0.737l2.332-3.921
			c2.147-1.264-0.44,1.548,0.397,1.315c2.895-3.822,0.423-2.313,3.902-6.596c2.271-1.771-0.13,1.183-0.814,2.358
			c3.166-4.134,7.547-10.382,10.103-13.054c-0.051-0.136-0.04-0.409-0.19-0.287c1.751-2.986,4.667-6.485,6.686-9.71
			c0.286,0.292-0.181,1.113-0.634,1.953c0.798-1.111,2.071-2.523,2.332-3.739l-0.127,1.612c1.725-2.391,4.01-7.588,5.095-7.725
			c-0.475,0.137-0.948-0.304,0.304-2.495c1.874-0.579,2.802-6.301,5.18-9.625c0.074,0.57-1.184,3.27-0.797,2.522
			c1.222-1.668,1.465-3.583,1.828-5.379l0.254,0.718c1.113-2.962,2.148-5.941,3.086-8.95c1.818-0.794,2.996-8.381,3.656-7.451
			c1.151-3.174-1.484,2.474-0.227-1.597c0.917-0.892,0.964-3.733,1.731-3.3l-0.044,0.468l0.849-2.863l0.232,2.048
			c0.638-2.513,0.311-4.57-0.271-4.866c1.172-2.187,1.642-5.629,2.68-6.513l-0.024,0.931c1.352-6.674,4.838-10.602,4.308-16.205
			c0.187-0.382,0.391-0.297,0.24,0.534l0.711-4.195l0.493,1.098c0.021-2.375,0-4.744-0.076-7.109l0.417,0.137
			c0.717-4.598,1.027-11.886,0.964-17.861l0.187,0.897c-0.58-6.527,0.453-6.306-0.144-11.079c0.121,0.166,0.171,0.323,0.197,0.497
			l-0.214-4.296l0.47,0.926c-1.061-3.116,0.531-9.197-0.075-7.173c-0.588-1.771-1.398-4.804-2.012-5.26
			c-0.635-4.637,0.437-1.208,0.396-4.135c-0.446-3.373-1.274-3.845-1.705-8.434l0.447,0.013l-1.758-6.264l0.4,0.824
			c-1.951-4.557-0.144-6.269-2.986-9.492c-0.173-2.082-1.588-5.721-0.69-5.795c-2.355-5.666-4.199-10.033-6.792-15.492
			c0.935-1.43-0.534-1.181-1.268-4.845l-0.594,0.551c-3.479-7.737-6.372-17.368-11.736-25.257l0.51-0.63l-1.729-1.157
			c-5.181-8.807-13.161-19.445-18.752-25.399c-2.103-1.719-5.527-4.028-8.364-7.159l0.395,0.236l-17.669-14.972
			c0.595,0.051,0.101-0.611,0.944-0.228c-2.028-0.502-3.779-2.829-5.184-3.85l1.294,1.649c-2.269-0.773-4.521-3.229-5.185-4.333
			L348.22,94.5c-0.149-0.194-0.397-0.495-0.37-0.625l-0.757-0.007l-1.064-1.896c-0.878-0.303-5.095-2.609-6.886-2.495
			c-0.121-0.463-2.91-2.388-0.564-1.233c-3.776-2.261-7.612-4.442-11.55-6.434l1.695,1.222c-0.127,0.808-3.854-0.536-5.578-1.671
			c2.699,0.559,0.671-0.887-0.157-1.878c-1.805-0.374,1.141,1.261,0.107,1.25c-2.256-0.503-6.727-2.119-7.704-2.869l1.368,0.223
			c-2.941-0.876-3.753-2.658-6.628-3.64c-2.757-0.392-4.479-1.527-4.374-0.121c-3.783-1.014-1.135-1.34-2.299-1.859
			c-1.945,0.002-7.06-1.96-7.569-2.771c-2.55,1.227-10.075-3.335-11.253-1.867l-2.959-1.571c-0.19,0.404-1.015,1.238-3.597,0.932
			c-2.319-0.919-1.625-1.528-2.286-2.098l-1.897,1.315c-13.725-4.103-32.617-3.759-48.21-3.602
			c-6.926,0.976-15.473,2.954-23.419,4.509l0.833-0.396c-2.659,0.414-5.308,0.912-7.959,1.423l5.875-0.653
			c-1.685,0.545-2.926,1.213-4.583,1.586c-8.694,1.466-20.317,4.389-29.965,9.594c-5.635,4.583-4.995,0.424-10.472,4.645
			c0.433-0.418,0.51-0.743,0.894-1.138c-6.216,3.872-9.508,6.122-15.076,10.875c-0.307-2.015-3.943,2.593-3.923,1.445l-0.083,0.953
			c-1.615,0.483-4.804,2.574-4.671,1.811l-2.055,2.628l-0.681-0.452c-3.52,2.421-10.188,8.656-12.854,9.016
			c-7.302,7.711-19.097,19.387-27.224,29.896c-0.608,1.87-2.842,5.004-4.477,7.535l-2.554,2.174
			c-1.475,2.718-2.201,6.077-4.142,8.234c-0.087-0.068-0.094-0.208-0.033-0.407c-1.431,2.763-3.299,5.128-3.92,8.088
			c-1.645,2.974-3.505,5.753-3.817,4.444c1.18,0.938-3.303,6.455-3.289,6.483c0.108,0.027-5.071,9.853-9.941,26.389
			c-4.888,16.461-8.721,39.94-6.79,64.707c1.679,24.741,9.352,50.27,20.162,70.058c10.68,19.932,23.841,34.009,32.385,40.373
			c1.506,0.553,4.488,3.075,4.138,1.38c2.258,1.953,2.269,3.857,3.203,3.75c-2.445-3.261,2.251-0.457,0.204-3.934l1.868,1.686
			c0.741,0.003-2.802-2.035-1.675-2.263l-1.508,0.454c-1.265-1.618-1.772-2.665-1.912-3.506c-1.691-1.027-3.955-0.703-6.296-4.749
			l0.871,0.923c-2.428-2.847-0.76-2.338-1.077-3.085l0.514,0.646l-1.429-2.864c1.118,2.14,4.499,4.412,3.127,2.892
			c-2.502-3.644,0.467,1.097-1.771-1.341c-1.371-1.541-0.408-1.565-0.017-1.764l-2.309-2.854c0.599-0.297,1.471,1.932,1.091,0.351
			l-3.352-3.257c0.806-1.636-3.604-3.623-3.504-6.251c2.186,2.514,0.28-0.547,1.029-0.419c-1.543-2.203-3.029-4.442-4.476-6.711
			c-0.213-0.763,1.562,1.525,0.839,0.537c-0.436-1.51-1.64-1.918-2.059-2.623c-0.005-0.807-3.034-5.2-1.961-5.537
			c-1.922-5.13-2.361-1.344-4.112-6.165c0.29-0.889,1.959,3.53,1.548,1.212l-2.545-4.606c0.495,0.294,1.395,0.468,2.152,2.279
			c-5.398-13.184-4.624-21.418-8.931-33.273c0.295-1.925,0.851,1.101,1.691,2.175c-3.433-8.563-1.465-12.827-2.849-20.344
			l-0.661-0.039c0.271-10.86-1.732-23.61-0.227-35.682l-0.521,1.418c-0.583-1.69-0.456-4.382-0.606-6.397
			c0.36-0.273,1.254,1.54,1.311-1.965c-0.3,0.697-0.68,2.153-0.959,1.691c1.281-5.119,2.519-13.078,4.635-21.7
			c2.032-8.629,5.006-17.886,8.479-25.606c7.821-21.627,22.915-41.975,38.688-57.872c-2.382,2.465-2.505,0.309-0.4-1.278
			c6.949-2.952,8.734-8.735,15.617-11.786c9.901-8.764,21.084-12.799,31.112-19.851l0.544,0.595c1.798-0.44,2.002-1.162,3.729-1.984
			l0.047,0.216c4.217-1.579,9.028-4.248,11.617-4.742l-0.137-0.87c2.522-0.955,1.531,0.148,3.993-1.172l0.06,0.437l2.819-1.751
			c0.131,1.516,7.317-2.043,9.615-1.801c3.292-1.107,9.662-3.113,14.956-3.568c1.088,0.591,7.497-0.265,11.626-0.174
			c7.946-0.903,19.467-1.269,29.604,0.009l-0.093-0.995l2.672,0.194c-0.061,0.213,0.283,0.369-0.127,0.424
			c1.925,1.324,6.162,0.404,8.187,1.435c-1.193-1.1-1.835-0.405-3.332-0.647c-2.112-0.769,0.097-1.421,2.973-0.517l-0.094,0.203
			l2.086-0.179c0.097,0.801,1.852,1.432,1.935,2.24c8.606,1.418,14.785,1.602,23.343,4.725c-1.152,0.493,6.242,1.923,4.013,2.728
			c5.277,1.362-0.424-1.441,2.269-1.561c1.432,0.542,3.083,0.747,3.136,1.371c-0.798,0.066,0.814,1.303-0.387,0.966l3.416,1.261
			c0.271,0.243-0.54,0.115-0.95,0.05c7.195,2.087,11.525,6.258,17.707,8.687c0.694-0.23-2.23-1.4-1.551-1.639
			c6.406,2.313,4.677,3.713,10.369,6.334l-1.481-0.064c1.959,0.646,3.069,0.583,5.475,2.93c-0.01,1.033-2.719-0.983-4.28-1.488
			c1.895,1.221,6.709,4.297,5.738,2.66c2.405,1.324,2.723,2.567,3.77,3.605c0.17-0.142-1.705-1.957-0.174-1.349
			c2.692,2.583,7.187,6.103,10.543,9.135c-0.178,0.132-0.157,0.59-0.521,0.409C357.438,127.972,355.88,129.132,359.644,132.344"/>
		<path fill="#00BCD4" d="M213.591,424.783c-4.257-0.404-8.487-1.038-12.757-1.732c1.374-0.29,1.157-1.105,3.967-0.41
			c-5.181-2.099-6.353-1.03-10.599-2.949c-0.527-2.398,7.683,2.799,5.858,0.097c-3.072-1.023-7.556-2.786-10.679-2.22l-4.126-3.401
			l0.644,2.805c1.642,1.495,4.6,0.071,5.165,2.042c0.227,1.161-1.798,0.497-3.266,0.121c3.259,0.924,7.843,5.281,14.525,7.256
			C209.34,428.48,208.803,424.507,213.591,424.783"/>
		<path fill="#00BCD4" d="M186.418,418.958c0.4-0.021,0.848,0.038,1.314,0.163C187.145,418.975,186.631,418.858,186.418,418.958"/>
		<path fill="#00BCD4" d="M179.318,409.267c-1.814,1.625-7.606-4.335-9.264-3.368c4.24,2.363,6.939,5.593,5.421,6.19
			c1.734,0.616,3.433,1.287,5.177,1.852C182.655,413.954,181.294,411.508,179.318,409.267"/>
		<path fill="#00BCD4" d="M139.679,387.555l4.774,3.303c-0.253-4.824,2.396-1.202-2.635-8.881c-2.706-1.588-8.534-5.411-8.854-3.807
			c1.738,1.462,5.061,2.723,7.259,5.225c-1.754-0.16-4.324-2.654-6.476-2.862c3.213,4.522,3.1,1.703,7.233,5.992L139.679,387.555z"
			/>
		<path fill="#00BCD4" d="M147.195,389.155c-0.801,0.159-1.611,0.287-1.861,0.729C146.151,389.753,148.79,390.904,147.195,389.155"
			/>
		<path fill="#00BCD4" d="M162.208,399.774l1.535,0.743C163.466,399.894,162.895,399.882,162.208,399.774"/>
		<path fill="#00BCD4" d="M168.583,403.447c-0.837-1.457-2.666-1.981-4.841-2.93l0.113,0.238c1.368,1.691-1.154,2.028-3.726-0.184
			c-3.126-1.654-1.935-2.819-5.034-3.677l2.662,3.474C162.481,403.308,166.441,402.892,168.583,403.447"/>
		<path fill="#00BCD4" d="M150.134,391.004c2.769,2.288-0.84,1.009-0.687,1.376l4.667,0.63L150.134,391.004z"/>
		<path fill="#00BCD4" d="M162.208,399.774c-0.55-0.29-1.101-0.597-1.688-0.979C161.09,399.496,161.674,399.675,162.208,399.774"/>
	</g>
</g>
<polyline fill="none" points="-146.963,-14.727 531.162,-12.351 531.162,500.36 -146.963,497.983 "/>
<polyline fill="none" points="-146.963,-14.727 531.162,-12.351 531.162,500.36 -146.963,497.983 "/>
<polyline fill="none" points="-146.963,-14.727 531.162,-12.351 531.162,500.36 -146.963,497.983 "/>
<polyline fill="none" points="-146.963,-14.727 531.162,-12.351 531.162,500.36 -146.963,497.983 "/>
<path d="M51.802,446.921c0,0,45.007,11.922,83.55,11.189c24.858-0.474,275.99-9.915,347.557-92.878
	C482.908,365.232,194.325,401.967,51.802,446.921"/>
<polyline fill="none" points="-146.963,-14.727 531.162,-12.351 531.162,500.36 -146.963,497.983 "/>
<path d="M394.972,405.736c0,0,7.674,27.797,42.449,21.57c0,0-33.772-9.151-21.661-26.551"/>
<polyline fill="none" points="-146.963,-14.727 531.162,-12.351 531.162,500.36 -146.963,497.983 "/>
<path d="M252.566,320.37c13.028,8.656,14.402,39.886,16.461,57.8c-4.574,5.345-2.372,11.845-5.936,23.968
	c3.563-0.562,7.133-1.125,10.692-1.686c1.568-0.247,6.325-8.971,7.813-12.14c-1.095-14.236,23.98-58.242,53.001-72.138
	C324.707,305.63,276.126,315.446,252.566,320.37 M399.108,360.146c-1.25-5.97-3.526-4.961-4.61-11.153
	c-0.19-17.739-15.316-26.869-20.61-45.232c-2.969-10.323-1.478-24.789-4.644-36.84c-4.854-18.465-28.317-31.325-29.552-40.183
	c-0.881-6.436,5.018-10.479,7.063-16.876c6.506-20.378-38.469-14.922-40.831-26.072c-4.954-23.38,78.079-17.499,51.023-73.494
	c-12.407,70.774-65.796,47.085-54.953,77.789c2.89,8.178,36.777,8.551,38.676,15.008c6.592,22.416-32.1,22.708-51.986,23.485
	c-26.105,1.014-39.483-32.814-41.621-29.898c0.92-1.788-3.804-1.061,4.566-3.724c9.509-2.718,29.422-9.61,28.981-23.578
	c-8.04-8.702-17.689-13.793-25.835-21.254c0.13-2.089,0.587-8.208,1.674-9.815c6.072-4.749,19.283,0.687,20.675-11.194
	c2.089-4.876-3.033-13.872-3.626-13.759c9.003,21.823-30.319,7.203-30.119,24.318c0.017,1.636-0.06,2.877,0.087,3.966
	c-7.65-0.797-15.92,0.534-22.917,3.429c-1.374-1.998-7.266-5.365-6.285-8.88c9.898-14.889,41.961-8.797,37.197-33.738
	c-0.64-1.031-2.625-6.669-2.625-6.669c-0.725,29.661-68.941,14.794-55.92,52.387c2.179,6.301,5.051,8.344,9.545,10.853l-8.647-1.915
	c-8.427,3.052-13.745,6.278-12.897,7.052c0.847,0.776,1.618,1.659,2.629,1.962c7.83,2.349,16.37,0.731,16.37,0.731
	c-19.233,6.579-40.174,37.636-41.835,69.57c-21.845-0.741-42.669,17.892-45.265,34.549c1.071,6.704,14.846,18.875,20.53,29.48
	c5.188,4.23,16.397,3.481,16.397,3.481c8.133-9.232,0.514-11.468-3.013-18.918c-10.769-0.274-11.633-9.327-14.195-16.094
	c14.231-3.644,14.128,1.884,27.816-1.015c3.393,5.649,8.293,17.349,23.736,15.835c-5.838-10.717-15.176-35.86-9.291-44.357
	c-6.522,18.997,12.5,35.974,11.85,51.459c-0.464,10.9-11.693,14.101-17.007,23.287c-5.371,13.111-11.056,22.701-16.5,34.11
	c-3.653,9.774-1.725,12.221-1.925,18.487c5.868-1.802,9.194-0.113,12.447,1.675c0,0,5.965-15.641,10.442-18.616
	c7.586-44.381,64.848-52.869,76.337-94.447c-3.52,20.128-19.707,32.789-33.778,45.293c20.003,35.563,72.08,4.589,103.32,8.857
	c37.177,5.084,71.368,34.275,63.39,69.138c1.741-0.414,7.937,0.657,12.259,0.49C393.841,368.753,397.558,368.102,399.108,360.146"/>
<polyline fill="none" points="-146.963,-14.727 531.162,-12.351 531.162,500.36 -146.963,497.983 "/>
<path d="M130.761,421.72c-7.123,3.731-28.498,1.313-34.596-3.92c-5.383-29.04,8.337-61.368,23.283-75.81
	c7.237-63.185,15.817-138.123,23.65-206.497c2.352-20.542-1.001-63.104,12.337-56.719c-8.24,82.884-24.724,211.518-38.359,309.444
	c7.646-7.934,4.404-29.472,7.81-42.703C139.466,359.475,141.431,396.379,130.761,421.72"/>
<polyline fill="none" points="-146.963,-14.727 531.162,-12.351 531.162,500.36 -146.963,497.983 "/>
<path fill="#FFFFFF" d="M404.877,391.383c0.783-0.137,1.251,0.395,1.311,1.075c0.211,2.417-3.271,3.028-4.386,3.224
	C401.948,394.671,402.438,391.812,404.877,391.383 M407.553,399.039c-0.061-0.099-0.091-0.171-0.224-0.146
	c-0.391,0.063-1.672,1.359-3.206,1.627c-2.442,0.427-2.412-1.63-2.481-2.42c1.48-0.26,8.072-1.418,7.643-6.369
	c-0.187-2.099-1.709-3.216-4.144-2.787c-4.004,0.7-7.022,5.011-6.563,10.256c0.257,2.913,1.832,4.634,4.945,4.086
	c2.651-0.464,4.953-2.174,4.923-2.511c-0.007-0.078-0.066-0.149-0.097-0.224L407.553,399.039z M394.435,401.606
	c-0.026-0.047-0.14-0.107-0.216-0.094c-0.317,0.054-0.938,0.777-2.155,0.989c-1.275,0.225-1.982-0.318-2.105-1.763
	c-0.298-3.356,0.837-6.619,3.179-7.033c1.635-0.287,2.108,0.297,2.34,0.258c0.075-0.014,0.155-0.054,0.219-0.197l0.848-1.798
	c0.044-0.087,0.134-0.268,0.127-0.344c-0.026-0.26-1.561-0.923-3.586-0.565c-3.946,0.692-6.923,4.595-6.445,9.997
	c0.297,3.412,2.419,4.77,5.277,4.267c1.478-0.26,3.467-1.354,3.423-1.825c-0.006-0.106-0.069-0.173-0.103-0.247L394.435,401.606z
	 M382.441,406.08c0.124-0.076,0.301-0.16,0.283-0.34c-0.029-0.317-0.267-0.914-0.347-1.538c-0.033-0.394-0.033-1.3,0.044-1.898
	l0.993-8.511c0.017-0.109,0.033-0.22,0.024-0.323c-0.014-0.132-0.1-0.252-0.311-0.214l-2.052,0.36
	c-0.18,0.034-0.276,0.104-0.34,0.327l-0.224,0.754c-0.451-0.372-1.315-1.204-3.002-0.907c-3.3,0.58-5.772,5.404-5.319,10.599
	c0.244,2.753,1.368,4.154,3.264,3.817c2.258-0.395,3.459-2.333,3.977-3.09c0.113,1.313,0.414,2.323,0.7,2.271
	c0.127-0.022,0.228-0.094,0.304-0.13L382.441,406.08z M379.499,401.14c-0.217,1.711-1.027,3.88-2.949,4.22
	c-0.704,0.12-1.141-0.359-1.234-1.387c-0.24-2.73,0.505-7.494,2.713-7.879c0.938-0.168,1.587,0.359,2.004,0.608L379.499,401.14z
	 M361.501,400.035l0.616-5.309l1.092-0.189c1.351-0.236,2.412-0.13,2.545,1.395c0.201,2.309-1.134,3.556-3.473,3.965
	L361.501,400.035z M361.153,402.967l1.302-0.227l2.799,6.966c0.069,0.175,0.18,0.264,0.31,0.24c0.135-0.023,0.281-0.103,0.411-0.153
	l2.385-1.056c0.174-0.085,0.274-0.182,0.261-0.315c-0.007-0.103-0.16-0.342-0.193-0.443l-3.01-6.344
	c2.47-1.282,3.91-4.065,3.664-6.897c-0.311-3.513-2.999-3.576-5.752-3.091l-3.843,0.673c-0.314,0.053-0.391,0.097-0.438,0.447
	l-2.065,17.54c-0.02,0.112-0.03,0.323-0.02,0.405c0.014,0.155,0.077,0.276,0.414,0.219l2.518-0.442
	c0.314-0.055,0.388-0.095,0.435-0.448L361.153,402.967z M344.41,410.782c-0.04-0.155-0.12-0.165-0.197-0.152
	c-0.127,0.024-0.503,0.273-0.944,0.351c-0.39,0.066-0.613-0.053-0.644-0.417c-0.033-0.366,0.09-1.057,0.167-1.708l1.731-14.154
	c0.017-0.16,0.047-0.381,0.036-0.538c-0.017-0.181-0.05-0.257-0.153-0.24c-0.08,0.018-0.257,0.099-0.356,0.144l-2.241,0.872
	c-0.384,0.146-0.4,0.258-0.431,0.526l-1.699,13.965c-0.122,0.953-0.146,1.89-0.063,2.83c0.151,1.703,1.205,2.023,2.71,1.763
	c1.01-0.182,2.588-0.829,2.555-1.224c-0.006-0.077-0.043-0.177-0.05-0.255L344.41,410.782z M332.173,404.138
	c0.78-0.138,1.247,0.395,1.308,1.078c0.213,2.415-3.27,3.026-4.387,3.222C329.244,407.423,329.73,404.565,332.173,404.138
	 M334.852,411.792c-0.06-0.094-0.097-0.167-0.227-0.147c-0.387,0.067-1.672,1.359-3.206,1.629c-2.442,0.427-2.412-1.629-2.479-2.421
	c1.478-0.257,8.073-1.413,7.64-6.369c-0.188-2.098-1.708-3.214-4.146-2.787c-4,0.704-7.022,5.013-6.559,10.255
	c0.26,2.917,1.83,4.634,4.947,4.087c2.645-0.463,4.954-2.172,4.916-2.512c-0.006-0.076-0.063-0.147-0.097-0.222L334.852,411.792z
	 M321.443,416.778c0.124-0.074,0.304-0.158,0.287-0.34c-0.03-0.315-0.263-0.912-0.346-1.537c-0.027-0.314-0.094-0.782-0.018-1.384
	l1.784-15.066c0.017-0.161,0.047-0.381,0.038-0.515c-0.021-0.207-0.055-0.281-0.157-0.264c-0.077,0.017-0.257,0.101-0.354,0.141
	l-2.245,0.875c-0.381,0.146-0.397,0.255-0.428,0.529l-0.654,5.438c-0.437-0.161-1.043-0.48-2.311-0.257
	c-4.498,0.787-6.096,6.871-5.723,11.071c0.231,2.617,1.328,3.76,3.17,3.434c2.312-0.406,3.37-2.214,3.953-3.087
	c0.113,1.313,0.417,2.32,0.7,2.271c0.127-0.021,0.227-0.096,0.304-0.13L321.443,416.778z M318.562,411.531
	c-0.224,1.958-1.191,4.204-2.772,4.486c-0.807,0.142-1.308-0.464-1.404-1.594c-0.24-2.729,0.351-7.094,3.002-7.563
	c0.878-0.152,1.481,0.115,1.702,0.185L318.562,411.531z M306.668,419.371c0.124-0.075,0.301-0.159,0.29-0.341
	c-0.033-0.313-0.267-0.91-0.35-1.536c-0.026-0.318-0.094-0.785-0.017-1.386l1.785-15.065c0.013-0.162,0.046-0.381,0.036-0.513
	c-0.02-0.208-0.05-0.282-0.153-0.266c-0.08,0.016-0.261,0.099-0.36,0.144l-2.241,0.871c-0.381,0.148-0.397,0.257-0.425,0.53
	l-0.657,5.441c-0.433-0.167-1.04-0.484-2.312-0.264c-4.493,0.793-6.092,6.876-5.725,11.073c0.23,2.622,1.334,3.76,3.177,3.438
	c2.308-0.407,3.365-2.216,3.949-3.087c0.113,1.307,0.417,2.319,0.697,2.27c0.134-0.025,0.229-0.095,0.307-0.134L306.668,419.371z
	 M303.785,414.123c-0.224,1.959-1.187,4.204-2.774,4.484c-0.805,0.142-1.305-0.462-1.401-1.592c-0.24-2.729,0.351-7.096,3.002-7.56
	c0.881-0.155,1.485,0.11,1.705,0.182L303.785,414.123z M292.049,421.935c0.127-0.077,0.304-0.158,0.287-0.341
	c-0.029-0.316-0.267-0.911-0.343-1.538c-0.037-0.393-0.037-1.3,0.039-1.9l0.995-8.51c0.017-0.107,0.033-0.216,0.022-0.323
	c-0.009-0.13-0.1-0.248-0.31-0.21l-2.049,0.357c-0.184,0.033-0.28,0.101-0.343,0.327l-0.224,0.755
	c-0.455-0.37-1.314-1.204-3.003-0.906c-3.3,0.577-5.771,5.402-5.314,10.597c0.243,2.753,1.364,4.153,3.259,3.821
	c2.26-0.398,3.46-2.337,3.974-3.091c0.116,1.308,0.417,2.318,0.701,2.271c0.13-0.022,0.229-0.094,0.304-0.135L292.049,421.935z
	 M289.11,416.991c-0.214,1.719-1.027,3.885-2.949,4.222c-0.7,0.122-1.141-0.358-1.23-1.384c-0.24-2.73,0.5-7.497,2.711-7.881
	c0.935-0.163,1.586,0.36,2.003,0.607L289.11,416.991z M272.307,415.678l0.617-5.306l1.091-0.19c1.347-0.235,2.415-0.128,2.545,1.393
	c0.207,2.313-1.138,3.56-3.473,3.968L272.307,415.678z M271.959,418.613l1.352-0.236c3.84-0.674,6.985-3.274,6.568-7.996
	c-0.31-3.513-2.999-3.573-5.751-3.09l-3.844,0.671c-0.313,0.057-0.387,0.097-0.437,0.45l-2.069,17.538
	c-0.017,0.112-0.022,0.323-0.017,0.403c0.014,0.157,0.074,0.281,0.418,0.221l2.516-0.444c0.313-0.051,0.387-0.092,0.437-0.446
	L271.959,418.613z M246.865,430.101c0.437,0.163,1.044,0.481,2.318,0.26c4.494-0.789,6.092-6.873,5.719-11.07
	c-0.23-2.623-1.328-3.761-3.174-3.436c-2.312,0.406-3.365,2.212-3.949,3.09c-0.113-1.315-0.414-2.324-0.697-2.271
	c-0.13,0.02-0.227,0.089-0.307,0.13l-2.005,1.178c-0.124,0.071-0.301,0.156-0.284,0.34c0.026,0.315,0.264,0.911,0.344,1.534
	c0.03,0.317,0.097,0.784,0.017,1.386l-1.721,14.578c-0.014,0.163-0.07,0.411-0.058,0.566c0.014,0.131,0.021,0.234,0.15,0.215
	c0.08-0.014,0.283-0.103,0.384-0.147l2.241-0.87c0.384-0.147,0.404-0.261,0.431-0.529L246.865,430.101z M247.659,423.225
	c0.243-1.962,1.185-4.203,2.769-4.484c0.808-0.142,1.308,0.463,1.408,1.592c0.236,2.729-0.347,7.147-2.999,7.613
	c-0.881,0.153-1.488-0.166-1.708-0.233L247.659,423.225z M240.663,413.854c0.017-0.11,0.023-0.323,0.017-0.403
	c-0.013-0.157-0.076-0.279-0.414-0.22l-2.445,0.428c-0.307,0.053-0.383,0.095-0.434,0.448l-1.371,11.987
	c-0.229,1.879-0.771,3.836-3.025,4.233c-1.354,0.237-2.359-0.12-2.486-1.562c-0.05-0.577-0.023-1.167,0.084-1.748l1.454-11.652
	c0.014-0.11,0.023-0.325,0.017-0.405c-0.013-0.155-0.077-0.277-0.417-0.218l-2.519,0.441c-0.311,0.055-0.384,0.094-0.434,0.45
	l-1.375,11.933c-0.09,0.763-0.13,1.515-0.063,2.273c0.261,2.938,2.402,3.946,5.622,3.38c5.455-0.954,6.075-4.684,6.435-7.755
	L240.663,413.854z M212.903,435.818c0.127-0.073,0.304-0.158,0.29-0.344c-0.03-0.313-0.267-0.911-0.35-1.534
	c-0.026-0.316-0.094-0.786-0.013-1.387l1.785-15.067c0.014-0.16,0.047-0.38,0.033-0.509c-0.017-0.211-0.05-0.285-0.153-0.269
	c-0.08,0.017-0.253,0.1-0.357,0.144l-2.245,0.874c-0.38,0.146-0.397,0.257-0.427,0.529l-0.654,5.441
	c-0.437-0.163-1.044-0.486-2.315-0.261c-4.494,0.789-6.092,6.871-5.722,11.072c0.23,2.619,1.331,3.757,3.172,3.435
	c2.312-0.407,3.366-2.215,3.95-3.09c0.113,1.312,0.414,2.323,0.701,2.272c0.127-0.023,0.227-0.093,0.304-0.134L212.903,435.818z
	 M210.021,430.572c-0.224,1.957-1.188,4.203-2.772,4.482c-0.808,0.142-1.308-0.461-1.408-1.592c-0.24-2.729,0.354-7.093,3.006-7.56
	c0.881-0.156,1.485,0.112,1.702,0.184L210.021,430.572z M198.918,429.986c0.097-0.682,0.14-1.407,0.08-2.088
	c-0.127-1.445-1.174-2.589-2.862-2.295c-2.132,0.374-3.453,2.443-4.08,3.404c-0.127-1.469-0.467-2.604-0.75-2.555
	c-0.13,0.024-0.177,0.084-0.254,0.121l-2.005,1.18c-0.124,0.074-0.3,0.16-0.284,0.34c0.04,0.473,0.307,0.799,0.377,1.583
	c0.074,0.841-0.027,1.521-0.124,2.206l-1.071,8.202c0.01,0.109-0.01,0.218,0,0.294c0.017,0.21,0.153,0.239,0.36,0.206l2.412-0.424
	c0.26-0.046,0.31-0.082,0.337-0.38l0.657-5.39c0.25-1.961,0.821-5.363,3.213-5.783c0.546-0.095,0.817,0.284,0.867,0.889
	c0.05,0.55-0.01,1.09-0.093,1.637l-1.058,7.781c0.011,0.103-0.006,0.211,0,0.291c0.021,0.209,0.154,0.239,0.361,0.201l2.415-0.423
	c0.264-0.044,0.311-0.082,0.337-0.378L198.918,429.986z M183.512,440.975c0.124-0.075,0.301-0.158,0.284-0.343
	c-0.027-0.316-0.261-0.91-0.344-1.537c-0.037-0.393-0.037-1.298,0.043-1.898l0.995-8.511c0.014-0.11,0.03-0.219,0.02-0.323
	c-0.01-0.13-0.1-0.249-0.307-0.21l-2.052,0.359c-0.18,0.029-0.28,0.101-0.34,0.323l-0.224,0.758
	c-0.45-0.374-1.314-1.204-3.002-0.908c-3.302,0.578-5.774,5.405-5.317,10.601c0.244,2.748,1.368,4.151,3.259,3.817
	c2.263-0.396,3.463-2.333,3.978-3.091c0.116,1.311,0.417,2.32,0.7,2.272c0.13-0.025,0.227-0.095,0.303-0.134L183.512,440.975z
	 M180.577,436.027c-0.221,1.719-1.031,3.885-2.957,4.225c-0.7,0.12-1.14-0.358-1.227-1.384c-0.24-2.729,0.5-7.497,2.708-7.882
	c0.935-0.165,1.588,0.36,2.005,0.608L180.577,436.027z M170.158,441.137c-0.063-0.121-0.097-0.171-0.224-0.151
	c-0.157,0.03-1.114,0.812-2.286,1.019c-0.673,0.116-1.041-0.138-1.097-0.771c-0.033-0.417,0.007-0.851,0.073-1.292l0.701-6.437
	l3.35-0.589c0.233-0.036,0.257-0.069,0.34-0.323l0.39-1.559c0.014-0.136,0.084-0.254,0.07-0.387
	c-0.014-0.157-0.15-0.237-0.387-0.195l-3.48,0.61l0.438-3.433c0.013-0.136,0.03-0.271,0.02-0.377c-0.01-0.129-0.097-0.223-0.2-0.201
	c-0.133,0.022-0.234,0.066-0.337,0.083l-2.335,0.757c-0.15,0.054-0.28,0.104-0.31,0.347l-0.387,3.371l-1.818,0.317
	c-0.207,0.038-0.327,0.139-0.334,0.379l-0.187,1.495c-0.013,0.109-0.03,0.22-0.02,0.35c0.017,0.184,0.126,0.243,0.36,0.203
	l1.712-0.302l-0.807,6.964c-0.084,0.572-0.114,1.138-0.061,1.717c0.167,1.937,1.475,2.429,3.346,2.097
	c1.661-0.29,4.087-1.462,4.05-1.882c-0.006-0.077-0.04-0.151-0.046-0.229L170.158,441.137z M159.652,428.727
	c0.063-0.171,0.157-0.323,0.146-0.401c-0.043-0.496-2.795-0.944-4.614-0.627c-3.973,0.697-6.492,3.189-6.158,6.966
	c0.237,2.73,2.168,3.428,3.833,4.097c1.341,0.537,2.549,1.047,2.675,2.489c0.167,1.913-1.174,2.869-2.758,3.146
	c-1.919,0.339-3.65-0.48-3.937-0.427c-0.18,0.031-0.177,0.084-0.263,0.286l-0.821,2.084c-0.063,0.173-0.153,0.322-0.147,0.399
	c0.04,0.473,3.006,0.91,4.952,0.566c4.413-0.773,6.725-3.863,6.415-7.38c-0.134-1.521-0.821-2.441-1.792-3.016
	c-2.202-1.344-4.661-1.395-4.834-3.363c-0.14-1.6,1.008-2.652,2.672-2.945c1.738-0.304,3.26,0.55,3.546,0.497
	c0.181-0.035,0.177-0.086,0.264-0.285L159.652,428.727z"/>
<polyline fill="none" points="-146.963,-14.727 531.162,-12.351 531.162,500.36 -146.963,497.983 "/>
<path d="M404.961,118.935c0.127,0.065,0.354,0.162,0.563-0.013c0.141-0.115,0.18-0.327,0.249-0.445l3.885-9.797l12.5,0.316
	c0.197,0.006,0.396,0.014,0.533-0.104c0.171-0.144,0.15-0.417,0.058-0.633l-1.305-3.401c-0.061-0.122-0.091-0.274-0.188-0.368
	c-0.127-0.127-0.326-0.132-0.523-0.14l-6.349,0.187c-1.595,0.07-2.925,0.147-3.656,0.184c0.243-0.384,0.677-1.279,1.351-2.558
	l2.18-4.135c0.076-0.181,0.013-0.363-0.114-0.487c-0.097-0.095-0.421-0.285-0.554-0.351l-3.416-1.837
	c-0.234-0.099-0.461-0.196-0.597-0.078c-0.135,0.115-0.215,0.355-0.284,0.535l-3.783,8.953l-13.565-0.291
	c-0.199-0.006-0.429,0.016-0.572,0.133c-0.135,0.115-0.08,0.419-0.047,0.512l1.531,3.499c0.029,0.095,0.06,0.245,0.187,0.37
	c0.126,0.125,0.327,0.07,0.526,0.078l7.01-0.105c1.691-0.037,2.792-0.15,3.823-0.268c-0.424,0.773-0.788,1.546-1.324,2.649
	l-2.266,4.797c-0.073,0.119-0.113,0.329,0.017,0.455c0.061,0.063,0.26,0.129,0.42,0.226L404.961,118.935z M380.997,93.4
	c-1.728-1.354-1.211-2.879,0.98-5.2c5.031-5.331,14.726-11.443,18.927-8.157c1.694,1.325,1.174,2.853-1.048,5.207
	C394.828,90.581,385.197,96.687,380.997,93.4 M404.717,88.879c4.167-4.415,4.05-8.65-0.043-11.855
	c-8.117-6.352-20.334-0.106-27.554,7.544c-4.163,4.415-4.02,8.621,0.144,11.88C385.347,102.771,397.527,96.499,404.717,88.879
	 M361.871,63.017l4.164,2.477c0.387,0.229,0.477,0.179,0.83-0.078l2.225-1.694c0.144-0.123,0.331-0.223,0.434-0.367
	c0.104-0.148,0.121-0.397-0.224-0.603l-4.396-2.615l1.485-1.355c1.427-1.284,2.731-2.541,4.733-1.347
	c1.158,0.687,1.585,1.619,1.969,1.848c0.08,0.045,0.22,0.077,0.489-0.072l2.776-1.992c0.117-0.087,0.21-0.137,0.287-0.246
	c0.396-0.544-1.535-2.368-3.149-3.333c-5.281-3.143-8.373-0.869-11.09,1.73l-2.128,2.016l-2.852-1.698
	c-0.421-0.251-0.578-0.188-0.858,0.116l-1.941,1.76c-0.144,0.121-0.287,0.245-0.394,0.389c-0.236,0.327,0.043,0.547,0.273,0.685
	l2.735,1.628l-13.467,12.6c-2.193,2.027-3.871,3.424-6.493,1.865c-0.808-0.481-1.33-1.052-1.448-1.122
	c-0.116-0.069-0.243-0.042-0.453,0.095l-2.659,2.058c-0.146,0.124-0.263,0.211-0.367,0.357c-0.293,0.398,1.205,1.604,2.982,2.657
	c5.241,3.121,9.335,0.299,12.551-2.682L361.871,63.017z M330.378,61.829c-1.705-0.891-1.791-2.246-0.647-4.02
	c2.356-3.663,7.79-8.801,11.493-6.872c1.708,0.892,1.791,2.247,0.651,4.021C339.513,58.619,334.077,63.757,330.378,61.829
	 M346.705,57.929c3.112-4.832,1.922-8.18-2.095-10.272c-6.603-3.442-15.217,0.19-19.717,7.176
	c-3.113,4.834-1.839,8.221,2.336,10.398C333.674,68.59,342.204,64.915,346.705,57.929 M298.966,52.161
	c0.249-0.033,0.58-0.046,0.683-0.345c0.168-0.51,0.201-1.604,0.494-2.637c0.171-0.513,0.381-1.288,0.911-2.175l12.994-22.379
	c0.127-0.245,0.33-0.566,0.4-0.777c0.11-0.342,0.11-0.48-0.063-0.521c-0.133-0.03-0.467-0.017-0.657-0.017l-4.101-0.134
	c-0.693-0.028-0.797,0.133-1.023,0.538l-4.708,8.076c-0.569-0.547-1.311-1.455-3.449-1.958c-7.563-1.777-14.185,6.675-16.447,13.488
	c-1.417,4.261-0.46,6.778,2.643,7.508c3.89,0.915,6.762-1.213,8.267-2.19c-0.707,2.13-0.924,3.915-0.443,4.027
	c0.217,0.053,0.42,0.008,0.566-0.003L298.966,52.161z M297.998,42.018c-1.675,2.913-4.697,5.783-7.366,5.157
	c-1.357-0.318-1.729-1.601-1.122-3.431c1.473-4.429,5.349-10.863,9.81-9.816c1.487,0.349,2.249,1.172,2.542,1.424L297.998,42.018z
	 M278.695,33.799c0.454-1.085,0.833-2.265,1.026-3.416c0.411-2.431-0.823-4.771-3.736-5c-3.669-0.292-6.742,2.557-8.19,3.877
	c0.422-2.476,0.354-4.498-0.139-4.539c-0.221-0.018-0.328,0.064-0.467,0.098l-3.816,1.087c-0.234,0.071-0.568,0.135-0.618,0.444
	c-0.137,0.797,0.164,1.45-0.061,2.775c-0.239,1.416-0.697,2.499-1.15,3.585l-5.298,13.07c-0.033,0.177-0.106,0.351-0.127,0.483
	c-0.06,0.354,0.15,0.459,0.508,0.488l4.166,0.331c0.447,0.034,0.541,0,0.715-0.482l3.406-8.604c1.255-3.127,3.662-8.494,7.779-8.167
	c0.94,0.073,1.225,0.814,1.051,1.832c-0.157,0.926-0.486,1.799-0.864,2.666l-5.085,12.369c-0.028,0.178-0.103,0.351-0.125,0.484
	c-0.061,0.354,0.149,0.459,0.506,0.487l4.164,0.33c0.446,0.035,0.544,0,0.717-0.479L278.695,33.799z M245.674,28.527
	c1.345-0.088,2.039,0.898,2.012,2.063c-0.094,4.125-6.099,4.512-8.026,4.638C240.1,33.542,241.461,28.798,245.674,28.527
	 M248.773,41.983c-0.087-0.174-0.13-0.306-0.357-0.292c-0.667,0.044-3.085,1.99-5.728,2.161c-4.214,0.273-3.78-3.205-3.746-4.55
	c2.555-0.164,13.935-0.899,14.128-9.373c0.084-3.586-2.285-5.763-6.499-5.49c-6.902,0.445-12.83,7.185-13.03,16.153
	c-0.114,4.976,2.231,8.183,7.609,7.835c4.57-0.295,8.79-2.76,8.804-3.343c0.003-0.135-0.087-0.264-0.127-0.396L248.773,41.983z
	 M220.73,40.14c-0.407,3.519-1.912,6.324-4.784,6.83c-1.551,0.272-2.345-0.587-2.532-2.688c-0.4-4.557,1.004-12.062,4.63-12.699
	c1.768-0.311,2.969,0.568,3.589,1.002L220.73,40.14z M226.628,34.207c0.354-3.148,2.128-5.911,2.088-6.357
	c-0.013-0.179-0.113-0.299-0.35-0.393l-2.825-1c-0.188-0.06-0.468-0.192-0.644-0.158c-0.708,0.122-1.852,2.411-2.199,3.061
	c-1.111-0.893-2.445-2.246-5.451-1.718c-6.456,1.134-9.769,10.428-9.151,17.441c0.363,4.11,2.318,6.942,6.212,6.259
	c3.626-0.636,5.588-3.839,6.215-4.903l0.097,0.074c-0.907,3.97,0.5,8.714-5.031,9.686c-3.54,0.624-5.955-0.814-6.662-0.688
	c-0.177,0.031-0.3,0.143-0.371,0.382l-1.081,3.504c-0.033,0.141-0.11,0.291-0.094,0.469c0.077,0.895,4.534,1.517,8.204,0.873
	c11.236-1.976,9.364-11.99,10.255-19.68L226.628,34.207z M194.705,36.708c1.294-0.363,2.182,0.454,2.402,1.601
	c0.774,4.053-5.018,5.681-6.876,6.204C190.308,42.772,190.641,37.85,194.705,36.708 M200.56,49.222
	c-0.12-0.152-0.188-0.274-0.404-0.213c-0.647,0.183-2.602,2.589-5.151,3.306c-4.063,1.143-4.367-2.346-4.621-3.668
	c2.466-0.692,13.441-3.779,11.85-12.105c-0.677-3.526-3.45-5.162-7.513-4.019c-6.652,1.873-11.032,9.696-9.344,18.508
	c0.938,4.888,3.903,7.536,9.087,6.077c4.411-1.238,8.014-4.526,7.907-5.099c-0.027-0.133-0.137-0.24-0.207-0.36L200.56,49.222z
	 M168.72,33.682c-0.006-0.188-0.06-0.551-0.097-0.68c-0.074-0.259-0.22-0.443-0.764-0.241l-4.08,1.52
	c-0.547,0.205-0.621,0.279-0.591,0.889l2.021,30.017c0.007,0.188,0.061,0.549,0.097,0.678c0.074,0.261,0.214,0.445,0.764,0.24
	l14.172-5.278c0.464-0.172,0.524-0.289,0.591-0.887l0.524-3.773c0.053-0.306,0.036-0.538-0.023-0.753
	c-0.087-0.302-0.374-0.338-0.837-0.167l-10.096,3.759L168.72,33.682z"/>
<polyline fill="none" points="-146.963,-14.727 531.162,-12.351 531.162,500.36 -146.963,497.983 "/>
</svg>
