<?xml version="1.0" encoding="utf-8"?>
<!-- Generator: Adobe Illustrator 16.0.0, SVG Export Plug-In . SVG Version: 6.00 Build 0)  -->
<!DOCTYPE svg PUBLIC "-//W3C//DTD SVG 1.1//EN" "http://www.w3.org/Graphics/SVG/1.1/DTD/svg11.dtd">
<svg version="1.1" id="Ebene_1" xmlns="http://www.w3.org/2000/svg" xmlns:xlink="http://www.w3.org/1999/xlink" x="0px" y="0px"
	 width="499.832px" height="495.17px" viewBox="0 0 499.832 495.17" enable-background="new 0 0 499.832 495.17"
	 xml:space="preserve">
<g>
	<g>
		<g>
			<polygon fill="#D81B60" points="166.354,88.113 166.412,88.088 166.707,87.852 			"/>
			<polygon fill="#D81B60" points="403.184,294.837 403.189,294.816 403.18,294.812 			"/>
			<polygon fill="#D81B60" points="376.624,351.15 376.676,351.182 376.66,351.12 			"/>
			<polygon fill="#D81B60" points="406.596,253.098 406.621,253.114 406.608,253.036 			"/>
			<polygon fill="#D81B60" points="234.41,422.004 234.66,422.046 235.214,421.839 			"/>
			<polygon fill="#D81B60" points="132.285,372.656 134.273,375.204 135.812,375.06 			"/>
			<polygon fill="#D81B60" points="154.732,393.808 156.427,393.802 154.784,393.016 			"/>
			<polygon fill="#D81B60" points="211.736,424.643 212.261,425.685 212.034,424.417 			"/>
			<polygon fill="#D81B60" points="364.204,398.699 364.968,398.322 365.879,397.777 			"/>
			<polygon fill="#D81B60" points="444.002,293.508 444.82,292.618 444.26,290.428 			"/>
			<polygon fill="#D81B60" points="99.685,158.539 101.051,156.832 100.941,156.417 			"/>
			<polygon fill="#D81B60" points="63.566,229.542 63.75,228.73 63.713,228.021 			"/>
			<path fill="#D81B60" d="M103.354,150.746l0.59-0.767L103.354,150.746z"/>
			<path fill="#D81B60" d="M108.123,147.741l0.939-1.037L108.123,147.741z"/>
			<polygon fill="#D81B60" points="384.953,390.14 385.324,389.777 385.32,389.777 			"/>
			<polygon fill="#D81B60" points="240.585,454.072 242.075,454.155 241.528,454.067 			"/>
			<path fill="#D81B60" d="M218.827,449.175l-4.579-0.773L218.827,449.175z"/>
			<path fill="#D81B60" d="M254.186,87.361l-0.009-0.007L254.186,87.361z"/>
			<polygon fill="#D81B60" points="314.44,98.133 314.946,98.206 314.25,97.927 313.702,97.742 			"/>
			<polygon fill="#D81B60" points="59.673,272.921 59.668,273.104 59.723,272.715 			"/>
			<polygon fill="#D81B60" points="411.911,195.722 411.999,195.669 411.603,195.022 			"/>
			<path fill="#D81B60" d="M72.628,205.709l1.187-2.678L72.628,205.709z"/>
			<polygon fill="#D81B60" points="213.736,448.312 214.249,448.398 213.746,448.305 			"/>
			<polygon fill="#D81B60" points="72.324,332.007 71.805,329.903 71.152,329.04 			"/>
			<polygon fill="#D81B60" points="76.292,348.119 75.059,345.637 74.6,344.763 			"/>
			<polygon fill="#D81B60" points="423.433,216.203 424.074,217.865 422.991,214.69 			"/>
			<polygon fill="#D81B60" points="252.236,110.088 251.551,108.718 251.218,108.571 			"/>
			<polygon fill="#D81B60" points="251.308,107.725 252.565,110.222 251.298,107.45 			"/>
			<polygon fill="#D81B60" points="347.533,145.739 348.381,147.682 347.221,144.769 			"/>
			<polygon fill="#D81B60" points="347.069,142.922 347.833,144.611 346.966,142.562 			"/>
		</g>
		<path fill="#D81B60" d="M134.54,123.354c0.413-0.464-0.042-0.488-1.331,0.575l-0.651,1.103L134.54,123.354z"/>
		<path fill="#D81B60" d="M125.177,129.684c-1.363,1.446-2.792,3.249-1.545,2.736c1.174-1.61,1.658-1.766,2.903-3.546
			c1.261-1.107,2.37-1.722,2.262-1.41c0.382-0.466,2.08-1.559,2.618-2.333c-1.946,1.046-4.134,2.762-6.125,4.875
			C124.749,130.327,125.125,129.843,125.177,129.684"/>
		<path fill="#D81B60" d="M120.812,351.504c-0.622-0.729-1.02-0.971-1.321-1.031l2.291,2.934L120.812,351.504z"/>
		<path fill="#D81B60" d="M117.834,350.26c0.851,0.619,1.097,0.1,1.656,0.213c-6.669-8.411-13.769-19.719-14.718-24.031
			c-1.274-3.385-3.428-3.052-5.81-7.016l0.406-2.441c-1.853-1.886-3.267-9.437-4.368-6.129c-0.079,0.331,1.81,1.598,2.241,3.691
			l-0.846-0.009l2.215,4.372l-1.521-1.041c1.572,6.681,4.533,3.067,7.475,10.675l-1.752,0.863c2.529,4.902,4.501,6.94,6.077,11.68
			c-0.002-0.003,0.86-0.486,0.022-1.073c-0.403-0.823-0.346-2.229,0.475-2.002c5.706,6.172-1.687-0.482,0.746,4.848
			c4.904,5.352,13.986,15.191,15.465,19.068c-1.256-3.274,2.848-0.313,5.426,2.621c0.709,1.784-1.698-0.132-2.571-0.229
			c1.099,1.482,1.724,2.96,3.22,4.073c-0.873-2.452,1.297-2.296,4.689,0.267C130.829,361.248,123.305,358.015,117.834,350.26"/>
		<path fill="#D81B60" d="M93.631,305.532l-2.114-1.897c0.615,2.716,3.477,5.31,4.09,4.43c-0.949-1.601-1.169-4.065-2.015-4.109
			C93.51,304.308,93.041,304.437,93.631,305.532"/>
		<path fill="#D81B60" d="M84.193,280.188c0.928,2.13,1.953,4.224,2.961,6.299c-0.524,1.356,2.407,8.526,0.458,6.482
			c2.796,3.402,3.879,12.233,5.371,8.313c-3.599-9.17-6.321-20.654-7.974-32.648c-1.675-12.008-2.244-24.495-2.657-36.031
			l0.859,3.728c-1.406-12.115,3.58-15.865,1.169-25.977l1.859,1.658c1.563-5.171-0.909-10.923,2.811-15.873l-0.991,0.301
			c0.38-1.469,0.958-1.923,1.392-3.394l-0.546,0.47c0.282-4.077,1.19-6.42,3.051-9.951c0.733-0.029-0.335,1.838-0.563,3.06
			c1.236-1.491,0.901-4.891,2.017-7.773c1.463-2.024,0.893,0.38,1.063,0.793c2.52-8.94,6.382-11.692,6.487-18.944
			c-0.218-0.83-2.083,1.646-0.752-1.496c-3.757,5.029-4.749,10.149-6.096,15.619l0.602-1.43c1.202,5.26-1.998,2.828-3.214,9.987
			c-0.547-2.183,0.553-5.099,0.398-6.497c-5.265,6.945-2.316,11.684-6.787,16.038l0.081-0.61c-0.652,1.094-0.691,3.385-0.888,5.273
			c0.554-0.495,1.202-2.239,1.837-3.354c-0.239,1.904,0.854,3.183,1.244,3.932c-1.885,1.687-0.036,2.858-1.489,5.932
			c-1.514,0.878-0.486-2.972-0.841-4.361l-0.11,4.126c-0.683,3.626-2.143,3.269-3.149,4.949c0.354,3.283,1.017-1.67,1.872,1.081
			c-1.167,1.775-2.367,6.911-2.988,12.649c-0.638,5.726-0.612,12.031-0.119,16.065c-0.074-2.771-1.318-1.028-0.963-4.398
			c-0.354,1.209,0.125,5.59,1.131,5.638c0.699,5.577,0.277,12.58-0.209,17.85l0.863-1.57c1.925,4.184-0.335,11.092,1.917,18.605
			v-0.163c0.625,2.425,3.32,4.054,3.797,8.527C85.665,282.128,85.295,279.715,84.193,280.188"/>
		<path fill="#D81B60" d="M414.739,357.303l0.639-1.975C414.997,356.047,414.73,356.749,414.739,357.303"/>
		<path fill="#D81B60" d="M438.747,300.38c-2.713,3.647-4.012,9.863-6.364,14.645c-3.229,9.212,2.568,2.445-1.27,10.998
			l-2.052-2.763c-3.767,8.483-11.039,19.32-13.48,27.26c-0.709,0.373-2.036,1.429-1.003-0.793c-3.54,5.073,1.705,5.234-4.316,11.253
			c3.393-7.314-2.993,0.898-3.142-1.985l0.59-1.076c-3.063,4.24-6.953,10.098-9.47,12.51c0.465,0.646,3.458-0.756,0.29,2.725
			c1.425-1.274,1.544-0.11,2.005,0.557c2.758-4.156,4.9-5.811,6.041-8.731c2.562-1.421-0.951,1.611,1.61,0.188l1.775-3.647
			c2.014-2.089-1.085,2.976,1.94-0.402c-0.152-0.791,1.62-4.032,3.791-6.819l-0.315,1.031c1.295-2.4,3.876-5.244,1.724-5.146
			l3.202-1.663l-1.27-0.187c4.411-5.845,8.358-6.827,11.699-15.978c-1.379,1.878-0.95-0.277-0.586-1.466
			c-2.562,3.138-1.53,4.732-3.313,8.098c-1.244-0.104,0.696-6.297-2.162-2.709c3.667-3.64,4.347-8.277,7.853-8.914
			c2.835-5.371,2.471-8.032,5.422-13.438l0.326,0.328c-1.354-1.731,2.693-4.343,2.313-9.302l-1.476,2.896
			c-0.673-0.409-0.189-1.878,0.394-3.979c0.203,0.326,0.203,0.326,0.796-0.22c-1.061-1.054,0.744-7.615,0.558-8.553
			c-1.021,2.668-0.957,6.346-1.74,9.644C438.904,302.856,437.661,302.99,438.747,300.38"/>
		<path fill="#D81B60" d="M388.903,387.013l3.528-3.67l1.144-1.501C392.045,383.578,390.505,385.324,388.903,387.013"/>
		<path fill="#D81B60" d="M325.698,422.126c-1.112,0.619-0.31,0.744-1.012,1.401C327.151,422.73,327.824,422.059,325.698,422.126"/>
		<path fill="#D81B60" d="M363.06,406.084c-1.34,0.293-3.1,0.829-5.064,1.44C358.765,407.743,359.384,407.879,363.06,406.084"/>
		<path fill="#D81B60" d="M358.771,372.794c-4.027,8.937-9.073,11.635-14.943,18.441c-2.229,0.015-4.495-0.084-6.692-0.169
			c-6.524,7.06-0.87,5.612-5.193,11.713c-4.482,1.475-10.288,5.15-15.721,8.46c-5.406,3.335-10.43,6.276-12.434,7.014
			c-3.505-0.712,2.172-4.082,2.852-5.838c-4.733,3.088-6.624,5.382-8.96,7.678c-2.34,2.262-5.158,4.53-12.086,6.657l-0.576-1.096
			c-15.553,7.953-35.688,11.856-56.337,11.112c-20.75-0.604-41.644-5.676-60.583-12.662c2.349,1.413,1.34,1.935,1.922,3.206
			c-19.962-8.22-39.427-21.675-55.652-37.201c-16.387-15.479-29.557-32.772-41.288-47.696c5.138,11.315,11.544,26.985,21.309,41.033
			c9.574,14.061,22.371,26.201,34.788,30.898c5.332,8.574,20.127,12.455,21.242,18.139c15.516,9.851,28.527,12.922,40.997,14.696
			c12.587,1.629,24.89,2.058,41.86,2.833c4.846,0.973,2.423,3.093,3.8,5.251c-9.265,0.524-18.632,0.329-27.984-0.576
			c5.522,1.561,11.143,2.88,16.841,3.94c-3.815,0.712-10.275,0.154-16.052-0.432c-5.784-0.57-10.926-1.083-12.427,0.622
			c12.872,0.584,28.998,2.493,44.884,1.954c15.835-0.44,31.208-3.366,40.924-8.679c-9.959,1.363-22.157,4.479-34.102,4.62
			c-5.3-1.144-13.261-2.329-12.667-4.523c16.592-2.748,31.091-5.323,45.523-9.081c14.351-3.778,28.652-8.909,42.633-17.771
			c7.047-4.34,16.374-10.448,18.732-9.607c-4.04,3.81,0.374,2.813-2.79,6.283c4.453-4.17,3.477-5.961,3.306-7.788
			c-0.203-1.878,0.387-3.702,7.107-8.701l3.1,7.113c0.168-5.239,4.302-8.307,9.1-11.915c4.777-3.563,10.249-7.742,12.401-13.919
			c5.113-1.566,1.401,6.016-5.207,13.138c8.509-7.139,5.796-10.804,11.187-17.427c0.042,3.444-0.035,6.92-0.231,10.427
			c1.337-10.961,11.229-12.607,16.055-16.205c-1.034-1.387-7.571,0.211-1.138-9.555c3.248-3.94,3.345-0.932,4.721-1.524
			c-1.061-1.37-1.386-6.373,1.771-13.329c2.543-0.39,0.645,6.004,2.285,7.456c2.626-5.371,4.204-9.934,7.522-13.264
			c2.268-10.45-3.063-0.517-2.909-7.283c6.769-14.505,7.52,0.959,13.786-3.262c-0.953,13.094-7.404,28.677-9.481,35.517
			c3.582-7.589,6.659-15.372,9.191-23.293c1.882,2.495,9.979-14.569,7.627-1.087c5.642-11.585,9.337-25.519,10.874-39.457
			c1.588-13.949,1.054-27.896-0.444-39.97c-0.729,3.472-1.222,7.863-2.813,7.151c-1.682-12.299,1.222-11.049,2.916-13.762
			c-2.5-9.134-6.772-7.608-10.648-12.604c0.441-9.347-0.451-14.636-1.086-19.567c-0.689-4.955-1.131-9.571-1.295-18.043
			l-3.754,2.336c-0.615-11.809-7.236-10.922-10.072-22.738c0.535-1.014,3.59,2.647,6.028,5.688
			c-5.821-9.167-0.998-10.687-7.657-19.263c2.786,1.652,5.589,3.379,8.344,5.201c-4.114-7.708-12.323-17.593-6.45-15.997
			c-6.195-5.181-12.813-13.249-20.311-21.184c-7.43-7.963-15.766-15.76-23.843-20.738l3.383-2.006
			c-5.196-1.523-12.092-7.177-19.444-12.064c-7.278-4.953-14.982-9.072-19.94-8.659l-0.555-1.989
			c-6.477-1.517-12.965-2.681-19.406-3.502c-7.758-3.535-3.164-7.66-4.327-6.479c-18.358-5.658-33.002-8.071-44.966-11.528
			c-3.744,4.412-23.368,3.841-38.803,5.891c-37.501,0.94-75.9,16.024-104.795,40.687c-29.224,24.463-48.58,57.802-56.662,90.152
			c-3.222,9.558-1.263,24.176-0.448,36.183c1.663-7.119,2.217-11.034,2.626-15.008c0.422-3.961,0.785-7.963,2.957-14.848
			c4.702-9.896,11.082-11.649,17.69-18.262l-5.75,2.349c1.394-7.187,3.172-9.131,4.514-10.757c1.408-1.626,2.453-2.925,3.521-8.88
			l5.6,3.887c-1.065-5.165,6.881-11.802,10.699-13.782l-1.54-5.71c7.551-5.354,12.314-8.678,17.191-7.606l-3.701-2.371
			c2.104-0.261,7.858-6.278,13.249-10.179c5.369-3.964,9.885-5.974,8.177-0.051c1.295-2.243,1.719-5.429,6.452-8.146l3.124,3.051
			c5.581-5.272,12.751-10.197,15.828-9.076c-3.13,2.852-3.345,5.172-3.514,7.461c13.644-7.3,13.992-10.575,13.59-14.565
			c-0.287-3.711-1.27-7.991,12.946-13.091l0.538,2.75c2.072-1.71,4.198-3.395,6.389-5.005c2.884,0.4,5.742,0.895,8.553,1.461
			c4.11-5.816,14.852-7.689,26.371-7.56c11.596,0.026,23.698,2.008,33.045,0.787c7.359,0.201,15.53,7.272,28.247,10.594l0.458-4.344
			c4.627,3.649,16.146,9.651,25.914,17.71c9.866,7.954,17.74,17.717,18.179,24.472c9.369,3.32-0.161-1.324,2.062-3.849
			c8.738,4.062,12.073,8.145,13.813,11.85c1.724,3.779,1.942,7.322,4.124,11.704c8.979,7.11-4.437-7.545,1.937-5.127
			c4.623,7.618,7.668,9.621,11.257,12.139c3.461,2.532,7.62,5.572,11.818,15.911c-1.034,3.048-4.25-4.119-6.84-5.146
			c5.902,5.291,11.647,14.947,15.871,26.166c4.285,11.224,6.979,23.888,8.857,35.176c0.261,13.17-0.58,29.336-4.414,45.437
			c-3.702,16.089-10.449,31.748-18.874,43.792l1.137,1.188c-9.051,8.813-13.22,21.716-24.232,31.176
			C354.586,375.353,356.693,374.105,358.771,372.794"/>
		<path fill="#D81B60" d="M225.377,425.035c-2.16,0.022-4.33,0.009-6.502-0.058c-0.625-0.34-0.883-0.873-1.216-1.373
			c0.13,0.552-1.753,0.949-1.597,1.425c2.357,2.69,7.769,1.237,11.153,1.53c8.73,2.549-0.611,0.982,2.527,3.486
			c-2.51-0.551-2.523-0.979-5.97-1.856c5.025,3.401,12.435,2.455,16.007,2.336c-1.007-0.32-1.169-0.985-3.151-1.079l3.744-0.158
			C236.79,427.204,233.681,426.476,225.377,425.035"/>
		<path fill="#D81B60" d="M214.387,422.416c2.312,0.457,3.125,0.83,3.245,1.141C217.168,422.883,216.511,422.307,214.387,422.416"/>
		<path fill="#D81B60" d="M241.718,430.693c-0.385-0.173-1.052-0.196-1.938-0.168C240.218,430.661,240.787,430.745,241.718,430.693"
			/>
		<path fill="#D81B60" d="M238.406,427.899l4.393,0.745l-1.618-1.135C240.556,427.564,238.372,427.413,238.406,427.899"/>
		<path fill="#D81B60" d="M396.343,378.534c-0.873-0.295-2.329,0.56-4.746,3.05c-0.432-1.076,2.975-3.973,3.989-5.906
			c-3.705,2.692-0.835-0.945-2.388-0.886c-3.667,3.387-4.32,5.964-8.6,9.277c0.004-0.41-0.38-0.714-1.15-0.539
			c-4.359,4.759-12.63,12.166-18.478,14.788c-5.323,2.965-8.922,5.697-14.608,9.276c-19.667,9.782-41.673,18.013-65.455,19.707
			l-3.135,2.439c-1.237-0.891-5.667,0.467-5.091-0.938c1.305,0.156,2.536-0.124,4.079-0.312c-5.184-1.34-13.436,1.061-19.567,0.265
			c0.687,0.387,1.688,2.236-0.177,2.526c0.525-2.294-7.298-0.126-8.941-2.98c-6.013-1.108-0.367,2.081-6.702,1.142
			c-0.809,1.349,6.063,1.2,7.163,2.276c-2.092,0.989-5.791-0.881-5.61,0.567c10.382,1.766,29.794-1.031,45.041-4.395l-1.45,1.521
			c7.888-1.942,20.431-4.853,27.232-4.793c-1.798-0.626,11.615-3.028,9.489-5.357c2.139-0.074,2.671-0.424,5.474-1.217l0.394-1.124
			c3.814-1.524,3.737-0.004,8.045-1.986c-3.331,0.124-0.303-1.552,0.486-3.05c5.439-1.012,11.596-2.876,16.364-4.364
			c-0.524-0.149-1.137-0.313-2.842,0.039c3.087-1.228,2.011-1.958,2.546-2.75c2.664-1.644,3.206-0.148,3.477,0.599
			c5.265-2.654,5.79-6.557,9.892-8.201l-1.966-0.136c4.694-3.601,9.508-5.511,14.318-10.026c3.551-0.717-3.229,4.578-4.997,6.797
			c1.279-0.555,3.618-2.212,4.656-2.365l6.55-9.389C388.507,385.82,394.645,380.071,396.343,378.534"/>
		<path fill="#D81B60" d="M383.085,391.481c-0.461,0.717-0.867,1.321-1.073,1.716c0.451-0.477,0.851-0.945,1.656-1.501
			C383.6,391.467,383.384,391.427,383.085,391.481"/>
		<path fill="#D81B60" d="M396.343,378.534c0.062,0.03,0.178-0.005,0.232,0.037C396.962,378.028,396.774,378.149,396.343,378.534"/>
		<path fill="#D81B60" d="M352.981,139.745c9.544,8.502,20.946,20.886,27.21,32.045c2.394,1.794,4.481,5.303,6.589,8.815
			l-1.118,1.061l1.942,2.814c0.213,1.425-1.414-2.203-0.827,0.216l1.392,0.75c-0.322,0.458,3.303,8.041-0.003,3.322
			c1.804,3.963,3.46,7.994,4.948,12.086c0.909,2.739,1.775,1.174,2.423,4.343c-0.209,0.755-0.641-1.004-1.066-0.586
			c1.83,9.41,6.067,9.846,7.32,18.908l-0.341-0.717c0.695,1.431,1.198,4.331,1.395,4.334c1.279-1.421-1.082-1.457-0.754-4.34
			c1.279-0.01,1.344,3.272,2.239,2.924c-0.094,2.195,0.867,3.311,1.199,5.163c-0.262,3.261,0.77,7.752,0.013,10.234
			c0.502,1.51,1.93,3.163,2.13,6.544c-0.874,2.457-0.938-0.525-1.199,2.763l0.744,0.504c-0.035,2.692-0.254,2.273-0.599,2.187
			c-0.042,2.86,1.057,2.386,0.506,5.991l-0.667-2.019c0.222,2.661,0.097,3.75-0.146,7.445c-0.419-0.106-0.328-1.585-0.154-2.663
			c-1.173,1.953,0.322,3.456,0.112,4.539c0.352-0.287,0.635-2.852,1.289-1.554c-0.258,1.83,0.744,4.014-0.255,5.265l-0.538-2.069
			c0.239,3.881,0.768,2.139,0.014,6.513c-0.026-0.241-0.22-0.146-0.361-0.26c0.632,2.897-0.729,6.435-1.495,10.488l-0.067-0.809
			c-0.025,1.687,0.412,2.708,0.2,3.587c0.859-2.247,0.95-1.578,1.682-1.662c-1.785,2.857,0.493,5.02-1.428,9.909
			c-0.387-0.182-0.586-1.5,0.174-2.784c-0.847-1.994-1.788-2.414-1.762-5.563c-0.064,1.946-0.419,4.192-0.815,3.615l0.995,0.838
			c-0.202,1.155-0.516,2.029-0.718,2.895c0.589,0.662,1.724-2.044,1.54,0.731c-0.364,3.095-1.547,1.3-1.153,1.896
			c-0.667,4.208,0.782,2.033-0.738,5.859c0.022-0.418,0.058-1.239,0.261-1.549c-1.243,2.688-1.923,6.966-3.528,7.33
			c-0.151-0.504-0.509-0.705-0.067-1.724l0.19,0.109c0.029-3.346-0.567,2.624-1.456,1.272c0.776,0.026-0.706,3.84-1.512,5.497
			l0.999-0.251c0.168,6.656-1.418-0.888-3.351,4.833c-0.97,3.747,0.792-1.244,0.415,1.15c-1.163,2.336-2.22,2.917-3.492,6.503
			c-0.764,0.809-2.123,2.531-3.048,2.271c-0.661,2.229-3.593,5.928-3.432,7.497c2.604-3.043,1.019-3.861,4.188-7.365l0.255,1.565
			c-1.498,2.8-3.045,6.621-4.469,8.339c0.38-0.293,0.689-0.345,0.715-0.003c-2.004,4.1-1.93,5.714-4.627,9.288
			c-1.037,0.019,0.545-2.06,1.492-3.7c-2.143,2.025-1.631,2.512-4.404,6.001c-0.748-0.231,1.756-2.42,1.411-3.264l-2.581,4.166
			c-0.022-0.042-0.077-0.053-0.122-0.087c0.58,1.282-2.253,2.983-3.812,5.55c-4.415,5.56-3.89,7.414-5.807,11.065
			c-0.967,0.575-1.411,0.597-1.34,0.056c1.588-0.947,1.057-1.003,1.228-1.673c-1.518,1.904-4.463,3.087-3.915,1.763
			c-2.365,3.014,1.428-0.555,0.104,1.404c-1.215,1.254-2.452,2.499-3.712,3.706c0.886,0.01,2.301-1.214,0.712,1.06
			c-1.498,1.769-2.417,2.425-4.637,4.469c0.106-0.526-1.34-0.05,0.325-1.567c-1.208,0.835-2.925,2.302-3.157,3.355
			c2.864-1.749-3.705,3.973-1.218,3.089l-2.906,1.691c0.587-0.474,0.396-0.833,1.314-1.46c-1.324-0.117-1.904,1.922-2.738,2.729
			c-1.009,0.61-3.477,2.366-3.889,2.234c-0.654,0.86-2.855,2.186-3.522,2.075c-1.137,1.076,0.271,0.583,0.091,1.104l-4.386,2.951
			c-0.534-0.283-1.724-1.266-1.179-1.862c-1.373,1.495,0.287,1.692-2.252,3.307c0.898-1.775-3.783,1.432-2.336-0.922
			c-1.837,0.283-5.948,2.808-8.171,4.308c-1.048,1.521,2.758-1.005,3.031-0.199c-6.425,3.959-5.841,6.157-11.08,8.272l1.424-0.411
			c-2.977,1.917-2.658,1.669-4.246,3.154c0.447-1.347-4.753-0.88-10.001,1.33c-0.271,0.662,3.366-0.211,2.793,0.888l-3.537,1.504
			c-0.287,0.022,0.041-0.289,0.46-0.59c-3.108,1.548-6.463,0.844-7.023,2.294l-3.776-0.414l1.508,0.23
			c-0.303,0.617-3.94,1.885-4.669,2.262c-3.641,1.598-5.174,1.461-7.407,1.322c0.761,0.27,2.665,0.833-0.338,1.673
			c-0.329-1.611-6.496,0.728-6.579-0.17c-1.228,0.252-3.493,0.091-3.525,0.81l0.039-1.066c-0.039,1.508-4.563,2.146-8.007,2.793
			c0.563-2.043-3.802,0.563-5.506-1.111c-0.538,1.421-6.113,0.96-6.674,2.099c-2.69,0.179-2.462-1.113-3.153-1.513l-1.232,0.535
			c-1.36-0.588-6.365-0.689-9.313-1.25l-2.823,1.063l-0.997-0.6c-0.46,0.271-2.779,0.29-1.379,0.833l-1.495-0.178
			c-0.224,1.302-2.136,0.186-5.21,0.445c-0.673-0.287-0.454-0.572,0.219-0.672c-1.495-0.184-0.78-0.773-1.543-1.299
			c1.038,0.474-5.677,1.653-1.705,2.732c0.218,0.573-2.218,0.645-3.673,0.195l-0.727-1.281l-1.967,0.936
			c-2.349-0.204-3.209-1.122-5.04-1.612c1.927,0.293,4.607-1.414-0.253-2.302c2.583,0.346,3.949-0.072,5.309-0.108
			c-0.998-0.211-1.473-0.402,0.167-0.638c-3.841-0.268-1.389,0.506-5.149-0.045c0.406-0.982-0.58-1.49-3.715-2.544l2.252,1.265
			c-0.138,0.104-0.32,0.158-0.522,0.181c0.89,0.308,1.122,0.521,1.239,0.948c-0.72-0.156-4.606,0.361-5.08-0.42
			c3.39,2.498-6.85-0.366-4.693,1.156c-0.501,0.179-3.143-0.449-3.267-1.035c3.32,0.098-2.012-1.802-1.291-2.377
			c-1.228-0.042,2.204,1.448,0.543,1.379c-1.861-0.467-3.024-1.476-3.931-2.126l0.817,0.053l-2.662-1.335
			c-0.622,0.346,2.449,1.709-0.229,1.141c-0.616-0.416-3.274-1.066-3.061-1.421c1.461-0.261,0.889-1.466,3.112-0.89
			c-1.832-0.508-7.557-2.476-5.598-0.725l-2.128-0.825c1.176,0.905,4.694,3.058,0.317,1.585l0.114-0.184l-3.282-0.428l-1.1-1.019
			c-0.057,0.258-0.632,0.313-1.717-0.181c-0.165-0.415-1.144-0.967-0.896-1.317c-3.189-1.302-3.128-0.767-3.673-0.659
			c-1.788-0.737-2.354-1.238-1.273-1.418c-2.336-1.228-6.503-3.197-7.819-4.538c-3.313-1.288,0.531,0.54-1.614,0.17
			c-1.821-3.002-9.73-6.395-14.592-9.536c0.382,2.194-1.405-0.727-3.113-0.171c1.295,0.322-3.708-4.217,0.645-1.617l-2.59-1.672
			c-1.163-1.927,4.491,2.443,2.648-0.382c-2.781-1.948-5.644-1.948-8.426-4.96c1.759,0-2.642-1.692-1.06-2.005
			c0.896,0.238,1.682,1.034,2.627,1.676l-0.408-0.615c-5.511-5.041-2.529-0.353-6.04-2.333c-3.533-2.958-2.098-3.077-1.933-3.65
			c-0.366-0.645-2.164-2.085-3.24-2.701c2.5,1.409,3.275,4.05,1.851,3.693c-0.616-2.297-4.862-4.781-6.117-5.339
			c3.754,5.606,3.177,3.268,6.787,8.555c0.931,0.251,1.543-0.654,4.078,2.107c-2.161-1.085-0.3,0.591,0.085,1.166
			c-0.127-0.963,2.167,1.46,3.243,1.946c0.477,1.074-2.729-0.226,0.077,2.379l1.541-0.782c1.034,1.087-1.211,0.52,1.537,2.15
			c-1.856-0.403-0.371,1.344-3.94-1.128c3.254,4.245,6.756,4.26,10.351,6.036c-0.392-0.156-0.549-0.008-0.944-0.146
			c0.949,0.136,2.192,1.057,3.233,1.617c2.011,1.74-2.139-0.554-1.804,0.165l3.605,2.321c0.048,0.09,0.048,0.124,0.029,0.151
			c1.063,0.439,2.063,0.862,2.188,1.406c-1.347-0.25-2.073-0.055-3.014-0.194l4.425,1.474c-0.709,0.2,2.772,2.653-0.219,1.347
			c1.979,1.066,3.944,2.149,5.955,3.145l-0.013,1.205c1.511,0.619,1.65,0.451,0.013-0.59c1.904,1.394,9.914,3.007,7.921,4.317
			c5.173,1.457,6.755,2.593,12.899,4.443c-4.957-0.883,4.843,3.172-0.213,1.721c2.726,1.501,3.715,0.683,6.053,1.282
			c1.994,1.163,0.715,1.824-1.754,1.376l2.896,0.493l-0.116,0.182l2.579,0.208c2.368,1.334,0.208,1.202,2.817,2.133l0.844-0.729
			l1.643,1.047c-0.559-0.604,1.06-0.32,3.009,0.108l-0.098,0.191l2.397,0.444c-2.47-0.037,2.105,0.73,0.876,1.104
			c2.014,0.525,2.058,0.561,5.782,1.172l-0.514-0.766c4.902,0.462-0.001,0.992,3.897,1.811l-0.108-0.765
			c5.419,2.262,9.674,0.926,13.747,2.163c-2.424-0.109-1.92,0.806-1.85,0.603c3.654,0.219,9.594,0.89,13.4,0.151
			c1.328,1.118,1.64,1.483,5.54,2.03c2.84-0.027,3.262-0.165,4.182-0.771c2.75,0.416,7.87-0.429,8.041,0.319
			c0.605-0.632,2.481-0.017,3.954-0.654l0.342,0.29l-0.297-0.716c5.008,1.251,8.052-1.659,13.082-0.97l-0.81,0.316l2.005-0.583
			c0.377,0.267-0.426,0.586-0.461,1.02c3.187-0.44,6.363-0.984,9.524-1.584l-1.969-0.177c1.981-0.445,3.145-1.465,5.5-1.512
			c-3.499,1.931,3.128-0.68,3.931-0.04l-1.949,0.778c2.741-0.744,2.738-0.748,2.326-1.405c3.467-1.205,2.815,0.729,5.851-0.984
			l-2.329,0.632c-0.803-0.231,0.712-1.245,2.249-1.703c0.393,0.009,1.579-0.008,0.429,0.433c2.69-1.058,6.914-2.065,8.01-2.784
			c1.556-0.298,1.243,0.364,0.509,0.828c5.6-2.707,2.706-0.78,8.235-3.646l0.062,0.427l1.778-1.265l3.142-0.398l-1.222-0.056
			c1.84-0.87,2.878-1.661,5.117-2.449l-0.603,0.959c5.032-2.752,6.476-1.961,10.887-5.319c0.384-0.083-0.265,0.506-0.6,0.804
			c3.947-3.322,3.918-0.904,7.714-4.54c-0.161,0.345,0.451,0.268,0.377,0.526l1.759-1.578l0.294,0.806l0.947-2.05l1.669-0.064
			l0.534-0.838c2.978-0.032,5.214-3.021,8.664-4.095l-1.108-0.499c5.587-6.737,16.21-11.293,22.824-19.52l0.471,0.713l2.252-3.786
			c2.075-1.222-0.425,1.495,0.384,1.27c2.797-3.691,0.409-2.233,3.77-6.37c2.194-1.711-0.125,1.143-0.786,2.278
			c3.058-3.992,7.288-10.027,9.756-12.607c-0.048-0.131-0.038-0.396-0.184-0.277c1.692-2.884,4.508-6.264,6.457-9.378
			c0.277,0.282-0.174,1.076-0.612,1.887c0.771-1.073,2.001-2.438,2.253-3.612l-0.123,1.559c1.666-2.309,3.873-7.329,4.92-7.461
			c-0.457,0.132-0.915-0.293,0.293-2.41c1.812-0.559,2.707-6.085,5.004-9.295c0.071,0.551-1.144,3.157-0.77,2.436
			c1.179-1.611,1.414-3.461,1.766-5.194l0.245,0.693c1.075-2.861,2.074-5.738,2.979-8.645c1.757-0.767,2.894-8.094,3.531-7.196
			c1.112-3.064-1.434,2.389-0.219-1.542c0.886-0.86,0.932-3.605,1.672-3.187l-0.042,0.451l0.818-2.765l0.226,1.977
			c0.615-2.426,0.3-4.412-0.262-4.699c1.131-2.111,1.586-5.436,2.588-6.289l-0.022,0.898c1.305-6.445,4.672-10.239,4.159-15.65
			c0.181-0.369,0.377-0.287,0.232,0.516l0.686-4.052l0.478,1.061c0.019-2.295,0-4.582-0.074-6.866l0.402,0.132
			c0.693-4.439,0.992-11.479,0.932-17.25l0.18,0.866c-0.561-6.304,0.438-6.09-0.138-10.7c0.115,0.161,0.164,0.313,0.189,0.48
			l-0.206-4.148l0.454,0.894c-1.024-3.009,0.513-8.883-0.074-6.927c-0.566-1.711-1.35-4.64-1.942-5.081
			c-0.612-4.479,0.422-1.167,0.384-3.994c-0.433-3.258-1.231-3.713-1.646-8.146l0.432,0.013l-1.698-6.049l0.387,0.796
			c-1.885-4.401-0.139-6.054-2.884-9.167c-0.168-2.011-1.533-5.526-0.667-5.597c-2.274-5.473-4.056-9.69-6.56-14.962
			c0.902-1.382-0.515-1.141-1.224-4.679l-0.574,0.532c-3.36-7.472-6.153-16.773-11.334-24.393l0.492-0.608l-1.669-1.117
			c-5.004-8.506-12.71-18.779-18.11-24.53c-2.03-1.66-5.339-3.891-8.078-6.914l0.381,0.227l-17.063-14.459
			c0.573,0.049,0.097-0.591,0.911-0.22c-1.959-0.485-3.65-2.732-5.007-3.718l1.25,1.593c-2.19-0.747-4.365-3.118-5.007-4.185
			l-3.348-1.292c-0.145-0.188-0.383-0.478-0.357-0.604l-0.731-0.007l-1.027-1.831c-0.848-0.293-4.92-2.52-6.65-2.41
			c-0.116-0.447-2.81-2.306-0.545-1.19c-3.647-2.184-7.353-4.29-11.154-6.214l1.637,1.18c-0.122,0.78-3.722-0.518-5.387-1.614
			c2.606,0.54,0.647-0.856-0.151-1.814c-1.743-0.361,1.102,1.218,0.103,1.208c-2.178-0.486-6.495-2.047-7.439-2.771l1.321,0.215
			c-2.842-0.846-3.625-2.567-6.402-3.516c-2.661-0.378-4.324-1.475-4.224-0.117c-3.654-0.979-1.096-1.294-2.22-1.795
			c-1.879,0.001-6.818-1.894-7.312-2.677c-2.461,1.185-9.73-3.221-10.867-1.803l-2.858-1.517c-0.184,0.39-0.979,1.195-3.473,0.9
			c-2.239-0.888-1.569-1.477-2.207-2.027l-1.834,1.271c-13.255-3.963-31.5-3.63-46.562-3.479
			c-6.687,0.942-14.942,2.852-22.615,4.354l0.804-0.383c-2.569,0.4-5.128,0.88-7.688,1.375l5.672-0.631
			c-1.624,0.526-2.823,1.171-4.426,1.531c-8.395,1.416-19.62,4.238-28.941,9.266c-5.44,4.425-4.823,0.409-10.114,4.486
			c0.422-0.404,0.495-0.717,0.865-1.1c-6.004,3.74-9.183,5.913-14.562,10.504c-0.293-1.946-3.809,2.504-3.788,1.396l-0.082,0.921
			c-1.56,0.466-4.637,2.486-4.511,1.749l-1.985,2.538l-0.657-0.437c-3.399,2.338-9.837,8.36-12.413,8.708
			c-7.055,7.448-18.444,18.724-26.292,28.874c-0.588,1.806-2.745,4.833-4.326,7.277l-2.465,2.099
			c-1.424,2.625-2.126,5.87-4.001,7.953c-0.084-0.066-0.09-0.201-0.032-0.393c-1.382,2.668-3.187,4.953-3.786,7.812
			c-1.587,2.873-3.383,5.556-3.686,4.292c1.141,0.906-3.19,6.235-3.177,6.261c0.106,0.026-4.897,9.516-9.6,25.487
			c-4.72,15.897-8.422,38.573-6.559,62.492c1.623,23.896,9.031,48.551,19.474,67.661c10.314,19.25,23.026,32.846,31.276,38.991
			c1.457,0.535,4.333,2.971,3.995,1.334c2.182,1.887,2.191,3.725,3.097,3.621c-2.365-3.149,2.175-0.441,0.193-3.798l1.806,1.627
			c0.717,0.003-2.708-1.966-1.616-2.185l-1.457,0.438c-1.224-1.563-1.714-2.574-1.846-3.386c-1.635-0.992-3.821-0.679-6.083-4.587
			l0.841,0.892c-2.344-2.749-0.734-2.258-1.039-2.979l0.495,0.624l-1.379-2.767c1.08,2.067,4.343,4.262,3.019,2.792
			c-2.417-3.519,0.451,1.061-1.711-1.295c-1.324-1.487-0.393-1.512-0.016-1.703l-2.228-2.756c0.579-0.287,1.419,1.865,1.052,0.338
			l-3.235-3.145c0.776-1.58-3.481-3.499-3.387-6.038c2.111,2.428,0.271-0.528,0.996-0.404c-1.492-2.128-2.925-4.29-4.324-6.481
			c-0.206-0.737,1.51,1.473,0.812,0.52c-0.422-1.458-1.583-1.854-1.988-2.534c-0.007-0.778-2.932-5.021-1.895-5.348
			c-1.856-4.955-2.28-1.298-3.973-5.954c0.28-0.858,1.895,3.409,1.497,1.17l-2.46-4.448c0.48,0.284,1.347,0.451,2.08,2.201
			c-5.215-12.731-4.467-20.686-8.627-32.135c0.287-1.859,0.822,1.063,1.635,2.101c-3.317-8.271-1.415-12.389-2.753-19.647
			l-0.638-0.039c0.264-10.488-1.67-22.802-0.219-34.46l-0.502,1.37c-0.563-1.632-0.441-4.232-0.586-6.178
			c0.35-0.264,1.211,1.487,1.266-1.898c-0.29,0.674-0.657,2.08-0.925,1.634c1.237-4.944,2.433-12.63,4.476-20.958
			c1.962-8.333,4.836-17.274,8.19-24.73c7.552-20.887,22.128-40.539,37.363-55.892c-2.302,2.38-2.418,0.298-0.387-1.234
			c6.711-2.851,8.434-8.437,15.084-11.382c9.56-8.464,20.363-12.361,30.045-19.171l0.527,0.575c1.735-0.425,1.935-1.123,3.602-1.917
			l0.043,0.209c4.073-1.525,8.72-4.103,11.219-4.58l-0.129-0.84c2.436-0.922,1.476,0.143,3.856-1.132l0.058,0.421l2.719-1.692
			c0.127,1.464,7.067-1.973,9.286-1.74c3.18-1.069,9.331-3.006,14.444-3.446c1.05,0.571,7.24-0.255,11.229-0.167
			c7.675-0.873,18.8-1.225,28.592,0.009l-0.09-0.961l2.581,0.188c-0.059,0.206,0.273,0.356-0.123,0.409
			c1.859,1.278,5.951,0.39,7.907,1.386c-1.153-1.063-1.772-0.391-3.219-0.625c-2.04-0.742,0.094-1.373,2.871-0.499l-0.091,0.196
			l2.014-0.173c0.094,0.774,1.788,1.383,1.869,2.164c8.313,1.369,14.279,1.546,22.544,4.563c-1.111,0.476,6.028,1.857,3.876,2.634
			c5.098,1.315-0.409-1.392,2.191-1.507c1.382,0.523,2.977,0.722,3.028,1.324c-0.77,0.064,0.786,1.258-0.374,0.933l3.3,1.218
			c0.261,0.235-0.522,0.111-0.918,0.049c6.949,2.016,11.132,6.044,17.102,8.389c0.671-0.222-2.155-1.352-1.498-1.583
			c6.187,2.234,4.518,3.587,10.014,6.118l-1.431-0.062c1.892,0.624,2.965,0.563,5.288,2.83c-0.01,0.998-2.626-0.949-4.134-1.438
			c1.83,1.179,6.479,4.15,5.541,2.569c2.323,1.278,2.63,2.479,3.642,3.481c0.164-0.137-1.646-1.89-0.168-1.302
			c2.601,2.495,6.94,5.894,10.182,8.822c-0.171,0.128-0.151,0.57-0.503,0.396C350.852,135.522,349.348,136.642,352.981,139.745"/>
		<path fill="#D81B60" d="M211.926,422.178c-4.108-0.39-8.197-1.002-12.318-1.672c1.324-0.281,1.117-1.068,3.83-0.396
			c-5.002-2.027-6.136-0.996-10.235-2.849c-0.512-2.316,7.419,2.703,5.658,0.094c-2.97-0.989-7.297-2.69-10.315-2.145l-3.987-3.285
			l0.622,2.71c1.585,1.443,4.445,0.067,4.989,1.972c0.217,1.122-1.738,0.48-3.156,0.116c3.148,0.893,7.575,5.101,14.03,7.008
			C207.822,425.749,207.302,421.912,211.926,422.178"/>
		<path fill="#D81B60" d="M185.683,416.552c0.388-0.02,0.818,0.037,1.273,0.158C186.385,416.568,185.889,416.455,185.683,416.552"/>
		<path fill="#D81B60" d="M178.826,407.192c-1.752,1.569-7.346-4.186-8.947-3.253c4.095,2.283,6.702,5.401,5.237,5.979
			c1.674,0.596,3.317,1.244,4.999,1.788C182.048,411.721,180.734,409.357,178.826,407.192"/>
		<path fill="#D81B60" d="M140.543,386.224l4.61,3.189c-0.243-4.659,2.313-1.161-2.542-8.577c-2.616-1.533-8.245-5.226-8.551-3.676
			c1.679,1.411,4.885,2.629,7.011,5.046c-1.698-0.155-4.179-2.563-6.257-2.765c3.103,4.367,2.993,1.645,6.985,5.786L140.543,386.224
			z"/>
		<path fill="#D81B60" d="M147.802,387.771c-0.771,0.152-1.556,0.276-1.794,0.703C146.795,388.347,149.342,389.458,147.802,387.771"
			/>
		<path fill="#D81B60" d="M162.302,398.025l1.48,0.717C163.516,398.14,162.964,398.129,162.302,398.025"/>
		<path fill="#D81B60" d="M168.459,401.573c-0.81-1.408-2.576-1.914-4.677-2.831l0.11,0.23c1.322,1.634-1.115,1.959-3.599-0.177
			c-3.016-1.599-1.869-2.723-4.859-3.551l2.568,3.354C162.568,401.438,166.393,401.035,168.459,401.573"/>
		<path fill="#D81B60" d="M150.641,389.555c2.676,2.211-0.812,0.975-0.661,1.329l4.506,0.607L150.641,389.555z"/>
		<path fill="#D81B60" d="M162.302,398.025c-0.53-0.28-1.063-0.576-1.632-0.945C161.225,397.757,161.785,397.929,162.302,398.025"/>
	</g>
</g>
<g>
	<g>
		<defs>
			<rect id="SVGID_1_" width="497.757" height="495.17"/>
		</defs>
		<clipPath id="SVGID_2_">
			<use xlink:href="#SVGID_1_"  overflow="visible"/>
		</clipPath>
	</g>
	<g>
		<defs>
			<rect id="SVGID_3_" width="497.757" height="495.17"/>
		</defs>
		<clipPath id="SVGID_4_">
			<use xlink:href="#SVGID_3_"  overflow="visible"/>
		</clipPath>
	</g>
	<g>
		<defs>
			<rect id="SVGID_5_" width="497.757" height="495.17"/>
		</defs>
		<clipPath id="SVGID_6_">
			<use xlink:href="#SVGID_5_"  overflow="visible"/>
		</clipPath>
	</g>
	<g>
		<defs>
			<rect id="SVGID_7_" width="497.757" height="495.17"/>
		</defs>
		<clipPath id="SVGID_8_">
			<use xlink:href="#SVGID_7_"  overflow="visible"/>
		</clipPath>
	</g>
	<g>
		<defs>
			<rect id="SVGID_9_" width="497.757" height="495.17"/>
		</defs>
		<clipPath id="SVGID_10_">
			<use xlink:href="#SVGID_9_"  overflow="visible"/>
		</clipPath>
		<path clip-path="url(#SVGID_10_)" d="M55.672,443.559c0,0,43.47,11.514,80.691,10.807c24.01-0.458,266.548-9.576,335.666-89.7
			C472.029,364.665,193.319,400.143,55.672,443.559"/>
	</g>
	<g>
		<defs>
			<rect id="SVGID_11_" width="497.757" height="495.17"/>
		</defs>
		<clipPath id="SVGID_12_">
			<use xlink:href="#SVGID_11_"  overflow="visible"/>
		</clipPath>
		<path clip-path="url(#SVGID_12_)" d="M387.103,403.783c0,0,7.41,26.846,40.995,20.832c0,0-32.615-8.838-20.919-25.643"/>
	</g>
	<g>
		<defs>
			<rect id="SVGID_13_" width="497.757" height="495.17"/>
		</defs>
		<clipPath id="SVGID_14_">
			<use xlink:href="#SVGID_13_"  overflow="visible"/>
		</clipPath>
		<path clip-path="url(#SVGID_14_)" d="M249.568,321.338c12.583,8.359,13.911,38.521,15.898,55.822
			c-4.417,5.161-2.29,11.439-5.731,23.148c3.441-0.543,6.889-1.088,10.326-1.629c1.515-0.238,6.109-8.664,7.546-11.725
			c-1.057-13.748,23.16-56.249,51.188-69.669C319.241,307.102,272.322,316.582,249.568,321.338 M391.098,359.752
			c-1.208-5.766-3.405-4.791-4.453-10.771c-0.184-17.133-14.792-25.949-19.905-43.685c-2.867-9.971-1.427-23.941-4.484-35.579
			c-4.688-17.834-27.349-30.254-28.541-38.809c-0.851-6.215,4.846-10.121,6.821-16.299c6.283-19.681-37.152-14.412-39.434-25.18
			c-4.785-22.58,75.407-16.901,49.276-70.979c-11.982,68.353-63.544,45.475-53.072,75.127c2.79,7.898,35.52,8.259,37.353,14.495
			c6.366,21.648-31.002,21.932-50.208,22.681c-25.212,0.979-38.133-31.691-40.197-28.875c0.888-1.727-3.673-1.024,4.409-3.596
			c9.183-2.626,28.416-9.282,27.991-22.771c-7.766-8.404-17.083-13.321-24.951-20.527c0.125-2.018,0.566-7.928,1.617-9.48
			c5.864-4.586,18.623,0.663,19.967-10.812c2.017-4.709-2.929-13.397-3.503-13.288c8.696,21.076-29.278,6.956-29.085,23.486
			c0.015,1.58-0.058,2.778,0.083,3.83c-7.39-0.77-15.377,0.516-22.133,3.312c-1.326-1.93-7.018-5.182-6.069-8.576
			c9.56-14.379,40.525-8.496,35.923-32.583c-0.619-0.996-2.536-6.442-2.536-6.442c-0.699,28.646-66.579,14.288-54.007,50.594
			c2.104,6.085,4.881,8.059,9.22,10.482l-8.353-1.85c-8.139,2.948-13.273,6.064-12.455,6.811c0.818,0.75,1.561,1.602,2.538,1.895
			c7.563,2.27,15.81,0.706,15.81,0.706c-18.575,6.354-38.796,36.349-40.4,67.189c-21.101-0.715-41.212,17.28-43.717,33.367
			c1.033,6.475,14.336,18.23,19.826,28.473c5.014,4.086,15.838,3.362,15.838,3.362c7.854-8.917,0.498-11.076-2.911-18.271
			c-10.4-0.266-11.232-9.009-13.709-15.543c13.747-3.52,13.648,1.819,26.866-0.98c3.277,5.456,8.012,16.756,22.926,15.293
			c-5.64-10.35-14.659-34.633-8.975-42.84c-6.3,18.348,12.071,34.743,11.443,49.699c-0.446,10.526-11.293,13.617-16.425,22.489
			c-5.188,12.662-10.675,21.926-15.935,32.943c-3.53,9.44-1.666,11.804-1.86,17.854c5.67-1.74,8.879-0.109,12.024,1.617
			c0,0,5.761-15.104,10.082-17.979c7.328-42.862,62.628-51.061,73.725-91.216c-3.399,19.439-19.032,31.667-32.619,43.743
			c19.317,34.347,69.611,4.432,99.782,8.555c35.905,4.91,68.928,33.103,61.221,66.772c1.682-0.399,7.665,0.635,11.841,0.474
			C386.01,368.064,389.6,367.437,391.098,359.752"/>
	</g>
	<g>
		<defs>
			<rect id="SVGID_15_" width="497.757" height="495.17"/>
		</defs>
		<clipPath id="SVGID_16_">
			<use xlink:href="#SVGID_15_"  overflow="visible"/>
		</clipPath>
		<path clip-path="url(#SVGID_16_)" d="M131.934,419.22c-6.882,3.604-27.525,1.268-33.414-3.786
			c-5.199-28.047,8.05-59.268,22.485-73.216c6.988-61.022,15.277-133.396,22.84-199.432c2.271-19.838-0.963-60.945,11.917-54.778
			c-7.957,80.048-23.88,204.28-37.046,298.856c7.385-7.661,4.253-28.463,7.541-41.241
			C140.338,359.104,142.237,394.746,131.934,419.22"/>
	</g>
	<g>
		<defs>
			<rect id="SVGID_17_" width="497.757" height="495.17"/>
		</defs>
		<clipPath id="SVGID_18_">
			<use xlink:href="#SVGID_17_"  overflow="visible"/>
		</clipPath>
		<path clip-path="url(#SVGID_18_)" fill="#F2F2F2" d="M396.668,389.921c0.758-0.132,1.209,0.38,1.267,1.039
			c0.203,2.333-3.161,2.924-4.237,3.112C393.84,393.096,394.313,390.335,396.668,389.921 M399.252,397.315
			c-0.058-0.096-0.087-0.166-0.216-0.141c-0.377,0.062-1.614,1.313-3.096,1.571c-2.358,0.412-2.33-1.574-2.397-2.338
			c1.431-0.25,7.797-1.369,7.382-6.15c-0.181-2.027-1.649-3.106-4.002-2.692c-3.866,0.677-6.782,4.84-6.338,9.906
			c0.248,2.813,1.77,4.474,4.775,3.945c2.562-0.448,4.784-2.1,4.756-2.425c-0.007-0.076-0.064-0.145-0.094-0.216L399.252,397.315z
			 M386.584,399.795c-0.026-0.046-0.136-0.104-0.21-0.091c-0.306,0.052-0.905,0.751-2.081,0.955
			c-1.231,0.218-1.914-0.308-2.033-1.702c-0.287-3.241,0.809-6.393,3.07-6.792c1.579-0.277,2.036,0.286,2.259,0.248
			c0.074-0.013,0.151-0.052,0.213-0.19l0.818-1.736c0.042-0.084,0.129-0.258,0.122-0.332c-0.025-0.251-1.508-0.891-3.464-0.546
			c-3.812,0.668-6.686,4.438-6.225,9.654c0.287,3.296,2.336,4.607,5.098,4.121c1.427-0.251,3.348-1.307,3.306-1.763
			c-0.007-0.103-0.068-0.167-0.101-0.238L386.584,399.795z M375.001,404.115c0.119-0.074,0.29-0.154,0.273-0.329
			c-0.029-0.306-0.258-0.883-0.335-1.485c-0.032-0.38-0.032-1.255,0.042-1.833l0.96-8.219c0.016-0.106,0.032-0.213,0.022-0.313
			c-0.013-0.128-0.097-0.244-0.3-0.207l-1.981,0.349c-0.174,0.032-0.268,0.1-0.328,0.315l-0.216,0.729
			c-0.436-0.359-1.27-1.163-2.9-0.877c-3.187,0.561-5.574,5.22-5.136,10.236c0.235,2.658,1.321,4.012,3.151,3.688
			c2.181-0.382,3.341-2.254,3.841-2.985c0.109,1.269,0.399,2.244,0.676,2.194c0.123-0.022,0.22-0.09,0.294-0.125L375.001,404.115z
			 M372.159,399.344c-0.21,1.652-0.993,3.747-2.849,4.075c-0.68,0.116-1.102-0.348-1.192-1.339c-0.231-2.637,0.486-7.237,2.62-7.61
			c0.905-0.161,1.533,0.349,1.936,0.589L372.159,399.344z M354.776,398.277l0.596-5.127l1.054-0.184
			c1.305-0.229,2.329-0.125,2.458,1.347c0.193,2.23-1.095,3.435-3.354,3.83L354.776,398.277z M354.441,401.109l1.256-0.22
			l2.704,6.728c0.067,0.17,0.174,0.255,0.299,0.232c0.129-0.022,0.271-0.1,0.396-0.148l2.304-1.02
			c0.168-0.082,0.265-0.176,0.252-0.305c-0.007-0.1-0.155-0.33-0.188-0.429l-2.906-6.126c2.385-1.239,3.776-3.927,3.538-6.662
			c-0.3-3.393-2.896-3.454-5.555-2.984l-3.712,0.648c-0.303,0.052-0.377,0.094-0.422,0.432l-1.994,16.941
			c-0.02,0.108-0.029,0.313-0.02,0.392c0.013,0.149,0.074,0.266,0.399,0.211l2.433-0.427c0.303-0.053,0.374-0.092,0.419-0.434
			L354.441,401.109z M338.27,408.656c-0.038-0.149-0.115-0.159-0.189-0.146c-0.123,0.022-0.486,0.265-0.912,0.339
			c-0.377,0.064-0.593-0.052-0.622-0.403c-0.032-0.354,0.087-1.021,0.161-1.649l1.673-13.671c0.016-0.154,0.045-0.367,0.035-0.519
			c-0.017-0.176-0.049-0.248-0.148-0.232c-0.077,0.017-0.248,0.096-0.345,0.139l-2.165,0.841c-0.37,0.142-0.387,0.25-0.416,0.51
			l-1.64,13.486c-0.119,0.92-0.142,1.826-0.062,2.734c0.146,1.645,1.163,1.954,2.616,1.701c0.977-0.174,2.501-0.801,2.469-1.181
			c-0.007-0.074-0.042-0.171-0.049-0.247L338.27,408.656z M326.452,402.238c0.754-0.132,1.205,0.382,1.263,1.042
			c0.206,2.333-3.157,2.923-4.237,3.111C323.623,405.412,324.094,402.652,326.452,402.238 M329.039,409.631
			c-0.058-0.09-0.094-0.161-0.219-0.142c-0.374,0.064-1.614,1.313-3.097,1.572c-2.358,0.413-2.329-1.572-2.394-2.337
			c1.427-0.248,7.797-1.365,7.378-6.151c-0.181-2.026-1.649-3.104-4.005-2.691c-3.863,0.68-6.782,4.841-6.334,9.904
			c0.251,2.815,1.769,4.475,4.777,3.946c2.556-0.447,4.785-2.097,4.75-2.426c-0.007-0.074-0.062-0.142-0.094-0.214L329.039,409.631z
			 M316.09,414.448c0.119-0.072,0.293-0.153,0.277-0.329c-0.029-0.305-0.255-0.881-0.335-1.485
			c-0.026-0.303-0.091-0.755-0.017-1.335l1.724-14.553c0.017-0.154,0.046-0.367,0.036-0.496c-0.02-0.199-0.052-0.271-0.151-0.254
			c-0.074,0.016-0.249,0.097-0.342,0.135l-2.169,0.846c-0.367,0.141-0.383,0.247-0.412,0.511l-0.632,5.252
			c-0.422-0.156-1.008-0.464-2.232-0.248c-4.343,0.761-5.887,6.636-5.525,10.692c0.222,2.527,1.282,3.631,3.061,3.316
			c2.232-0.393,3.254-2.139,3.818-2.981c0.109,1.268,0.402,2.241,0.677,2.192c0.122-0.021,0.219-0.092,0.293-0.126L316.09,414.448z
			 M313.306,409.38c-0.216,1.892-1.149,4.06-2.677,4.332c-0.78,0.137-1.264-0.448-1.356-1.538c-0.232-2.636,0.338-6.852,2.899-7.305
			c0.848-0.148,1.431,0.111,1.644,0.177L313.306,409.38z M301.819,416.951c0.12-0.072,0.29-0.154,0.28-0.328
			c-0.032-0.303-0.258-0.88-0.338-1.483c-0.025-0.309-0.09-0.759-0.016-1.339l1.724-14.551c0.013-0.156,0.045-0.367,0.035-0.494
			c-0.02-0.202-0.049-0.272-0.148-0.257c-0.077,0.015-0.251,0.096-0.348,0.139l-2.165,0.841c-0.367,0.144-0.384,0.248-0.409,0.513
			l-0.635,5.255c-0.419-0.161-1.006-0.467-2.233-0.255c-4.34,0.766-5.883,6.641-5.528,10.694c0.222,2.532,1.288,3.631,3.067,3.32
			c2.229-0.394,3.251-2.14,3.814-2.982c0.109,1.264,0.402,2.241,0.674,2.192c0.129-0.023,0.222-0.092,0.296-0.129L301.819,416.951z
			 M299.036,411.884c-0.216,1.891-1.147,4.06-2.681,4.33c-0.776,0.137-1.26-0.446-1.354-1.537c-0.231-2.636,0.338-6.854,2.899-7.301
			c0.851-0.15,1.435,0.106,1.646,0.176L299.036,411.884z M287.701,419.428c0.122-0.074,0.293-0.153,0.277-0.33
			c-0.029-0.305-0.258-0.88-0.332-1.485c-0.036-0.379-0.036-1.255,0.038-1.835l0.961-8.22c0.016-0.103,0.032-0.208,0.022-0.311
			c-0.01-0.126-0.097-0.24-0.3-0.203l-1.979,0.345c-0.177,0.032-0.271,0.097-0.332,0.315l-0.216,0.73
			c-0.438-0.358-1.27-1.163-2.899-0.877c-3.187,0.558-5.574,5.218-5.133,10.235c0.235,2.657,1.317,4.011,3.147,3.69
			c2.182-0.385,3.342-2.257,3.838-2.985c0.112,1.263,0.402,2.239,0.677,2.194c0.125-0.022,0.222-0.091,0.293-0.131L287.701,419.428z
			 M284.862,414.652c-0.206,1.661-0.992,3.752-2.848,4.078c-0.677,0.117-1.103-0.347-1.189-1.336
			c-0.231-2.637,0.483-7.241,2.619-7.612c0.902-0.157,1.531,0.349,1.934,0.587L284.862,414.652z M268.634,413.385l0.596-5.125
			l1.054-0.184c1.302-0.227,2.332-0.124,2.458,1.346c0.2,2.232-1.099,3.438-3.354,3.831L268.634,413.385z M268.298,416.22
			l1.306-0.229c3.708-0.65,6.746-3.162,6.344-7.723c-0.3-3.393-2.896-3.451-5.555-2.983l-3.712,0.647
			c-0.303,0.055-0.374,0.093-0.422,0.435l-1.998,16.938c-0.016,0.107-0.022,0.313-0.016,0.39c0.013,0.151,0.07,0.271,0.402,0.213
			l2.43-0.429c0.303-0.05,0.374-0.089,0.422-0.432L268.298,416.22z M244.062,427.313c0.422,0.158,1.009,0.466,2.239,0.251
			c4.34-0.762,5.885-6.637,5.523-10.691c-0.223-2.533-1.283-3.632-3.063-3.317c-2.234,0.392-3.252,2.136-3.816,2.983
			c-0.108-1.271-0.399-2.244-0.673-2.194c-0.125,0.02-0.219,0.087-0.296,0.126l-1.935,1.138c-0.121,0.069-0.29,0.151-0.272,0.328
			c0.022,0.305,0.251,0.88,0.332,1.482c0.026,0.306,0.09,0.757,0.016,1.337l-1.666,14.08c-0.011,0.158-0.066,0.397-0.055,0.548
			c0.013,0.126,0.022,0.226,0.148,0.206c0.074-0.013,0.271-0.099,0.369-0.142l2.164-0.841c0.372-0.142,0.39-0.252,0.416-0.511
			L244.062,427.313z M244.829,420.673c0.237-1.895,1.144-4.06,2.676-4.33c0.778-0.137,1.261,0.446,1.358,1.537
			c0.23,2.635-0.335,6.902-2.896,7.353c-0.851,0.147-1.437-0.16-1.648-0.226L244.829,420.673z M238.072,411.622
			c0.016-0.106,0.024-0.313,0.016-0.39c-0.013-0.151-0.074-0.269-0.4-0.211l-2.36,0.412c-0.298,0.052-0.369,0.092-0.417,0.434
			l-1.324,11.576c-0.226,1.816-0.744,3.706-2.925,4.089c-1.307,0.229-2.278-0.115-2.4-1.508c-0.048-0.558-0.022-1.128,0.083-1.688
			l1.402-11.254c0.016-0.106,0.022-0.313,0.016-0.39c-0.013-0.151-0.074-0.27-0.399-0.211l-2.436,0.427
			c-0.298,0.052-0.371,0.09-0.419,0.434l-1.324,11.524c-0.087,0.736-0.127,1.463-0.061,2.196c0.248,2.837,2.318,3.812,5.427,3.264
			c5.267-0.922,5.866-4.523,6.217-7.489L238.072,411.622z M211.265,432.836c0.121-0.071,0.293-0.153,0.277-0.332
			c-0.026-0.303-0.258-0.88-0.337-1.482c-0.026-0.304-0.09-0.759-0.013-1.338l1.722-14.553c0.013-0.154,0.045-0.367,0.035-0.491
			c-0.018-0.204-0.051-0.275-0.151-0.259c-0.074,0.016-0.245,0.097-0.345,0.138l-2.165,0.845c-0.369,0.14-0.387,0.248-0.414,0.511
			l-0.63,5.255c-0.424-0.156-1.009-0.469-2.236-0.251c-4.341,0.762-5.885,6.636-5.529,10.693c0.222,2.529,1.286,3.628,3.064,3.317
			c2.233-0.394,3.251-2.14,3.815-2.984c0.113,1.267,0.399,2.243,0.677,2.194c0.124-0.022,0.221-0.09,0.293-0.129L211.265,432.836z
			 M208.478,427.77c-0.214,1.89-1.147,4.06-2.674,4.328c-0.779,0.138-1.266-0.444-1.359-1.536c-0.232-2.636,0.341-6.851,2.9-7.302
			c0.852-0.151,1.435,0.108,1.645,0.178L208.478,427.77z M197.757,427.204c0.095-0.659,0.136-1.36,0.079-2.018
			c-0.125-1.395-1.137-2.5-2.765-2.216c-2.059,0.362-3.334,2.359-3.94,3.287c-0.125-1.417-0.453-2.515-0.728-2.466
			c-0.125,0.022-0.171,0.08-0.245,0.116l-1.935,1.139c-0.118,0.072-0.292,0.154-0.275,0.328c0.042,0.456,0.296,0.772,0.364,1.529
			c0.071,0.812-0.023,1.469-0.12,2.131l-1.032,7.922c0.008,0.104-0.008,0.209-0.002,0.283c0.016,0.203,0.148,0.232,0.348,0.2
			l2.331-0.411c0.251-0.044,0.298-0.079,0.324-0.365l0.636-5.205c0.24-1.895,0.793-5.18,3.102-5.586
			c0.528-0.092,0.789,0.274,0.839,0.857c0.048,0.531-0.008,1.054-0.089,1.582l-1.021,7.514c0.008,0.1-0.008,0.204,0,0.281
			c0.016,0.202,0.147,0.23,0.347,0.195l2.334-0.409c0.251-0.042,0.298-0.079,0.322-0.364L197.757,427.204z M182.876,437.815
			c0.123-0.072,0.293-0.153,0.277-0.33c-0.026-0.307-0.254-0.88-0.335-1.485c-0.032-0.379-0.032-1.254,0.043-1.833l0.958-8.22
			c0.016-0.106,0.032-0.211,0.022-0.313c-0.009-0.126-0.098-0.24-0.299-0.203l-1.979,0.348c-0.177,0.028-0.272,0.097-0.33,0.313
			l-0.216,0.73c-0.437-0.36-1.271-1.163-2.901-0.878c-3.187,0.56-5.578,5.222-5.133,10.238c0.232,2.655,1.318,4.01,3.146,3.688
			c2.183-0.384,3.346-2.254,3.839-2.985c0.114,1.267,0.403,2.241,0.676,2.194c0.126-0.024,0.223-0.092,0.295-0.129L182.876,437.815z
			 M180.041,433.037c-0.211,1.661-0.996,3.752-2.854,4.081c-0.675,0.116-1.099-0.347-1.186-1.337
			c-0.232-2.636,0.485-7.24,2.62-7.612c0.9-0.159,1.53,0.348,1.933,0.588L180.041,433.037z M169.979,437.972
			c-0.061-0.116-0.09-0.164-0.214-0.145c-0.153,0.028-1.078,0.782-2.207,0.982c-0.653,0.112-1.004-0.132-1.059-0.744
			c-0.036-0.403,0.003-0.822,0.068-1.247l0.676-6.217l3.235-0.568c0.226-0.036,0.25-0.068,0.331-0.313l0.375-1.505
			c0.015-0.132,0.081-0.245,0.071-0.374c-0.015-0.151-0.148-0.229-0.374-0.188l-3.36,0.59l0.42-3.315
			c0.015-0.131,0.027-0.263,0.018-0.364c-0.01-0.124-0.093-0.214-0.193-0.195c-0.127,0.022-0.226,0.064-0.325,0.081l-2.252,0.731
			c-0.148,0.052-0.271,0.1-0.299,0.335l-0.377,3.256l-1.754,0.306c-0.2,0.037-0.317,0.134-0.324,0.366l-0.177,1.445
			c-0.016,0.104-0.032,0.211-0.023,0.336c0.016,0.178,0.123,0.235,0.348,0.197l1.654-0.292l-0.781,6.726
			c-0.079,0.553-0.108,1.099-0.058,1.658c0.163,1.87,1.424,2.346,3.231,2.024c1.604-0.28,3.949-1.411,3.915-1.816
			c-0.006-0.074-0.039-0.147-0.046-0.223L169.979,437.972z M159.833,425.986c0.062-0.165,0.152-0.312,0.145-0.387
			c-0.042-0.479-2.703-0.912-4.456-0.606c-3.84,0.674-6.273,3.081-5.951,6.728c0.23,2.638,2.096,3.311,3.705,3.957
			c1.295,0.519,2.458,1.01,2.581,2.403c0.164,1.848-1.131,2.771-2.662,3.038c-1.855,0.327-3.528-0.464-3.802-0.412
			c-0.177,0.031-0.174,0.082-0.258,0.277l-0.79,2.012c-0.061,0.168-0.151,0.312-0.145,0.386c0.041,0.457,2.903,0.879,4.782,0.547
			c4.266-0.747,6.496-3.73,6.196-7.127c-0.125-1.469-0.79-2.358-1.73-2.912c-2.123-1.299-4.501-1.347-4.667-3.248
			c-0.133-1.545,0.973-2.562,2.58-2.845c1.678-0.293,3.151,0.531,3.425,0.479c0.177-0.033,0.174-0.083,0.258-0.275L159.833,425.986z
			"/>
	</g>
	<g>
		<defs>
			<polygon id="SVGID_19_" points="0,0 499.832,0 497.757,495.17 0,495.17 			"/>
		</defs>
		<clipPath id="SVGID_20_">
			<use xlink:href="#SVGID_19_"  overflow="visible"/>
		</clipPath>
		<path clip-path="url(#SVGID_20_)" d="M396.749,126.794c0.122,0.063,0.342,0.156,0.544-0.013c0.136-0.111,0.175-0.315,0.242-0.43
			l3.75-9.462l12.073,0.305c0.19,0.006,0.383,0.014,0.516-0.101c0.164-0.14,0.145-0.404,0.055-0.611l-1.26-3.285
			c-0.059-0.118-0.087-0.265-0.181-0.356c-0.122-0.122-0.315-0.127-0.506-0.134l-6.132,0.18c-1.54,0.068-2.825,0.143-3.531,0.177
			c0.235-0.371,0.654-1.235,1.306-2.47l2.104-3.994c0.074-0.175,0.013-0.35-0.109-0.47c-0.094-0.092-0.406-0.275-0.535-0.339
			l-3.299-1.774c-0.226-0.096-0.445-0.19-0.577-0.076c-0.129,0.111-0.206,0.344-0.273,0.516l-3.654,8.647l-13.101-0.281
			c-0.193-0.006-0.415,0.015-0.554,0.129c-0.129,0.111-0.077,0.405-0.045,0.494l1.479,3.379c0.029,0.091,0.058,0.237,0.181,0.357
			c0.122,0.12,0.315,0.068,0.509,0.075l6.77-0.102c1.634-0.036,2.696-0.145,3.692-0.259c-0.409,0.747-0.761,1.494-1.279,2.559
			l-2.188,4.633c-0.071,0.115-0.109,0.318,0.016,0.44c0.059,0.061,0.252,0.125,0.406,0.218L396.749,126.794z M373.605,102.133
			c-1.669-1.308-1.17-2.781,0.947-5.022c4.858-5.148,14.222-11.051,18.278-7.877c1.637,1.28,1.134,2.755-1.012,5.028
			C386.964,99.41,377.662,105.307,373.605,102.133 M396.514,97.767c4.024-4.265,3.911-8.354-0.042-11.45
			c-7.839-6.135-19.638-0.103-26.61,7.286c-4.021,4.264-3.882,8.326,0.139,11.474C377.807,111.183,389.57,105.125,396.514,97.767
			 M355.134,72.79l4.021,2.391c0.373,0.222,0.46,0.173,0.802-0.075l2.149-1.637c0.139-0.119,0.318-0.215,0.419-0.354
			c0.1-0.143,0.115-0.383-0.216-0.583l-4.247-2.525l1.434-1.309c1.379-1.24,2.639-2.454,4.572-1.301
			c1.118,0.664,1.53,1.563,1.901,1.785c0.077,0.044,0.212,0.074,0.474-0.07l2.681-1.923c0.112-0.084,0.202-0.132,0.276-0.238
			c0.384-0.526-1.481-2.288-3.041-3.219c-5.101-3.035-8.087-0.839-10.71,1.67l-2.056,1.947l-2.755-1.64
			c-0.406-0.243-0.558-0.181-0.828,0.112l-1.875,1.7c-0.139,0.117-0.277,0.236-0.38,0.376c-0.229,0.315,0.042,0.528,0.264,0.661
			l2.643,1.572l-13.008,12.168c-2.116,1.958-3.737,3.307-6.27,1.801c-0.78-0.465-1.286-1.017-1.398-1.083
			c-0.113-0.067-0.235-0.041-0.438,0.092l-2.567,1.988c-0.142,0.12-0.255,0.204-0.354,0.345c-0.284,0.385,1.163,1.549,2.88,2.566
			c5.063,3.014,9.016,0.288,12.121-2.591L355.134,72.79z M324.719,71.642c-1.646-0.86-1.73-2.169-0.625-3.883
			c2.274-3.538,7.522-8.5,11.1-6.636c1.649,0.861,1.729,2.169,0.628,3.883C333.54,68.542,328.292,73.504,324.719,71.642
			 M340.486,67.876c3.007-4.667,1.856-7.9-2.023-9.921c-6.376-3.324-14.695,0.184-19.041,6.931
			c-3.007,4.668-1.775,7.939,2.255,10.042C327.901,78.172,336.141,74.623,340.486,67.876 M294.38,62.304
			c0.242-0.032,0.561-0.044,0.661-0.333c0.161-0.492,0.193-1.55,0.477-2.546c0.164-0.496,0.367-1.244,0.88-2.101l12.55-21.614
			c0.122-0.236,0.318-0.546,0.386-0.75c0.106-0.33,0.106-0.463-0.061-0.503c-0.129-0.029-0.451-0.016-0.635-0.016l-3.96-0.129
			c-0.67-0.027-0.771,0.128-0.989,0.52l-4.546,7.799c-0.551-0.529-1.267-1.405-3.332-1.891c-7.304-1.717-13.699,6.447-15.884,13.027
			c-1.37,4.114-0.445,6.545,2.552,7.25c3.757,0.884,6.53-1.171,7.983-2.115c-0.683,2.057-0.893,3.781-0.428,3.889
			c0.209,0.051,0.405,0.008,0.547-0.003L294.38,62.304z M293.446,52.509c-1.618,2.813-4.537,5.584-7.114,4.98
			c-1.312-0.308-1.669-1.546-1.083-3.313c1.421-4.278,5.165-10.492,9.473-9.481c1.438,0.337,2.172,1.132,2.455,1.375L293.446,52.509
			z M274.804,44.571c0.438-1.048,0.806-2.187,0.992-3.298c0.396-2.348-0.796-4.607-3.608-4.83c-3.545-0.282-6.512,2.47-7.91,3.745
			c0.406-2.391,0.342-4.344-0.136-4.384c-0.212-0.017-0.315,0.062-0.451,0.095l-3.686,1.049c-0.226,0.068-0.548,0.13-0.596,0.429
			c-0.133,0.77,0.157,1.4-0.059,2.68c-0.231,1.367-0.673,2.414-1.111,3.462l-5.116,12.623c-0.032,0.171-0.104,0.338-0.123,0.466
			c-0.058,0.342,0.146,0.443,0.49,0.471l4.024,0.32c0.432,0.033,0.521,0,0.689-0.465l3.289-8.311
			c1.212-3.02,3.538-8.203,7.514-7.887c0.909,0.071,1.183,0.786,1.016,1.769c-0.151,0.895-0.471,1.738-0.835,2.575l-4.91,11.945
			c-0.029,0.171-0.1,0.338-0.122,0.467c-0.059,0.341,0.145,0.444,0.489,0.47l4.021,0.319c0.432,0.034,0.524,0,0.692-0.462
			L274.804,44.571z M242.912,39.479c1.298-0.085,1.968,0.868,1.943,1.993c-0.09,3.984-5.89,4.357-7.752,4.479
			C237.527,44.323,238.845,39.741,242.912,39.479 M245.905,52.476c-0.084-0.168-0.125-0.295-0.345-0.282
			c-0.645,0.042-2.98,1.922-5.532,2.087c-4.069,0.263-3.65-3.096-3.618-4.394c2.468-0.159,13.458-0.869,13.645-9.052
			c0.081-3.463-2.207-5.566-6.276-5.302c-6.667,0.43-12.39,6.938-12.583,15.6c-0.108,4.806,2.155,7.903,7.348,7.568
			c4.414-0.285,8.49-2.666,8.503-3.229c0.003-0.13-0.084-0.255-0.123-0.383L245.905,52.476z M218.821,50.695
			c-0.393,3.398-1.843,6.107-4.621,6.596c-1.497,0.263-2.265-0.567-2.442-2.596c-0.387-4.4,0.966-11.649,4.472-12.264
			c1.704-0.301,2.867,0.548,3.467,0.967L218.821,50.695z M224.519,44.965c0.34-3.041,2.055-5.708,2.017-6.14
			c-0.014-0.173-0.111-0.289-0.336-0.379l-2.729-0.966c-0.181-0.058-0.453-0.186-0.622-0.153c-0.686,0.118-1.792,2.329-2.125,2.956
			c-1.074-0.862-2.363-2.169-5.266-1.659c-6.234,1.095-9.434,10.071-8.836,16.844c0.351,3.969,2.241,6.704,5.998,6.044
			c3.505-0.615,5.4-3.708,6.002-4.735l0.093,0.072c-0.876,3.834,0.483,8.416-4.855,9.354c-3.418,0.602-5.751-0.786-6.434-0.666
			c-0.174,0.03-0.293,0.139-0.358,0.369l-1.047,3.384c-0.032,0.136-0.106,0.281-0.09,0.453c0.076,0.864,4.38,1.465,7.926,0.843
			c10.849-1.908,9.041-11.58,9.901-19.006L224.519,44.965z M193.686,47.38c1.253-0.351,2.107,0.438,2.32,1.546
			c0.748,3.915-4.844,5.487-6.639,5.991C189.441,53.237,189.763,48.483,193.686,47.38 M199.342,59.466
			c-0.116-0.147-0.182-0.264-0.39-0.205c-0.627,0.176-2.512,2.5-4.977,3.193c-3.923,1.104-4.216-2.266-4.459-3.543
			c2.378-0.668,12.98-3.649,11.441-11.691c-0.651-3.405-3.328-4.985-7.252-3.881c-6.428,1.808-10.655,9.364-9.028,17.875
			c0.906,4.721,3.77,7.279,8.78,5.87c4.256-1.196,7.739-4.372,7.633-4.925c-0.026-0.128-0.132-0.232-0.2-0.348L199.342,59.466z
			 M168.59,44.458c-0.004-0.182-0.058-0.531-0.093-0.656c-0.071-0.25-0.209-0.429-0.738-0.233l-3.94,1.468
			c-0.527,0.197-0.596,0.269-0.569,0.858l1.951,28.99c0.006,0.182,0.058,0.53,0.093,0.655c0.071,0.252,0.209,0.43,0.738,0.232
			l13.69-5.097c0.444-0.167,0.502-0.28,0.567-0.857l0.506-3.644c0.055-0.295,0.036-0.52-0.022-0.728
			c-0.082-0.292-0.361-0.326-0.806-0.16l-9.75,3.63L168.59,44.458z"/>
	</g>
</g>
<g>
</g>
<g>
</g>
<g>
</g>
<g>
</g>
<g>
</g>
<g>
</g>
<g>
</g>
<g>
</g>
<g>
</g>
<g>
</g>
<g>
</g>
<g>
</g>
<g>
</g>
<g>
</g>
<g>
</g>
</svg>
