<?xml version="1.0" encoding="utf-8"?>
<!-- Generator: Adobe Illustrator 16.0.0, SVG Export Plug-In . SVG Version: 6.00 Build 0)  -->
<!DOCTYPE svg PUBLIC "-//W3C//DTD SVG 1.1//EN" "http://www.w3.org/Graphics/SVG/1.1/DTD/svg11.dtd">
<svg version="1.1" id="Ebene_1" xmlns="http://www.w3.org/2000/svg" xmlns:xlink="http://www.w3.org/1999/xlink" x="0px" y="0px"
	 width="499.832px" height="495.17px" viewBox="0 0 499.832 495.17" enable-background="new 0 0 499.832 495.17"
	 xml:space="preserve">
<g>
	<g>
		<g>
			<polygon fill="#9CCC65" points="159.512,79.18 159.57,79.155 159.876,78.909 			"/>
			<polygon fill="#9CCC65" points="405.388,293.798 405.394,293.778 405.383,293.771 			"/>
			<polygon fill="#9CCC65" points="377.814,352.264 377.867,352.297 377.851,352.233 			"/>
			<polygon fill="#9CCC65" points="408.93,250.468 408.957,250.481 408.944,250.406 			"/>
			<polygon fill="#9CCC65" points="230.167,425.824 230.424,425.868 231.003,425.653 			"/>
			<polygon fill="#9CCC65" points="124.14,374.591 126.204,377.237 127.801,377.087 			"/>
			<polygon fill="#9CCC65" points="147.445,396.552 149.205,396.545 147.498,395.729 			"/>
			<polygon fill="#9CCC65" points="206.627,428.564 207.172,429.645 206.935,428.33 			"/>
			<polygon fill="#9CCC65" points="364.92,401.63 365.711,401.238 366.659,400.673 			"/>
			<polygon fill="#9CCC65" points="447.766,292.421 448.614,291.497 448.033,289.223 			"/>
			<polygon fill="#9CCC65" points="90.295,152.296 91.712,150.525 91.6,150.094 			"/>
			<polygon fill="#9CCC65" points="52.797,226.01 52.988,225.169 52.948,224.433 			"/>
			<path fill="#9CCC65" d="M94.104,144.206l0.613-0.796L94.104,144.206z"/>
			<path fill="#9CCC65" d="M99.055,141.085l0.975-1.076L99.055,141.085z"/>
			<polygon fill="#9CCC65" points="386.462,392.741 386.846,392.368 386.841,392.368 			"/>
			<polygon fill="#9CCC65" points="236.579,459.118 238.125,459.205 237.557,459.11 			"/>
			<path fill="#9CCC65" d="M213.986,454.033l-4.753-0.804L213.986,454.033z"/>
			<path fill="#9CCC65" d="M250.698,78.399l-0.01-0.007L250.698,78.399z"/>
			<polygon fill="#9CCC65" points="313.255,89.583 313.778,89.658 313.057,89.369 312.487,89.177 			"/>
			<polygon fill="#9CCC65" points="48.754,271.047 48.75,271.237 48.807,270.833 			"/>
			<polygon fill="#9CCC65" points="414.449,190.899 414.539,190.846 414.129,190.174 			"/>
			<path fill="#9CCC65" d="M62.204,201.266l1.234-2.777L62.204,201.266z"/>
			<polygon fill="#9CCC65" points="208.704,453.137 209.233,453.228 208.714,453.13 			"/>
			<polygon fill="#9CCC65" points="61.89,332.391 61.351,330.206 60.672,329.31 			"/>
			<polygon fill="#9CCC65" points="66.007,349.115 64.729,346.54 64.251,345.634 			"/>
			<polygon fill="#9CCC65" points="426.411,212.161 427.076,213.888 425.952,210.591 			"/>
			<polygon fill="#9CCC65" points="248.675,101.995 247.963,100.571 247.617,100.419 			"/>
			<polygon fill="#9CCC65" points="247.711,99.54 249.016,102.134 247.702,99.255 			"/>
			<polygon fill="#9CCC65" points="347.611,139.008 348.491,141.025 347.287,138.001 			"/>
			<polygon fill="#9CCC65" points="347.13,136.083 347.922,137.837 347.022,135.708 			"/>
		</g>
		<path fill="#9CCC65" d="M126.481,115.767c0.429-0.482-0.042-0.505-1.382,0.599l-0.676,1.144L126.481,115.767z"/>
		<path fill="#9CCC65" d="M116.76,122.339c-1.413,1.502-2.899,3.372-1.604,2.84c1.219-1.672,1.722-1.833,3.013-3.683
			c1.312-1.149,2.462-1.786,2.348-1.461c0.398-0.485,2.162-1.619,2.721-2.422c-2.021,1.085-4.292,2.867-6.359,5.061
			C116.317,123.005,116.709,122.503,116.76,122.339"/>
		<path fill="#9CCC65" d="M112.227,352.632c-0.645-0.756-1.059-1.007-1.372-1.071l2.38,3.044L112.227,352.632z"/>
		<path fill="#9CCC65" d="M109.139,351.341c0.881,0.642,1.137,0.104,1.717,0.22c-6.922-8.733-14.294-20.472-15.28-24.95
			c-1.323-3.514-3.557-3.169-6.031-7.282l0.423-2.536c-1.925-1.956-3.392-9.798-4.536-6.361c-0.081,0.344,1.879,1.659,2.328,3.833
			l-0.88-0.011l2.3,4.541l-1.577-1.081c1.633,6.935,4.705,3.184,7.759,11.081l-1.818,0.897c2.624,5.088,4.673,7.204,6.308,12.125
			c-0.002-0.003,0.892-0.505,0.022-1.113c-0.417-0.856-0.36-2.315,0.493-2.081c5.924,6.409-1.749-0.498,0.775,5.035
			c5.091,5.556,14.521,15.771,16.057,19.795c-1.306-3.397,2.956-0.324,5.633,2.724c0.735,1.85-1.762-0.137-2.671-0.238
			c1.143,1.539,1.79,3.071,3.344,4.229c-0.907-2.546,1.347-2.385,4.87,0.278C122.629,362.747,114.818,359.392,109.139,351.341"/>
		<path fill="#9CCC65" d="M84.008,304.904l-2.192-1.971c0.638,2.819,3.607,5.513,4.246,4.6c-0.986-1.662-1.215-4.222-2.091-4.269
			C83.883,303.633,83.398,303.767,84.008,304.904"/>
		<path fill="#9CCC65" d="M74.213,278.592c0.963,2.211,2.027,4.386,3.074,6.539c-0.545,1.409,2.497,8.852,0.474,6.73
			c2.905,3.533,4.027,12.702,5.578,8.631c-3.738-9.52-6.564-21.443-8.28-33.896c-1.739-12.468-2.331-25.43-2.759-37.409l0.893,3.875
			c-1.462-12.578,3.716-16.472,1.213-26.972l1.931,1.718c1.623-5.367-0.945-11.335,2.917-16.477l-1.027,0.313
			c0.394-1.523,0.993-1.995,1.445-3.523l-0.568,0.488c0.293-4.231,1.236-6.663,3.168-10.329c0.763-0.03-0.348,1.907-0.582,3.176
			c1.281-1.546,0.933-5.078,2.094-8.07c1.519-2.101,0.926,0.395,1.102,0.823c2.617-9.281,6.627-12.139,6.736-19.666
			c-0.225-0.864-2.161,1.709-0.781-1.554c-3.899,5.22-4.929,10.537-6.328,16.215l0.624-1.483c1.247,5.46-2.074,2.935-3.337,10.368
			c-0.568-2.267,0.574-5.294,0.413-6.746c-5.465,7.21-2.402,12.131-7.045,16.65l0.083-0.632c-0.678,1.136-0.715,3.516-0.92,5.477
			c0.574-0.516,1.248-2.329,1.908-3.484c-0.249,1.975,0.885,3.306,1.289,4.082c-1.958,1.753-0.037,2.967-1.543,6.159
			c-1.572,0.912-0.505-3.087-0.873-4.529l-0.114,4.285c-0.71,3.763-2.227,3.394-3.272,5.137c0.368,3.409,1.055-1.734,1.943,1.121
			c-1.211,1.847-2.455,7.179-3.101,13.133c-0.662,5.945-0.635,12.491-0.125,16.68c-0.076-2.879-1.367-1.065-0.999-4.566
			c-0.368,1.255,0.13,5.805,1.172,5.853c0.728,5.789,0.289,13.062-0.215,18.529l0.894-1.628c2,4.341-0.346,11.513,1.993,19.314
			v-0.167c0.649,2.517,3.445,4.208,3.94,8.852C75.738,280.605,75.357,278.101,74.213,278.592"/>
		<path fill="#9CCC65" d="M417.387,358.652l0.662-2.051C417.653,357.348,417.376,358.077,417.387,358.652"/>
		<path fill="#9CCC65" d="M442.311,299.555c-2.817,3.787-4.165,10.239-6.606,15.204c-3.354,9.563,2.666,2.539-1.317,11.416
			l-2.132-2.866c-3.912,8.808-11.461,20.057-13.996,28.299c-0.736,0.389-2.114,1.485-1.04-0.821
			c-3.677,5.267,1.769,5.435-4.482,11.683c3.522-7.593-3.108,0.934-3.262-2.061l0.612-1.116c-3.182,4.401-7.219,10.483-9.831,12.985
			c0.481,0.672,3.59-0.782,0.302,2.829c1.479-1.324,1.601-0.114,2.08,0.578c2.861-4.314,5.087-6.033,6.272-9.063
			c2.659-1.476-0.987,1.673,1.672,0.192l1.844-3.785c2.091-2.168-1.128,3.09,2.014-0.419c-0.157-0.819,1.683-4.185,3.937-7.078
			l-0.327,1.07c1.345-2.492,4.024-5.445,1.789-5.342l3.324-1.726l-1.317-0.194c4.579-6.068,8.677-7.088,12.146-16.588
			c-1.432,1.949-0.986-0.288-0.607-1.521c-2.659,3.258-1.589,4.913-3.438,8.404c-1.291-0.105,0.722-6.535-2.246-2.813
			c3.809-3.776,4.512-8.593,8.152-9.252c2.943-5.575,2.566-8.339,5.63-13.952l0.338,0.341c-1.405-1.799,2.797-4.509,2.4-9.657
			l-1.531,3.008c-0.699-0.425-0.198-1.95,0.408-4.132c0.212,0.338,0.212,0.338,0.826-0.228c-1.1-1.094,0.772-7.908,0.579-8.881
			c-1.061,2.77-0.993,6.59-1.806,10.012C442.474,302.125,441.183,302.265,442.311,299.555"/>
		<path fill="#9CCC65" d="M390.562,389.497l3.663-3.81l1.188-1.559C393.823,385.931,392.224,387.744,390.562,389.497"/>
		<path fill="#9CCC65" d="M324.941,425.952c-1.154,0.642-0.32,0.771-1.05,1.454C326.451,426.577,327.15,425.882,324.941,425.952"/>
		<path fill="#9CCC65" d="M363.73,409.297c-1.391,0.304-3.217,0.859-5.258,1.495C359.272,411.019,359.914,411.16,363.73,409.297"/>
		<path fill="#9CCC65" d="M359.278,374.735c-4.18,9.275-9.419,12.079-15.514,19.144c-2.314,0.017-4.666-0.087-6.946-0.174
			c-6.775,7.329-0.903,5.827-5.393,12.159c-4.654,1.532-10.682,5.35-16.321,8.784c-5.613,3.462-10.828,6.517-12.908,7.282
			c-3.641-0.739,2.253-4.238,2.959-6.061c-4.913,3.204-6.877,5.586-9.303,7.97c-2.428,2.35-5.354,4.704-12.546,6.911l-0.599-1.136
			c-16.146,8.255-37.051,12.309-58.489,11.536c-21.545-0.629-43.235-5.894-62.898-13.146c2.439,1.466,1.39,2.008,1.994,3.328
			c-20.722-8.533-40.934-22.501-57.775-38.621c-17.015-16.069-30.688-34.027-42.867-49.521
			c5.333,11.749,11.985,28.018,22.124,42.603c9.938,14.598,23.224,27.202,36.117,32.08c5.535,8.899,20.896,12.928,22.054,18.829
			c16.105,10.229,29.614,13.416,42.559,15.26c13.07,1.688,25.845,2.135,43.46,2.94c5.034,1.01,2.515,3.211,3.947,5.452
			c-9.621,0.542-19.345,0.341-29.051-0.6c5.732,1.62,11.567,2.991,17.481,4.092c-3.958,0.739-10.664,0.161-16.662-0.447
			c-6.005-0.593-11.343-1.125-12.901,0.645c13.363,0.606,30.105,2.589,46.597,2.028c16.441-0.456,32.4-3.494,42.488-9.009
			c-10.338,1.414-23.003,4.648-35.403,4.796c-5.503-1.188-13.771-2.418-13.153-4.696c17.228-2.854,32.28-5.525,47.263-9.431
			c14.899-3.92,29.747-9.248,44.263-18.447c7.313-4.505,16.998-10.848,19.447-9.974c-4.195,3.953,0.388,2.919-2.896,6.522
			c4.622-4.328,3.608-6.189,3.431-8.085c-0.21-1.95,0.402-3.844,7.38-9.036l3.218,7.387c0.174-5.439,4.465-8.624,9.446-12.371
			c4.962-3.699,10.64-8.038,12.875-14.449c5.31-1.627,1.457,6.245-5.404,13.638c8.833-7.41,6.017-11.217,11.613-18.091
			c0.043,3.577-0.037,7.182-0.24,10.824c1.387-11.38,11.658-13.089,16.667-16.825c-1.072-1.438-7.86,0.221-1.181-9.918
			c3.373-4.091,3.474-0.967,4.901-1.582c-1.102-1.425-1.438-6.617,1.84-13.838c2.639-0.405,0.669,6.23,2.372,7.739
			c2.725-5.576,4.364-10.312,7.81-13.771c2.355-10.848-3.18-0.534-3.021-7.56c7.029-15.059,7.808,0.994,14.314-3.388
			c-0.989,13.594-7.688,29.773-9.843,36.876c3.718-7.883,6.914-15.96,9.541-24.186c1.954,2.593,10.361-15.126,7.92-1.127
			c5.855-12.03,9.693-26.493,11.289-40.964c1.649-14.484,1.093-28.961-0.461-41.497c-0.757,3.604-1.269,8.164-2.921,7.426
			c-1.746-12.771,1.267-11.473,3.026-14.287c-2.596-9.482-7.032-7.9-11.057-13.085c0.461-9.708-0.467-15.197-1.126-20.316
			c-0.716-5.146-1.175-9.936-1.346-18.73l-3.896,2.421c-0.641-12.255-7.514-11.337-10.457-23.605
			c0.557-1.052,3.727,2.749,6.26,5.904c-6.046-9.515-1.038-11.092-7.953-19.997c2.895,1.716,5.805,3.509,8.665,5.399
			c-4.271-8.001-12.795-18.264-6.696-16.608c-6.433-5.379-13.305-13.755-21.088-21.992c-7.714-8.268-16.367-16.362-24.754-21.53
			l3.512-2.083c-5.395-1.581-12.554-7.452-20.186-12.526c-7.557-5.141-15.557-9.417-20.704-8.989l-0.575-2.066
			c-6.723-1.573-13.461-2.783-20.147-3.635c-8.054-3.67-3.283-7.952-4.491-6.726c-19.062-5.874-34.263-8.38-46.684-11.968
			c-3.888,4.58-24.263,3.987-40.289,6.116c-38.93,0.975-78.796,16.635-108.795,42.241c-30.34,25.396-50.437,60.009-58.827,93.595
			c-3.345,9.922-1.313,25.102-0.464,37.565c1.724-7.393,2.301-11.454,2.726-15.582c0.437-4.111,0.813-8.266,3.068-15.415
			c4.882-10.274,11.507-12.095,18.366-18.962l-5.969,2.441c1.448-7.462,3.292-9.482,4.686-11.167
			c1.461-1.69,2.549-3.037,3.656-9.221l5.814,4.036c-1.104-5.362,7.143-12.254,11.109-14.309l-1.6-5.929
			c7.837-5.556,12.786-9.008,17.846-7.896l-3.842-2.461c2.186-0.271,8.161-6.519,13.757-10.568
			c5.572-4.116,10.263-6.202,8.489-0.052c1.345-2.329,1.783-5.636,6.697-8.456l3.245,3.168c5.792-5.476,13.236-10.587,16.431-9.423
			c-3.248,2.96-3.473,5.369-3.646,7.746c14.163-7.578,14.525-10.979,14.109-15.121c-0.297-3.854-1.318-8.296,13.438-13.591
			l0.562,2.853c2.148-1.775,4.356-3.523,6.634-5.195c2.994,0.415,5.958,0.929,8.878,1.517c4.268-6.037,15.42-7.983,27.378-7.849
			c12.037,0.029,24.603,2.086,34.306,0.818c7.641,0.209,16.124,7.55,29.328,10.999l0.475-4.51
			c4.804,3.79,16.762,10.02,26.904,18.387c10.241,8.257,18.418,18.394,18.873,25.406c9.727,3.447-0.168-1.375,2.14-3.996
			c9.071,4.216,12.535,8.457,14.34,12.303c1.791,3.922,2.018,7.603,4.283,12.151c9.321,7.383-4.607-7.835,2.009-5.322
			c4.802,7.907,7.963,9.988,11.689,12.601c3.592,2.628,7.909,5.785,12.27,16.52c-1.074,3.165-4.413-4.277-7.102-5.342
			c6.127,5.491,12.091,15.515,16.479,27.167c4.448,11.651,7.244,24.798,9.194,36.518c0.271,13.674-0.602,30.457-4.583,47.171
			c-3.843,16.705-10.847,32.962-19.595,45.466l1.181,1.234c-9.396,9.148-13.725,22.546-25.158,32.366
			C354.934,377.393,357.12,376.097,359.278,374.735"/>
		<path fill="#9CCC65" d="M220.791,428.973c-2.244,0.022-4.499,0.006-6.75-0.061c-0.649-0.354-0.917-0.907-1.264-1.426
			c0.137,0.572-1.82,0.984-1.656,1.479c2.445,2.792,8.061,1.283,11.577,1.589c9.066,2.645-0.631,1.021,2.626,3.619
			c-2.605-0.572-2.622-1.017-6.198-1.927c5.215,3.528,12.908,2.549,16.615,2.424c-1.044-0.333-1.215-1.022-3.268-1.119l3.887-0.163
			C232.639,431.224,229.411,430.467,220.791,428.973"/>
		<path fill="#9CCC65" d="M209.377,426.253c2.401,0.474,3.248,0.859,3.368,1.184C212.268,426.737,211.585,426.139,209.377,426.253"
			/>
		<path fill="#9CCC65" d="M237.753,434.846c-0.398-0.181-1.094-0.204-2.014-0.175C236.195,434.812,236.786,434.899,237.753,434.846"
			/>
		<path fill="#9CCC65" d="M234.314,431.946l4.563,0.773l-1.683-1.18C236.549,431.598,234.281,431.44,234.314,431.946"/>
		<path fill="#9CCC65" d="M398.285,380.693c-0.905-0.305-2.419,0.582-4.928,3.167c-0.448-1.117,3.088-4.125,4.143-6.131
			c-3.847,2.792-0.866-0.983-2.479-0.92c-3.807,3.516-4.485,6.191-8.928,9.63c0.004-0.425-0.394-0.739-1.193-0.558
			c-4.525,4.94-13.114,12.631-19.185,15.354c-5.525,3.076-9.264,5.913-15.166,9.631c-20.419,10.155-43.267,18.698-67.955,20.458
			l-3.256,2.532c-1.282-0.924-5.883,0.484-5.284-0.974c1.355,0.164,2.633-0.128,4.235-0.321c-5.383-1.393-13.95,1.101-20.315,0.274
			c0.714,0.401,1.754,2.32-0.184,2.623c0.544-2.383-7.576-0.131-9.282-3.095c-6.242-1.151-0.381,2.16-6.958,1.185
			c-0.84,1.4,6.295,1.247,7.437,2.363c-2.171,1.028-6.011-0.916-5.824,0.59c10.777,1.832,30.933-1.07,46.761-4.563l-1.505,1.579
			c8.188-2.018,21.21-5.038,28.271-4.979c-1.866-0.648,12.06-3.144,9.852-5.562c2.221-0.078,2.773-0.439,5.684-1.262l0.408-1.168
			c3.959-1.582,3.879-0.003,8.353-2.063c-3.46,0.13-0.314-1.609,0.506-3.164c5.646-1.051,12.037-2.987,16.989-4.534
			c-0.547-0.152-1.181-0.323-2.951,0.041c3.204-1.273,2.087-2.03,2.644-2.854c2.766-1.705,3.326-0.152,3.607,0.622
			c5.467-2.755,6.011-6.807,10.27-8.516l-2.039-0.141c4.872-3.737,9.871-5.721,14.864-10.409c3.688-0.744-3.351,4.753-5.188,7.058
			c1.33-0.576,3.757-2.299,4.834-2.456l6.802-9.747C390.151,388.259,396.523,382.288,398.285,380.693"/>
		<path fill="#9CCC65" d="M384.521,394.138c-0.478,0.742-0.899,1.37-1.114,1.778c0.47-0.495,0.884-0.98,1.72-1.559
			C385.057,394.12,384.832,394.079,384.521,394.138"/>
		<path fill="#9CCC65" d="M398.285,380.693c0.063,0.032,0.184-0.004,0.241,0.04C398.928,380.167,398.734,380.296,398.285,380.693"/>
		<path fill="#9CCC65" d="M353.268,132.783c9.908,8.828,21.746,21.684,28.248,33.27c2.486,1.863,4.654,5.506,6.841,9.153l-1.16,1.1
			l2.017,2.922c0.221,1.48-1.468-2.286-0.858,0.226l1.444,0.777c-0.335,0.476,3.429,8.349-0.004,3.448
			c1.874,4.114,3.594,8.301,5.14,12.549c0.942,2.842,1.842,1.219,2.515,4.511c-0.218,0.783-0.665-1.043-1.107-0.61
			c1.9,9.77,6.298,10.222,7.6,19.631l-0.353-0.744c0.722,1.486,1.244,4.495,1.447,4.5c1.328-1.475-1.123-1.513-0.783-4.507
			c1.328-0.012,1.396,3.397,2.325,3.036c-0.098,2.281,0.899,3.436,1.244,5.361c-0.271,3.386,0.8,8.049,0.013,10.625
			c0.522,1.568,2.005,3.283,2.211,6.793c-0.905,2.55-0.973-0.545-1.242,2.87l0.771,0.521c-0.036,2.796-0.263,2.36-0.622,2.269
			c-0.042,2.973,1.098,2.479,0.526,6.222l-0.693-2.098c0.23,2.766,0.1,3.896-0.15,7.732c-0.435-0.11-0.341-1.645-0.159-2.764
			c-1.218,2.027,0.334,3.585,0.116,4.711c0.365-0.298,0.658-2.959,1.338-1.612c-0.268,1.9,0.772,4.166-0.266,5.464l-0.557-2.148
			c0.247,4.032,0.796,2.222,0.013,6.762c-0.027-0.248-0.227-0.151-0.376-0.268c0.657,3.007-0.754,6.68-1.552,10.888l-0.069-0.84
			c-0.026,1.751,0.429,2.812,0.208,3.726c0.892-2.333,0.987-1.639,1.746-1.727c-1.854,2.967,0.512,5.212-1.483,10.287
			c-0.401-0.188-0.607-1.557,0.182-2.891c-0.879-2.071-1.855-2.506-1.829-5.774c-0.067,2.021-0.437,4.353-0.847,3.753l1.034,0.87
			c-0.212,1.197-0.536,2.107-0.746,3.004c0.611,0.69,1.788-2.121,1.599,0.761c-0.377,3.213-1.607,1.351-1.197,1.969
			c-0.693,4.369,0.812,2.111-0.767,6.081c0.024-0.432,0.061-1.284,0.271-1.605c-1.291,2.791-1.997,7.231-3.664,7.61
			c-0.156-0.525-0.527-0.732-0.068-1.79l0.195,0.114c0.03-3.476-0.588,2.723-1.512,1.321c0.808,0.027-0.731,3.983-1.568,5.707
			l1.038-0.261c0.174,6.91-1.473-0.924-3.479,5.018c-1.007,3.89,0.822-1.291,0.431,1.192c-1.207,2.427-2.305,3.028-3.626,6.752
			c-0.792,0.839-2.203,2.629-3.164,2.357c-0.686,2.314-3.73,6.155-3.563,7.784c2.702-3.16,1.058-4.011,4.35-7.646l0.264,1.625
			c-1.557,2.908-3.161,6.875-4.641,8.657c0.396-0.304,0.716-0.357,0.743-0.003c-2.081,4.255-2.003,5.931-4.804,9.644
			c-1.077,0.018,0.565-2.141,1.55-3.844c-2.225,2.104-1.692,2.609-4.572,6.232c-0.777-0.241,1.823-2.513,1.464-3.39l-2.68,4.325
			c-0.022-0.043-0.079-0.056-0.126-0.09c0.602,1.331-2.34,3.099-3.957,5.761c-4.583,5.773-4.039,7.696-6.029,11.49
			c-1.004,0.595-1.465,0.618-1.391,0.057c1.647-0.983,1.097-1.041,1.274-1.736c-1.576,1.977-4.632,3.205-4.064,1.83
			c-2.456,3.127,1.482-0.575,0.107,1.458c-1.263,1.301-2.547,2.593-3.854,3.848c0.92,0.009,2.389-1.262,0.74,1.101
			c-1.557,1.837-2.509,2.516-4.813,4.639c0.11-0.549-1.391-0.053,0.337-1.63c-1.253,0.868-3.037,2.393-3.278,3.487
			c2.974-1.817-3.847,4.124-1.265,3.204l-3.017,1.756c0.61-0.491,0.412-0.862,1.365-1.516c-1.375-0.12-1.977,1.997-2.844,2.834
			c-1.046,0.635-3.607,2.458-4.036,2.321c-0.682,0.894-2.964,2.268-3.657,2.154c-1.181,1.117,0.281,0.605,0.094,1.147l-4.552,3.064
			c-0.555-0.295-1.791-1.316-1.224-1.934c-1.426,1.552,0.295,1.756-2.34,3.432c0.935-1.843-3.926,1.485-2.425-0.957
			c-1.907,0.294-6.176,2.914-8.483,4.473c-1.087,1.579,2.864-1.044,3.147-0.207c-6.669,4.111-6.063,6.392-11.503,8.586l1.479-0.425
			c-3.09,1.991-2.76,1.733-4.41,3.275c0.466-1.398-4.934-0.914-10.381,1.381c-0.281,0.687,3.493-0.221,2.9,0.92l-3.674,1.562
			c-0.298,0.025,0.043-0.301,0.478-0.611c-3.228,1.606-6.709,0.877-7.292,2.382l-3.92-0.431l1.564,0.24
			c-0.314,0.64-4.091,1.957-4.846,2.348c-3.78,1.659-5.373,1.517-7.691,1.372c0.79,0.281,2.768,0.865-0.351,1.736
			c-0.341-1.673-6.743,0.756-6.831-0.175c-1.274,0.262-3.626,0.094-3.659,0.84l0.041-1.106c-0.041,1.565-4.737,2.227-8.313,2.9
			c0.585-2.121-3.947,0.584-5.717-1.154c-0.558,1.476-6.346,0.997-6.927,2.178c-2.794,0.187-2.556-1.154-3.275-1.57l-1.278,0.556
			c-1.415-0.611-6.609-0.716-9.67-1.297l-2.93,1.104l-1.037-0.622c-0.475,0.28-2.884,0.301-1.429,0.862l-1.552-0.184
			c-0.234,1.352-2.22,0.194-5.409,0.462c-0.703-0.299-0.475-0.593,0.228-0.696c-1.556-0.19-0.81-0.803-1.606-1.348
			c1.078,0.492-5.891,1.716-1.766,2.837c0.225,0.595-2.305,0.669-3.814,0.199l-0.755-1.326l-2.041,0.97
			c-2.439-0.211-3.332-1.165-5.232-1.673c2.001,0.305,4.784-1.469-0.264-2.393c2.68,0.362,4.097-0.073,5.513-0.109
			c-1.037-0.221-1.532-0.419,0.174-0.662c-3.991-0.277-1.445,0.525-5.346-0.047c0.418-1.021-0.602-1.55-3.861-2.643l2.342,1.314
			c-0.144,0.107-0.334,0.163-0.545,0.187c0.927,0.318,1.168,0.543,1.289,0.984c-0.75-0.16-4.78,0.374-5.275-0.436
			c3.522,2.593-7.108-0.382-4.87,1.201c-0.519,0.184-3.265-0.468-3.392-1.077c3.445,0.104-2.088-1.87-1.338-2.466
			c-1.275-0.044,2.288,1.503,0.562,1.433c-1.931-0.486-3.141-1.532-4.082-2.208l0.846,0.053l-2.759-1.385
			c-0.65,0.358,2.539,1.773-0.238,1.185c-0.639-0.432-3.398-1.107-3.178-1.475c1.516-0.271,0.92-1.522,3.232-0.924
			c-1.903-0.528-7.847-2.571-5.814-0.753l-2.208-0.856c1.217,0.94,4.87,3.175,0.328,1.646l0.12-0.191l-3.409-0.444l-1.14-1.058
			c-0.06,0.268-0.658,0.325-1.783-0.187c-0.17-0.433-1.19-1.004-0.93-1.368c-3.313-1.352-3.249-0.797-3.815-0.686
			c-1.855-0.766-2.444-1.285-1.321-1.473c-2.424-1.274-6.752-3.317-8.117-4.709c-3.439-1.338,0.552,0.559-1.676,0.173
			c-1.892-3.114-10.103-6.636-15.15-9.897c0.394,2.277-1.459-0.755-3.233-0.177c1.345,0.334-3.849-4.379,0.669-1.679l-2.688-1.737
			c-1.208-1.999,4.661,2.537,2.748-0.397c-2.886-2.02-5.859-2.02-8.746-5.148c1.825,0-2.744-1.757-1.101-2.081
			c0.931,0.248,1.745,1.075,2.727,1.74l-0.424-0.64c-5.722-5.234-2.624-0.367-6.27-2.421c-3.668-3.07-2.178-3.195-2.007-3.791
			c-0.379-0.669-2.245-2.163-3.363-2.806c2.595,1.464,3.4,4.205,1.921,3.837c-0.639-2.385-5.047-4.965-6.351-5.543
			c3.899,5.82,3.301,3.392,7.047,8.881c0.966,0.261,1.602-0.679,4.233,2.188c-2.244-1.127-0.31,0.612,0.089,1.212
			c-0.13-1.002,2.251,1.514,3.368,2.02c0.493,1.114-2.833-0.234,0.081,2.47l1.599-0.814c1.073,1.131-1.26,0.543,1.594,2.235
			c-1.927-0.418-0.385,1.396-4.09-1.171c3.377,4.406,7.013,4.422,10.744,6.265c-0.406-0.159-0.568-0.006-0.98-0.15
			c0.986,0.141,2.277,1.099,3.356,1.68c2.088,1.807-2.219-0.575-1.871,0.17l3.742,2.409c0.05,0.094,0.052,0.13,0.032,0.157
			c1.102,0.457,2.14,0.896,2.271,1.462c-1.399-0.261-2.154-0.057-3.131-0.205l4.596,1.533c-0.736,0.208,2.876,2.752-0.228,1.397
			c2.055,1.108,4.095,2.231,6.183,3.266l-0.014,1.252c1.567,0.641,1.711,0.468,0.014-0.613c1.977,1.445,10.291,3.12,8.221,4.481
			c5.371,1.513,7.016,2.689,13.394,4.613c-5.147-0.916,5.027,3.292-0.221,1.786c2.828,1.56,3.858,0.71,6.282,1.332
			c2.071,1.208,0.743,1.893-1.819,1.428l3.007,0.512l-0.12,0.188l2.675,0.217c2.459,1.385,0.218,1.248,2.924,2.214l0.88-0.759
			l1.703,1.086c-0.579-0.624,1.102-0.33,3.128,0.114l-0.104,0.198l2.489,0.461c-2.566-0.036,2.188,0.76,0.91,1.148
			c2.09,0.544,2.137,0.581,6.001,1.213l-0.532-0.792c5.091,0.479-0.002,1.031,4.044,1.881l-0.11-0.798
			c5.626,2.35,10.045,0.964,14.27,2.249c-2.515-0.114-1.989,0.836-1.917,0.625c3.793,0.228,9.958,0.924,13.909,0.158
			c1.382,1.16,1.707,1.538,5.754,2.106c2.947-0.03,3.384-0.17,4.341-0.8c2.857,0.432,8.172-0.445,8.349,0.332
			c0.629-0.656,2.575-0.018,4.104-0.68l0.354,0.301l-0.307-0.742c5.197,1.298,8.358-1.723,13.581-1.008l-0.841,0.329l2.081-0.606
			c0.392,0.277-0.44,0.609-0.478,1.057c3.308-0.454,6.606-1.02,9.888-1.642l-2.044-0.184c2.057-0.462,3.264-1.521,5.709-1.568
			c-3.632,2.003,3.248-0.707,4.082-0.044l-2.023,0.81c2.845-0.772,2.843-0.776,2.415-1.458c3.599-1.252,2.923,0.756,6.073-1.024
			l-2.419,0.656c-0.832-0.241,0.741-1.291,2.336-1.767c0.407,0.006,1.64-0.01,0.444,0.448c2.794-1.097,7.18-2.146,8.315-2.891
			c1.617-0.311,1.291,0.378,0.53,0.859c5.813-2.81,2.809-0.809,8.55-3.786l0.063,0.445l1.846-1.315l3.262-0.411l-1.267-0.06
			c1.909-0.902,2.985-1.724,5.311-2.543l-0.626,0.998c5.226-2.857,6.725-2.038,11.304-5.523c0.397-0.087-0.273,0.525-0.622,0.833
			c4.098-3.449,4.066-0.937,8.008-4.714c-0.168,0.358,0.469,0.277,0.391,0.549l1.828-1.639l0.304,0.835l0.983-2.126l1.733-0.067
			l0.555-0.869c3.09-0.033,5.411-3.138,8.995-4.252l-1.15-0.519c5.8-6.994,16.828-11.725,23.695-20.265l0.488,0.74l2.339-3.932
			c2.154-1.267-0.442,1.553,0.397,1.318c2.904-3.833,0.425-2.317,3.914-6.613c2.278-1.775-0.13,1.186-0.817,2.365
			c3.176-4.145,7.566-10.409,10.131-13.088c-0.052-0.138-0.041-0.412-0.192-0.289c1.756-2.994,4.682-6.502,6.704-9.737
			c0.288,0.295-0.182,1.117-0.636,1.96c0.799-1.113,2.078-2.532,2.339-3.749l-0.128,1.615c1.729-2.395,4.021-7.607,5.109-7.743
			c-0.476,0.136-0.951-0.306,0.304-2.503c1.88-0.582,2.811-6.318,5.194-9.65c0.073,0.572-1.187,3.278-0.799,2.528
			c1.224-1.672,1.468-3.592,1.833-5.392l0.253,0.719c1.118-2.97,2.156-5.958,3.094-8.975c1.824-0.796,3.005-8.403,3.668-7.473
			c1.154-3.181-1.489,2.482-0.229-1.6c0.922-0.893,0.967-3.742,1.737-3.307l-0.045,0.468l0.851-2.871l0.234,2.052
			c0.639-2.52,0.311-4.58-0.271-4.877c1.175-2.194,1.646-5.644,2.686-6.53l-0.024,0.934c1.356-6.693,4.853-10.631,4.32-16.249
			c0.186-0.383,0.392-0.298,0.24,0.536l0.712-4.207l0.495,1.101c0.021-2.382,0-4.757-0.077-7.129l0.418,0.137
			c0.721-4.61,1.03-11.916,0.967-17.909l0.188,0.899c-0.581-6.543,0.455-6.321-0.145-11.106c0.12,0.168,0.172,0.325,0.198,0.496
			l-0.215-4.306l0.474,0.93c-1.064-3.124,0.53-9.223-0.077-7.193c-0.59-1.774-1.403-4.818-2.018-5.276
			c-0.637-4.649,0.438-1.212,0.397-4.146c-0.448-3.381-1.276-3.856-1.709-8.455l0.449,0.013l-1.765-6.282l0.401,0.829
			c-1.956-4.568-0.145-6.287-2.994-9.519c-0.173-2.085-1.593-5.735-0.691-5.809c-2.361-5.682-4.211-10.061-6.81-15.533
			c0.936-1.435-0.537-1.184-1.271-4.858l-0.598,0.554c-3.488-7.757-6.389-17.415-11.767-25.325l0.512-0.632l-1.733-1.159
			c-5.195-8.832-13.196-19.497-18.804-25.468c-2.106-1.723-5.541-4.038-8.385-7.177l0.395,0.236l-17.715-15.013
			c0.596,0.052,0.101-0.612,0.947-0.227c-2.034-0.504-3.792-2.837-5.199-3.861l1.297,1.654c-2.274-0.774-4.532-3.236-5.196-4.343
			l-3.476-1.343c-0.151-0.195-0.4-0.497-0.371-0.627l-0.759-0.007l-1.069-1.9c-0.879-0.304-5.107-2.616-6.904-2.502
			c-0.12-0.465-2.916-2.396-0.564-1.238c-3.785-2.266-7.635-4.452-11.581-6.449l1.699,1.224c-0.127,0.81-3.863-0.539-5.593-1.675
			c2.707,0.56,0.673-0.891-0.157-1.884c-1.809-0.375,1.145,1.265,0.106,1.254c-2.26-0.505-6.743-2.126-7.722-2.877l1.37,0.223
			c-2.949-0.878-3.763-2.665-6.646-3.649c-2.762-0.394-4.489-1.531-4.386-0.123c-3.793-1.015-1.138-1.343-2.305-1.863
			c-1.949,0.001-7.077-1.967-7.589-2.78c-2.557,1.231-10.103-3.343-11.283-1.87l-2.968-1.575c-0.189,0.405-1.017,1.241-3.606,0.934
			c-2.323-0.92-1.627-1.532-2.29-2.104l-1.905,1.32c-13.761-4.115-32.703-3.769-48.338-3.611c-6.945,0.977-15.514,2.96-23.483,4.519
			l0.837-0.396c-2.666,0.415-5.322,0.915-7.981,1.427l5.891-0.656c-1.689,0.547-2.934,1.218-4.596,1.59
			c-8.718,1.471-20.371,4.4-30.046,9.619c-5.65,4.596-5.008,0.425-10.501,4.658c0.437-0.42,0.512-0.745,0.897-1.143
			c-6.231,3.884-9.534,6.138-15.117,10.905c-0.306-2.021-3.954,2.601-3.933,1.45l-0.084,0.955c-1.619,0.485-4.814,2.583-4.683,1.816
			l-2.06,2.636l-0.682-0.455c-3.529,2.429-10.215,8.681-12.889,9.042c-7.323,7.731-19.147,19.438-27.296,29.976
			c-0.61,1.876-2.85,5.017-4.488,7.556l-2.561,2.178c-1.478,2.727-2.206,6.094-4.153,8.257c-0.087-0.068-0.093-0.209-0.033-0.408
			c-1.436,2.771-3.309,5.143-3.931,8.11c-1.649,2.982-3.515,5.769-3.826,4.456c1.182,0.94-3.313,6.473-3.298,6.5
			c0.108,0.028-5.085,9.88-9.969,26.46c-4.9,16.506-8.743,40.046-6.807,64.88c1.683,24.808,9.376,50.404,20.216,70.243
			c10.709,19.987,23.906,34.101,32.472,40.482c1.511,0.556,4.5,3.084,4.147,1.385c2.265,1.957,2.275,3.868,3.213,3.76
			c-2.454-3.271,2.258-0.458,0.203-3.943l1.874,1.688c0.744,0.003-2.81-2.04-1.678-2.268l-1.512,0.455
			c-1.269-1.622-1.778-2.673-1.917-3.516c-1.697-1.03-3.964-0.706-6.313-4.763l0.874,0.926c-2.435-2.854-0.762-2.346-1.081-3.094
			l0.516,0.648l-1.434-2.874c1.121,2.148,4.511,4.426,3.137,2.901c-2.509-3.652,0.468,1.101-1.777-1.345
			c-1.374-1.546-0.409-1.568-0.017-1.77l-2.314-2.859c0.601-0.299,1.475,1.936,1.094,0.35l-3.359-3.264
			c0.807-1.643-3.615-3.633-3.514-6.27c2.19,2.52,0.28-0.548,1.032-0.421c-1.548-2.208-3.038-4.452-4.488-6.727
			c-0.214-0.767,1.566,1.527,0.841,0.538c-0.436-1.516-1.644-1.924-2.064-2.633c-0.005-0.806-3.042-5.211-1.967-5.549
			c-1.927-5.146-2.367-1.35-4.123-6.182c0.292-0.894,1.966,3.538,1.552,1.214l-2.552-4.619c0.497,0.295,1.399,0.468,2.157,2.284
			c-5.412-13.217-4.636-21.476-8.954-33.359c0.295-1.932,0.853,1.104,1.695,2.18c-3.442-8.586-1.468-12.861-2.857-20.397
			l-0.662-0.04c0.272-10.891-1.736-23.672-0.228-35.777l-0.524,1.422c-0.583-1.694-0.456-4.395-0.606-6.413
			c0.361-0.277,1.257,1.542,1.315-1.971c-0.302,0.7-0.683,2.159-0.962,1.693c1.285-5.131,2.525-13.111,4.648-21.756
			c2.037-8.652,5.02-17.933,8.501-25.676c7.843-21.683,22.976-42.084,38.791-58.025c-2.388,2.47-2.51,0.309-0.4-1.282
			c6.967-2.958,8.757-8.758,15.659-11.816c9.926-8.788,21.141-12.835,31.194-19.905l0.545,0.597c1.803-0.442,2.008-1.166,3.74-1.99
			l0.046,0.217c4.229-1.583,9.052-4.26,11.647-4.755l-0.137-0.872c2.529-0.957,1.536,0.147,4.004-1.176l0.06,0.437l2.827-1.756
			c0.13,1.522,7.336-2.047,9.642-1.807c3.301-1.109,9.688-3.121,14.996-3.576c1.09,0.592,7.516-0.266,11.657-0.174
			c7.968-0.906,19.519-1.272,29.684,0.009l-0.093-0.999L255.284,85c-0.06,0.213,0.284,0.37-0.127,0.425
			c1.93,1.326,6.179,0.405,8.209,1.439c-1.197-1.103-1.84-0.407-3.341-0.649c-2.117-0.771,0.096-1.425,2.979-0.518l-0.094,0.202
			l2.091-0.179c0.097,0.805,1.856,1.437,1.939,2.247c8.632,1.422,14.826,1.605,23.406,4.736c-1.154,0.495,6.258,1.931,4.024,2.737
			c5.291,1.364-0.426-1.446,2.274-1.566c1.436,0.544,3.09,0.75,3.145,1.375c-0.8,0.066,0.816,1.306-0.39,0.968l3.427,1.265
			c0.271,0.244-0.542,0.115-0.952,0.051c7.214,2.091,11.556,6.274,17.755,8.709c0.695-0.231-2.24-1.403-1.557-1.644
			c6.423,2.317,4.691,3.723,10.397,6.352l-1.486-0.065c1.964,0.647,3.077,0.583,5.49,2.938c-0.01,1.034-2.727-0.987-4.293-1.494
			c1.9,1.224,6.727,4.309,5.756,2.668c2.41,1.328,2.729,2.572,3.779,3.615c0.169-0.143-1.709-1.962-0.176-1.354
			c2.7,2.59,7.206,6.119,10.571,9.161c-0.178,0.132-0.157,0.592-0.522,0.41C351.057,128.401,349.494,129.561,353.268,132.783"/>
		<path fill="#9CCC65" d="M206.825,426.005c-4.269-0.404-8.51-1.04-12.792-1.735c1.378-0.291,1.161-1.11,3.978-0.412
			c-5.195-2.104-6.37-1.033-10.628-2.958c-0.529-2.404,7.704,2.808,5.874,0.098c-3.081-1.026-7.578-2.793-10.709-2.228l-4.137-3.408
			l0.645,2.813c1.646,1.499,4.613,0.07,5.178,2.048c0.228,1.164-1.803,0.498-3.275,0.12c3.268,0.926,7.865,5.295,14.565,7.275
			C202.563,429.711,202.025,425.728,206.825,426.005"/>
		<path fill="#9CCC65" d="M179.578,420.165c0.402-0.02,0.85,0.036,1.318,0.163C180.308,420.181,179.792,420.064,179.578,420.165"/>
		<path fill="#9CCC65" d="M172.461,410.447c-1.82,1.629-7.628-4.346-9.29-3.379c4.251,2.372,6.958,5.61,5.436,6.21
			c1.74,0.617,3.442,1.291,5.192,1.854C175.805,415.147,174.44,412.695,172.461,410.447"/>
		<path fill="#9CCC65" d="M132.714,388.678l4.787,3.311c-0.254-4.836,2.401-1.206-2.64-8.903c-2.715-1.592-8.559-5.426-8.878-3.817
			c1.743,1.466,5.072,2.73,7.279,5.238c-1.761-0.159-4.337-2.662-6.494-2.869c3.221,4.532,3.107,1.705,7.252,6.007L132.714,388.678z
			"/>
		<path fill="#9CCC65" d="M140.251,390.283c-0.804,0.157-1.616,0.288-1.865,0.729C139.204,390.882,141.85,392.036,140.251,390.283"
			/>
		<path fill="#9CCC65" d="M155.304,400.931l1.539,0.743C156.564,401.048,155.993,401.037,155.304,400.931"/>
		<path fill="#9CCC65" d="M161.696,404.613c-0.839-1.462-2.673-1.986-4.854-2.939l0.114,0.24c1.371,1.695-1.157,2.034-3.737-0.185
			c-3.132-1.659-1.94-2.825-5.046-3.686l2.668,3.482C155.579,404.473,159.549,404.055,161.696,404.613"/>
		<path fill="#9CCC65" d="M143.198,392.137c2.776,2.294-0.843,1.011-0.688,1.378l4.678,0.632L143.198,392.137z"/>
		<path fill="#9CCC65" d="M155.304,400.931c-0.55-0.291-1.104-0.599-1.693-0.983C154.185,400.649,154.768,400.83,155.304,400.931"/>
	</g>
</g>
<polyline fill="none" points="-154.694,-14.681 525.246,-12.299 525.246,501.784 -154.694,499.402 "/>
<polyline fill="none" points="-154.694,-14.681 525.246,-12.299 525.246,501.784 -154.694,499.402 "/>
<polyline fill="none" points="-154.694,-14.681 525.246,-12.299 525.246,501.784 -154.694,499.402 "/>
<polyline fill="none" points="-154.694,-14.681 525.246,-12.299 525.246,501.784 -154.694,499.402 "/>
<path d="M44.602,448.203c0,0,45.129,11.952,83.774,11.219c24.925-0.476,276.729-9.941,348.487-93.126
	C476.863,366.296,187.507,403.129,44.602,448.203"/>
<polyline fill="none" points="-154.694,-14.681 525.246,-12.299 525.246,501.784 -154.694,499.402 "/>
<path d="M388.693,406.908c0,0,7.693,27.871,42.563,21.626c0,0-33.864-9.176-21.722-26.62"/>
<polyline fill="none" points="-154.694,-14.681 525.246,-12.299 525.246,501.784 -154.694,499.402 "/>
<path d="M245.905,321.312c13.063,8.681,14.44,39.993,16.504,57.956c-4.587,5.359-2.378,11.876-5.95,24.031
	c3.572-0.562,7.151-1.128,10.721-1.689c1.572-0.248,6.342-8.995,7.835-12.172c-1.098-14.274,24.044-58.399,53.142-72.331
	C318.239,306.532,269.527,316.375,245.905,321.312 M392.84,361.194c-1.255-5.987-3.537-4.974-4.622-11.182
	c-0.191-17.789-15.358-26.942-20.667-45.355c-2.976-10.35-1.48-24.854-4.656-36.936c-4.866-18.514-28.394-31.409-29.63-40.294
	c-0.883-6.453,5.03-10.504,7.082-16.919c6.522-20.432-38.573-14.962-40.941-26.141c-4.967-23.442,78.288-17.546,51.16-73.692
	c-12.439,70.966-65.972,47.212-55.101,77.997c2.896,8.202,36.876,8.575,38.779,15.05c6.61,22.475-32.185,22.77-52.126,23.546
	c-26.175,1.02-39.588-32.902-41.732-29.98c0.924-1.789-3.813-1.062,4.579-3.729c9.534-2.73,29.5-9.637,29.058-23.643
	c-8.06-8.724-17.734-13.83-25.903-21.312c0.131-2.094,0.589-8.23,1.68-9.841c6.088-4.761,19.334,0.688,20.729-11.226
	c2.095-4.887-3.039-13.909-3.635-13.795c9.028,21.88-30.401,7.222-30.2,24.382c0.017,1.642-0.061,2.885,0.087,3.977
	c-7.671-0.799-15.962,0.535-22.977,3.439c-1.379-2.003-7.285-5.379-6.302-8.905c9.925-14.929,42.075-8.82,37.297-33.829
	c-0.643-1.033-2.633-6.686-2.633-6.686c-0.726,29.741-69.126,14.833-56.07,52.527c2.186,6.317,5.065,8.367,9.571,10.882l-8.67-1.92
	c-8.451,3.06-13.783,6.295-12.933,7.072c0.85,0.777,1.622,1.662,2.636,1.967c7.851,2.354,16.415,0.732,16.415,0.732
	c-19.285,6.597-40.28,37.738-41.946,69.757c-21.905-0.742-42.785,17.937-45.387,34.638c1.074,6.725,14.885,18.929,20.585,29.563
	c5.204,4.242,16.441,3.489,16.441,3.489c8.156-9.257,0.518-11.497-3.02-18.967c-10.798-0.275-11.663-9.352-14.233-16.136
	c14.27-3.654,14.167,1.888,27.891-1.02c3.401,5.665,8.318,17.396,23.8,15.877c-5.854-10.744-15.216-35.954-9.316-44.476
	c-6.539,19.049,12.534,36.07,11.882,51.599c-0.465,10.928-11.724,14.135-17.053,23.348c-5.386,13.146-11.084,22.763-16.544,34.2
	c-3.663,9.801-1.729,12.256-1.93,18.539c5.885-1.808,9.219-0.114,12.482,1.679c0,0,5.98-15.682,10.468-18.666
	c7.606-44.499,65.021-53.013,76.541-94.7c-3.528,20.183-19.758,32.877-33.868,45.415c20.057,35.658,72.274,4.599,103.595,8.88
	c37.278,5.1,71.562,34.368,63.561,69.324c1.746-0.415,7.958,0.658,12.293,0.491C387.56,369.825,391.285,369.173,392.84,361.194"/>
<polyline fill="none" points="-154.694,-14.681 525.246,-12.299 525.246,501.784 -154.694,499.402 "/>
<path d="M123.775,422.935c-7.143,3.739-28.575,1.314-34.69-3.931c-5.398-29.118,8.359-61.531,23.345-76.014
	c7.255-63.353,15.859-138.491,23.714-207.05c2.358-20.596-1.002-63.272,12.369-56.869c-8.26,83.104-24.79,212.082-38.461,310.271
	c7.667-7.954,4.415-29.549,7.83-42.815C132.5,360.522,134.472,397.525,123.775,422.935"/>
<polyline fill="none" points="-154.694,-14.681 525.246,-12.299 525.246,501.784 -154.694,499.402 "/>
<path fill="#FFFFFF" d="M398.624,392.515c0.785-0.137,1.254,0.394,1.313,1.08c0.212,2.422-3.281,3.034-4.397,3.23
	C395.687,395.812,396.179,392.946,398.624,392.515 M401.306,400.19c-0.061-0.096-0.089-0.17-0.224-0.144
	c-0.392,0.064-1.677,1.361-3.215,1.63c-2.447,0.429-2.417-1.633-2.488-2.425c1.485-0.262,8.096-1.422,7.663-6.387
	c-0.186-2.104-1.711-3.225-4.155-2.796c-4.014,0.702-7.04,5.023-6.579,10.287c0.259,2.919,1.838,4.642,4.958,4.093
	c2.659-0.465,4.967-2.177,4.938-2.515c-0.006-0.08-0.067-0.15-0.098-0.226L401.306,400.19z M388.152,402.767
	c-0.026-0.047-0.141-0.106-0.216-0.094c-0.318,0.055-0.94,0.779-2.162,0.99c-1.276,0.228-1.986-0.317-2.111-1.765
	c-0.295-3.366,0.841-6.638,3.188-7.053c1.64-0.287,2.115,0.297,2.346,0.258c0.077-0.013,0.157-0.054,0.22-0.197l0.851-1.803
	c0.043-0.087,0.135-0.268,0.127-0.345c-0.026-0.261-1.564-0.928-3.596-0.569c-3.957,0.696-6.941,4.61-6.464,10.025
	c0.3,3.422,2.427,4.784,5.293,4.278c1.482-0.261,3.476-1.358,3.433-1.829c-0.006-0.107-0.071-0.174-0.104-0.248L388.152,402.767z
	 M376.129,407.253c0.123-0.077,0.3-0.16,0.284-0.341c-0.031-0.319-0.268-0.918-0.349-1.543c-0.033-0.395-0.033-1.304,0.044-1.902
	l0.996-8.534c0.016-0.11,0.034-0.221,0.024-0.324c-0.015-0.134-0.101-0.254-0.313-0.214l-2.058,0.36
	c-0.18,0.034-0.277,0.104-0.341,0.328l-0.225,0.756c-0.45-0.375-1.317-1.207-3.008-0.909c-3.311,0.581-5.789,5.418-5.334,10.627
	c0.245,2.76,1.371,4.165,3.271,3.826c2.265-0.395,3.47-2.338,3.987-3.097c0.114,1.314,0.416,2.328,0.702,2.278
	c0.128-0.023,0.229-0.094,0.306-0.131L376.129,407.253z M373.178,402.298c-0.218,1.717-1.032,3.892-2.957,4.233
	c-0.706,0.12-1.145-0.362-1.238-1.393c-0.24-2.736,0.506-7.514,2.721-7.901c0.938-0.167,1.591,0.361,2.009,0.612L373.178,402.298z
	 M355.132,401.191l0.618-5.321l1.093-0.19c1.356-0.238,2.419-0.131,2.554,1.397c0.2,2.315-1.138,3.565-3.483,3.974L355.132,401.191z
	 M354.783,404.131l1.305-0.227l2.807,6.984c0.069,0.174,0.18,0.264,0.311,0.24c0.134-0.022,0.281-0.103,0.411-0.152l2.393-1.061
	c0.174-0.084,0.273-0.181,0.262-0.315c-0.009-0.104-0.161-0.345-0.194-0.444l-3.019-6.363c2.477-1.284,3.92-4.073,3.674-6.913
	c-0.313-3.522-3.009-3.586-5.769-3.102l-3.853,0.676c-0.314,0.054-0.392,0.097-0.438,0.448l-2.07,17.588
	c-0.021,0.111-0.03,0.325-0.021,0.406c0.015,0.156,0.078,0.277,0.414,0.22l2.527-0.444c0.314-0.055,0.388-0.094,0.435-0.449
	L354.783,404.131z M337.995,411.967c-0.041-0.155-0.12-0.164-0.198-0.151c-0.126,0.022-0.506,0.273-0.946,0.352
	c-0.392,0.066-0.616-0.054-0.646-0.419c-0.032-0.368,0.092-1.061,0.167-1.712l1.738-14.193c0.017-0.161,0.045-0.382,0.034-0.539
	c-0.016-0.184-0.049-0.257-0.152-0.24c-0.08,0.018-0.258,0.098-0.359,0.144l-2.245,0.873c-0.386,0.147-0.402,0.258-0.433,0.529
	l-1.703,14.002c-0.125,0.953-0.147,1.894-0.063,2.837c0.151,1.709,1.208,2.03,2.717,1.766c1.014-0.181,2.595-0.829,2.562-1.225
	c-0.006-0.077-0.045-0.177-0.051-0.258L337.995,411.967z M325.725,405.302c0.783-0.137,1.25,0.399,1.312,1.084
	c0.214,2.423-3.279,3.034-4.399,3.229C322.788,408.597,323.277,405.733,325.725,405.302 M328.411,412.979
	c-0.06-0.093-0.099-0.168-0.229-0.147c-0.388,0.066-1.675,1.361-3.215,1.633c-2.447,0.428-2.417-1.633-2.484-2.428
	c1.481-0.26,8.096-1.416,7.661-6.387c-0.188-2.104-1.713-3.222-4.159-2.793c-4.01,0.706-7.042,5.024-6.575,10.282
	c0.261,2.923,1.836,4.646,4.96,4.098c2.651-0.465,4.967-2.177,4.93-2.519c-0.006-0.077-0.063-0.147-0.098-0.225L328.411,412.979z
	 M314.968,417.98c0.122-0.077,0.304-0.16,0.288-0.341c-0.031-0.318-0.266-0.917-0.35-1.543c-0.026-0.314-0.094-0.785-0.016-1.388
	l1.788-15.106c0.019-0.16,0.047-0.382,0.037-0.516c-0.019-0.206-0.053-0.283-0.157-0.264c-0.077,0.017-0.257,0.101-0.354,0.141
	l-2.25,0.876c-0.381,0.147-0.397,0.257-0.428,0.532l-0.657,5.452c-0.438-0.163-1.046-0.482-2.317-0.257
	c-4.509,0.789-6.112,6.887-5.737,11.099c0.23,2.626,1.332,3.77,3.178,3.444c2.319-0.406,3.38-2.22,3.963-3.097
	c0.114,1.318,0.421,2.328,0.704,2.278c0.126-0.023,0.227-0.098,0.304-0.131L314.968,417.98z M312.076,412.719
	c-0.223,1.964-1.193,4.214-2.778,4.495c-0.81,0.145-1.312-0.465-1.409-1.595c-0.241-2.737,0.353-7.115,3.01-7.584
	c0.882-0.153,1.487,0.114,1.708,0.185L312.076,412.719z M300.152,420.579c0.122-0.077,0.302-0.16,0.292-0.341
	c-0.035-0.314-0.27-0.913-0.354-1.542c-0.026-0.318-0.094-0.786-0.016-1.388l1.79-15.106c0.013-0.164,0.047-0.382,0.037-0.516
	c-0.021-0.208-0.051-0.281-0.155-0.265c-0.079,0.014-0.261,0.097-0.361,0.145l-2.247,0.872c-0.382,0.147-0.397,0.259-0.427,0.532
	l-0.658,5.456c-0.435-0.167-1.042-0.484-2.317-0.265c-4.505,0.793-6.108,6.895-5.739,11.103c0.23,2.63,1.337,3.77,3.184,3.445
	c2.315-0.408,3.376-2.221,3.961-3.094c0.112,1.312,0.418,2.324,0.7,2.273c0.132-0.022,0.23-0.093,0.308-0.132L300.152,420.579z
	 M297.262,415.317c-0.224,1.964-1.19,4.215-2.782,4.496c-0.807,0.141-1.309-0.466-1.405-1.596c-0.242-2.736,0.351-7.115,3.011-7.58
	c0.884-0.157,1.487,0.11,1.707,0.181L297.262,415.317z M285.493,423.148c0.127-0.077,0.306-0.158,0.288-0.341
	c-0.03-0.319-0.268-0.913-0.345-1.543c-0.037-0.395-0.037-1.304,0.041-1.906l0.997-8.533c0.017-0.107,0.032-0.214,0.022-0.321
	c-0.01-0.131-0.1-0.251-0.31-0.21l-2.055,0.357c-0.185,0.033-0.281,0.101-0.346,0.327l-0.223,0.757
	c-0.455-0.372-1.319-1.208-3.012-0.91c-3.308,0.579-5.786,5.418-5.328,10.627c0.244,2.76,1.368,4.165,3.269,3.83
	c2.265-0.398,3.468-2.342,3.984-3.098c0.116,1.312,0.417,2.325,0.701,2.278c0.131-0.023,0.23-0.094,0.304-0.138L285.493,423.148z
	 M282.548,418.191c-0.216,1.726-1.031,3.896-2.958,4.235c-0.702,0.12-1.146-0.362-1.234-1.39c-0.241-2.735,0.501-7.517,2.72-7.9
	c0.937-0.164,1.589,0.361,2.008,0.609L282.548,418.191z M265.697,416.876l0.619-5.321l1.094-0.191
	c1.352-0.234,2.423-0.126,2.553,1.398c0.207,2.319-1.141,3.569-3.482,3.978L265.697,416.876z M265.351,419.82l1.354-0.238
	c3.85-0.676,7.004-3.284,6.586-8.018c-0.311-3.522-3.007-3.582-5.767-3.098l-3.854,0.673c-0.314,0.056-0.388,0.096-0.437,0.452
	l-2.074,17.584c-0.018,0.11-0.023,0.324-0.018,0.405c0.014,0.156,0.073,0.281,0.419,0.221l2.521-0.445
	c0.314-0.054,0.388-0.093,0.438-0.448L265.351,419.82z M240.188,431.338c0.438,0.163,1.047,0.479,2.325,0.26
	c4.505-0.792,6.108-6.89,5.733-11.102c-0.231-2.63-1.332-3.771-3.182-3.443c-2.318,0.405-3.375,2.219-3.961,3.099
	c-0.114-1.321-0.414-2.331-0.698-2.277c-0.131,0.02-0.228,0.09-0.309,0.13l-2.01,1.181c-0.124,0.07-0.3,0.157-0.284,0.341
	c0.027,0.314,0.265,0.913,0.344,1.54c0.031,0.316,0.097,0.785,0.017,1.387l-1.726,14.619c-0.013,0.163-0.071,0.41-0.057,0.567
	c0.013,0.131,0.02,0.234,0.151,0.216c0.08-0.015,0.284-0.104,0.384-0.148l2.248-0.873c0.385-0.147,0.404-0.261,0.432-0.531
	L240.188,431.338z M240.984,424.442c0.244-1.966,1.188-4.215,2.776-4.496c0.81-0.143,1.312,0.462,1.411,1.596
	c0.238,2.737-0.348,7.165-3.007,7.634c-0.883,0.153-1.491-0.167-1.713-0.233L240.984,424.442z M233.97,415.046
	c0.017-0.109,0.023-0.324,0.017-0.404c-0.013-0.157-0.077-0.28-0.415-0.221l-2.452,0.429c-0.309,0.053-0.386,0.097-0.436,0.451
	l-1.375,12.019c-0.23,1.884-0.772,3.848-3.034,4.245c-1.357,0.237-2.364-0.12-2.491-1.566c-0.051-0.578-0.024-1.17,0.083-1.753
	l1.459-11.683c0.013-0.111,0.023-0.325,0.017-0.405c-0.014-0.156-0.077-0.281-0.418-0.221l-2.525,0.445
	c-0.311,0.053-0.384,0.093-0.435,0.448l-1.378,11.965c-0.09,0.766-0.13,1.519-0.063,2.281c0.261,2.944,2.408,3.957,5.636,3.388
	c5.469-0.955,6.091-4.696,6.452-7.776L233.97,415.046z M206.136,437.071c0.127-0.075,0.305-0.161,0.291-0.345
	c-0.03-0.314-0.268-0.914-0.351-1.539c-0.026-0.317-0.094-0.79-0.014-1.393l1.79-15.106c0.014-0.159,0.047-0.381,0.034-0.512
	c-0.017-0.21-0.05-0.283-0.154-0.267c-0.08,0.016-0.254,0.101-0.358,0.145l-2.252,0.876c-0.381,0.144-0.398,0.257-0.428,0.528
	l-0.656,5.456c-0.438-0.161-1.046-0.484-2.321-0.262c-4.505,0.793-6.108,6.892-5.736,11.102c0.23,2.627,1.335,3.768,3.181,3.446
	c2.318-0.408,3.375-2.221,3.96-3.098c0.114,1.315,0.415,2.329,0.702,2.278c0.128-0.024,0.228-0.095,0.304-0.134L206.136,437.071z
	 M203.246,431.809c-0.224,1.963-1.191,4.215-2.781,4.495c-0.809,0.141-1.311-0.462-1.411-1.595c-0.241-2.736,0.354-7.112,3.014-7.58
	c0.883-0.157,1.489,0.111,1.706,0.185L203.246,431.809z M192.114,431.224c0.096-0.687,0.14-1.412,0.08-2.094
	c-0.127-1.448-1.177-2.597-2.87-2.302c-2.137,0.375-3.462,2.448-4.092,3.412c-0.127-1.473-0.468-2.609-0.752-2.559
	c-0.13,0.022-0.177,0.082-0.254,0.12l-2.01,1.181c-0.124,0.077-0.301,0.16-0.284,0.341c0.04,0.475,0.307,0.803,0.377,1.589
	c0.074,0.844-0.027,1.525-0.124,2.211l-1.074,8.226c0.01,0.107-0.01,0.218,0,0.295c0.017,0.21,0.154,0.24,0.362,0.207l2.418-0.429
	c0.261-0.043,0.311-0.08,0.337-0.377l0.66-5.406c0.25-1.967,0.822-5.375,3.221-5.797c0.549-0.096,0.82,0.284,0.87,0.89
	c0.05,0.552-0.01,1.095-0.093,1.643l-1.061,7.801c0.01,0.104-0.007,0.211,0,0.291c0.02,0.211,0.153,0.241,0.361,0.204l2.422-0.425
	c0.265-0.044,0.311-0.084,0.337-0.379L192.114,431.224z M176.666,442.238c0.124-0.073,0.3-0.157,0.284-0.341
	c-0.027-0.318-0.261-0.913-0.344-1.542c-0.037-0.395-0.037-1.301,0.043-1.902l0.997-8.534c0.013-0.111,0.029-0.222,0.02-0.324
	c-0.01-0.131-0.101-0.251-0.308-0.211l-2.058,0.362c-0.181,0.026-0.28,0.1-0.341,0.323l-0.224,0.76
	c-0.452-0.375-1.318-1.208-3.01-0.913c-3.311,0.581-5.791,5.422-5.331,10.63c0.242,2.756,1.37,4.161,3.267,3.827
	c2.268-0.398,3.472-2.339,3.987-3.098c0.117,1.313,0.418,2.325,0.703,2.277c0.13-0.026,0.227-0.096,0.304-0.133L176.666,442.238z
	 M173.721,437.278c-0.22,1.726-1.033,3.897-2.963,4.238c-0.703,0.12-1.143-0.361-1.231-1.39c-0.241-2.735,0.501-7.516,2.716-7.903
	c0.937-0.164,1.592,0.361,2.01,0.612L173.721,437.278z M163.275,442.402c-0.064-0.12-0.095-0.17-0.224-0.151
	c-0.157,0.031-1.117,0.814-2.292,1.021c-0.675,0.117-1.042-0.137-1.098-0.773c-0.035-0.418,0.004-0.853,0.071-1.294l0.702-6.455
	l3.359-0.59c0.234-0.036,0.258-0.07,0.342-0.324l0.392-1.563c0.013-0.137,0.083-0.255,0.071-0.388
	c-0.015-0.157-0.152-0.238-0.388-0.197l-3.488,0.611l0.436-3.441c0.015-0.134,0.031-0.271,0.021-0.378
	c-0.01-0.127-0.098-0.221-0.201-0.2c-0.134,0.023-0.234,0.066-0.338,0.084l-2.339,0.758c-0.153,0.054-0.282,0.104-0.311,0.349
	l-0.39,3.378l-1.823,0.318c-0.207,0.04-0.328,0.141-0.335,0.382l-0.185,1.498c-0.015,0.109-0.032,0.221-0.022,0.352
	c0.016,0.184,0.127,0.243,0.361,0.204l1.716-0.305l-0.81,6.984c-0.083,0.572-0.114,1.14-0.061,1.719
	c0.168,1.944,1.479,2.436,3.355,2.104c1.666-0.291,4.098-1.465,4.063-1.886c-0.007-0.079-0.041-0.155-0.049-0.231L163.275,442.402z
	 M152.741,429.959c0.063-0.171,0.158-0.324,0.148-0.402c-0.043-0.497-2.804-0.946-4.626-0.628c-3.985,0.698-6.511,3.198-6.177,6.983
	c0.238,2.737,2.174,3.436,3.846,4.109c1.345,0.538,2.554,1.046,2.681,2.495c0.168,1.916-1.176,2.876-2.765,3.154
	c-1.925,0.338-3.661-0.481-3.947-0.429c-0.183,0.03-0.179,0.084-0.267,0.288l-0.821,2.087c-0.064,0.175-0.156,0.324-0.149,0.401
	c0.04,0.476,3.014,0.913,4.964,0.569c4.427-0.776,6.743-3.875,6.432-7.4c-0.132-1.524-0.821-2.448-1.796-3.022
	c-2.206-1.35-4.672-1.399-4.847-3.372c-0.139-1.605,1.011-2.66,2.68-2.955c1.743-0.304,3.27,0.552,3.556,0.5
	c0.182-0.038,0.178-0.088,0.266-0.288L152.741,429.959z"/>
<polyline fill="none" points="-154.694,-14.681 525.246,-12.299 525.246,501.784 -154.694,499.402 "/>
<path d="M398.708,119.339c0.126,0.063,0.354,0.161,0.564-0.013c0.141-0.118,0.182-0.328,0.251-0.448l3.894-9.823l12.533,0.316
	c0.198,0.007,0.4,0.015,0.537-0.104c0.169-0.144,0.148-0.418,0.055-0.636l-1.308-3.408c-0.059-0.125-0.09-0.276-0.186-0.372
	c-0.128-0.127-0.328-0.131-0.526-0.139l-6.365,0.187c-1.6,0.07-2.936,0.149-3.667,0.184c0.244-0.386,0.679-1.283,1.356-2.564
	l2.184-4.146c0.076-0.182,0.013-0.362-0.114-0.488c-0.098-0.095-0.422-0.286-0.555-0.354l-3.426-1.839
	c-0.235-0.101-0.461-0.198-0.598-0.08c-0.135,0.117-0.215,0.357-0.286,0.537l-3.793,8.977l-13.601-0.292
	c-0.2-0.006-0.433,0.017-0.575,0.134c-0.135,0.116-0.081,0.422-0.047,0.514l1.534,3.507c0.03,0.095,0.061,0.248,0.189,0.371
	c0.126,0.125,0.326,0.07,0.528,0.079l7.026-0.105c1.697-0.036,2.8-0.15,3.834-0.267c-0.426,0.774-0.789,1.548-1.327,2.655
	l-2.272,4.811c-0.073,0.119-0.114,0.33,0.017,0.455c0.061,0.063,0.261,0.13,0.422,0.228L398.708,119.339z M374.679,93.736
	c-1.731-1.358-1.213-2.887,0.983-5.215c5.044-5.345,14.767-11.474,18.977-8.178c1.701,1.327,1.179,2.859-1.051,5.221
	C388.549,90.909,378.891,97.031,374.679,93.736 M398.463,89.203c4.177-4.429,4.061-8.674-0.043-11.888
	c-8.138-6.37-20.388-0.107-27.626,7.563c-4.176,4.429-4.032,8.645,0.143,11.913C379.042,103.132,391.255,96.841,398.463,89.203
	 M355.503,63.271l4.173,2.484c0.39,0.229,0.479,0.179,0.834-0.079l2.231-1.699c0.145-0.122,0.33-0.223,0.435-0.368
	c0.104-0.149,0.12-0.398-0.225-0.604l-4.409-2.622l1.491-1.358c1.43-1.288,2.739-2.549,4.746-1.352
	c1.16,0.689,1.589,1.622,1.972,1.853c0.08,0.045,0.221,0.077,0.492-0.073l2.783-1.998c0.119-0.086,0.211-0.137,0.288-0.246
	c0.397-0.547-1.54-2.375-3.157-3.342c-5.295-3.151-8.397-0.872-11.12,1.735l-2.134,2.02l-2.859-1.703
	c-0.422-0.251-0.579-0.187-0.86,0.117l-1.946,1.765c-0.145,0.122-0.287,0.246-0.396,0.389c-0.236,0.328,0.043,0.549,0.275,0.686
	l2.741,1.632l-13.504,12.635c-2.196,2.034-3.879,3.432-6.509,1.869c-0.81-0.481-1.333-1.055-1.452-1.124
	c-0.116-0.07-0.242-0.043-0.454,0.094l-2.666,2.064c-0.146,0.125-0.263,0.212-0.367,0.358c-0.296,0.401,1.207,1.609,2.99,2.666
	c5.254,3.127,9.359,0.297,12.584-2.689L355.503,63.271z M323.926,62.079c-1.711-0.894-1.797-2.251-0.648-4.031
	c2.361-3.673,7.81-8.824,11.521-6.889c1.713,0.895,1.797,2.252,0.652,4.032C333.084,58.86,327.634,64.012,323.926,62.079
	 M340.296,58.17c3.12-4.846,1.927-8.203-2.102-10.301c-6.62-3.451-15.256,0.191-19.77,7.195c-3.12,4.848-1.842,8.244,2.342,10.427
	C327.229,68.859,335.784,65.174,340.296,58.17 M292.429,52.384c0.25-0.034,0.581-0.045,0.685-0.345
	c0.168-0.511,0.201-1.608,0.496-2.644c0.169-0.514,0.381-1.291,0.913-2.181l13.027-22.44c0.129-0.244,0.332-0.565,0.402-0.778
	c0.109-0.343,0.109-0.479-0.063-0.523c-0.133-0.03-0.468-0.017-0.659-0.017l-4.111-0.133c-0.693-0.029-0.8,0.133-1.026,0.538
	l-4.72,8.099c-0.573-0.549-1.313-1.458-3.459-1.964c-7.583-1.783-14.223,6.693-16.491,13.525c-1.422,4.271-0.461,6.797,2.649,7.527
	c3.9,0.918,6.78-1.215,8.289-2.196c-0.709,2.136-0.927,3.926-0.445,4.038c0.218,0.053,0.422,0.008,0.568-0.003L292.429,52.384z
	 M291.457,42.215c-1.678,2.921-4.709,5.798-7.385,5.172c-1.36-0.321-1.733-1.605-1.124-3.442c1.475-4.44,5.362-10.892,9.835-9.841
	c1.491,0.348,2.254,1.174,2.548,1.427L291.457,42.215z M272.104,33.975c0.455-1.089,0.837-2.27,1.03-3.424
	c0.412-2.438-0.826-4.783-3.747-5.014c-3.679-0.295-6.759,2.563-8.211,3.887c0.42-2.482,0.354-4.509-0.141-4.551
	c-0.221-0.018-0.329,0.065-0.47,0.099l-3.826,1.091c-0.234,0.07-0.568,0.133-0.618,0.444c-0.137,0.8,0.164,1.452-0.061,2.782
	c-0.241,1.419-0.699,2.505-1.153,3.594l-5.313,13.105c-0.032,0.177-0.105,0.351-0.126,0.484c-0.061,0.356,0.15,0.46,0.508,0.49
	l4.179,0.331c0.448,0.034,0.541,0,0.715-0.483l3.416-8.628c1.258-3.134,3.674-8.517,7.801-8.188
	c0.943,0.073,1.227,0.816,1.054,1.836c-0.157,0.93-0.488,1.806-0.867,2.674l-5.097,12.401c-0.031,0.178-0.104,0.352-0.127,0.485
	c-0.061,0.355,0.149,0.462,0.508,0.489l4.176,0.332c0.447,0.035,0.544,0,0.719-0.48L272.104,33.975z M238.995,28.688
	c1.347-0.087,2.043,0.901,2.016,2.07c-0.093,4.134-6.114,4.523-8.048,4.649C233.404,33.717,234.77,28.959,238.995,28.688
	 M242.102,42.182c-0.087-0.175-0.13-0.307-0.357-0.294c-0.669,0.043-3.095,1.997-5.744,2.167c-4.225,0.274-3.79-3.214-3.757-4.563
	c2.563-0.164,13.972-0.901,14.167-9.396c0.083-3.596-2.292-5.78-6.517-5.506c-6.921,0.447-12.866,7.204-13.066,16.197
	c-0.114,4.987,2.238,8.204,7.63,7.855c4.582-0.296,8.813-2.768,8.827-3.352c0.003-0.136-0.087-0.266-0.128-0.396L242.102,42.182z
	 M213.983,40.333c-0.408,3.529-1.917,6.342-4.797,6.847c-1.556,0.274-2.352-0.589-2.539-2.692
	c-0.402-4.569,1.006-12.096,4.642-12.734c1.773-0.312,2.978,0.57,3.6,1.005L213.983,40.333z M219.897,34.384
	c0.354-3.157,2.134-5.927,2.094-6.375c-0.013-0.18-0.114-0.298-0.351-0.394l-2.834-1.001c-0.188-0.061-0.469-0.194-0.645-0.16
	c-0.709,0.123-1.857,2.418-2.205,3.07c-1.113-0.896-2.452-2.252-5.466-1.722c-6.472,1.137-9.794,10.455-9.176,17.488
	c0.365,4.12,2.325,6.959,6.229,6.275c3.636-0.638,5.603-3.85,6.232-4.917l0.096,0.073c-0.91,3.981,0.502,8.737-5.044,9.713
	c-3.549,0.624-5.97-0.816-6.68-0.69c-0.177,0.03-0.301,0.144-0.371,0.382l-1.083,3.514c-0.034,0.141-0.11,0.291-0.094,0.468
	c0.077,0.898,4.546,1.522,8.226,0.876c11.265-1.98,9.389-12.022,10.283-19.732L219.897,34.384z M187.889,36.89
	c1.298-0.365,2.187,0.455,2.408,1.605c0.777,4.064-5.032,5.696-6.895,6.22C183.479,42.971,183.813,38.037,187.889,36.89
	 M193.759,49.438c-0.121-0.151-0.188-0.273-0.405-0.211c-0.649,0.182-2.609,2.595-5.165,3.314c-4.075,1.144-4.379-2.353-4.634-3.68
	c2.472-0.694,13.478-3.789,11.883-12.138c-0.68-3.533-3.459-5.176-7.533-4.029c-6.671,1.876-11.064,9.721-9.371,18.558
	c0.94,4.901,3.914,7.557,9.113,6.093c4.422-1.243,8.035-4.539,7.927-5.113c-0.026-0.134-0.136-0.241-0.207-0.361L193.759,49.438z
	 M161.833,33.856c-0.007-0.187-0.061-0.551-0.098-0.681c-0.073-0.259-0.218-0.445-0.765-0.243l-4.091,1.525
	c-0.548,0.204-0.62,0.278-0.592,0.89l2.027,30.099c0.007,0.188,0.06,0.548,0.098,0.679c0.073,0.261,0.215,0.447,0.766,0.241
	l14.209-5.292c0.465-0.174,0.525-0.292,0.592-0.89l0.525-3.783c0.054-0.308,0.037-0.539-0.023-0.756
	c-0.087-0.303-0.375-0.337-0.839-0.167l-10.121,3.77L161.833,33.856z"/>
<polyline fill="none" points="-154.694,-14.681 525.246,-12.299 525.246,501.784 -154.694,499.402 "/>
</svg>
